%TF.GenerationSoftware,KiCad,Pcbnew,9.0.1*%
%TF.CreationDate,2025-07-25T04:15:59+03:00*%
%TF.ProjectId,LED_Project,4c45445f-5072-46f6-9a65-63742e6b6963,Seif Ahmed*%
%TF.SameCoordinates,Original*%
%TF.FileFunction,Copper,L1,Top*%
%TF.FilePolarity,Positive*%
%FSLAX46Y46*%
G04 Gerber Fmt 4.6, Leading zero omitted, Abs format (unit mm)*
G04 Created by KiCad (PCBNEW 9.0.1) date 2025-07-25 04:15:59*
%MOMM*%
%LPD*%
G01*
G04 APERTURE LIST*
%TA.AperFunction,ComponentPad*%
%ADD10C,1.800000*%
%TD*%
%TA.AperFunction,ComponentPad*%
%ADD11R,1.800000X1.800000*%
%TD*%
%TA.AperFunction,ComponentPad*%
%ADD12C,1.400000*%
%TD*%
%TA.AperFunction,ComponentPad*%
%ADD13O,1.400000X1.400000*%
%TD*%
%TA.AperFunction,ComponentPad*%
%ADD14R,3.000000X3.000000*%
%TD*%
%TA.AperFunction,ComponentPad*%
%ADD15C,3.000000*%
%TD*%
%TA.AperFunction,ComponentPad*%
%ADD16R,1.700000X1.700000*%
%TD*%
%TA.AperFunction,ComponentPad*%
%ADD17C,1.700000*%
%TD*%
%TA.AperFunction,Conductor*%
%ADD18C,0.200000*%
%TD*%
G04 APERTURE END LIST*
D10*
%TO.P,D1,2,A*%
%TO.N,/LED_anode*%
X106500000Y-146765000D03*
D11*
%TO.P,D1,1,K*%
%TO.N,/LED_cathode*%
X106500000Y-144225000D03*
%TD*%
D12*
%TO.P,R1,1*%
%TO.N,/LED_anode*%
X119000000Y-149310000D03*
D13*
%TO.P,R1,2*%
%TO.N,Net-(SW1A-A)*%
X119000000Y-141690000D03*
%TD*%
D14*
%TO.P,BT1,1,+*%
%TO.N,Net-(BT1-+)*%
X152000000Y-159075001D03*
D15*
%TO.P,BT1,2,-*%
%TO.N,/LED_cathode*%
X152000000Y-138585001D03*
%TD*%
D16*
%TO.P,SW1,1,A*%
%TO.N,Net-(SW1A-A)*%
X124250000Y-143250000D03*
D17*
X130750000Y-143250000D03*
%TO.P,SW1,2,B*%
%TO.N,Net-(BT1-+)*%
X124250000Y-147750000D03*
X130750000Y-147750000D03*
%TD*%
D18*
%TO.N,/LED_cathode*%
X109275000Y-144225000D02*
X106500000Y-144225000D01*
X113500000Y-140000000D02*
X109275000Y-144225000D01*
X136500000Y-140000000D02*
X113500000Y-140000000D01*
X137914999Y-138585001D02*
X136500000Y-140000000D01*
X152000000Y-138585001D02*
X137914999Y-138585001D01*
%TO.N,/LED_anode*%
X110138000Y-149000000D02*
X118690000Y-149000000D01*
X118690000Y-149000000D02*
X119000000Y-149310000D01*
X107903000Y-146765000D02*
X110138000Y-149000000D01*
X106500000Y-146765000D02*
X107903000Y-146765000D01*
%TO.N,Net-(BT1-+)*%
X152000000Y-155000000D02*
X144750000Y-147750000D01*
X144750000Y-147750000D02*
X130750000Y-147750000D01*
X152000000Y-159075001D02*
X152000000Y-155000000D01*
X124250000Y-147750000D02*
X130750000Y-147750000D01*
%TO.N,Net-(SW1A-A)*%
X124250000Y-143250000D02*
X130750000Y-143250000D01*
X119000000Y-141690000D02*
X122690000Y-141690000D01*
X122690000Y-141690000D02*
X124250000Y-143250000D01*
%TD*%
M02*
