%TF.GenerationSoftware,KiCad,Pcbnew,9.0.1*%
%TF.CreationDate,2025-07-25T04:15:59+03:00*%
%TF.ProjectId,LED_Project,4c45445f-5072-46f6-9a65-63742e6b6963,Seif Ahmed*%
%TF.SameCoordinates,Original*%
%TF.FileFunction,Legend,Top*%
%TF.FilePolarity,Positive*%
%FSLAX46Y46*%
G04 Gerber Fmt 4.6, Leading zero omitted, Abs format (unit mm)*
G04 Created by KiCad (PCBNEW 9.0.1) date 2025-07-25 04:15:59*
%MOMM*%
%LPD*%
G01*
G04 APERTURE LIST*
%ADD10C,0.150000*%
%ADD11C,0.120000*%
G04 APERTURE END LIST*
D10*
X106488866Y-142163220D02*
X106488866Y-141401316D01*
X106336779Y-149488866D02*
X107098684Y-149488866D01*
X106717731Y-149869819D02*
X106717731Y-149107914D01*
X102761905Y-141954819D02*
X102761905Y-140954819D01*
X102761905Y-140954819D02*
X103000000Y-140954819D01*
X103000000Y-140954819D02*
X103142857Y-141002438D01*
X103142857Y-141002438D02*
X103238095Y-141097676D01*
X103238095Y-141097676D02*
X103285714Y-141192914D01*
X103285714Y-141192914D02*
X103333333Y-141383390D01*
X103333333Y-141383390D02*
X103333333Y-141526247D01*
X103333333Y-141526247D02*
X103285714Y-141716723D01*
X103285714Y-141716723D02*
X103238095Y-141811961D01*
X103238095Y-141811961D02*
X103142857Y-141907200D01*
X103142857Y-141907200D02*
X103000000Y-141954819D01*
X103000000Y-141954819D02*
X102761905Y-141954819D01*
X104285714Y-141954819D02*
X103714286Y-141954819D01*
X104000000Y-141954819D02*
X104000000Y-140954819D01*
X104000000Y-140954819D02*
X103904762Y-141097676D01*
X103904762Y-141097676D02*
X103809524Y-141192914D01*
X103809524Y-141192914D02*
X103714286Y-141240533D01*
X117534819Y-145666666D02*
X117058628Y-145999999D01*
X117534819Y-146238094D02*
X116534819Y-146238094D01*
X116534819Y-146238094D02*
X116534819Y-145857142D01*
X116534819Y-145857142D02*
X116582438Y-145761904D01*
X116582438Y-145761904D02*
X116630057Y-145714285D01*
X116630057Y-145714285D02*
X116725295Y-145666666D01*
X116725295Y-145666666D02*
X116868152Y-145666666D01*
X116868152Y-145666666D02*
X116963390Y-145714285D01*
X116963390Y-145714285D02*
X117011009Y-145761904D01*
X117011009Y-145761904D02*
X117058628Y-145857142D01*
X117058628Y-145857142D02*
X117058628Y-146238094D01*
X117534819Y-144714285D02*
X117534819Y-145285713D01*
X117534819Y-144999999D02*
X116534819Y-144999999D01*
X116534819Y-144999999D02*
X116677676Y-145095237D01*
X116677676Y-145095237D02*
X116772914Y-145190475D01*
X116772914Y-145190475D02*
X116820533Y-145285713D01*
X147431009Y-161110715D02*
X147478628Y-160967858D01*
X147478628Y-160967858D02*
X147526247Y-160920239D01*
X147526247Y-160920239D02*
X147621485Y-160872620D01*
X147621485Y-160872620D02*
X147764342Y-160872620D01*
X147764342Y-160872620D02*
X147859580Y-160920239D01*
X147859580Y-160920239D02*
X147907200Y-160967858D01*
X147907200Y-160967858D02*
X147954819Y-161063096D01*
X147954819Y-161063096D02*
X147954819Y-161444048D01*
X147954819Y-161444048D02*
X146954819Y-161444048D01*
X146954819Y-161444048D02*
X146954819Y-161110715D01*
X146954819Y-161110715D02*
X147002438Y-161015477D01*
X147002438Y-161015477D02*
X147050057Y-160967858D01*
X147050057Y-160967858D02*
X147145295Y-160920239D01*
X147145295Y-160920239D02*
X147240533Y-160920239D01*
X147240533Y-160920239D02*
X147335771Y-160967858D01*
X147335771Y-160967858D02*
X147383390Y-161015477D01*
X147383390Y-161015477D02*
X147431009Y-161110715D01*
X147431009Y-161110715D02*
X147431009Y-161444048D01*
X146954819Y-160586905D02*
X146954819Y-160015477D01*
X147954819Y-160301191D02*
X146954819Y-160301191D01*
X147954819Y-159158334D02*
X147954819Y-159729762D01*
X147954819Y-159444048D02*
X146954819Y-159444048D01*
X146954819Y-159444048D02*
X147097676Y-159539286D01*
X147097676Y-159539286D02*
X147192914Y-159634524D01*
X147192914Y-159634524D02*
X147240533Y-159729762D01*
X166931009Y-146146430D02*
X166978628Y-146003573D01*
X166978628Y-146003573D02*
X167026247Y-145955954D01*
X167026247Y-145955954D02*
X167121485Y-145908335D01*
X167121485Y-145908335D02*
X167264342Y-145908335D01*
X167264342Y-145908335D02*
X167359580Y-145955954D01*
X167359580Y-145955954D02*
X167407200Y-146003573D01*
X167407200Y-146003573D02*
X167454819Y-146098811D01*
X167454819Y-146098811D02*
X167454819Y-146479763D01*
X167454819Y-146479763D02*
X166454819Y-146479763D01*
X166454819Y-146479763D02*
X166454819Y-146146430D01*
X166454819Y-146146430D02*
X166502438Y-146051192D01*
X166502438Y-146051192D02*
X166550057Y-146003573D01*
X166550057Y-146003573D02*
X166645295Y-145955954D01*
X166645295Y-145955954D02*
X166740533Y-145955954D01*
X166740533Y-145955954D02*
X166835771Y-146003573D01*
X166835771Y-146003573D02*
X166883390Y-146051192D01*
X166883390Y-146051192D02*
X166931009Y-146146430D01*
X166931009Y-146146430D02*
X166931009Y-146479763D01*
X167454819Y-145051192D02*
X166931009Y-145051192D01*
X166931009Y-145051192D02*
X166835771Y-145098811D01*
X166835771Y-145098811D02*
X166788152Y-145194049D01*
X166788152Y-145194049D02*
X166788152Y-145384525D01*
X166788152Y-145384525D02*
X166835771Y-145479763D01*
X167407200Y-145051192D02*
X167454819Y-145146430D01*
X167454819Y-145146430D02*
X167454819Y-145384525D01*
X167454819Y-145384525D02*
X167407200Y-145479763D01*
X167407200Y-145479763D02*
X167311961Y-145527382D01*
X167311961Y-145527382D02*
X167216723Y-145527382D01*
X167216723Y-145527382D02*
X167121485Y-145479763D01*
X167121485Y-145479763D02*
X167073866Y-145384525D01*
X167073866Y-145384525D02*
X167073866Y-145146430D01*
X167073866Y-145146430D02*
X167026247Y-145051192D01*
X166788152Y-144717858D02*
X166788152Y-144336906D01*
X166454819Y-144575001D02*
X167311961Y-144575001D01*
X167311961Y-144575001D02*
X167407200Y-144527382D01*
X167407200Y-144527382D02*
X167454819Y-144432144D01*
X167454819Y-144432144D02*
X167454819Y-144336906D01*
X166788152Y-144146429D02*
X166788152Y-143765477D01*
X166454819Y-144003572D02*
X167311961Y-144003572D01*
X167311961Y-144003572D02*
X167407200Y-143955953D01*
X167407200Y-143955953D02*
X167454819Y-143860715D01*
X167454819Y-143860715D02*
X167454819Y-143765477D01*
X167407200Y-143051191D02*
X167454819Y-143146429D01*
X167454819Y-143146429D02*
X167454819Y-143336905D01*
X167454819Y-143336905D02*
X167407200Y-143432143D01*
X167407200Y-143432143D02*
X167311961Y-143479762D01*
X167311961Y-143479762D02*
X166931009Y-143479762D01*
X166931009Y-143479762D02*
X166835771Y-143432143D01*
X166835771Y-143432143D02*
X166788152Y-143336905D01*
X166788152Y-143336905D02*
X166788152Y-143146429D01*
X166788152Y-143146429D02*
X166835771Y-143051191D01*
X166835771Y-143051191D02*
X166931009Y-143003572D01*
X166931009Y-143003572D02*
X167026247Y-143003572D01*
X167026247Y-143003572D02*
X167121485Y-143479762D01*
X167454819Y-142575000D02*
X166788152Y-142575000D01*
X166978628Y-142575000D02*
X166883390Y-142527381D01*
X166883390Y-142527381D02*
X166835771Y-142479762D01*
X166835771Y-142479762D02*
X166788152Y-142384524D01*
X166788152Y-142384524D02*
X166788152Y-142289286D01*
X166788152Y-142051190D02*
X167454819Y-141813095D01*
X166788152Y-141575000D02*
X167454819Y-141813095D01*
X167454819Y-141813095D02*
X167692914Y-141908333D01*
X167692914Y-141908333D02*
X167740533Y-141955952D01*
X167740533Y-141955952D02*
X167788152Y-142051190D01*
X152114700Y-156896429D02*
X152114700Y-155753572D01*
X152686128Y-156325000D02*
X151543271Y-156325000D01*
X126166667Y-141607200D02*
X126309524Y-141654819D01*
X126309524Y-141654819D02*
X126547619Y-141654819D01*
X126547619Y-141654819D02*
X126642857Y-141607200D01*
X126642857Y-141607200D02*
X126690476Y-141559580D01*
X126690476Y-141559580D02*
X126738095Y-141464342D01*
X126738095Y-141464342D02*
X126738095Y-141369104D01*
X126738095Y-141369104D02*
X126690476Y-141273866D01*
X126690476Y-141273866D02*
X126642857Y-141226247D01*
X126642857Y-141226247D02*
X126547619Y-141178628D01*
X126547619Y-141178628D02*
X126357143Y-141131009D01*
X126357143Y-141131009D02*
X126261905Y-141083390D01*
X126261905Y-141083390D02*
X126214286Y-141035771D01*
X126214286Y-141035771D02*
X126166667Y-140940533D01*
X126166667Y-140940533D02*
X126166667Y-140845295D01*
X126166667Y-140845295D02*
X126214286Y-140750057D01*
X126214286Y-140750057D02*
X126261905Y-140702438D01*
X126261905Y-140702438D02*
X126357143Y-140654819D01*
X126357143Y-140654819D02*
X126595238Y-140654819D01*
X126595238Y-140654819D02*
X126738095Y-140702438D01*
X127071429Y-140654819D02*
X127309524Y-141654819D01*
X127309524Y-141654819D02*
X127500000Y-140940533D01*
X127500000Y-140940533D02*
X127690476Y-141654819D01*
X127690476Y-141654819D02*
X127928572Y-140654819D01*
X128833333Y-141654819D02*
X128261905Y-141654819D01*
X128547619Y-141654819D02*
X128547619Y-140654819D01*
X128547619Y-140654819D02*
X128452381Y-140797676D01*
X128452381Y-140797676D02*
X128357143Y-140892914D01*
X128357143Y-140892914D02*
X128261905Y-140940533D01*
D11*
%TO.C,D1*%
X109000000Y-145495000D02*
G75*
G02*
X104000000Y-145495000I-2500000J0D01*
G01*
X104000000Y-145495000D02*
G75*
G02*
X109000000Y-145495000I2500000J0D01*
G01*
X106499952Y-148485000D02*
G75*
G02*
X104955170Y-142935000I48J2990000D01*
G01*
X108044830Y-142935000D02*
G75*
G02*
X106500048Y-148485000I-1544830J-2560000D01*
G01*
X108045000Y-142935000D02*
X104955000Y-142935000D01*
%TO.C,R1*%
X119000000Y-148370000D02*
X119000000Y-147420000D01*
X118080000Y-147420000D02*
X119920000Y-147420000D01*
X119920000Y-147420000D02*
X119920000Y-143580000D01*
X118080000Y-143580000D02*
X118080000Y-147420000D01*
X119920000Y-143580000D02*
X118080000Y-143580000D01*
X119000000Y-142630000D02*
X119000000Y-143580000D01*
%TO.C,BT1*%
X155050000Y-160575001D02*
X155050000Y-158125001D01*
X149500000Y-161125001D02*
X154500000Y-161125001D01*
X148950000Y-158125001D02*
X148950000Y-160575001D01*
X155050000Y-160575001D02*
G75*
G02*
X154500000Y-161125001I-549999J-1D01*
G01*
X155050000Y-158125001D02*
G75*
G02*
X155519999Y-157424999I756280J0D01*
G01*
X152000000Y-129875001D02*
G75*
G02*
X155520000Y-157425001I-32J-13999875D01*
G01*
X149500000Y-161125001D02*
G75*
G02*
X148950000Y-160575001I-1J549999D01*
G01*
X148480000Y-157425001D02*
G75*
G02*
X152000000Y-129875001I3520031J13550125D01*
G01*
X148480000Y-157425001D02*
G75*
G02*
X148949998Y-158125001I-286280J-700000D01*
G01*
%TO.C,SW1*%
X124380000Y-146650000D02*
X124380000Y-144450000D01*
X124850000Y-148620000D02*
X130050000Y-148620000D01*
X125450000Y-142380000D02*
X129850000Y-142380000D01*
X130620000Y-144450000D02*
X130620000Y-146650000D01*
X128914214Y-145500000D02*
G75*
G02*
X126085786Y-145500000I-1414214J0D01*
G01*
X126085786Y-145500000D02*
G75*
G02*
X128914214Y-145500000I1414214J0D01*
G01*
%TD*%
M02*
