%TF.GenerationSoftware,KiCad,Pcbnew,9.0.1*%
%TF.CreationDate,2025-07-25T04:15:59+03:00*%
%TF.ProjectId,LED_Project,4c45445f-5072-46f6-9a65-63742e6b6963,Seif Ahmed*%
%TF.SameCoordinates,Original*%
%TF.FileFunction,Legend,Bot*%
%TF.FilePolarity,Positive*%
%FSLAX46Y46*%
G04 Gerber Fmt 4.6, Leading zero omitted, Abs format (unit mm)*
G04 Created by KiCad (PCBNEW 9.0.1) date 2025-07-25 04:15:59*
%MOMM*%
%LPD*%
G01*
G04 APERTURE LIST*
%ADD10C,0.100000*%
%ADD11C,0.010000*%
G04 APERTURE END LIST*
D10*
X155838972Y-149372419D02*
X155505639Y-150372419D01*
X155505639Y-150372419D02*
X155172306Y-149372419D01*
X154458020Y-150324800D02*
X154553258Y-150372419D01*
X154553258Y-150372419D02*
X154743734Y-150372419D01*
X154743734Y-150372419D02*
X154838972Y-150324800D01*
X154838972Y-150324800D02*
X154886591Y-150229561D01*
X154886591Y-150229561D02*
X154886591Y-149848609D01*
X154886591Y-149848609D02*
X154838972Y-149753371D01*
X154838972Y-149753371D02*
X154743734Y-149705752D01*
X154743734Y-149705752D02*
X154553258Y-149705752D01*
X154553258Y-149705752D02*
X154458020Y-149753371D01*
X154458020Y-149753371D02*
X154410401Y-149848609D01*
X154410401Y-149848609D02*
X154410401Y-149943847D01*
X154410401Y-149943847D02*
X154886591Y-150039085D01*
X153981829Y-150372419D02*
X153981829Y-149705752D01*
X153981829Y-149896228D02*
X153934210Y-149800990D01*
X153934210Y-149800990D02*
X153886591Y-149753371D01*
X153886591Y-149753371D02*
X153791353Y-149705752D01*
X153791353Y-149705752D02*
X153696115Y-149705752D01*
X153410400Y-150324800D02*
X153315162Y-150372419D01*
X153315162Y-150372419D02*
X153124686Y-150372419D01*
X153124686Y-150372419D02*
X153029448Y-150324800D01*
X153029448Y-150324800D02*
X152981829Y-150229561D01*
X152981829Y-150229561D02*
X152981829Y-150181942D01*
X152981829Y-150181942D02*
X153029448Y-150086704D01*
X153029448Y-150086704D02*
X153124686Y-150039085D01*
X153124686Y-150039085D02*
X153267543Y-150039085D01*
X153267543Y-150039085D02*
X153362781Y-149991466D01*
X153362781Y-149991466D02*
X153410400Y-149896228D01*
X153410400Y-149896228D02*
X153410400Y-149848609D01*
X153410400Y-149848609D02*
X153362781Y-149753371D01*
X153362781Y-149753371D02*
X153267543Y-149705752D01*
X153267543Y-149705752D02*
X153124686Y-149705752D01*
X153124686Y-149705752D02*
X153029448Y-149753371D01*
X152553257Y-150372419D02*
X152553257Y-149705752D01*
X152553257Y-149372419D02*
X152600876Y-149420038D01*
X152600876Y-149420038D02*
X152553257Y-149467657D01*
X152553257Y-149467657D02*
X152505638Y-149420038D01*
X152505638Y-149420038D02*
X152553257Y-149372419D01*
X152553257Y-149372419D02*
X152553257Y-149467657D01*
X151934210Y-150372419D02*
X152029448Y-150324800D01*
X152029448Y-150324800D02*
X152077067Y-150277180D01*
X152077067Y-150277180D02*
X152124686Y-150181942D01*
X152124686Y-150181942D02*
X152124686Y-149896228D01*
X152124686Y-149896228D02*
X152077067Y-149800990D01*
X152077067Y-149800990D02*
X152029448Y-149753371D01*
X152029448Y-149753371D02*
X151934210Y-149705752D01*
X151934210Y-149705752D02*
X151791353Y-149705752D01*
X151791353Y-149705752D02*
X151696115Y-149753371D01*
X151696115Y-149753371D02*
X151648496Y-149800990D01*
X151648496Y-149800990D02*
X151600877Y-149896228D01*
X151600877Y-149896228D02*
X151600877Y-150181942D01*
X151600877Y-150181942D02*
X151648496Y-150277180D01*
X151648496Y-150277180D02*
X151696115Y-150324800D01*
X151696115Y-150324800D02*
X151791353Y-150372419D01*
X151791353Y-150372419D02*
X151934210Y-150372419D01*
X151172305Y-149705752D02*
X151172305Y-150372419D01*
X151172305Y-149800990D02*
X151124686Y-149753371D01*
X151124686Y-149753371D02*
X151029448Y-149705752D01*
X151029448Y-149705752D02*
X150886591Y-149705752D01*
X150886591Y-149705752D02*
X150791353Y-149753371D01*
X150791353Y-149753371D02*
X150743734Y-149848609D01*
X150743734Y-149848609D02*
X150743734Y-150372419D01*
X148981829Y-150372419D02*
X149553257Y-150372419D01*
X149267543Y-150372419D02*
X149267543Y-149372419D01*
X149267543Y-149372419D02*
X149362781Y-149515276D01*
X149362781Y-149515276D02*
X149458019Y-149610514D01*
X149458019Y-149610514D02*
X149553257Y-149658133D01*
X148553257Y-150277180D02*
X148505638Y-150324800D01*
X148505638Y-150324800D02*
X148553257Y-150372419D01*
X148553257Y-150372419D02*
X148600876Y-150324800D01*
X148600876Y-150324800D02*
X148553257Y-150277180D01*
X148553257Y-150277180D02*
X148553257Y-150372419D01*
X147886591Y-149372419D02*
X147791353Y-149372419D01*
X147791353Y-149372419D02*
X147696115Y-149420038D01*
X147696115Y-149420038D02*
X147648496Y-149467657D01*
X147648496Y-149467657D02*
X147600877Y-149562895D01*
X147600877Y-149562895D02*
X147553258Y-149753371D01*
X147553258Y-149753371D02*
X147553258Y-149991466D01*
X147553258Y-149991466D02*
X147600877Y-150181942D01*
X147600877Y-150181942D02*
X147648496Y-150277180D01*
X147648496Y-150277180D02*
X147696115Y-150324800D01*
X147696115Y-150324800D02*
X147791353Y-150372419D01*
X147791353Y-150372419D02*
X147886591Y-150372419D01*
X147886591Y-150372419D02*
X147981829Y-150324800D01*
X147981829Y-150324800D02*
X148029448Y-150277180D01*
X148029448Y-150277180D02*
X148077067Y-150181942D01*
X148077067Y-150181942D02*
X148124686Y-149991466D01*
X148124686Y-149991466D02*
X148124686Y-149753371D01*
X148124686Y-149753371D02*
X148077067Y-149562895D01*
X148077067Y-149562895D02*
X148029448Y-149467657D01*
X148029448Y-149467657D02*
X147981829Y-149420038D01*
X147981829Y-149420038D02*
X147886591Y-149372419D01*
D11*
%TO.C,REF\u002A\u002A*%
X147855406Y-146274949D02*
X147881127Y-146290647D01*
X147907778Y-146312227D01*
X147907778Y-146959684D01*
X147881127Y-146981264D01*
X147849767Y-146998739D01*
X147813966Y-146999575D01*
X147782528Y-146979082D01*
X147778652Y-146974416D01*
X147773186Y-146964949D01*
X147768979Y-146951267D01*
X147765867Y-146930748D01*
X147763687Y-146900768D01*
X147762276Y-146858704D01*
X147761471Y-146801932D01*
X147761107Y-146727830D01*
X147761022Y-146633773D01*
X147761022Y-146312227D01*
X147787673Y-146290647D01*
X147811386Y-146275877D01*
X147834400Y-146269067D01*
X147855406Y-146274949D01*
G36*
X147855406Y-146274949D02*
G01*
X147881127Y-146290647D01*
X147907778Y-146312227D01*
X147907778Y-146959684D01*
X147881127Y-146981264D01*
X147849767Y-146998739D01*
X147813966Y-146999575D01*
X147782528Y-146979082D01*
X147778652Y-146974416D01*
X147773186Y-146964949D01*
X147768979Y-146951267D01*
X147765867Y-146930748D01*
X147763687Y-146900768D01*
X147762276Y-146858704D01*
X147761471Y-146801932D01*
X147761107Y-146727830D01*
X147761022Y-146633773D01*
X147761022Y-146312227D01*
X147787673Y-146290647D01*
X147811386Y-146275877D01*
X147834400Y-146269067D01*
X147855406Y-146274949D01*
G37*
X154986137Y-146273463D02*
X155020291Y-146296776D01*
X155048000Y-146324485D01*
X155048000Y-146637537D01*
X155047959Y-146721567D01*
X155047701Y-146795789D01*
X155047030Y-146852541D01*
X155045752Y-146894512D01*
X155043673Y-146924389D01*
X155040599Y-146944861D01*
X155036334Y-146958614D01*
X155030684Y-146968337D01*
X155023455Y-146976717D01*
X154991991Y-146998181D01*
X154956826Y-146999947D01*
X154923822Y-146980267D01*
X154918516Y-146974398D01*
X154913066Y-146965314D01*
X154908900Y-146951973D01*
X154905846Y-146931757D01*
X154903732Y-146902049D01*
X154902386Y-146860232D01*
X154901638Y-146803689D01*
X154901314Y-146729802D01*
X154901245Y-146635956D01*
X154901284Y-146560294D01*
X154901539Y-146482385D01*
X154902183Y-146422375D01*
X154903387Y-146377648D01*
X154905324Y-146345585D01*
X154908164Y-146323571D01*
X154912079Y-146308987D01*
X154917242Y-146299218D01*
X154923822Y-146291645D01*
X154953006Y-146272623D01*
X154986137Y-146273463D01*
G36*
X154986137Y-146273463D02*
G01*
X155020291Y-146296776D01*
X155048000Y-146324485D01*
X155048000Y-146637537D01*
X155047959Y-146721567D01*
X155047701Y-146795789D01*
X155047030Y-146852541D01*
X155045752Y-146894512D01*
X155043673Y-146924389D01*
X155040599Y-146944861D01*
X155036334Y-146958614D01*
X155030684Y-146968337D01*
X155023455Y-146976717D01*
X154991991Y-146998181D01*
X154956826Y-146999947D01*
X154923822Y-146980267D01*
X154918516Y-146974398D01*
X154913066Y-146965314D01*
X154908900Y-146951973D01*
X154905846Y-146931757D01*
X154903732Y-146902049D01*
X154902386Y-146860232D01*
X154901638Y-146803689D01*
X154901314Y-146729802D01*
X154901245Y-146635956D01*
X154901284Y-146560294D01*
X154901539Y-146482385D01*
X154902183Y-146422375D01*
X154903387Y-146377648D01*
X154905324Y-146345585D01*
X154908164Y-146323571D01*
X154912079Y-146308987D01*
X154917242Y-146299218D01*
X154923822Y-146291645D01*
X154953006Y-146272623D01*
X154986137Y-146273463D01*
G37*
X154454562Y-141032850D02*
X154537313Y-141060053D01*
X154612406Y-141105484D01*
X154684298Y-141171302D01*
X154722846Y-141215567D01*
X154762256Y-141273961D01*
X154787446Y-141334586D01*
X154800861Y-141403865D01*
X154804948Y-141488222D01*
X154804669Y-141534307D01*
X154802460Y-141575450D01*
X154796894Y-141607582D01*
X154786586Y-141638122D01*
X154770148Y-141674489D01*
X154756200Y-141701728D01*
X154697665Y-141787429D01*
X154625619Y-141856617D01*
X154541947Y-141907741D01*
X154448531Y-141939250D01*
X154415434Y-141946225D01*
X154374960Y-141953094D01*
X154341999Y-141954919D01*
X154307698Y-141951947D01*
X154263200Y-141944426D01*
X154211934Y-141932002D01*
X154121434Y-141894112D01*
X154042345Y-141839836D01*
X153976528Y-141771770D01*
X153925840Y-141692511D01*
X153892140Y-141604654D01*
X153877286Y-141510795D01*
X153883136Y-141413530D01*
X153909399Y-141317220D01*
X153954418Y-141228494D01*
X154015373Y-141153419D01*
X154090184Y-141093641D01*
X154176768Y-141050809D01*
X154273043Y-141026571D01*
X154376928Y-141022576D01*
X154454562Y-141032850D01*
G36*
X154454562Y-141032850D02*
G01*
X154537313Y-141060053D01*
X154612406Y-141105484D01*
X154684298Y-141171302D01*
X154722846Y-141215567D01*
X154762256Y-141273961D01*
X154787446Y-141334586D01*
X154800861Y-141403865D01*
X154804948Y-141488222D01*
X154804669Y-141534307D01*
X154802460Y-141575450D01*
X154796894Y-141607582D01*
X154786586Y-141638122D01*
X154770148Y-141674489D01*
X154756200Y-141701728D01*
X154697665Y-141787429D01*
X154625619Y-141856617D01*
X154541947Y-141907741D01*
X154448531Y-141939250D01*
X154415434Y-141946225D01*
X154374960Y-141953094D01*
X154341999Y-141954919D01*
X154307698Y-141951947D01*
X154263200Y-141944426D01*
X154211934Y-141932002D01*
X154121434Y-141894112D01*
X154042345Y-141839836D01*
X153976528Y-141771770D01*
X153925840Y-141692511D01*
X153892140Y-141604654D01*
X153877286Y-141510795D01*
X153883136Y-141413530D01*
X153909399Y-141317220D01*
X153954418Y-141228494D01*
X154015373Y-141153419D01*
X154090184Y-141093641D01*
X154176768Y-141050809D01*
X154273043Y-141026571D01*
X154376928Y-141022576D01*
X154454562Y-141032850D01*
G37*
X147155767Y-146269068D02*
X147249890Y-146269158D01*
X147324405Y-146269498D01*
X147381811Y-146270239D01*
X147424611Y-146271535D01*
X147455304Y-146273537D01*
X147476391Y-146276396D01*
X147490373Y-146280266D01*
X147499750Y-146285298D01*
X147507022Y-146291645D01*
X147525828Y-146324362D01*
X147527275Y-146361939D01*
X147510917Y-146395178D01*
X147509557Y-146396631D01*
X147498354Y-146404992D01*
X147481252Y-146410547D01*
X147454082Y-146413840D01*
X147412678Y-146415418D01*
X147352873Y-146415822D01*
X147213511Y-146415822D01*
X147213511Y-146679589D01*
X147213436Y-146755417D01*
X147213028Y-146822083D01*
X147212046Y-146871867D01*
X147210250Y-146907784D01*
X147207399Y-146932850D01*
X147203253Y-146950081D01*
X147197571Y-146962492D01*
X147190114Y-146973100D01*
X147187824Y-146975906D01*
X147156646Y-146998548D01*
X147122266Y-147000112D01*
X147089334Y-146980267D01*
X147082355Y-146972191D01*
X147076883Y-146961593D01*
X147072863Y-146945749D01*
X147070072Y-146921773D01*
X147068288Y-146886774D01*
X147067289Y-146837864D01*
X147066852Y-146772154D01*
X147066756Y-146686756D01*
X147066756Y-146415822D01*
X146920820Y-146415822D01*
X146909720Y-146415821D01*
X146853202Y-146415596D01*
X146814358Y-146414457D01*
X146788965Y-146411657D01*
X146772804Y-146406450D01*
X146761652Y-146398089D01*
X146751289Y-146385826D01*
X146735441Y-146355138D01*
X146738543Y-146321358D01*
X146764187Y-146288822D01*
X146769129Y-146285105D01*
X146779338Y-146280269D01*
X146794764Y-146276506D01*
X146817886Y-146273683D01*
X146851183Y-146271670D01*
X146897137Y-146270333D01*
X146958228Y-146269542D01*
X147036935Y-146269163D01*
X147135740Y-146269067D01*
X147155767Y-146269068D01*
G36*
X147155767Y-146269068D02*
G01*
X147249890Y-146269158D01*
X147324405Y-146269498D01*
X147381811Y-146270239D01*
X147424611Y-146271535D01*
X147455304Y-146273537D01*
X147476391Y-146276396D01*
X147490373Y-146280266D01*
X147499750Y-146285298D01*
X147507022Y-146291645D01*
X147525828Y-146324362D01*
X147527275Y-146361939D01*
X147510917Y-146395178D01*
X147509557Y-146396631D01*
X147498354Y-146404992D01*
X147481252Y-146410547D01*
X147454082Y-146413840D01*
X147412678Y-146415418D01*
X147352873Y-146415822D01*
X147213511Y-146415822D01*
X147213511Y-146679589D01*
X147213436Y-146755417D01*
X147213028Y-146822083D01*
X147212046Y-146871867D01*
X147210250Y-146907784D01*
X147207399Y-146932850D01*
X147203253Y-146950081D01*
X147197571Y-146962492D01*
X147190114Y-146973100D01*
X147187824Y-146975906D01*
X147156646Y-146998548D01*
X147122266Y-147000112D01*
X147089334Y-146980267D01*
X147082355Y-146972191D01*
X147076883Y-146961593D01*
X147072863Y-146945749D01*
X147070072Y-146921773D01*
X147068288Y-146886774D01*
X147067289Y-146837864D01*
X147066852Y-146772154D01*
X147066756Y-146686756D01*
X147066756Y-146415822D01*
X146920820Y-146415822D01*
X146909720Y-146415821D01*
X146853202Y-146415596D01*
X146814358Y-146414457D01*
X146788965Y-146411657D01*
X146772804Y-146406450D01*
X146761652Y-146398089D01*
X146751289Y-146385826D01*
X146735441Y-146355138D01*
X146738543Y-146321358D01*
X146764187Y-146288822D01*
X146769129Y-146285105D01*
X146779338Y-146280269D01*
X146794764Y-146276506D01*
X146817886Y-146273683D01*
X146851183Y-146271670D01*
X146897137Y-146270333D01*
X146958228Y-146269542D01*
X147036935Y-146269163D01*
X147135740Y-146269067D01*
X147155767Y-146269068D01*
G37*
X146479734Y-146291645D02*
X146485366Y-146297835D01*
X146490456Y-146306041D01*
X146494543Y-146317817D01*
X146497721Y-146335276D01*
X146500087Y-146360530D01*
X146501738Y-146395690D01*
X146502769Y-146442869D01*
X146503277Y-146504177D01*
X146503359Y-146581727D01*
X146503109Y-146677631D01*
X146502625Y-146794000D01*
X146502557Y-146808175D01*
X146501971Y-146869937D01*
X146500648Y-146913620D01*
X146498103Y-146943001D01*
X146493848Y-146961855D01*
X146487396Y-146973959D01*
X146478262Y-146983089D01*
X146444804Y-147000506D01*
X146409856Y-146997604D01*
X146378953Y-146973100D01*
X146369944Y-146959897D01*
X146362492Y-146941361D01*
X146358124Y-146915333D01*
X146356069Y-146876787D01*
X146355556Y-146820700D01*
X146355556Y-146698045D01*
X145858845Y-146698045D01*
X145858845Y-146832871D01*
X145858772Y-146868662D01*
X145858009Y-146914992D01*
X145855833Y-146945526D01*
X145851536Y-146964557D01*
X145844412Y-146976374D01*
X145833755Y-146985271D01*
X145801504Y-147000341D01*
X145766217Y-146997673D01*
X145735486Y-146973100D01*
X145730831Y-146966845D01*
X145724895Y-146956321D01*
X145720364Y-146942391D01*
X145717048Y-146922317D01*
X145714759Y-146893360D01*
X145713308Y-146852780D01*
X145712505Y-146797840D01*
X145712162Y-146725799D01*
X145712089Y-146633920D01*
X145712089Y-146324485D01*
X145739798Y-146296776D01*
X145771177Y-146274533D01*
X145804406Y-146271844D01*
X145836267Y-146291645D01*
X145844553Y-146301415D01*
X145851965Y-146317307D01*
X145856302Y-146341275D01*
X145858338Y-146378148D01*
X145858845Y-146432756D01*
X145858845Y-146551289D01*
X146355556Y-146551289D01*
X146355556Y-146435776D01*
X146355994Y-146384078D01*
X146357958Y-146349554D01*
X146362474Y-146326978D01*
X146370567Y-146311126D01*
X146383265Y-146296776D01*
X146414643Y-146274533D01*
X146447872Y-146271844D01*
X146479734Y-146291645D01*
G36*
X146479734Y-146291645D02*
G01*
X146485366Y-146297835D01*
X146490456Y-146306041D01*
X146494543Y-146317817D01*
X146497721Y-146335276D01*
X146500087Y-146360530D01*
X146501738Y-146395690D01*
X146502769Y-146442869D01*
X146503277Y-146504177D01*
X146503359Y-146581727D01*
X146503109Y-146677631D01*
X146502625Y-146794000D01*
X146502557Y-146808175D01*
X146501971Y-146869937D01*
X146500648Y-146913620D01*
X146498103Y-146943001D01*
X146493848Y-146961855D01*
X146487396Y-146973959D01*
X146478262Y-146983089D01*
X146444804Y-147000506D01*
X146409856Y-146997604D01*
X146378953Y-146973100D01*
X146369944Y-146959897D01*
X146362492Y-146941361D01*
X146358124Y-146915333D01*
X146356069Y-146876787D01*
X146355556Y-146820700D01*
X146355556Y-146698045D01*
X145858845Y-146698045D01*
X145858845Y-146832871D01*
X145858772Y-146868662D01*
X145858009Y-146914992D01*
X145855833Y-146945526D01*
X145851536Y-146964557D01*
X145844412Y-146976374D01*
X145833755Y-146985271D01*
X145801504Y-147000341D01*
X145766217Y-146997673D01*
X145735486Y-146973100D01*
X145730831Y-146966845D01*
X145724895Y-146956321D01*
X145720364Y-146942391D01*
X145717048Y-146922317D01*
X145714759Y-146893360D01*
X145713308Y-146852780D01*
X145712505Y-146797840D01*
X145712162Y-146725799D01*
X145712089Y-146633920D01*
X145712089Y-146324485D01*
X145739798Y-146296776D01*
X145771177Y-146274533D01*
X145804406Y-146271844D01*
X145836267Y-146291645D01*
X145844553Y-146301415D01*
X145851965Y-146317307D01*
X145856302Y-146341275D01*
X145858338Y-146378148D01*
X145858845Y-146432756D01*
X145858845Y-146551289D01*
X146355556Y-146551289D01*
X146355556Y-146435776D01*
X146355994Y-146384078D01*
X146357958Y-146349554D01*
X146362474Y-146326978D01*
X146370567Y-146311126D01*
X146383265Y-146296776D01*
X146414643Y-146274533D01*
X146447872Y-146271844D01*
X146479734Y-146291645D01*
G37*
X151185133Y-146880396D02*
X151183163Y-146913175D01*
X151180235Y-146936095D01*
X151176158Y-146951897D01*
X151170743Y-146963319D01*
X151163803Y-146973100D01*
X151140406Y-147002845D01*
X150974714Y-147002251D01*
X150939918Y-147001953D01*
X150841435Y-146998522D01*
X150760473Y-146990839D01*
X150693379Y-146978282D01*
X150636496Y-146960227D01*
X150586169Y-146936052D01*
X150582810Y-146934135D01*
X150524998Y-146897417D01*
X150482644Y-146860451D01*
X150449828Y-146816966D01*
X150420628Y-146760689D01*
X150416346Y-146751073D01*
X150393769Y-146687887D01*
X150388034Y-146642333D01*
X150537279Y-146642333D01*
X150542892Y-146667061D01*
X150548618Y-146682939D01*
X150581548Y-146742847D01*
X150628886Y-146788600D01*
X150692652Y-146821736D01*
X150774861Y-146843790D01*
X150777655Y-146844292D01*
X150823940Y-146850255D01*
X150880336Y-146854483D01*
X150935274Y-146856089D01*
X151029156Y-146856089D01*
X151029156Y-146415822D01*
X150941667Y-146416270D01*
X150874747Y-146418746D01*
X150782349Y-146429998D01*
X150703034Y-146449537D01*
X150641060Y-146476511D01*
X150610120Y-146497240D01*
X150582000Y-146527006D01*
X150558660Y-146569434D01*
X150551533Y-146585400D01*
X150539709Y-146617902D01*
X150537279Y-146642333D01*
X150388034Y-146642333D01*
X150386797Y-146632509D01*
X150395399Y-146577483D01*
X150419541Y-146515351D01*
X150420337Y-146513658D01*
X150460788Y-146444236D01*
X150511473Y-146387638D01*
X150574198Y-146343070D01*
X150650774Y-146309741D01*
X150743009Y-146286861D01*
X150852712Y-146273636D01*
X150981691Y-146269275D01*
X150985263Y-146269270D01*
X151045283Y-146269410D01*
X151087214Y-146270446D01*
X151115328Y-146273040D01*
X151133897Y-146277853D01*
X151147194Y-146285544D01*
X151159491Y-146296776D01*
X151187200Y-146324485D01*
X151187200Y-146633920D01*
X151187175Y-146695526D01*
X151186950Y-146774311D01*
X151186332Y-146835021D01*
X151185775Y-146856089D01*
X151185133Y-146880396D01*
G36*
X151185133Y-146880396D02*
G01*
X151183163Y-146913175D01*
X151180235Y-146936095D01*
X151176158Y-146951897D01*
X151170743Y-146963319D01*
X151163803Y-146973100D01*
X151140406Y-147002845D01*
X150974714Y-147002251D01*
X150939918Y-147001953D01*
X150841435Y-146998522D01*
X150760473Y-146990839D01*
X150693379Y-146978282D01*
X150636496Y-146960227D01*
X150586169Y-146936052D01*
X150582810Y-146934135D01*
X150524998Y-146897417D01*
X150482644Y-146860451D01*
X150449828Y-146816966D01*
X150420628Y-146760689D01*
X150416346Y-146751073D01*
X150393769Y-146687887D01*
X150388034Y-146642333D01*
X150537279Y-146642333D01*
X150542892Y-146667061D01*
X150548618Y-146682939D01*
X150581548Y-146742847D01*
X150628886Y-146788600D01*
X150692652Y-146821736D01*
X150774861Y-146843790D01*
X150777655Y-146844292D01*
X150823940Y-146850255D01*
X150880336Y-146854483D01*
X150935274Y-146856089D01*
X151029156Y-146856089D01*
X151029156Y-146415822D01*
X150941667Y-146416270D01*
X150874747Y-146418746D01*
X150782349Y-146429998D01*
X150703034Y-146449537D01*
X150641060Y-146476511D01*
X150610120Y-146497240D01*
X150582000Y-146527006D01*
X150558660Y-146569434D01*
X150551533Y-146585400D01*
X150539709Y-146617902D01*
X150537279Y-146642333D01*
X150388034Y-146642333D01*
X150386797Y-146632509D01*
X150395399Y-146577483D01*
X150419541Y-146515351D01*
X150420337Y-146513658D01*
X150460788Y-146444236D01*
X150511473Y-146387638D01*
X150574198Y-146343070D01*
X150650774Y-146309741D01*
X150743009Y-146286861D01*
X150852712Y-146273636D01*
X150981691Y-146269275D01*
X150985263Y-146269270D01*
X151045283Y-146269410D01*
X151087214Y-146270446D01*
X151115328Y-146273040D01*
X151133897Y-146277853D01*
X151147194Y-146285544D01*
X151159491Y-146296776D01*
X151187200Y-146324485D01*
X151187200Y-146633920D01*
X151187175Y-146695526D01*
X151186950Y-146774311D01*
X151186332Y-146835021D01*
X151185775Y-146856089D01*
X151185133Y-146880396D01*
G37*
X158276817Y-146454427D02*
X158276870Y-146535041D01*
X158276622Y-146635956D01*
X158276583Y-146711617D01*
X158276328Y-146789526D01*
X158275684Y-146849536D01*
X158274480Y-146894264D01*
X158272543Y-146926326D01*
X158269703Y-146948340D01*
X158265788Y-146962924D01*
X158260626Y-146972694D01*
X158254045Y-146980267D01*
X158247077Y-146986501D01*
X158234079Y-146993801D01*
X158214931Y-146998554D01*
X158185528Y-147001292D01*
X158141762Y-147002545D01*
X158079528Y-147002845D01*
X158030582Y-147002469D01*
X157923722Y-146998041D01*
X157834494Y-146987953D01*
X157759696Y-146971365D01*
X157696125Y-146947435D01*
X157640579Y-146915321D01*
X157589854Y-146874182D01*
X157583866Y-146868330D01*
X157546999Y-146819821D01*
X157515899Y-146759013D01*
X157494417Y-146694769D01*
X157489136Y-146656026D01*
X157636353Y-146656026D01*
X157654635Y-146706961D01*
X157684305Y-146752878D01*
X157731002Y-146795287D01*
X157792392Y-146825090D01*
X157871538Y-146844226D01*
X157873028Y-146844464D01*
X157921999Y-146850256D01*
X157980693Y-146854396D01*
X158036734Y-146856004D01*
X158129867Y-146856089D01*
X158129867Y-146415822D01*
X158053667Y-146415808D01*
X158050639Y-146415817D01*
X157999519Y-146417782D01*
X157939416Y-146422507D01*
X157882708Y-146429035D01*
X157832750Y-146438331D01*
X157757998Y-146464600D01*
X157700489Y-146503899D01*
X157658988Y-146556933D01*
X157637771Y-146608200D01*
X157636353Y-146656026D01*
X157489136Y-146656026D01*
X157486400Y-146635956D01*
X157487679Y-146614739D01*
X157499991Y-146557323D01*
X157522520Y-146497413D01*
X157551750Y-146443363D01*
X157584167Y-146403532D01*
X157603708Y-146386510D01*
X157658420Y-146347322D01*
X157718723Y-146317193D01*
X157787919Y-146295232D01*
X157869311Y-146280550D01*
X157966200Y-146272259D01*
X158081889Y-146269467D01*
X158121371Y-146269066D01*
X158167082Y-146268653D01*
X158202883Y-146270457D01*
X158229974Y-146276739D01*
X158249556Y-146289759D01*
X158262830Y-146311778D01*
X158270998Y-146345055D01*
X158275260Y-146391851D01*
X158275857Y-146415822D01*
X158276817Y-146454427D01*
G36*
X158276817Y-146454427D02*
G01*
X158276870Y-146535041D01*
X158276622Y-146635956D01*
X158276583Y-146711617D01*
X158276328Y-146789526D01*
X158275684Y-146849536D01*
X158274480Y-146894264D01*
X158272543Y-146926326D01*
X158269703Y-146948340D01*
X158265788Y-146962924D01*
X158260626Y-146972694D01*
X158254045Y-146980267D01*
X158247077Y-146986501D01*
X158234079Y-146993801D01*
X158214931Y-146998554D01*
X158185528Y-147001292D01*
X158141762Y-147002545D01*
X158079528Y-147002845D01*
X158030582Y-147002469D01*
X157923722Y-146998041D01*
X157834494Y-146987953D01*
X157759696Y-146971365D01*
X157696125Y-146947435D01*
X157640579Y-146915321D01*
X157589854Y-146874182D01*
X157583866Y-146868330D01*
X157546999Y-146819821D01*
X157515899Y-146759013D01*
X157494417Y-146694769D01*
X157489136Y-146656026D01*
X157636353Y-146656026D01*
X157654635Y-146706961D01*
X157684305Y-146752878D01*
X157731002Y-146795287D01*
X157792392Y-146825090D01*
X157871538Y-146844226D01*
X157873028Y-146844464D01*
X157921999Y-146850256D01*
X157980693Y-146854396D01*
X158036734Y-146856004D01*
X158129867Y-146856089D01*
X158129867Y-146415822D01*
X158053667Y-146415808D01*
X158050639Y-146415817D01*
X157999519Y-146417782D01*
X157939416Y-146422507D01*
X157882708Y-146429035D01*
X157832750Y-146438331D01*
X157757998Y-146464600D01*
X157700489Y-146503899D01*
X157658988Y-146556933D01*
X157637771Y-146608200D01*
X157636353Y-146656026D01*
X157489136Y-146656026D01*
X157486400Y-146635956D01*
X157487679Y-146614739D01*
X157499991Y-146557323D01*
X157522520Y-146497413D01*
X157551750Y-146443363D01*
X157584167Y-146403532D01*
X157603708Y-146386510D01*
X157658420Y-146347322D01*
X157718723Y-146317193D01*
X157787919Y-146295232D01*
X157869311Y-146280550D01*
X157966200Y-146272259D01*
X158081889Y-146269467D01*
X158121371Y-146269066D01*
X158167082Y-146268653D01*
X158202883Y-146270457D01*
X158229974Y-146276739D01*
X158249556Y-146289759D01*
X158262830Y-146311778D01*
X158270998Y-146345055D01*
X158275260Y-146391851D01*
X158275857Y-146415822D01*
X158276817Y-146454427D01*
G37*
X153331893Y-146267892D02*
X153343301Y-146274029D01*
X153353850Y-146284691D01*
X153365136Y-146298811D01*
X153369589Y-146304772D01*
X153375588Y-146315268D01*
X153380167Y-146329093D01*
X153383519Y-146348998D01*
X153385833Y-146377732D01*
X153387301Y-146418045D01*
X153388113Y-146472687D01*
X153388460Y-146544407D01*
X153388534Y-146635956D01*
X153388511Y-146694486D01*
X153388292Y-146773573D01*
X153387683Y-146834516D01*
X153386492Y-146880062D01*
X153384529Y-146912963D01*
X153381603Y-146935968D01*
X153377523Y-146951826D01*
X153372097Y-146963286D01*
X153365136Y-146973100D01*
X153334708Y-146997493D01*
X153299765Y-147000372D01*
X153262784Y-146981282D01*
X153258600Y-146977807D01*
X153250424Y-146969279D01*
X153244364Y-146957728D01*
X153239981Y-146939896D01*
X153236839Y-146912524D01*
X153234502Y-146872354D01*
X153232531Y-146816128D01*
X153230489Y-146740589D01*
X153224845Y-146521458D01*
X152959556Y-146762099D01*
X152885722Y-146828875D01*
X152820542Y-146886991D01*
X152768348Y-146931949D01*
X152727273Y-146964871D01*
X152695455Y-146986879D01*
X152671026Y-146999094D01*
X152652124Y-147002639D01*
X152636883Y-146998636D01*
X152623439Y-146988207D01*
X152609927Y-146972474D01*
X152603682Y-146963991D01*
X152598050Y-146953413D01*
X152593839Y-146939255D01*
X152590887Y-146918803D01*
X152589032Y-146889342D01*
X152588113Y-146848161D01*
X152587968Y-146792544D01*
X152588435Y-146719779D01*
X152589352Y-146627151D01*
X152592667Y-146312199D01*
X152619318Y-146290633D01*
X152645383Y-146274441D01*
X152678241Y-146271670D01*
X152712772Y-146290623D01*
X152717084Y-146294208D01*
X152725216Y-146302737D01*
X152731245Y-146314329D01*
X152735606Y-146332235D01*
X152738734Y-146359706D01*
X152741063Y-146399994D01*
X152743029Y-146456351D01*
X152745067Y-146532029D01*
X152750711Y-146751878D01*
X152931334Y-146588084D01*
X153018072Y-146509451D01*
X153093843Y-146441058D01*
X153155980Y-146385708D01*
X153206078Y-146342338D01*
X153245735Y-146309881D01*
X153276548Y-146287273D01*
X153300114Y-146273448D01*
X153318030Y-146267343D01*
X153331893Y-146267892D01*
G36*
X153331893Y-146267892D02*
G01*
X153343301Y-146274029D01*
X153353850Y-146284691D01*
X153365136Y-146298811D01*
X153369589Y-146304772D01*
X153375588Y-146315268D01*
X153380167Y-146329093D01*
X153383519Y-146348998D01*
X153385833Y-146377732D01*
X153387301Y-146418045D01*
X153388113Y-146472687D01*
X153388460Y-146544407D01*
X153388534Y-146635956D01*
X153388511Y-146694486D01*
X153388292Y-146773573D01*
X153387683Y-146834516D01*
X153386492Y-146880062D01*
X153384529Y-146912963D01*
X153381603Y-146935968D01*
X153377523Y-146951826D01*
X153372097Y-146963286D01*
X153365136Y-146973100D01*
X153334708Y-146997493D01*
X153299765Y-147000372D01*
X153262784Y-146981282D01*
X153258600Y-146977807D01*
X153250424Y-146969279D01*
X153244364Y-146957728D01*
X153239981Y-146939896D01*
X153236839Y-146912524D01*
X153234502Y-146872354D01*
X153232531Y-146816128D01*
X153230489Y-146740589D01*
X153224845Y-146521458D01*
X152959556Y-146762099D01*
X152885722Y-146828875D01*
X152820542Y-146886991D01*
X152768348Y-146931949D01*
X152727273Y-146964871D01*
X152695455Y-146986879D01*
X152671026Y-146999094D01*
X152652124Y-147002639D01*
X152636883Y-146998636D01*
X152623439Y-146988207D01*
X152609927Y-146972474D01*
X152603682Y-146963991D01*
X152598050Y-146953413D01*
X152593839Y-146939255D01*
X152590887Y-146918803D01*
X152589032Y-146889342D01*
X152588113Y-146848161D01*
X152587968Y-146792544D01*
X152588435Y-146719779D01*
X152589352Y-146627151D01*
X152592667Y-146312199D01*
X152619318Y-146290633D01*
X152645383Y-146274441D01*
X152678241Y-146271670D01*
X152712772Y-146290623D01*
X152717084Y-146294208D01*
X152725216Y-146302737D01*
X152731245Y-146314329D01*
X152735606Y-146332235D01*
X152738734Y-146359706D01*
X152741063Y-146399994D01*
X152743029Y-146456351D01*
X152745067Y-146532029D01*
X152750711Y-146751878D01*
X152931334Y-146588084D01*
X153018072Y-146509451D01*
X153093843Y-146441058D01*
X153155980Y-146385708D01*
X153206078Y-146342338D01*
X153245735Y-146309881D01*
X153276548Y-146287273D01*
X153300114Y-146273448D01*
X153318030Y-146267343D01*
X153331893Y-146267892D01*
G37*
X154129150Y-146274179D02*
X154235157Y-146290494D01*
X154328969Y-146318545D01*
X154407765Y-146357452D01*
X154468719Y-146406334D01*
X154494789Y-146439195D01*
X154524297Y-146488394D01*
X154549568Y-146542252D01*
X154567218Y-146593419D01*
X154573858Y-146634544D01*
X154572298Y-146654259D01*
X154559357Y-146705592D01*
X154536194Y-146762118D01*
X154506302Y-146816035D01*
X154473173Y-146859539D01*
X154462977Y-146869887D01*
X154395892Y-146921662D01*
X154315766Y-146961554D01*
X154229556Y-146985956D01*
X154174592Y-146994068D01*
X154081139Y-147000673D01*
X153991358Y-146998586D01*
X153908869Y-146988340D01*
X153837286Y-146970470D01*
X153780228Y-146945508D01*
X153741311Y-146913988D01*
X153739936Y-146912012D01*
X153732848Y-146886786D01*
X153728609Y-146839535D01*
X153727200Y-146770071D01*
X153728060Y-146707838D01*
X153732780Y-146660456D01*
X153744470Y-146628353D01*
X153766239Y-146608800D01*
X153801198Y-146599070D01*
X153852456Y-146596433D01*
X153923123Y-146598161D01*
X153971743Y-146601173D01*
X154021939Y-146609366D01*
X154054433Y-146623419D01*
X154071892Y-146644654D01*
X154076983Y-146674394D01*
X154076877Y-146678936D01*
X154068175Y-146713730D01*
X154044165Y-146737147D01*
X154002900Y-146750347D01*
X153942431Y-146754489D01*
X153873956Y-146754489D01*
X153873956Y-146792841D01*
X153874006Y-146801976D01*
X153876227Y-146819227D01*
X153885494Y-146829521D01*
X153906875Y-146836459D01*
X153945436Y-146843641D01*
X153950910Y-146844575D01*
X154047860Y-146854478D01*
X154137852Y-146851559D01*
X154218760Y-146836829D01*
X154288459Y-146811299D01*
X154344824Y-146775978D01*
X154385729Y-146731879D01*
X154409051Y-146680012D01*
X154412663Y-146621388D01*
X154407145Y-146592494D01*
X154380461Y-146536604D01*
X154334273Y-146490945D01*
X154269291Y-146456108D01*
X154186229Y-146432690D01*
X154161555Y-146428241D01*
X154072226Y-146417742D01*
X153992419Y-146418971D01*
X153914326Y-146431906D01*
X153879183Y-146438696D01*
X153833745Y-146439713D01*
X153802430Y-146427182D01*
X153782277Y-146400395D01*
X153775893Y-146372148D01*
X153785379Y-146340924D01*
X153794708Y-146327499D01*
X153828943Y-146303967D01*
X153881565Y-146286095D01*
X153950081Y-146274599D01*
X154032000Y-146270192D01*
X154129150Y-146274179D01*
G36*
X154129150Y-146274179D02*
G01*
X154235157Y-146290494D01*
X154328969Y-146318545D01*
X154407765Y-146357452D01*
X154468719Y-146406334D01*
X154494789Y-146439195D01*
X154524297Y-146488394D01*
X154549568Y-146542252D01*
X154567218Y-146593419D01*
X154573858Y-146634544D01*
X154572298Y-146654259D01*
X154559357Y-146705592D01*
X154536194Y-146762118D01*
X154506302Y-146816035D01*
X154473173Y-146859539D01*
X154462977Y-146869887D01*
X154395892Y-146921662D01*
X154315766Y-146961554D01*
X154229556Y-146985956D01*
X154174592Y-146994068D01*
X154081139Y-147000673D01*
X153991358Y-146998586D01*
X153908869Y-146988340D01*
X153837286Y-146970470D01*
X153780228Y-146945508D01*
X153741311Y-146913988D01*
X153739936Y-146912012D01*
X153732848Y-146886786D01*
X153728609Y-146839535D01*
X153727200Y-146770071D01*
X153728060Y-146707838D01*
X153732780Y-146660456D01*
X153744470Y-146628353D01*
X153766239Y-146608800D01*
X153801198Y-146599070D01*
X153852456Y-146596433D01*
X153923123Y-146598161D01*
X153971743Y-146601173D01*
X154021939Y-146609366D01*
X154054433Y-146623419D01*
X154071892Y-146644654D01*
X154076983Y-146674394D01*
X154076877Y-146678936D01*
X154068175Y-146713730D01*
X154044165Y-146737147D01*
X154002900Y-146750347D01*
X153942431Y-146754489D01*
X153873956Y-146754489D01*
X153873956Y-146792841D01*
X153874006Y-146801976D01*
X153876227Y-146819227D01*
X153885494Y-146829521D01*
X153906875Y-146836459D01*
X153945436Y-146843641D01*
X153950910Y-146844575D01*
X154047860Y-146854478D01*
X154137852Y-146851559D01*
X154218760Y-146836829D01*
X154288459Y-146811299D01*
X154344824Y-146775978D01*
X154385729Y-146731879D01*
X154409051Y-146680012D01*
X154412663Y-146621388D01*
X154407145Y-146592494D01*
X154380461Y-146536604D01*
X154334273Y-146490945D01*
X154269291Y-146456108D01*
X154186229Y-146432690D01*
X154161555Y-146428241D01*
X154072226Y-146417742D01*
X153992419Y-146418971D01*
X153914326Y-146431906D01*
X153879183Y-146438696D01*
X153833745Y-146439713D01*
X153802430Y-146427182D01*
X153782277Y-146400395D01*
X153775893Y-146372148D01*
X153785379Y-146340924D01*
X153794708Y-146327499D01*
X153828943Y-146303967D01*
X153881565Y-146286095D01*
X153950081Y-146274599D01*
X154032000Y-146270192D01*
X154129150Y-146274179D01*
G37*
X152179803Y-146298811D02*
X152184752Y-146305495D01*
X152190596Y-146316066D01*
X152195057Y-146330153D01*
X152198321Y-146350478D01*
X152200574Y-146379765D01*
X152202002Y-146420737D01*
X152202792Y-146476117D01*
X152203129Y-146548628D01*
X152203200Y-146640994D01*
X152203171Y-146706911D01*
X152202939Y-146785228D01*
X152202319Y-146845496D01*
X152201126Y-146890393D01*
X152199179Y-146922602D01*
X152196294Y-146944800D01*
X152192288Y-146959669D01*
X152186979Y-146969889D01*
X152180183Y-146978138D01*
X152175668Y-146982795D01*
X152167438Y-146989282D01*
X152156078Y-146994194D01*
X152138810Y-146997749D01*
X152112855Y-147000167D01*
X152075436Y-147001667D01*
X152023773Y-147002467D01*
X151955089Y-147002787D01*
X151866606Y-147002845D01*
X151846931Y-147002838D01*
X151759906Y-147002572D01*
X151692254Y-147001806D01*
X151641299Y-147000392D01*
X151604367Y-146998180D01*
X151578783Y-146995022D01*
X151561871Y-146990769D01*
X151550957Y-146985271D01*
X151540464Y-146975285D01*
X151527203Y-146944168D01*
X151528386Y-146908280D01*
X151544550Y-146876733D01*
X151546739Y-146874457D01*
X151555427Y-146868189D01*
X151568769Y-146863523D01*
X151589752Y-146860227D01*
X151621363Y-146858068D01*
X151666590Y-146856814D01*
X151728420Y-146856231D01*
X151809839Y-146856089D01*
X152056445Y-146856089D01*
X152056445Y-146698045D01*
X151894006Y-146698045D01*
X151858338Y-146697964D01*
X151802568Y-146697167D01*
X151763430Y-146695162D01*
X151736976Y-146691521D01*
X151719259Y-146685812D01*
X151706329Y-146677607D01*
X151702686Y-146674423D01*
X151684278Y-146643448D01*
X151683644Y-146607112D01*
X151701183Y-146573493D01*
X151701245Y-146573424D01*
X151710916Y-146564798D01*
X151724209Y-146558742D01*
X151744917Y-146554811D01*
X151776828Y-146552556D01*
X151823734Y-146551531D01*
X151889424Y-146551289D01*
X152057571Y-146551289D01*
X152054186Y-146486378D01*
X152050800Y-146421467D01*
X151808723Y-146418414D01*
X151783707Y-146418086D01*
X151702087Y-146416606D01*
X151639768Y-146414222D01*
X151594154Y-146410227D01*
X151562652Y-146403913D01*
X151542667Y-146394574D01*
X151531604Y-146381503D01*
X151526869Y-146363992D01*
X151525867Y-146341335D01*
X151525873Y-146338970D01*
X151527027Y-146318939D01*
X151531824Y-146303146D01*
X151542632Y-146291090D01*
X151561817Y-146282267D01*
X151591745Y-146276175D01*
X151634783Y-146272311D01*
X151693299Y-146270174D01*
X151769657Y-146269260D01*
X151866226Y-146269067D01*
X152156406Y-146269067D01*
X152179803Y-146298811D01*
G36*
X152179803Y-146298811D02*
G01*
X152184752Y-146305495D01*
X152190596Y-146316066D01*
X152195057Y-146330153D01*
X152198321Y-146350478D01*
X152200574Y-146379765D01*
X152202002Y-146420737D01*
X152202792Y-146476117D01*
X152203129Y-146548628D01*
X152203200Y-146640994D01*
X152203171Y-146706911D01*
X152202939Y-146785228D01*
X152202319Y-146845496D01*
X152201126Y-146890393D01*
X152199179Y-146922602D01*
X152196294Y-146944800D01*
X152192288Y-146959669D01*
X152186979Y-146969889D01*
X152180183Y-146978138D01*
X152175668Y-146982795D01*
X152167438Y-146989282D01*
X152156078Y-146994194D01*
X152138810Y-146997749D01*
X152112855Y-147000167D01*
X152075436Y-147001667D01*
X152023773Y-147002467D01*
X151955089Y-147002787D01*
X151866606Y-147002845D01*
X151846931Y-147002838D01*
X151759906Y-147002572D01*
X151692254Y-147001806D01*
X151641299Y-147000392D01*
X151604367Y-146998180D01*
X151578783Y-146995022D01*
X151561871Y-146990769D01*
X151550957Y-146985271D01*
X151540464Y-146975285D01*
X151527203Y-146944168D01*
X151528386Y-146908280D01*
X151544550Y-146876733D01*
X151546739Y-146874457D01*
X151555427Y-146868189D01*
X151568769Y-146863523D01*
X151589752Y-146860227D01*
X151621363Y-146858068D01*
X151666590Y-146856814D01*
X151728420Y-146856231D01*
X151809839Y-146856089D01*
X152056445Y-146856089D01*
X152056445Y-146698045D01*
X151894006Y-146698045D01*
X151858338Y-146697964D01*
X151802568Y-146697167D01*
X151763430Y-146695162D01*
X151736976Y-146691521D01*
X151719259Y-146685812D01*
X151706329Y-146677607D01*
X151702686Y-146674423D01*
X151684278Y-146643448D01*
X151683644Y-146607112D01*
X151701183Y-146573493D01*
X151701245Y-146573424D01*
X151710916Y-146564798D01*
X151724209Y-146558742D01*
X151744917Y-146554811D01*
X151776828Y-146552556D01*
X151823734Y-146551531D01*
X151889424Y-146551289D01*
X152057571Y-146551289D01*
X152054186Y-146486378D01*
X152050800Y-146421467D01*
X151808723Y-146418414D01*
X151783707Y-146418086D01*
X151702087Y-146416606D01*
X151639768Y-146414222D01*
X151594154Y-146410227D01*
X151562652Y-146403913D01*
X151542667Y-146394574D01*
X151531604Y-146381503D01*
X151526869Y-146363992D01*
X151525867Y-146341335D01*
X151525873Y-146338970D01*
X151527027Y-146318939D01*
X151531824Y-146303146D01*
X151542632Y-146291090D01*
X151561817Y-146282267D01*
X151591745Y-146276175D01*
X151634783Y-146272311D01*
X151693299Y-146270174D01*
X151769657Y-146269260D01*
X151866226Y-146269067D01*
X152156406Y-146269067D01*
X152179803Y-146298811D01*
G37*
X156856734Y-146269083D02*
X156933831Y-146269275D01*
X156992777Y-146269860D01*
X157036364Y-146271051D01*
X157067383Y-146273064D01*
X157088625Y-146276112D01*
X157102882Y-146280409D01*
X157112945Y-146286172D01*
X157121606Y-146293612D01*
X157123391Y-146295293D01*
X157130635Y-146302832D01*
X157136277Y-146311850D01*
X157140517Y-146324984D01*
X157143556Y-146344872D01*
X157145594Y-146374151D01*
X157146830Y-146415458D01*
X157147465Y-146471431D01*
X157147700Y-146544707D01*
X157147734Y-146637923D01*
X157147697Y-146710713D01*
X157147448Y-146788889D01*
X157146812Y-146849103D01*
X157145615Y-146893982D01*
X157143684Y-146926152D01*
X157140846Y-146948239D01*
X157136927Y-146962870D01*
X157131755Y-146972670D01*
X157125156Y-146980267D01*
X157121822Y-146983444D01*
X157113300Y-146989554D01*
X157101298Y-146994229D01*
X157083087Y-146997659D01*
X157055940Y-147000036D01*
X157017129Y-147001552D01*
X156963924Y-147002398D01*
X156893598Y-147002765D01*
X156803422Y-147002845D01*
X156761314Y-147002833D01*
X156680167Y-147002651D01*
X156617675Y-147002098D01*
X156571109Y-147000982D01*
X156537741Y-146999113D01*
X156514844Y-146996298D01*
X156499688Y-146992346D01*
X156489546Y-146987066D01*
X156481689Y-146980267D01*
X156466963Y-146958667D01*
X156459111Y-146929467D01*
X156464610Y-146905560D01*
X156481689Y-146878667D01*
X156486668Y-146874059D01*
X156496443Y-146867772D01*
X156510559Y-146863146D01*
X156532054Y-146859930D01*
X156563968Y-146857870D01*
X156609342Y-146856712D01*
X156671213Y-146856202D01*
X156752622Y-146856089D01*
X157000978Y-146856089D01*
X157000978Y-146698045D01*
X156839801Y-146698045D01*
X156803983Y-146697899D01*
X156738359Y-146696176D01*
X156691118Y-146691741D01*
X156659383Y-146683637D01*
X156640277Y-146670906D01*
X156630923Y-146652592D01*
X156628445Y-146627738D01*
X156629242Y-146607482D01*
X156634494Y-146585656D01*
X156647288Y-146570304D01*
X156670628Y-146560309D01*
X156707517Y-146554553D01*
X156760959Y-146551919D01*
X156833958Y-146551289D01*
X157002105Y-146551289D01*
X156998719Y-146486378D01*
X156995334Y-146421467D01*
X156747617Y-146418418D01*
X156685026Y-146417539D01*
X156616565Y-146416095D01*
X156565661Y-146414164D01*
X156529408Y-146411514D01*
X156504901Y-146407910D01*
X156489235Y-146403121D01*
X156479506Y-146396913D01*
X156473491Y-146390510D01*
X156460482Y-146358828D01*
X156464043Y-146323142D01*
X156483818Y-146292084D01*
X156487069Y-146289161D01*
X156496049Y-146282810D01*
X156508153Y-146277957D01*
X156526159Y-146274403D01*
X156552847Y-146271946D01*
X156590997Y-146270385D01*
X156643386Y-146269518D01*
X156712794Y-146269146D01*
X156802001Y-146269067D01*
X156856734Y-146269083D01*
G36*
X156856734Y-146269083D02*
G01*
X156933831Y-146269275D01*
X156992777Y-146269860D01*
X157036364Y-146271051D01*
X157067383Y-146273064D01*
X157088625Y-146276112D01*
X157102882Y-146280409D01*
X157112945Y-146286172D01*
X157121606Y-146293612D01*
X157123391Y-146295293D01*
X157130635Y-146302832D01*
X157136277Y-146311850D01*
X157140517Y-146324984D01*
X157143556Y-146344872D01*
X157145594Y-146374151D01*
X157146830Y-146415458D01*
X157147465Y-146471431D01*
X157147700Y-146544707D01*
X157147734Y-146637923D01*
X157147697Y-146710713D01*
X157147448Y-146788889D01*
X157146812Y-146849103D01*
X157145615Y-146893982D01*
X157143684Y-146926152D01*
X157140846Y-146948239D01*
X157136927Y-146962870D01*
X157131755Y-146972670D01*
X157125156Y-146980267D01*
X157121822Y-146983444D01*
X157113300Y-146989554D01*
X157101298Y-146994229D01*
X157083087Y-146997659D01*
X157055940Y-147000036D01*
X157017129Y-147001552D01*
X156963924Y-147002398D01*
X156893598Y-147002765D01*
X156803422Y-147002845D01*
X156761314Y-147002833D01*
X156680167Y-147002651D01*
X156617675Y-147002098D01*
X156571109Y-147000982D01*
X156537741Y-146999113D01*
X156514844Y-146996298D01*
X156499688Y-146992346D01*
X156489546Y-146987066D01*
X156481689Y-146980267D01*
X156466963Y-146958667D01*
X156459111Y-146929467D01*
X156464610Y-146905560D01*
X156481689Y-146878667D01*
X156486668Y-146874059D01*
X156496443Y-146867772D01*
X156510559Y-146863146D01*
X156532054Y-146859930D01*
X156563968Y-146857870D01*
X156609342Y-146856712D01*
X156671213Y-146856202D01*
X156752622Y-146856089D01*
X157000978Y-146856089D01*
X157000978Y-146698045D01*
X156839801Y-146698045D01*
X156803983Y-146697899D01*
X156738359Y-146696176D01*
X156691118Y-146691741D01*
X156659383Y-146683637D01*
X156640277Y-146670906D01*
X156630923Y-146652592D01*
X156628445Y-146627738D01*
X156629242Y-146607482D01*
X156634494Y-146585656D01*
X156647288Y-146570304D01*
X156670628Y-146560309D01*
X156707517Y-146554553D01*
X156760959Y-146551919D01*
X156833958Y-146551289D01*
X157002105Y-146551289D01*
X156998719Y-146486378D01*
X156995334Y-146421467D01*
X156747617Y-146418418D01*
X156685026Y-146417539D01*
X156616565Y-146416095D01*
X156565661Y-146414164D01*
X156529408Y-146411514D01*
X156504901Y-146407910D01*
X156489235Y-146403121D01*
X156479506Y-146396913D01*
X156473491Y-146390510D01*
X156460482Y-146358828D01*
X156464043Y-146323142D01*
X156483818Y-146292084D01*
X156487069Y-146289161D01*
X156496049Y-146282810D01*
X156508153Y-146277957D01*
X156526159Y-146274403D01*
X156552847Y-146271946D01*
X156590997Y-146270385D01*
X156643386Y-146269518D01*
X156712794Y-146269146D01*
X156802001Y-146269067D01*
X156856734Y-146269083D01*
G37*
X148289702Y-146278478D02*
X148307663Y-146296989D01*
X148328263Y-146328071D01*
X148353095Y-146373756D01*
X148383750Y-146436078D01*
X148421820Y-146517071D01*
X148436454Y-146548454D01*
X148466203Y-146611638D01*
X148492297Y-146666244D01*
X148513292Y-146709290D01*
X148527739Y-146737793D01*
X148534191Y-146748770D01*
X148535550Y-146748189D01*
X148545542Y-146734242D01*
X148562833Y-146704704D01*
X148585430Y-146663087D01*
X148611338Y-146612903D01*
X148627311Y-146581414D01*
X148656261Y-146526061D01*
X148678749Y-146487044D01*
X148696965Y-146461566D01*
X148713096Y-146446831D01*
X148729330Y-146440042D01*
X148747857Y-146438400D01*
X148758360Y-146438875D01*
X148774476Y-146443082D01*
X148789790Y-146453946D01*
X148806388Y-146474219D01*
X148826357Y-146506654D01*
X148851783Y-146554004D01*
X148884752Y-146619022D01*
X148894485Y-146638277D01*
X148918943Y-146684946D01*
X148939178Y-146721109D01*
X148953311Y-146743497D01*
X148959460Y-146748845D01*
X148960827Y-146745573D01*
X148970202Y-146724664D01*
X148987062Y-146687725D01*
X149009979Y-146637874D01*
X149037520Y-146578226D01*
X149068255Y-146511898D01*
X149094970Y-146454677D01*
X149124593Y-146392688D01*
X149147664Y-146346949D01*
X149165643Y-146314908D01*
X149179990Y-146294014D01*
X149192166Y-146281718D01*
X149203632Y-146275466D01*
X149213042Y-146272574D01*
X149238147Y-146272425D01*
X149265290Y-146287768D01*
X149266590Y-146288753D01*
X149288674Y-146311388D01*
X149299723Y-146333613D01*
X149299769Y-146334253D01*
X149295228Y-146351915D01*
X149282364Y-146386481D01*
X149262605Y-146434826D01*
X149237381Y-146493825D01*
X149208119Y-146560355D01*
X149176250Y-146631291D01*
X149143201Y-146703507D01*
X149110401Y-146773880D01*
X149079280Y-146839285D01*
X149051265Y-146896597D01*
X149027786Y-146942692D01*
X149010272Y-146974446D01*
X149000151Y-146988733D01*
X148965743Y-147002102D01*
X148924046Y-146995741D01*
X148918681Y-146991044D01*
X148902852Y-146968893D01*
X148880650Y-146932132D01*
X148854233Y-146884415D01*
X148825760Y-146829393D01*
X148745986Y-146670150D01*
X148672799Y-146816742D01*
X148663103Y-146836032D01*
X148636125Y-146888380D01*
X148612096Y-146933170D01*
X148593332Y-146966154D01*
X148582146Y-146983089D01*
X148581000Y-146984332D01*
X148552879Y-146999619D01*
X148517817Y-147001302D01*
X148486776Y-146988733D01*
X148484350Y-146985884D01*
X148472090Y-146965259D01*
X148452352Y-146927708D01*
X148426448Y-146875880D01*
X148395685Y-146812423D01*
X148361375Y-146739985D01*
X148324825Y-146661216D01*
X148304585Y-146617093D01*
X148267812Y-146536365D01*
X148239355Y-146472687D01*
X148218331Y-146423752D01*
X148203854Y-146387257D01*
X148195039Y-146360895D01*
X148191004Y-146342361D01*
X148190862Y-146329352D01*
X148193730Y-146319561D01*
X148208387Y-146298678D01*
X148234990Y-146278377D01*
X148235745Y-146278035D01*
X148255335Y-146271034D01*
X148272790Y-146270504D01*
X148289702Y-146278478D01*
G36*
X148289702Y-146278478D02*
G01*
X148307663Y-146296989D01*
X148328263Y-146328071D01*
X148353095Y-146373756D01*
X148383750Y-146436078D01*
X148421820Y-146517071D01*
X148436454Y-146548454D01*
X148466203Y-146611638D01*
X148492297Y-146666244D01*
X148513292Y-146709290D01*
X148527739Y-146737793D01*
X148534191Y-146748770D01*
X148535550Y-146748189D01*
X148545542Y-146734242D01*
X148562833Y-146704704D01*
X148585430Y-146663087D01*
X148611338Y-146612903D01*
X148627311Y-146581414D01*
X148656261Y-146526061D01*
X148678749Y-146487044D01*
X148696965Y-146461566D01*
X148713096Y-146446831D01*
X148729330Y-146440042D01*
X148747857Y-146438400D01*
X148758360Y-146438875D01*
X148774476Y-146443082D01*
X148789790Y-146453946D01*
X148806388Y-146474219D01*
X148826357Y-146506654D01*
X148851783Y-146554004D01*
X148884752Y-146619022D01*
X148894485Y-146638277D01*
X148918943Y-146684946D01*
X148939178Y-146721109D01*
X148953311Y-146743497D01*
X148959460Y-146748845D01*
X148960827Y-146745573D01*
X148970202Y-146724664D01*
X148987062Y-146687725D01*
X149009979Y-146637874D01*
X149037520Y-146578226D01*
X149068255Y-146511898D01*
X149094970Y-146454677D01*
X149124593Y-146392688D01*
X149147664Y-146346949D01*
X149165643Y-146314908D01*
X149179990Y-146294014D01*
X149192166Y-146281718D01*
X149203632Y-146275466D01*
X149213042Y-146272574D01*
X149238147Y-146272425D01*
X149265290Y-146287768D01*
X149266590Y-146288753D01*
X149288674Y-146311388D01*
X149299723Y-146333613D01*
X149299769Y-146334253D01*
X149295228Y-146351915D01*
X149282364Y-146386481D01*
X149262605Y-146434826D01*
X149237381Y-146493825D01*
X149208119Y-146560355D01*
X149176250Y-146631291D01*
X149143201Y-146703507D01*
X149110401Y-146773880D01*
X149079280Y-146839285D01*
X149051265Y-146896597D01*
X149027786Y-146942692D01*
X149010272Y-146974446D01*
X149000151Y-146988733D01*
X148965743Y-147002102D01*
X148924046Y-146995741D01*
X148918681Y-146991044D01*
X148902852Y-146968893D01*
X148880650Y-146932132D01*
X148854233Y-146884415D01*
X148825760Y-146829393D01*
X148745986Y-146670150D01*
X148672799Y-146816742D01*
X148663103Y-146836032D01*
X148636125Y-146888380D01*
X148612096Y-146933170D01*
X148593332Y-146966154D01*
X148582146Y-146983089D01*
X148581000Y-146984332D01*
X148552879Y-146999619D01*
X148517817Y-147001302D01*
X148486776Y-146988733D01*
X148484350Y-146985884D01*
X148472090Y-146965259D01*
X148452352Y-146927708D01*
X148426448Y-146875880D01*
X148395685Y-146812423D01*
X148361375Y-146739985D01*
X148324825Y-146661216D01*
X148304585Y-146617093D01*
X148267812Y-146536365D01*
X148239355Y-146472687D01*
X148218331Y-146423752D01*
X148203854Y-146387257D01*
X148195039Y-146360895D01*
X148191004Y-146342361D01*
X148190862Y-146329352D01*
X148193730Y-146319561D01*
X148208387Y-146298678D01*
X148234990Y-146278377D01*
X148235745Y-146278035D01*
X148255335Y-146271034D01*
X148272790Y-146270504D01*
X148289702Y-146278478D01*
G37*
X155840853Y-146269936D02*
X155907100Y-146275366D01*
X155962400Y-146284964D01*
X156013283Y-146299825D01*
X156084595Y-146332958D01*
X156135752Y-146375640D01*
X156166575Y-146427705D01*
X156176889Y-146488983D01*
X156175952Y-146520232D01*
X156170160Y-146545029D01*
X156155353Y-146566699D01*
X156127380Y-146594049D01*
X156119402Y-146601378D01*
X156095692Y-146622281D01*
X156073298Y-146639251D01*
X156049265Y-146653205D01*
X156020637Y-146665056D01*
X155984460Y-146675720D01*
X155937780Y-146686111D01*
X155877641Y-146697146D01*
X155801090Y-146709738D01*
X155705171Y-146724804D01*
X155686808Y-146727838D01*
X155624478Y-146741458D01*
X155579260Y-146757192D01*
X155552976Y-146774263D01*
X155547447Y-146791897D01*
X155550068Y-146796168D01*
X155568000Y-146811233D01*
X155596126Y-146827867D01*
X155608926Y-146833857D01*
X155630224Y-146841050D01*
X155656610Y-146845827D01*
X155692454Y-146848646D01*
X155742128Y-146849964D01*
X155810000Y-146850237D01*
X155827785Y-146850164D01*
X155895406Y-146849053D01*
X155960345Y-146846828D01*
X156015970Y-146843762D01*
X156055651Y-146840127D01*
X156091162Y-146836059D01*
X156120415Y-146835276D01*
X156139315Y-146839876D01*
X156154429Y-146850551D01*
X156158085Y-146854144D01*
X156174427Y-146885918D01*
X156173107Y-146921572D01*
X156154150Y-146952190D01*
X156133780Y-146963796D01*
X156097796Y-146976491D01*
X156055372Y-146986541D01*
X156051922Y-146987140D01*
X156009252Y-146992356D01*
X155951866Y-146996730D01*
X155886849Y-146999818D01*
X155821289Y-147001177D01*
X155805057Y-147001218D01*
X155706744Y-146998741D01*
X155626692Y-146990735D01*
X155561513Y-146976203D01*
X155507817Y-146954149D01*
X155462216Y-146923576D01*
X155421323Y-146883486D01*
X155401202Y-146857259D01*
X155389576Y-146827712D01*
X155386667Y-146787995D01*
X155386808Y-146776026D01*
X155390681Y-146743345D01*
X155403065Y-146716819D01*
X155428230Y-146685971D01*
X155449442Y-146663831D01*
X155475838Y-146641285D01*
X155505555Y-146622917D01*
X155541785Y-146607661D01*
X155587717Y-146594449D01*
X155646544Y-146582214D01*
X155721456Y-146569889D01*
X155815645Y-146556406D01*
X155860957Y-146549396D01*
X155928911Y-146534837D01*
X155978047Y-146518337D01*
X156007614Y-146500439D01*
X156016864Y-146481685D01*
X156005048Y-146462615D01*
X155971416Y-146443771D01*
X155968370Y-146442557D01*
X155922011Y-146430479D01*
X155859361Y-146422279D01*
X155785927Y-146418119D01*
X155707217Y-146418161D01*
X155628739Y-146422569D01*
X155556000Y-146431505D01*
X155552073Y-146432154D01*
X155503257Y-146439861D01*
X155471005Y-146443473D01*
X155450008Y-146442876D01*
X155434954Y-146437954D01*
X155420534Y-146428596D01*
X155419364Y-146427725D01*
X155394847Y-146397351D01*
X155390054Y-146361850D01*
X155405860Y-146327269D01*
X155410406Y-146322813D01*
X155440020Y-146307673D01*
X155487002Y-146294550D01*
X155547306Y-146283750D01*
X155616888Y-146275581D01*
X155691703Y-146270351D01*
X155767706Y-146268367D01*
X155840853Y-146269936D01*
G36*
X155840853Y-146269936D02*
G01*
X155907100Y-146275366D01*
X155962400Y-146284964D01*
X156013283Y-146299825D01*
X156084595Y-146332958D01*
X156135752Y-146375640D01*
X156166575Y-146427705D01*
X156176889Y-146488983D01*
X156175952Y-146520232D01*
X156170160Y-146545029D01*
X156155353Y-146566699D01*
X156127380Y-146594049D01*
X156119402Y-146601378D01*
X156095692Y-146622281D01*
X156073298Y-146639251D01*
X156049265Y-146653205D01*
X156020637Y-146665056D01*
X155984460Y-146675720D01*
X155937780Y-146686111D01*
X155877641Y-146697146D01*
X155801090Y-146709738D01*
X155705171Y-146724804D01*
X155686808Y-146727838D01*
X155624478Y-146741458D01*
X155579260Y-146757192D01*
X155552976Y-146774263D01*
X155547447Y-146791897D01*
X155550068Y-146796168D01*
X155568000Y-146811233D01*
X155596126Y-146827867D01*
X155608926Y-146833857D01*
X155630224Y-146841050D01*
X155656610Y-146845827D01*
X155692454Y-146848646D01*
X155742128Y-146849964D01*
X155810000Y-146850237D01*
X155827785Y-146850164D01*
X155895406Y-146849053D01*
X155960345Y-146846828D01*
X156015970Y-146843762D01*
X156055651Y-146840127D01*
X156091162Y-146836059D01*
X156120415Y-146835276D01*
X156139315Y-146839876D01*
X156154429Y-146850551D01*
X156158085Y-146854144D01*
X156174427Y-146885918D01*
X156173107Y-146921572D01*
X156154150Y-146952190D01*
X156133780Y-146963796D01*
X156097796Y-146976491D01*
X156055372Y-146986541D01*
X156051922Y-146987140D01*
X156009252Y-146992356D01*
X155951866Y-146996730D01*
X155886849Y-146999818D01*
X155821289Y-147001177D01*
X155805057Y-147001218D01*
X155706744Y-146998741D01*
X155626692Y-146990735D01*
X155561513Y-146976203D01*
X155507817Y-146954149D01*
X155462216Y-146923576D01*
X155421323Y-146883486D01*
X155401202Y-146857259D01*
X155389576Y-146827712D01*
X155386667Y-146787995D01*
X155386808Y-146776026D01*
X155390681Y-146743345D01*
X155403065Y-146716819D01*
X155428230Y-146685971D01*
X155449442Y-146663831D01*
X155475838Y-146641285D01*
X155505555Y-146622917D01*
X155541785Y-146607661D01*
X155587717Y-146594449D01*
X155646544Y-146582214D01*
X155721456Y-146569889D01*
X155815645Y-146556406D01*
X155860957Y-146549396D01*
X155928911Y-146534837D01*
X155978047Y-146518337D01*
X156007614Y-146500439D01*
X156016864Y-146481685D01*
X156005048Y-146462615D01*
X155971416Y-146443771D01*
X155968370Y-146442557D01*
X155922011Y-146430479D01*
X155859361Y-146422279D01*
X155785927Y-146418119D01*
X155707217Y-146418161D01*
X155628739Y-146422569D01*
X155556000Y-146431505D01*
X155552073Y-146432154D01*
X155503257Y-146439861D01*
X155471005Y-146443473D01*
X155450008Y-146442876D01*
X155434954Y-146437954D01*
X155420534Y-146428596D01*
X155419364Y-146427725D01*
X155394847Y-146397351D01*
X155390054Y-146361850D01*
X155405860Y-146327269D01*
X155410406Y-146322813D01*
X155440020Y-146307673D01*
X155487002Y-146294550D01*
X155547306Y-146283750D01*
X155616888Y-146275581D01*
X155691703Y-146270351D01*
X155767706Y-146268367D01*
X155840853Y-146269936D01*
G37*
X151988711Y-141962033D02*
X152084268Y-141979523D01*
X152248558Y-142024564D01*
X152402589Y-142087656D01*
X152548509Y-142169915D01*
X152688466Y-142272457D01*
X152824608Y-142396399D01*
X152868473Y-142441661D01*
X152980758Y-142573865D01*
X153073972Y-142711832D01*
X153150719Y-142859750D01*
X153213603Y-143021803D01*
X153217420Y-143033391D01*
X153267507Y-143219392D01*
X153300899Y-143415521D01*
X153317584Y-143617568D01*
X153317551Y-143821325D01*
X153300791Y-144022581D01*
X153267292Y-144217128D01*
X153217044Y-144400756D01*
X153173190Y-144518053D01*
X153095348Y-144680951D01*
X153001828Y-144834866D01*
X152894822Y-144976671D01*
X152776519Y-145103239D01*
X152649111Y-145211441D01*
X152571606Y-145264120D01*
X152444725Y-145333750D01*
X152307243Y-145392468D01*
X152165716Y-145437587D01*
X152026702Y-145466422D01*
X152012597Y-145468106D01*
X151969153Y-145471434D01*
X151911723Y-145474275D01*
X151846122Y-145476373D01*
X151778167Y-145477468D01*
X151651378Y-145475140D01*
X151503673Y-145462136D01*
X151365779Y-145437133D01*
X151232014Y-145399318D01*
X151208562Y-145390889D01*
X151160612Y-145371408D01*
X151104140Y-145346473D01*
X151042379Y-145317722D01*
X150978563Y-145286790D01*
X150915926Y-145255315D01*
X150857703Y-145224934D01*
X150807127Y-145197283D01*
X150767433Y-145173999D01*
X150741854Y-145156718D01*
X150733625Y-145147079D01*
X150735076Y-145143984D01*
X150746250Y-145124079D01*
X150767134Y-145088420D01*
X150796265Y-145039459D01*
X150832181Y-144979646D01*
X150873420Y-144911433D01*
X150918517Y-144837271D01*
X151099785Y-144540008D01*
X151146315Y-144584539D01*
X151237723Y-144662865D01*
X151351334Y-144737439D01*
X151469122Y-144791474D01*
X151589559Y-144824290D01*
X151711117Y-144835211D01*
X151752585Y-144833868D01*
X151870080Y-144815612D01*
X151980089Y-144776617D01*
X152081430Y-144717670D01*
X152172921Y-144639557D01*
X152253380Y-144543064D01*
X152321627Y-144428978D01*
X152337908Y-144394724D01*
X152383982Y-144271240D01*
X152419106Y-144132918D01*
X152443197Y-143983561D01*
X152456173Y-143826973D01*
X152457949Y-143666956D01*
X152448443Y-143507314D01*
X152427572Y-143351850D01*
X152395252Y-143204366D01*
X152351399Y-143068667D01*
X152313982Y-142982076D01*
X152249185Y-142868688D01*
X152173772Y-142775070D01*
X152087418Y-142700959D01*
X151989795Y-142646094D01*
X151880577Y-142610212D01*
X151759439Y-142593051D01*
X151690038Y-142591880D01*
X151567168Y-142606141D01*
X151451664Y-142641241D01*
X151344953Y-142696682D01*
X151248464Y-142771964D01*
X151232720Y-142786440D01*
X151202150Y-142812962D01*
X151179809Y-142830138D01*
X151169691Y-142834787D01*
X151167706Y-142832597D01*
X151153241Y-142813721D01*
X151129400Y-142780397D01*
X151098029Y-142735380D01*
X151060974Y-142681425D01*
X151020083Y-142621285D01*
X150977202Y-142557718D01*
X150934178Y-142493476D01*
X150892857Y-142431315D01*
X150855086Y-142373991D01*
X150822712Y-142324257D01*
X150797582Y-142284868D01*
X150781542Y-142258580D01*
X150776439Y-142248147D01*
X150781050Y-142243941D01*
X150800267Y-142238933D01*
X150809838Y-142236386D01*
X150837809Y-142225249D01*
X150879448Y-142206802D01*
X150930995Y-142182725D01*
X150988690Y-142154699D01*
X150999957Y-142149154D01*
X151177687Y-142069889D01*
X151347490Y-142010385D01*
X151511430Y-141970245D01*
X151671571Y-141949071D01*
X151829977Y-141946466D01*
X151988711Y-141962033D01*
G36*
X151988711Y-141962033D02*
G01*
X152084268Y-141979523D01*
X152248558Y-142024564D01*
X152402589Y-142087656D01*
X152548509Y-142169915D01*
X152688466Y-142272457D01*
X152824608Y-142396399D01*
X152868473Y-142441661D01*
X152980758Y-142573865D01*
X153073972Y-142711832D01*
X153150719Y-142859750D01*
X153213603Y-143021803D01*
X153217420Y-143033391D01*
X153267507Y-143219392D01*
X153300899Y-143415521D01*
X153317584Y-143617568D01*
X153317551Y-143821325D01*
X153300791Y-144022581D01*
X153267292Y-144217128D01*
X153217044Y-144400756D01*
X153173190Y-144518053D01*
X153095348Y-144680951D01*
X153001828Y-144834866D01*
X152894822Y-144976671D01*
X152776519Y-145103239D01*
X152649111Y-145211441D01*
X152571606Y-145264120D01*
X152444725Y-145333750D01*
X152307243Y-145392468D01*
X152165716Y-145437587D01*
X152026702Y-145466422D01*
X152012597Y-145468106D01*
X151969153Y-145471434D01*
X151911723Y-145474275D01*
X151846122Y-145476373D01*
X151778167Y-145477468D01*
X151651378Y-145475140D01*
X151503673Y-145462136D01*
X151365779Y-145437133D01*
X151232014Y-145399318D01*
X151208562Y-145390889D01*
X151160612Y-145371408D01*
X151104140Y-145346473D01*
X151042379Y-145317722D01*
X150978563Y-145286790D01*
X150915926Y-145255315D01*
X150857703Y-145224934D01*
X150807127Y-145197283D01*
X150767433Y-145173999D01*
X150741854Y-145156718D01*
X150733625Y-145147079D01*
X150735076Y-145143984D01*
X150746250Y-145124079D01*
X150767134Y-145088420D01*
X150796265Y-145039459D01*
X150832181Y-144979646D01*
X150873420Y-144911433D01*
X150918517Y-144837271D01*
X151099785Y-144540008D01*
X151146315Y-144584539D01*
X151237723Y-144662865D01*
X151351334Y-144737439D01*
X151469122Y-144791474D01*
X151589559Y-144824290D01*
X151711117Y-144835211D01*
X151752585Y-144833868D01*
X151870080Y-144815612D01*
X151980089Y-144776617D01*
X152081430Y-144717670D01*
X152172921Y-144639557D01*
X152253380Y-144543064D01*
X152321627Y-144428978D01*
X152337908Y-144394724D01*
X152383982Y-144271240D01*
X152419106Y-144132918D01*
X152443197Y-143983561D01*
X152456173Y-143826973D01*
X152457949Y-143666956D01*
X152448443Y-143507314D01*
X152427572Y-143351850D01*
X152395252Y-143204366D01*
X152351399Y-143068667D01*
X152313982Y-142982076D01*
X152249185Y-142868688D01*
X152173772Y-142775070D01*
X152087418Y-142700959D01*
X151989795Y-142646094D01*
X151880577Y-142610212D01*
X151759439Y-142593051D01*
X151690038Y-142591880D01*
X151567168Y-142606141D01*
X151451664Y-142641241D01*
X151344953Y-142696682D01*
X151248464Y-142771964D01*
X151232720Y-142786440D01*
X151202150Y-142812962D01*
X151179809Y-142830138D01*
X151169691Y-142834787D01*
X151167706Y-142832597D01*
X151153241Y-142813721D01*
X151129400Y-142780397D01*
X151098029Y-142735380D01*
X151060974Y-142681425D01*
X151020083Y-142621285D01*
X150977202Y-142557718D01*
X150934178Y-142493476D01*
X150892857Y-142431315D01*
X150855086Y-142373991D01*
X150822712Y-142324257D01*
X150797582Y-142284868D01*
X150781542Y-142258580D01*
X150776439Y-142248147D01*
X150781050Y-142243941D01*
X150800267Y-142238933D01*
X150809838Y-142236386D01*
X150837809Y-142225249D01*
X150879448Y-142206802D01*
X150930995Y-142182725D01*
X150988690Y-142154699D01*
X150999957Y-142149154D01*
X151177687Y-142069889D01*
X151347490Y-142010385D01*
X151511430Y-141970245D01*
X151671571Y-141949071D01*
X151829977Y-141946466D01*
X151988711Y-141962033D01*
G37*
X148185994Y-144242711D02*
X148185268Y-144320158D01*
X148176689Y-144471594D01*
X148157833Y-144608283D01*
X148127837Y-144734276D01*
X148085836Y-144853625D01*
X148030969Y-144970381D01*
X147964167Y-145081179D01*
X147873363Y-145194739D01*
X147769708Y-145290211D01*
X147653887Y-145367073D01*
X147526586Y-145424797D01*
X147388489Y-145462858D01*
X147350793Y-145468666D01*
X147271752Y-145474396D01*
X147183629Y-145474583D01*
X147094236Y-145469539D01*
X147011384Y-145459578D01*
X146942887Y-145445012D01*
X146912035Y-145435364D01*
X146834730Y-145405123D01*
X146757679Y-145367617D01*
X146688200Y-145326614D01*
X146633615Y-145285879D01*
X146610916Y-145266505D01*
X146588201Y-145248662D01*
X146576779Y-145241778D01*
X146575537Y-145243424D01*
X146572728Y-145261205D01*
X146570776Y-145294370D01*
X146570045Y-145337733D01*
X146570045Y-145433689D01*
X145711896Y-145433689D01*
X145746161Y-145372974D01*
X145751355Y-145363868D01*
X145759715Y-145349249D01*
X145767288Y-145335173D01*
X145774112Y-145320540D01*
X145780227Y-145304249D01*
X145785673Y-145285198D01*
X145790487Y-145262286D01*
X145794708Y-145234413D01*
X145798377Y-145200478D01*
X145801531Y-145159379D01*
X145804211Y-145110015D01*
X145806454Y-145051286D01*
X145808299Y-144982090D01*
X145809787Y-144901326D01*
X145810955Y-144807894D01*
X145811844Y-144700692D01*
X145812491Y-144578620D01*
X145812936Y-144440576D01*
X145813218Y-144285459D01*
X145813375Y-144112168D01*
X145813448Y-143919603D01*
X145813474Y-143706662D01*
X145813485Y-143570530D01*
X146615200Y-143570530D01*
X146615200Y-144720721D01*
X146685756Y-144767089D01*
X146726417Y-144790791D01*
X146780546Y-144816639D01*
X146829689Y-144834829D01*
X146893165Y-144850551D01*
X146989331Y-144861541D01*
X147073900Y-144853365D01*
X147147219Y-144825805D01*
X147209637Y-144778642D01*
X147261502Y-144711658D01*
X147303160Y-144624633D01*
X147334962Y-144517350D01*
X147337545Y-144505009D01*
X147346000Y-144443772D01*
X147351663Y-144366692D01*
X147354576Y-144279002D01*
X147354783Y-144185934D01*
X147352330Y-144092720D01*
X147347261Y-144004594D01*
X147339619Y-143926788D01*
X147329448Y-143864533D01*
X147328167Y-143858666D01*
X147299126Y-143748121D01*
X147264610Y-143657575D01*
X147223456Y-143584953D01*
X147174499Y-143528181D01*
X147116574Y-143485184D01*
X147084620Y-143469615D01*
X147011784Y-143450722D01*
X146930443Y-143447465D01*
X146845319Y-143459389D01*
X146761133Y-143486040D01*
X146682608Y-143526962D01*
X146615200Y-143570530D01*
X145813485Y-143570530D01*
X145813493Y-143472245D01*
X145813689Y-141787378D01*
X146719017Y-141787378D01*
X146694585Y-141824067D01*
X146688318Y-141833647D01*
X146662208Y-141879981D01*
X146644469Y-141927102D01*
X146632908Y-141982251D01*
X146625331Y-142052667D01*
X146624839Y-142059650D01*
X146623062Y-142097641D01*
X146621444Y-142151576D01*
X146619999Y-142218703D01*
X146618740Y-142296271D01*
X146617680Y-142381528D01*
X146616829Y-142471724D01*
X146616203Y-142564107D01*
X146615812Y-142655925D01*
X146615670Y-142744427D01*
X146615790Y-142826862D01*
X146616183Y-142900479D01*
X146616862Y-142962526D01*
X146617841Y-143010251D01*
X146619132Y-143040904D01*
X146620747Y-143051733D01*
X146628957Y-143047333D01*
X146650647Y-143032362D01*
X146680014Y-143010448D01*
X146728879Y-142976236D01*
X146817125Y-142929714D01*
X146915916Y-142896046D01*
X147028510Y-142874231D01*
X147158164Y-142863265D01*
X147250670Y-142862219D01*
X147372011Y-142872014D01*
X147482099Y-142896174D01*
X147585389Y-142935785D01*
X147686338Y-142991932D01*
X147731503Y-143022883D01*
X147836911Y-143114115D01*
X147928538Y-143223106D01*
X148006332Y-143349726D01*
X148070241Y-143493845D01*
X148120214Y-143655332D01*
X148156198Y-143834059D01*
X148178143Y-144029895D01*
X148183900Y-144185934D01*
X148185994Y-144242711D01*
G36*
X148185994Y-144242711D02*
G01*
X148185268Y-144320158D01*
X148176689Y-144471594D01*
X148157833Y-144608283D01*
X148127837Y-144734276D01*
X148085836Y-144853625D01*
X148030969Y-144970381D01*
X147964167Y-145081179D01*
X147873363Y-145194739D01*
X147769708Y-145290211D01*
X147653887Y-145367073D01*
X147526586Y-145424797D01*
X147388489Y-145462858D01*
X147350793Y-145468666D01*
X147271752Y-145474396D01*
X147183629Y-145474583D01*
X147094236Y-145469539D01*
X147011384Y-145459578D01*
X146942887Y-145445012D01*
X146912035Y-145435364D01*
X146834730Y-145405123D01*
X146757679Y-145367617D01*
X146688200Y-145326614D01*
X146633615Y-145285879D01*
X146610916Y-145266505D01*
X146588201Y-145248662D01*
X146576779Y-145241778D01*
X146575537Y-145243424D01*
X146572728Y-145261205D01*
X146570776Y-145294370D01*
X146570045Y-145337733D01*
X146570045Y-145433689D01*
X145711896Y-145433689D01*
X145746161Y-145372974D01*
X145751355Y-145363868D01*
X145759715Y-145349249D01*
X145767288Y-145335173D01*
X145774112Y-145320540D01*
X145780227Y-145304249D01*
X145785673Y-145285198D01*
X145790487Y-145262286D01*
X145794708Y-145234413D01*
X145798377Y-145200478D01*
X145801531Y-145159379D01*
X145804211Y-145110015D01*
X145806454Y-145051286D01*
X145808299Y-144982090D01*
X145809787Y-144901326D01*
X145810955Y-144807894D01*
X145811844Y-144700692D01*
X145812491Y-144578620D01*
X145812936Y-144440576D01*
X145813218Y-144285459D01*
X145813375Y-144112168D01*
X145813448Y-143919603D01*
X145813474Y-143706662D01*
X145813485Y-143570530D01*
X146615200Y-143570530D01*
X146615200Y-144720721D01*
X146685756Y-144767089D01*
X146726417Y-144790791D01*
X146780546Y-144816639D01*
X146829689Y-144834829D01*
X146893165Y-144850551D01*
X146989331Y-144861541D01*
X147073900Y-144853365D01*
X147147219Y-144825805D01*
X147209637Y-144778642D01*
X147261502Y-144711658D01*
X147303160Y-144624633D01*
X147334962Y-144517350D01*
X147337545Y-144505009D01*
X147346000Y-144443772D01*
X147351663Y-144366692D01*
X147354576Y-144279002D01*
X147354783Y-144185934D01*
X147352330Y-144092720D01*
X147347261Y-144004594D01*
X147339619Y-143926788D01*
X147329448Y-143864533D01*
X147328167Y-143858666D01*
X147299126Y-143748121D01*
X147264610Y-143657575D01*
X147223456Y-143584953D01*
X147174499Y-143528181D01*
X147116574Y-143485184D01*
X147084620Y-143469615D01*
X147011784Y-143450722D01*
X146930443Y-143447465D01*
X146845319Y-143459389D01*
X146761133Y-143486040D01*
X146682608Y-143526962D01*
X146615200Y-143570530D01*
X145813485Y-143570530D01*
X145813493Y-143472245D01*
X145813689Y-141787378D01*
X146719017Y-141787378D01*
X146694585Y-141824067D01*
X146688318Y-141833647D01*
X146662208Y-141879981D01*
X146644469Y-141927102D01*
X146632908Y-141982251D01*
X146625331Y-142052667D01*
X146624839Y-142059650D01*
X146623062Y-142097641D01*
X146621444Y-142151576D01*
X146619999Y-142218703D01*
X146618740Y-142296271D01*
X146617680Y-142381528D01*
X146616829Y-142471724D01*
X146616203Y-142564107D01*
X146615812Y-142655925D01*
X146615670Y-142744427D01*
X146615790Y-142826862D01*
X146616183Y-142900479D01*
X146616862Y-142962526D01*
X146617841Y-143010251D01*
X146619132Y-143040904D01*
X146620747Y-143051733D01*
X146628957Y-143047333D01*
X146650647Y-143032362D01*
X146680014Y-143010448D01*
X146728879Y-142976236D01*
X146817125Y-142929714D01*
X146915916Y-142896046D01*
X147028510Y-142874231D01*
X147158164Y-142863265D01*
X147250670Y-142862219D01*
X147372011Y-142872014D01*
X147482099Y-142896174D01*
X147585389Y-142935785D01*
X147686338Y-142991932D01*
X147731503Y-143022883D01*
X147836911Y-143114115D01*
X147928538Y-143223106D01*
X148006332Y-143349726D01*
X148070241Y-143493845D01*
X148120214Y-143655332D01*
X148156198Y-143834059D01*
X148178143Y-144029895D01*
X148183900Y-144185934D01*
X148185994Y-144242711D01*
G37*
X150727755Y-144643467D02*
X150727261Y-144677363D01*
X150723632Y-144752202D01*
X150716022Y-144814401D01*
X150703688Y-144870984D01*
X150659313Y-144997076D01*
X150596400Y-145111679D01*
X150516238Y-145212568D01*
X150419740Y-145298924D01*
X150307822Y-145369932D01*
X150181397Y-145424776D01*
X150041378Y-145462638D01*
X150005149Y-145468351D01*
X149926155Y-145474313D01*
X149837841Y-145474646D01*
X149748075Y-145469659D01*
X149664722Y-145459666D01*
X149595651Y-145444978D01*
X149509187Y-145414749D01*
X149399286Y-145360057D01*
X149301956Y-145292543D01*
X149239867Y-145241556D01*
X149236605Y-145337622D01*
X149233343Y-145433689D01*
X148810450Y-145433689D01*
X148799543Y-145433686D01*
X148705056Y-145433380D01*
X148618331Y-145432616D01*
X148541837Y-145431451D01*
X148478043Y-145429942D01*
X148429418Y-145428147D01*
X148398433Y-145426121D01*
X148387556Y-145423922D01*
X148387578Y-145423463D01*
X148394614Y-145407910D01*
X148410434Y-145385071D01*
X148414734Y-145379638D01*
X148425777Y-145365606D01*
X148435311Y-145352186D01*
X148443461Y-145337722D01*
X148450352Y-145320556D01*
X148456111Y-145299034D01*
X148460862Y-145271498D01*
X148464731Y-145236292D01*
X148467844Y-145191760D01*
X148470325Y-145136246D01*
X148472300Y-145068093D01*
X148473894Y-144985645D01*
X148475234Y-144887246D01*
X148476444Y-144771239D01*
X148477649Y-144635968D01*
X148478595Y-144524586D01*
X149279378Y-144524586D01*
X149279378Y-144720462D01*
X149324048Y-144776973D01*
X149336785Y-144792212D01*
X149383604Y-144834844D01*
X149444255Y-144870672D01*
X149454897Y-144875850D01*
X149493676Y-144892745D01*
X149528692Y-144902909D01*
X149568722Y-144908325D01*
X149622541Y-144910978D01*
X149640648Y-144911383D01*
X149716011Y-144908540D01*
X149776743Y-144896620D01*
X149828452Y-144874037D01*
X149876746Y-144839211D01*
X149881803Y-144834798D01*
X149930272Y-144779160D01*
X149958459Y-144715333D01*
X149967752Y-144640282D01*
X149960520Y-144568693D01*
X149935796Y-144505645D01*
X149891249Y-144447758D01*
X149836319Y-144400808D01*
X149763894Y-144360961D01*
X149677340Y-144333263D01*
X149574670Y-144317096D01*
X149453894Y-144311842D01*
X149445007Y-144311857D01*
X149389660Y-144312655D01*
X149342736Y-144314488D01*
X149308953Y-144317111D01*
X149293028Y-144320274D01*
X149288943Y-144326741D01*
X149284572Y-144348875D01*
X149281604Y-144387988D01*
X149279914Y-144445939D01*
X149279378Y-144524586D01*
X148478595Y-144524586D01*
X148478975Y-144479778D01*
X148480228Y-144337012D01*
X148481651Y-144191942D01*
X148483176Y-144066027D01*
X148484933Y-143957436D01*
X148487051Y-143864334D01*
X148489660Y-143784891D01*
X148492890Y-143717273D01*
X148496869Y-143659649D01*
X148501728Y-143610185D01*
X148507597Y-143567050D01*
X148514604Y-143528410D01*
X148522880Y-143492434D01*
X148532554Y-143457289D01*
X148543756Y-143421142D01*
X148556616Y-143382161D01*
X148572090Y-143339091D01*
X148614994Y-143246871D01*
X148668735Y-143167099D01*
X148737576Y-143092965D01*
X148815185Y-143029405D01*
X148919761Y-142967725D01*
X149039244Y-142920202D01*
X149174508Y-142886567D01*
X149326426Y-142866552D01*
X149495872Y-142859889D01*
X149553890Y-142860287D01*
X149619398Y-142862335D01*
X149680693Y-142866704D01*
X149742097Y-142874035D01*
X149807932Y-142884969D01*
X149882520Y-142900147D01*
X149970184Y-142920209D01*
X150075245Y-142945797D01*
X150103806Y-142952820D01*
X150179054Y-142970776D01*
X150249388Y-142986820D01*
X150310567Y-143000028D01*
X150358354Y-143009474D01*
X150388511Y-143014231D01*
X150416783Y-143017910D01*
X150443060Y-143023187D01*
X150453059Y-143027942D01*
X150449952Y-143036781D01*
X150439194Y-143064072D01*
X150421864Y-143106906D01*
X150399126Y-143162425D01*
X150372147Y-143227772D01*
X150342090Y-143300089D01*
X150335493Y-143315879D01*
X150296907Y-143406484D01*
X150265768Y-143476217D01*
X150241917Y-143525405D01*
X150225198Y-143554374D01*
X150215454Y-143563452D01*
X150207766Y-143561405D01*
X150181415Y-143551760D01*
X150142982Y-143536190D01*
X150097822Y-143516815D01*
X150003293Y-143478814D01*
X149866480Y-143437780D01*
X149725289Y-143412612D01*
X149687314Y-143408611D01*
X149584059Y-143406447D01*
X149496952Y-143419622D01*
X149425129Y-143448756D01*
X149367731Y-143494466D01*
X149323896Y-143557372D01*
X149292762Y-143638092D01*
X149273470Y-143737245D01*
X149266050Y-143796224D01*
X149427936Y-143789445D01*
X149554495Y-143787813D01*
X149705951Y-143794194D01*
X149854396Y-143808777D01*
X149990578Y-143830882D01*
X150055245Y-143845821D01*
X150187490Y-143888741D01*
X150309762Y-143945340D01*
X150419685Y-144014017D01*
X150514883Y-144093170D01*
X150592980Y-144181196D01*
X150651599Y-144276493D01*
X150675595Y-144328864D01*
X150701232Y-144399590D01*
X150717478Y-144470812D01*
X150725822Y-144549712D01*
X150727690Y-144640282D01*
X150727755Y-144643467D01*
G36*
X150727755Y-144643467D02*
G01*
X150727261Y-144677363D01*
X150723632Y-144752202D01*
X150716022Y-144814401D01*
X150703688Y-144870984D01*
X150659313Y-144997076D01*
X150596400Y-145111679D01*
X150516238Y-145212568D01*
X150419740Y-145298924D01*
X150307822Y-145369932D01*
X150181397Y-145424776D01*
X150041378Y-145462638D01*
X150005149Y-145468351D01*
X149926155Y-145474313D01*
X149837841Y-145474646D01*
X149748075Y-145469659D01*
X149664722Y-145459666D01*
X149595651Y-145444978D01*
X149509187Y-145414749D01*
X149399286Y-145360057D01*
X149301956Y-145292543D01*
X149239867Y-145241556D01*
X149236605Y-145337622D01*
X149233343Y-145433689D01*
X148810450Y-145433689D01*
X148799543Y-145433686D01*
X148705056Y-145433380D01*
X148618331Y-145432616D01*
X148541837Y-145431451D01*
X148478043Y-145429942D01*
X148429418Y-145428147D01*
X148398433Y-145426121D01*
X148387556Y-145423922D01*
X148387578Y-145423463D01*
X148394614Y-145407910D01*
X148410434Y-145385071D01*
X148414734Y-145379638D01*
X148425777Y-145365606D01*
X148435311Y-145352186D01*
X148443461Y-145337722D01*
X148450352Y-145320556D01*
X148456111Y-145299034D01*
X148460862Y-145271498D01*
X148464731Y-145236292D01*
X148467844Y-145191760D01*
X148470325Y-145136246D01*
X148472300Y-145068093D01*
X148473894Y-144985645D01*
X148475234Y-144887246D01*
X148476444Y-144771239D01*
X148477649Y-144635968D01*
X148478595Y-144524586D01*
X149279378Y-144524586D01*
X149279378Y-144720462D01*
X149324048Y-144776973D01*
X149336785Y-144792212D01*
X149383604Y-144834844D01*
X149444255Y-144870672D01*
X149454897Y-144875850D01*
X149493676Y-144892745D01*
X149528692Y-144902909D01*
X149568722Y-144908325D01*
X149622541Y-144910978D01*
X149640648Y-144911383D01*
X149716011Y-144908540D01*
X149776743Y-144896620D01*
X149828452Y-144874037D01*
X149876746Y-144839211D01*
X149881803Y-144834798D01*
X149930272Y-144779160D01*
X149958459Y-144715333D01*
X149967752Y-144640282D01*
X149960520Y-144568693D01*
X149935796Y-144505645D01*
X149891249Y-144447758D01*
X149836319Y-144400808D01*
X149763894Y-144360961D01*
X149677340Y-144333263D01*
X149574670Y-144317096D01*
X149453894Y-144311842D01*
X149445007Y-144311857D01*
X149389660Y-144312655D01*
X149342736Y-144314488D01*
X149308953Y-144317111D01*
X149293028Y-144320274D01*
X149288943Y-144326741D01*
X149284572Y-144348875D01*
X149281604Y-144387988D01*
X149279914Y-144445939D01*
X149279378Y-144524586D01*
X148478595Y-144524586D01*
X148478975Y-144479778D01*
X148480228Y-144337012D01*
X148481651Y-144191942D01*
X148483176Y-144066027D01*
X148484933Y-143957436D01*
X148487051Y-143864334D01*
X148489660Y-143784891D01*
X148492890Y-143717273D01*
X148496869Y-143659649D01*
X148501728Y-143610185D01*
X148507597Y-143567050D01*
X148514604Y-143528410D01*
X148522880Y-143492434D01*
X148532554Y-143457289D01*
X148543756Y-143421142D01*
X148556616Y-143382161D01*
X148572090Y-143339091D01*
X148614994Y-143246871D01*
X148668735Y-143167099D01*
X148737576Y-143092965D01*
X148815185Y-143029405D01*
X148919761Y-142967725D01*
X149039244Y-142920202D01*
X149174508Y-142886567D01*
X149326426Y-142866552D01*
X149495872Y-142859889D01*
X149553890Y-142860287D01*
X149619398Y-142862335D01*
X149680693Y-142866704D01*
X149742097Y-142874035D01*
X149807932Y-142884969D01*
X149882520Y-142900147D01*
X149970184Y-142920209D01*
X150075245Y-142945797D01*
X150103806Y-142952820D01*
X150179054Y-142970776D01*
X150249388Y-142986820D01*
X150310567Y-143000028D01*
X150358354Y-143009474D01*
X150388511Y-143014231D01*
X150416783Y-143017910D01*
X150443060Y-143023187D01*
X150453059Y-143027942D01*
X150449952Y-143036781D01*
X150439194Y-143064072D01*
X150421864Y-143106906D01*
X150399126Y-143162425D01*
X150372147Y-143227772D01*
X150342090Y-143300089D01*
X150335493Y-143315879D01*
X150296907Y-143406484D01*
X150265768Y-143476217D01*
X150241917Y-143525405D01*
X150225198Y-143554374D01*
X150215454Y-143563452D01*
X150207766Y-143561405D01*
X150181415Y-143551760D01*
X150142982Y-143536190D01*
X150097822Y-143516815D01*
X150003293Y-143478814D01*
X149866480Y-143437780D01*
X149725289Y-143412612D01*
X149687314Y-143408611D01*
X149584059Y-143406447D01*
X149496952Y-143419622D01*
X149425129Y-143448756D01*
X149367731Y-143494466D01*
X149323896Y-143557372D01*
X149292762Y-143638092D01*
X149273470Y-143737245D01*
X149266050Y-143796224D01*
X149427936Y-143789445D01*
X149554495Y-143787813D01*
X149705951Y-143794194D01*
X149854396Y-143808777D01*
X149990578Y-143830882D01*
X150055245Y-143845821D01*
X150187490Y-143888741D01*
X150309762Y-143945340D01*
X150419685Y-144014017D01*
X150514883Y-144093170D01*
X150592980Y-144181196D01*
X150651599Y-144276493D01*
X150675595Y-144328864D01*
X150701232Y-144399590D01*
X150717478Y-144470812D01*
X150725822Y-144549712D01*
X150727690Y-144640282D01*
X150727755Y-144643467D01*
G37*
X158275614Y-142111792D02*
X158276059Y-142243011D01*
X158276362Y-142390216D01*
X158276548Y-142554349D01*
X158276642Y-142736352D01*
X158276671Y-142937165D01*
X158276661Y-143157732D01*
X158276636Y-143398992D01*
X158276622Y-143661889D01*
X158276622Y-143704040D01*
X158276646Y-143964668D01*
X158276685Y-144203796D01*
X158276708Y-144422360D01*
X158276687Y-144621295D01*
X158276593Y-144801535D01*
X158276395Y-144964015D01*
X158276063Y-145109670D01*
X158275569Y-145239434D01*
X158274883Y-145354243D01*
X158273976Y-145455030D01*
X158272817Y-145542730D01*
X158271378Y-145618279D01*
X158269629Y-145682611D01*
X158267540Y-145736661D01*
X158265083Y-145781363D01*
X158262227Y-145817652D01*
X158258943Y-145846463D01*
X158255202Y-145868731D01*
X158250974Y-145885390D01*
X158246229Y-145897375D01*
X158240939Y-145905621D01*
X158235073Y-145911062D01*
X158228602Y-145914634D01*
X158221497Y-145917270D01*
X158213728Y-145919906D01*
X158205266Y-145923477D01*
X158200908Y-145925145D01*
X158192395Y-145927111D01*
X158179694Y-145928911D01*
X158161885Y-145930555D01*
X158138049Y-145932047D01*
X158107266Y-145933397D01*
X158068617Y-145934611D01*
X158021182Y-145935697D01*
X157964043Y-145936661D01*
X157896279Y-145937511D01*
X157816971Y-145938253D01*
X157725199Y-145938897D01*
X157620044Y-145939447D01*
X157500587Y-145939913D01*
X157365908Y-145940300D01*
X157215088Y-145940616D01*
X157047206Y-145940869D01*
X156861345Y-145941066D01*
X156656583Y-145941213D01*
X156432002Y-145941318D01*
X156186682Y-145941389D01*
X155919704Y-145941432D01*
X155881321Y-145941437D01*
X155615922Y-145941480D01*
X155372050Y-145941525D01*
X155148783Y-145941548D01*
X154945196Y-145941524D01*
X154760367Y-145941430D01*
X154593373Y-145941243D01*
X154443290Y-145940939D01*
X154309196Y-145940494D01*
X154190166Y-145939885D01*
X154085279Y-145939089D01*
X153993610Y-145938080D01*
X153914237Y-145936837D01*
X153846237Y-145935335D01*
X153788686Y-145933551D01*
X153740662Y-145931461D01*
X153701240Y-145929042D01*
X153669499Y-145926270D01*
X153644514Y-145923121D01*
X153625364Y-145919572D01*
X153611123Y-145915598D01*
X153600871Y-145911178D01*
X153593682Y-145906286D01*
X153588635Y-145900900D01*
X153584805Y-145894996D01*
X153581271Y-145888549D01*
X153577108Y-145881537D01*
X153576025Y-145879687D01*
X153573813Y-145874180D01*
X153571786Y-145865868D01*
X153569938Y-145853809D01*
X153568261Y-145837063D01*
X153566745Y-145814687D01*
X153565383Y-145785740D01*
X153564167Y-145749280D01*
X153563089Y-145704367D01*
X153562140Y-145650057D01*
X153561312Y-145585410D01*
X153560597Y-145509484D01*
X153559987Y-145421338D01*
X153559942Y-145412493D01*
X153851378Y-145412493D01*
X153855260Y-145413765D01*
X153878520Y-145415791D01*
X153920874Y-145417626D01*
X153980132Y-145419227D01*
X154054107Y-145420549D01*
X154140610Y-145421548D01*
X154237452Y-145422180D01*
X154342445Y-145422400D01*
X155040651Y-145422400D01*
X156195090Y-145422400D01*
X156194456Y-145346200D01*
X156195574Y-145304160D01*
X156201304Y-145268334D01*
X156213890Y-145230772D01*
X156235568Y-145182577D01*
X156238789Y-145175897D01*
X156264188Y-145126359D01*
X156290996Y-145078369D01*
X156313917Y-145041466D01*
X156318485Y-145034834D01*
X156340516Y-145003593D01*
X156372693Y-144958654D01*
X156413457Y-144902147D01*
X156461245Y-144836204D01*
X156514498Y-144762957D01*
X156571655Y-144684536D01*
X156631155Y-144603072D01*
X156691437Y-144520698D01*
X156750940Y-144439544D01*
X156808105Y-144361742D01*
X156861370Y-144289423D01*
X156909174Y-144224718D01*
X156949957Y-144169759D01*
X156982158Y-144126676D01*
X157004216Y-144097602D01*
X157014571Y-144084667D01*
X157019044Y-144080351D01*
X157023236Y-144078312D01*
X157026643Y-144080926D01*
X157029325Y-144089986D01*
X157031341Y-144107285D01*
X157032748Y-144134614D01*
X157033605Y-144173765D01*
X157033970Y-144226533D01*
X157033903Y-144294707D01*
X157033460Y-144380082D01*
X157032702Y-144484449D01*
X157031685Y-144609600D01*
X157031308Y-144654300D01*
X157030169Y-144775395D01*
X157028972Y-144876688D01*
X157027636Y-144960262D01*
X157026077Y-145028204D01*
X157024215Y-145082599D01*
X157021966Y-145125532D01*
X157019248Y-145159089D01*
X157015979Y-145185355D01*
X157012078Y-145206416D01*
X157007461Y-145224357D01*
X156999192Y-145250770D01*
X156975583Y-145312772D01*
X156949685Y-145365573D01*
X156924535Y-145402645D01*
X156923339Y-145404075D01*
X156921168Y-145408424D01*
X156923328Y-145412026D01*
X156931644Y-145414951D01*
X156947940Y-145417269D01*
X156974041Y-145419051D01*
X157011771Y-145420367D01*
X157062956Y-145421286D01*
X157129420Y-145421878D01*
X157212987Y-145422215D01*
X157315483Y-145422365D01*
X157438732Y-145422400D01*
X157970296Y-145422400D01*
X157931523Y-145364783D01*
X157925432Y-145355893D01*
X157914976Y-145341069D01*
X157905579Y-145327422D01*
X157897183Y-145313765D01*
X157889733Y-145298911D01*
X157883173Y-145281670D01*
X157877446Y-145260855D01*
X157872495Y-145235280D01*
X157868266Y-145203755D01*
X157864701Y-145165093D01*
X157861744Y-145118107D01*
X157859340Y-145061608D01*
X157857431Y-144994409D01*
X157855962Y-144915322D01*
X157854876Y-144823160D01*
X157854118Y-144716734D01*
X157853630Y-144594857D01*
X157853358Y-144456341D01*
X157853243Y-144299999D01*
X157853231Y-144124642D01*
X157853265Y-143929082D01*
X157853289Y-143712133D01*
X157853280Y-143589513D01*
X157853243Y-143384447D01*
X157853227Y-143200116D01*
X157853288Y-143035334D01*
X157853484Y-142888916D01*
X157853870Y-142759674D01*
X157854505Y-142646422D01*
X157855444Y-142547975D01*
X157856745Y-142463144D01*
X157858464Y-142390744D01*
X157860659Y-142329589D01*
X157863385Y-142278492D01*
X157866701Y-142236267D01*
X157870662Y-142201727D01*
X157875325Y-142173686D01*
X157880747Y-142150958D01*
X157886986Y-142132356D01*
X157894097Y-142116693D01*
X157902138Y-142102784D01*
X157911166Y-142089441D01*
X157921236Y-142075479D01*
X157932407Y-142059711D01*
X157972197Y-142001867D01*
X156912314Y-142001867D01*
X156950311Y-142064966D01*
X156964993Y-142090005D01*
X156979531Y-142117586D01*
X156991627Y-142145700D01*
X157001532Y-142176551D01*
X157009494Y-142212344D01*
X157015761Y-142255283D01*
X157020582Y-142307574D01*
X157024206Y-142371419D01*
X157026881Y-142449025D01*
X157028857Y-142542594D01*
X157030382Y-142654333D01*
X157031704Y-142786445D01*
X157032613Y-142906434D01*
X157033020Y-143023063D01*
X157032767Y-143118531D01*
X157031857Y-143192556D01*
X157030293Y-143244855D01*
X157028079Y-143275149D01*
X157025220Y-143283156D01*
X157022161Y-143279858D01*
X157004006Y-143258408D01*
X156974275Y-143221889D01*
X156934639Y-143172442D01*
X156886771Y-143112207D01*
X156832343Y-143043327D01*
X156773027Y-142967943D01*
X156710495Y-142888196D01*
X156646421Y-142806228D01*
X156582475Y-142724180D01*
X156520331Y-142644194D01*
X156461661Y-142568411D01*
X156408137Y-142498973D01*
X156361430Y-142438021D01*
X156323214Y-142387696D01*
X156295161Y-142350140D01*
X156278943Y-142327495D01*
X156233635Y-142255212D01*
X156193661Y-142175463D01*
X156172130Y-142107188D01*
X156168827Y-142049844D01*
X156174116Y-142001867D01*
X155042356Y-142002117D01*
X155081867Y-142032722D01*
X155091248Y-142040089D01*
X155154183Y-142094438D01*
X155222997Y-142162259D01*
X155299596Y-142245516D01*
X155385888Y-142346178D01*
X155403052Y-142366847D01*
X155443833Y-142416409D01*
X155493588Y-142477326D01*
X155550955Y-142547898D01*
X155614569Y-142626424D01*
X155683069Y-142711204D01*
X155755090Y-142800537D01*
X155829270Y-142892722D01*
X155844517Y-142911702D01*
X155904246Y-142986060D01*
X155978653Y-143078848D01*
X156051131Y-143169388D01*
X156120314Y-143255978D01*
X156184841Y-143336918D01*
X156243347Y-143410506D01*
X156294470Y-143475044D01*
X156336847Y-143528829D01*
X156369115Y-143570162D01*
X156389910Y-143597342D01*
X156397869Y-143608668D01*
X156396111Y-143612771D01*
X156383230Y-143633334D01*
X156358885Y-143669561D01*
X156324247Y-143719824D01*
X156280486Y-143782492D01*
X156228775Y-143855936D01*
X156170284Y-143938527D01*
X156106184Y-144028636D01*
X156037646Y-144124631D01*
X155965843Y-144224885D01*
X155891944Y-144327768D01*
X155817121Y-144431650D01*
X155742545Y-144534901D01*
X155669387Y-144635892D01*
X155598819Y-144732994D01*
X155532011Y-144824577D01*
X155470135Y-144909011D01*
X155414361Y-144984667D01*
X155365862Y-145049916D01*
X155325807Y-145103128D01*
X155295369Y-145142673D01*
X155274944Y-145168026D01*
X155228899Y-145222295D01*
X155178612Y-145278775D01*
X155131815Y-145328669D01*
X155040651Y-145422400D01*
X154342445Y-145422400D01*
X154411356Y-145422349D01*
X154509607Y-145422091D01*
X154599030Y-145421637D01*
X154677333Y-145421010D01*
X154742223Y-145420235D01*
X154791411Y-145419335D01*
X154822604Y-145418334D01*
X154833511Y-145417257D01*
X154832322Y-145414037D01*
X154822176Y-145396452D01*
X154805040Y-145370158D01*
X154796540Y-145357691D01*
X154787329Y-145343622D01*
X154779233Y-145329351D01*
X154772185Y-145313479D01*
X154766117Y-145294609D01*
X154760961Y-145271341D01*
X154756651Y-145242278D01*
X154753119Y-145206021D01*
X154750297Y-145161170D01*
X154748118Y-145106328D01*
X154746514Y-145040097D01*
X154745419Y-144961077D01*
X154744765Y-144867871D01*
X154744484Y-144759079D01*
X154744509Y-144633303D01*
X154744772Y-144489145D01*
X154745206Y-144325207D01*
X154745745Y-144140089D01*
X154746279Y-143961232D01*
X154746805Y-143802374D01*
X154747350Y-143663316D01*
X154747945Y-143542665D01*
X154748619Y-143439028D01*
X154749403Y-143351011D01*
X154750326Y-143277223D01*
X154751419Y-143216269D01*
X154752712Y-143166757D01*
X154754235Y-143127293D01*
X154756019Y-143096484D01*
X154758092Y-143072938D01*
X154760486Y-143055260D01*
X154763230Y-143042059D01*
X154766356Y-143031940D01*
X154769892Y-143023511D01*
X154773791Y-143015375D01*
X154793438Y-142978544D01*
X154812225Y-142948391D01*
X154813272Y-142946908D01*
X154827602Y-142924659D01*
X154833511Y-142911702D01*
X154832504Y-142911249D01*
X154815305Y-142909803D01*
X154778656Y-142908480D01*
X154724962Y-142907316D01*
X154656630Y-142906347D01*
X154576064Y-142905611D01*
X154485670Y-142905142D01*
X154387853Y-142904978D01*
X153942195Y-142904978D01*
X153939120Y-144081845D01*
X153936045Y-145258711D01*
X153909407Y-145317622D01*
X153897485Y-145342183D01*
X153880246Y-145372434D01*
X153867074Y-145389560D01*
X153859076Y-145397591D01*
X153851378Y-145412493D01*
X153559942Y-145412493D01*
X153559474Y-145320029D01*
X153559050Y-145204617D01*
X153558706Y-145074160D01*
X153558434Y-144927716D01*
X153558227Y-144764344D01*
X153558076Y-144583101D01*
X153557972Y-144383048D01*
X153557908Y-144163241D01*
X153557876Y-143922739D01*
X153557867Y-143660602D01*
X153557867Y-141469031D01*
X153596249Y-141430649D01*
X153623355Y-141406911D01*
X153650253Y-141395111D01*
X153686560Y-141392267D01*
X153738489Y-141392267D01*
X153738489Y-141480206D01*
X153740427Y-141530102D01*
X153759199Y-141640523D01*
X153796217Y-141741987D01*
X153849369Y-141833152D01*
X153916546Y-141912673D01*
X153995638Y-141979205D01*
X154084534Y-142031406D01*
X154181125Y-142067930D01*
X154283300Y-142087434D01*
X154388950Y-142088573D01*
X154495964Y-142070005D01*
X154602232Y-142030384D01*
X154699219Y-141972516D01*
X154784293Y-141897684D01*
X154853015Y-141809615D01*
X154903918Y-141710616D01*
X154935535Y-141602993D01*
X154946400Y-141489054D01*
X154946400Y-141392267D01*
X156566753Y-141392267D01*
X156777897Y-141392280D01*
X156982020Y-141392330D01*
X157165686Y-141392430D01*
X157329991Y-141392592D01*
X157476029Y-141392829D01*
X157604894Y-141393153D01*
X157717683Y-141393575D01*
X157815488Y-141394109D01*
X157899404Y-141394767D01*
X157970527Y-141395561D01*
X158029950Y-141396504D01*
X158078768Y-141397608D01*
X158118077Y-141398884D01*
X158148969Y-141400347D01*
X158172541Y-141402007D01*
X158189886Y-141403878D01*
X158202099Y-141405972D01*
X158210275Y-141408300D01*
X158215508Y-141410876D01*
X158221504Y-141414445D01*
X158228279Y-141417978D01*
X158234478Y-141421488D01*
X158240126Y-141425918D01*
X158245247Y-141432208D01*
X158249869Y-141441301D01*
X158254015Y-141454139D01*
X158257713Y-141471662D01*
X158260987Y-141494813D01*
X158263863Y-141524534D01*
X158266367Y-141561765D01*
X158268524Y-141607449D01*
X158270360Y-141662527D01*
X158271900Y-141727941D01*
X158273170Y-141804633D01*
X158274195Y-141893544D01*
X158275001Y-141995617D01*
X158275034Y-142001867D01*
X158275614Y-142111792D01*
G36*
X158275614Y-142111792D02*
G01*
X158276059Y-142243011D01*
X158276362Y-142390216D01*
X158276548Y-142554349D01*
X158276642Y-142736352D01*
X158276671Y-142937165D01*
X158276661Y-143157732D01*
X158276636Y-143398992D01*
X158276622Y-143661889D01*
X158276622Y-143704040D01*
X158276646Y-143964668D01*
X158276685Y-144203796D01*
X158276708Y-144422360D01*
X158276687Y-144621295D01*
X158276593Y-144801535D01*
X158276395Y-144964015D01*
X158276063Y-145109670D01*
X158275569Y-145239434D01*
X158274883Y-145354243D01*
X158273976Y-145455030D01*
X158272817Y-145542730D01*
X158271378Y-145618279D01*
X158269629Y-145682611D01*
X158267540Y-145736661D01*
X158265083Y-145781363D01*
X158262227Y-145817652D01*
X158258943Y-145846463D01*
X158255202Y-145868731D01*
X158250974Y-145885390D01*
X158246229Y-145897375D01*
X158240939Y-145905621D01*
X158235073Y-145911062D01*
X158228602Y-145914634D01*
X158221497Y-145917270D01*
X158213728Y-145919906D01*
X158205266Y-145923477D01*
X158200908Y-145925145D01*
X158192395Y-145927111D01*
X158179694Y-145928911D01*
X158161885Y-145930555D01*
X158138049Y-145932047D01*
X158107266Y-145933397D01*
X158068617Y-145934611D01*
X158021182Y-145935697D01*
X157964043Y-145936661D01*
X157896279Y-145937511D01*
X157816971Y-145938253D01*
X157725199Y-145938897D01*
X157620044Y-145939447D01*
X157500587Y-145939913D01*
X157365908Y-145940300D01*
X157215088Y-145940616D01*
X157047206Y-145940869D01*
X156861345Y-145941066D01*
X156656583Y-145941213D01*
X156432002Y-145941318D01*
X156186682Y-145941389D01*
X155919704Y-145941432D01*
X155881321Y-145941437D01*
X155615922Y-145941480D01*
X155372050Y-145941525D01*
X155148783Y-145941548D01*
X154945196Y-145941524D01*
X154760367Y-145941430D01*
X154593373Y-145941243D01*
X154443290Y-145940939D01*
X154309196Y-145940494D01*
X154190166Y-145939885D01*
X154085279Y-145939089D01*
X153993610Y-145938080D01*
X153914237Y-145936837D01*
X153846237Y-145935335D01*
X153788686Y-145933551D01*
X153740662Y-145931461D01*
X153701240Y-145929042D01*
X153669499Y-145926270D01*
X153644514Y-145923121D01*
X153625364Y-145919572D01*
X153611123Y-145915598D01*
X153600871Y-145911178D01*
X153593682Y-145906286D01*
X153588635Y-145900900D01*
X153584805Y-145894996D01*
X153581271Y-145888549D01*
X153577108Y-145881537D01*
X153576025Y-145879687D01*
X153573813Y-145874180D01*
X153571786Y-145865868D01*
X153569938Y-145853809D01*
X153568261Y-145837063D01*
X153566745Y-145814687D01*
X153565383Y-145785740D01*
X153564167Y-145749280D01*
X153563089Y-145704367D01*
X153562140Y-145650057D01*
X153561312Y-145585410D01*
X153560597Y-145509484D01*
X153559987Y-145421338D01*
X153559942Y-145412493D01*
X153851378Y-145412493D01*
X153855260Y-145413765D01*
X153878520Y-145415791D01*
X153920874Y-145417626D01*
X153980132Y-145419227D01*
X154054107Y-145420549D01*
X154140610Y-145421548D01*
X154237452Y-145422180D01*
X154342445Y-145422400D01*
X155040651Y-145422400D01*
X156195090Y-145422400D01*
X156194456Y-145346200D01*
X156195574Y-145304160D01*
X156201304Y-145268334D01*
X156213890Y-145230772D01*
X156235568Y-145182577D01*
X156238789Y-145175897D01*
X156264188Y-145126359D01*
X156290996Y-145078369D01*
X156313917Y-145041466D01*
X156318485Y-145034834D01*
X156340516Y-145003593D01*
X156372693Y-144958654D01*
X156413457Y-144902147D01*
X156461245Y-144836204D01*
X156514498Y-144762957D01*
X156571655Y-144684536D01*
X156631155Y-144603072D01*
X156691437Y-144520698D01*
X156750940Y-144439544D01*
X156808105Y-144361742D01*
X156861370Y-144289423D01*
X156909174Y-144224718D01*
X156949957Y-144169759D01*
X156982158Y-144126676D01*
X157004216Y-144097602D01*
X157014571Y-144084667D01*
X157019044Y-144080351D01*
X157023236Y-144078312D01*
X157026643Y-144080926D01*
X157029325Y-144089986D01*
X157031341Y-144107285D01*
X157032748Y-144134614D01*
X157033605Y-144173765D01*
X157033970Y-144226533D01*
X157033903Y-144294707D01*
X157033460Y-144380082D01*
X157032702Y-144484449D01*
X157031685Y-144609600D01*
X157031308Y-144654300D01*
X157030169Y-144775395D01*
X157028972Y-144876688D01*
X157027636Y-144960262D01*
X157026077Y-145028204D01*
X157024215Y-145082599D01*
X157021966Y-145125532D01*
X157019248Y-145159089D01*
X157015979Y-145185355D01*
X157012078Y-145206416D01*
X157007461Y-145224357D01*
X156999192Y-145250770D01*
X156975583Y-145312772D01*
X156949685Y-145365573D01*
X156924535Y-145402645D01*
X156923339Y-145404075D01*
X156921168Y-145408424D01*
X156923328Y-145412026D01*
X156931644Y-145414951D01*
X156947940Y-145417269D01*
X156974041Y-145419051D01*
X157011771Y-145420367D01*
X157062956Y-145421286D01*
X157129420Y-145421878D01*
X157212987Y-145422215D01*
X157315483Y-145422365D01*
X157438732Y-145422400D01*
X157970296Y-145422400D01*
X157931523Y-145364783D01*
X157925432Y-145355893D01*
X157914976Y-145341069D01*
X157905579Y-145327422D01*
X157897183Y-145313765D01*
X157889733Y-145298911D01*
X157883173Y-145281670D01*
X157877446Y-145260855D01*
X157872495Y-145235280D01*
X157868266Y-145203755D01*
X157864701Y-145165093D01*
X157861744Y-145118107D01*
X157859340Y-145061608D01*
X157857431Y-144994409D01*
X157855962Y-144915322D01*
X157854876Y-144823160D01*
X157854118Y-144716734D01*
X157853630Y-144594857D01*
X157853358Y-144456341D01*
X157853243Y-144299999D01*
X157853231Y-144124642D01*
X157853265Y-143929082D01*
X157853289Y-143712133D01*
X157853280Y-143589513D01*
X157853243Y-143384447D01*
X157853227Y-143200116D01*
X157853288Y-143035334D01*
X157853484Y-142888916D01*
X157853870Y-142759674D01*
X157854505Y-142646422D01*
X157855444Y-142547975D01*
X157856745Y-142463144D01*
X157858464Y-142390744D01*
X157860659Y-142329589D01*
X157863385Y-142278492D01*
X157866701Y-142236267D01*
X157870662Y-142201727D01*
X157875325Y-142173686D01*
X157880747Y-142150958D01*
X157886986Y-142132356D01*
X157894097Y-142116693D01*
X157902138Y-142102784D01*
X157911166Y-142089441D01*
X157921236Y-142075479D01*
X157932407Y-142059711D01*
X157972197Y-142001867D01*
X156912314Y-142001867D01*
X156950311Y-142064966D01*
X156964993Y-142090005D01*
X156979531Y-142117586D01*
X156991627Y-142145700D01*
X157001532Y-142176551D01*
X157009494Y-142212344D01*
X157015761Y-142255283D01*
X157020582Y-142307574D01*
X157024206Y-142371419D01*
X157026881Y-142449025D01*
X157028857Y-142542594D01*
X157030382Y-142654333D01*
X157031704Y-142786445D01*
X157032613Y-142906434D01*
X157033020Y-143023063D01*
X157032767Y-143118531D01*
X157031857Y-143192556D01*
X157030293Y-143244855D01*
X157028079Y-143275149D01*
X157025220Y-143283156D01*
X157022161Y-143279858D01*
X157004006Y-143258408D01*
X156974275Y-143221889D01*
X156934639Y-143172442D01*
X156886771Y-143112207D01*
X156832343Y-143043327D01*
X156773027Y-142967943D01*
X156710495Y-142888196D01*
X156646421Y-142806228D01*
X156582475Y-142724180D01*
X156520331Y-142644194D01*
X156461661Y-142568411D01*
X156408137Y-142498973D01*
X156361430Y-142438021D01*
X156323214Y-142387696D01*
X156295161Y-142350140D01*
X156278943Y-142327495D01*
X156233635Y-142255212D01*
X156193661Y-142175463D01*
X156172130Y-142107188D01*
X156168827Y-142049844D01*
X156174116Y-142001867D01*
X155042356Y-142002117D01*
X155081867Y-142032722D01*
X155091248Y-142040089D01*
X155154183Y-142094438D01*
X155222997Y-142162259D01*
X155299596Y-142245516D01*
X155385888Y-142346178D01*
X155403052Y-142366847D01*
X155443833Y-142416409D01*
X155493588Y-142477326D01*
X155550955Y-142547898D01*
X155614569Y-142626424D01*
X155683069Y-142711204D01*
X155755090Y-142800537D01*
X155829270Y-142892722D01*
X155844517Y-142911702D01*
X155904246Y-142986060D01*
X155978653Y-143078848D01*
X156051131Y-143169388D01*
X156120314Y-143255978D01*
X156184841Y-143336918D01*
X156243347Y-143410506D01*
X156294470Y-143475044D01*
X156336847Y-143528829D01*
X156369115Y-143570162D01*
X156389910Y-143597342D01*
X156397869Y-143608668D01*
X156396111Y-143612771D01*
X156383230Y-143633334D01*
X156358885Y-143669561D01*
X156324247Y-143719824D01*
X156280486Y-143782492D01*
X156228775Y-143855936D01*
X156170284Y-143938527D01*
X156106184Y-144028636D01*
X156037646Y-144124631D01*
X155965843Y-144224885D01*
X155891944Y-144327768D01*
X155817121Y-144431650D01*
X155742545Y-144534901D01*
X155669387Y-144635892D01*
X155598819Y-144732994D01*
X155532011Y-144824577D01*
X155470135Y-144909011D01*
X155414361Y-144984667D01*
X155365862Y-145049916D01*
X155325807Y-145103128D01*
X155295369Y-145142673D01*
X155274944Y-145168026D01*
X155228899Y-145222295D01*
X155178612Y-145278775D01*
X155131815Y-145328669D01*
X155040651Y-145422400D01*
X154342445Y-145422400D01*
X154411356Y-145422349D01*
X154509607Y-145422091D01*
X154599030Y-145421637D01*
X154677333Y-145421010D01*
X154742223Y-145420235D01*
X154791411Y-145419335D01*
X154822604Y-145418334D01*
X154833511Y-145417257D01*
X154832322Y-145414037D01*
X154822176Y-145396452D01*
X154805040Y-145370158D01*
X154796540Y-145357691D01*
X154787329Y-145343622D01*
X154779233Y-145329351D01*
X154772185Y-145313479D01*
X154766117Y-145294609D01*
X154760961Y-145271341D01*
X154756651Y-145242278D01*
X154753119Y-145206021D01*
X154750297Y-145161170D01*
X154748118Y-145106328D01*
X154746514Y-145040097D01*
X154745419Y-144961077D01*
X154744765Y-144867871D01*
X154744484Y-144759079D01*
X154744509Y-144633303D01*
X154744772Y-144489145D01*
X154745206Y-144325207D01*
X154745745Y-144140089D01*
X154746279Y-143961232D01*
X154746805Y-143802374D01*
X154747350Y-143663316D01*
X154747945Y-143542665D01*
X154748619Y-143439028D01*
X154749403Y-143351011D01*
X154750326Y-143277223D01*
X154751419Y-143216269D01*
X154752712Y-143166757D01*
X154754235Y-143127293D01*
X154756019Y-143096484D01*
X154758092Y-143072938D01*
X154760486Y-143055260D01*
X154763230Y-143042059D01*
X154766356Y-143031940D01*
X154769892Y-143023511D01*
X154773791Y-143015375D01*
X154793438Y-142978544D01*
X154812225Y-142948391D01*
X154813272Y-142946908D01*
X154827602Y-142924659D01*
X154833511Y-142911702D01*
X154832504Y-142911249D01*
X154815305Y-142909803D01*
X154778656Y-142908480D01*
X154724962Y-142907316D01*
X154656630Y-142906347D01*
X154576064Y-142905611D01*
X154485670Y-142905142D01*
X154387853Y-142904978D01*
X153942195Y-142904978D01*
X153939120Y-144081845D01*
X153936045Y-145258711D01*
X153909407Y-145317622D01*
X153897485Y-145342183D01*
X153880246Y-145372434D01*
X153867074Y-145389560D01*
X153859076Y-145397591D01*
X153851378Y-145412493D01*
X153559942Y-145412493D01*
X153559474Y-145320029D01*
X153559050Y-145204617D01*
X153558706Y-145074160D01*
X153558434Y-144927716D01*
X153558227Y-144764344D01*
X153558076Y-144583101D01*
X153557972Y-144383048D01*
X153557908Y-144163241D01*
X153557876Y-143922739D01*
X153557867Y-143660602D01*
X153557867Y-141469031D01*
X153596249Y-141430649D01*
X153623355Y-141406911D01*
X153650253Y-141395111D01*
X153686560Y-141392267D01*
X153738489Y-141392267D01*
X153738489Y-141480206D01*
X153740427Y-141530102D01*
X153759199Y-141640523D01*
X153796217Y-141741987D01*
X153849369Y-141833152D01*
X153916546Y-141912673D01*
X153995638Y-141979205D01*
X154084534Y-142031406D01*
X154181125Y-142067930D01*
X154283300Y-142087434D01*
X154388950Y-142088573D01*
X154495964Y-142070005D01*
X154602232Y-142030384D01*
X154699219Y-141972516D01*
X154784293Y-141897684D01*
X154853015Y-141809615D01*
X154903918Y-141710616D01*
X154935535Y-141602993D01*
X154946400Y-141489054D01*
X154946400Y-141392267D01*
X156566753Y-141392267D01*
X156777897Y-141392280D01*
X156982020Y-141392330D01*
X157165686Y-141392430D01*
X157329991Y-141392592D01*
X157476029Y-141392829D01*
X157604894Y-141393153D01*
X157717683Y-141393575D01*
X157815488Y-141394109D01*
X157899404Y-141394767D01*
X157970527Y-141395561D01*
X158029950Y-141396504D01*
X158078768Y-141397608D01*
X158118077Y-141398884D01*
X158148969Y-141400347D01*
X158172541Y-141402007D01*
X158189886Y-141403878D01*
X158202099Y-141405972D01*
X158210275Y-141408300D01*
X158215508Y-141410876D01*
X158221504Y-141414445D01*
X158228279Y-141417978D01*
X158234478Y-141421488D01*
X158240126Y-141425918D01*
X158245247Y-141432208D01*
X158249869Y-141441301D01*
X158254015Y-141454139D01*
X158257713Y-141471662D01*
X158260987Y-141494813D01*
X158263863Y-141524534D01*
X158266367Y-141561765D01*
X158268524Y-141607449D01*
X158270360Y-141662527D01*
X158271900Y-141727941D01*
X158273170Y-141804633D01*
X158274195Y-141893544D01*
X158275001Y-141995617D01*
X158275034Y-142001867D01*
X158275614Y-142111792D01*
G37*
%TD*%
M02*
