%TF.GenerationSoftware,KiCad,Pcbnew,9.0.1*%
%TF.CreationDate,2025-10-15T17:05:29+03:00*%
%TF.ProjectId,Solar Supply,536f6c61-7220-4537-9570-706c792e6b69,rev?*%
%TF.SameCoordinates,Original*%
%TF.FileFunction,Legend,Top*%
%TF.FilePolarity,Positive*%
%FSLAX46Y46*%
G04 Gerber Fmt 4.6, Leading zero omitted, Abs format (unit mm)*
G04 Created by KiCad (PCBNEW 9.0.1) date 2025-10-15 17:05:29*
%MOMM*%
%LPD*%
G01*
G04 APERTURE LIST*
%ADD10C,0.160000*%
%ADD11C,0.100000*%
%ADD12C,0.120000*%
%ADD13C,0.127000*%
%ADD14C,0.200000*%
%ADD15C,0.152400*%
G04 APERTURE END LIST*
D10*
X154931453Y-112517865D02*
X155388596Y-112517865D01*
X155160024Y-113317865D02*
X155160024Y-112517865D01*
X155655263Y-113317865D02*
X155655263Y-112784531D01*
X155655263Y-112517865D02*
X155617167Y-112555960D01*
X155617167Y-112555960D02*
X155655263Y-112594055D01*
X155655263Y-112594055D02*
X155693358Y-112555960D01*
X155693358Y-112555960D02*
X155655263Y-112517865D01*
X155655263Y-112517865D02*
X155655263Y-112594055D01*
X156036215Y-112784531D02*
X156036215Y-113317865D01*
X156036215Y-112860722D02*
X156074310Y-112822627D01*
X156074310Y-112822627D02*
X156150500Y-112784531D01*
X156150500Y-112784531D02*
X156264786Y-112784531D01*
X156264786Y-112784531D02*
X156340977Y-112822627D01*
X156340977Y-112822627D02*
X156379072Y-112898817D01*
X156379072Y-112898817D02*
X156379072Y-113317865D01*
X156683834Y-112784531D02*
X156874310Y-113317865D01*
X157064787Y-112784531D02*
X156874310Y-113317865D01*
X156874310Y-113317865D02*
X156798120Y-113508341D01*
X156798120Y-113508341D02*
X156760025Y-113546436D01*
X156760025Y-113546436D02*
X156683834Y-113584531D01*
X157940977Y-113279770D02*
X158055263Y-113317865D01*
X158055263Y-113317865D02*
X158245739Y-113317865D01*
X158245739Y-113317865D02*
X158321930Y-113279770D01*
X158321930Y-113279770D02*
X158360025Y-113241674D01*
X158360025Y-113241674D02*
X158398120Y-113165484D01*
X158398120Y-113165484D02*
X158398120Y-113089293D01*
X158398120Y-113089293D02*
X158360025Y-113013103D01*
X158360025Y-113013103D02*
X158321930Y-112975008D01*
X158321930Y-112975008D02*
X158245739Y-112936912D01*
X158245739Y-112936912D02*
X158093358Y-112898817D01*
X158093358Y-112898817D02*
X158017168Y-112860722D01*
X158017168Y-112860722D02*
X157979073Y-112822627D01*
X157979073Y-112822627D02*
X157940977Y-112746436D01*
X157940977Y-112746436D02*
X157940977Y-112670246D01*
X157940977Y-112670246D02*
X157979073Y-112594055D01*
X157979073Y-112594055D02*
X158017168Y-112555960D01*
X158017168Y-112555960D02*
X158093358Y-112517865D01*
X158093358Y-112517865D02*
X158283835Y-112517865D01*
X158283835Y-112517865D02*
X158398120Y-112555960D01*
X158855263Y-113317865D02*
X158779073Y-113279770D01*
X158779073Y-113279770D02*
X158740978Y-113241674D01*
X158740978Y-113241674D02*
X158702882Y-113165484D01*
X158702882Y-113165484D02*
X158702882Y-112936912D01*
X158702882Y-112936912D02*
X158740978Y-112860722D01*
X158740978Y-112860722D02*
X158779073Y-112822627D01*
X158779073Y-112822627D02*
X158855263Y-112784531D01*
X158855263Y-112784531D02*
X158969549Y-112784531D01*
X158969549Y-112784531D02*
X159045740Y-112822627D01*
X159045740Y-112822627D02*
X159083835Y-112860722D01*
X159083835Y-112860722D02*
X159121930Y-112936912D01*
X159121930Y-112936912D02*
X159121930Y-113165484D01*
X159121930Y-113165484D02*
X159083835Y-113241674D01*
X159083835Y-113241674D02*
X159045740Y-113279770D01*
X159045740Y-113279770D02*
X158969549Y-113317865D01*
X158969549Y-113317865D02*
X158855263Y-113317865D01*
X159579073Y-113317865D02*
X159502883Y-113279770D01*
X159502883Y-113279770D02*
X159464788Y-113203579D01*
X159464788Y-113203579D02*
X159464788Y-112517865D01*
X160226693Y-113317865D02*
X160226693Y-112898817D01*
X160226693Y-112898817D02*
X160188598Y-112822627D01*
X160188598Y-112822627D02*
X160112407Y-112784531D01*
X160112407Y-112784531D02*
X159960026Y-112784531D01*
X159960026Y-112784531D02*
X159883836Y-112822627D01*
X160226693Y-113279770D02*
X160150502Y-113317865D01*
X160150502Y-113317865D02*
X159960026Y-113317865D01*
X159960026Y-113317865D02*
X159883836Y-113279770D01*
X159883836Y-113279770D02*
X159845740Y-113203579D01*
X159845740Y-113203579D02*
X159845740Y-113127389D01*
X159845740Y-113127389D02*
X159883836Y-113051198D01*
X159883836Y-113051198D02*
X159960026Y-113013103D01*
X159960026Y-113013103D02*
X160150502Y-113013103D01*
X160150502Y-113013103D02*
X160226693Y-112975008D01*
X160607646Y-113317865D02*
X160607646Y-112784531D01*
X160607646Y-112936912D02*
X160645741Y-112860722D01*
X160645741Y-112860722D02*
X160683836Y-112822627D01*
X160683836Y-112822627D02*
X160760027Y-112784531D01*
X160760027Y-112784531D02*
X160836217Y-112784531D01*
X161674312Y-113279770D02*
X161788598Y-113317865D01*
X161788598Y-113317865D02*
X161979074Y-113317865D01*
X161979074Y-113317865D02*
X162055265Y-113279770D01*
X162055265Y-113279770D02*
X162093360Y-113241674D01*
X162093360Y-113241674D02*
X162131455Y-113165484D01*
X162131455Y-113165484D02*
X162131455Y-113089293D01*
X162131455Y-113089293D02*
X162093360Y-113013103D01*
X162093360Y-113013103D02*
X162055265Y-112975008D01*
X162055265Y-112975008D02*
X161979074Y-112936912D01*
X161979074Y-112936912D02*
X161826693Y-112898817D01*
X161826693Y-112898817D02*
X161750503Y-112860722D01*
X161750503Y-112860722D02*
X161712408Y-112822627D01*
X161712408Y-112822627D02*
X161674312Y-112746436D01*
X161674312Y-112746436D02*
X161674312Y-112670246D01*
X161674312Y-112670246D02*
X161712408Y-112594055D01*
X161712408Y-112594055D02*
X161750503Y-112555960D01*
X161750503Y-112555960D02*
X161826693Y-112517865D01*
X161826693Y-112517865D02*
X162017170Y-112517865D01*
X162017170Y-112517865D02*
X162131455Y-112555960D01*
X162817170Y-112784531D02*
X162817170Y-113317865D01*
X162474313Y-112784531D02*
X162474313Y-113203579D01*
X162474313Y-113203579D02*
X162512408Y-113279770D01*
X162512408Y-113279770D02*
X162588598Y-113317865D01*
X162588598Y-113317865D02*
X162702884Y-113317865D01*
X162702884Y-113317865D02*
X162779075Y-113279770D01*
X162779075Y-113279770D02*
X162817170Y-113241674D01*
X163198123Y-112784531D02*
X163198123Y-113584531D01*
X163198123Y-112822627D02*
X163274313Y-112784531D01*
X163274313Y-112784531D02*
X163426694Y-112784531D01*
X163426694Y-112784531D02*
X163502885Y-112822627D01*
X163502885Y-112822627D02*
X163540980Y-112860722D01*
X163540980Y-112860722D02*
X163579075Y-112936912D01*
X163579075Y-112936912D02*
X163579075Y-113165484D01*
X163579075Y-113165484D02*
X163540980Y-113241674D01*
X163540980Y-113241674D02*
X163502885Y-113279770D01*
X163502885Y-113279770D02*
X163426694Y-113317865D01*
X163426694Y-113317865D02*
X163274313Y-113317865D01*
X163274313Y-113317865D02*
X163198123Y-113279770D01*
X163921933Y-112784531D02*
X163921933Y-113584531D01*
X163921933Y-112822627D02*
X163998123Y-112784531D01*
X163998123Y-112784531D02*
X164150504Y-112784531D01*
X164150504Y-112784531D02*
X164226695Y-112822627D01*
X164226695Y-112822627D02*
X164264790Y-112860722D01*
X164264790Y-112860722D02*
X164302885Y-112936912D01*
X164302885Y-112936912D02*
X164302885Y-113165484D01*
X164302885Y-113165484D02*
X164264790Y-113241674D01*
X164264790Y-113241674D02*
X164226695Y-113279770D01*
X164226695Y-113279770D02*
X164150504Y-113317865D01*
X164150504Y-113317865D02*
X163998123Y-113317865D01*
X163998123Y-113317865D02*
X163921933Y-113279770D01*
X164760028Y-113317865D02*
X164683838Y-113279770D01*
X164683838Y-113279770D02*
X164645743Y-113203579D01*
X164645743Y-113203579D02*
X164645743Y-112517865D01*
X164988600Y-112784531D02*
X165179076Y-113317865D01*
X165369553Y-112784531D02*
X165179076Y-113317865D01*
X165179076Y-113317865D02*
X165102886Y-113508341D01*
X165102886Y-113508341D02*
X165064791Y-113546436D01*
X165064791Y-113546436D02*
X164988600Y-113584531D01*
X155579072Y-113805820D02*
X156074310Y-113805820D01*
X156074310Y-113805820D02*
X155807644Y-114110582D01*
X155807644Y-114110582D02*
X155921929Y-114110582D01*
X155921929Y-114110582D02*
X155998120Y-114148677D01*
X155998120Y-114148677D02*
X156036215Y-114186772D01*
X156036215Y-114186772D02*
X156074310Y-114262963D01*
X156074310Y-114262963D02*
X156074310Y-114453439D01*
X156074310Y-114453439D02*
X156036215Y-114529629D01*
X156036215Y-114529629D02*
X155998120Y-114567725D01*
X155998120Y-114567725D02*
X155921929Y-114605820D01*
X155921929Y-114605820D02*
X155693358Y-114605820D01*
X155693358Y-114605820D02*
X155617167Y-114567725D01*
X155617167Y-114567725D02*
X155579072Y-114529629D01*
X156417168Y-114529629D02*
X156455263Y-114567725D01*
X156455263Y-114567725D02*
X156417168Y-114605820D01*
X156417168Y-114605820D02*
X156379072Y-114567725D01*
X156379072Y-114567725D02*
X156417168Y-114529629D01*
X156417168Y-114529629D02*
X156417168Y-114605820D01*
X156721929Y-113805820D02*
X157217167Y-113805820D01*
X157217167Y-113805820D02*
X156950501Y-114110582D01*
X156950501Y-114110582D02*
X157064786Y-114110582D01*
X157064786Y-114110582D02*
X157140977Y-114148677D01*
X157140977Y-114148677D02*
X157179072Y-114186772D01*
X157179072Y-114186772D02*
X157217167Y-114262963D01*
X157217167Y-114262963D02*
X157217167Y-114453439D01*
X157217167Y-114453439D02*
X157179072Y-114529629D01*
X157179072Y-114529629D02*
X157140977Y-114567725D01*
X157140977Y-114567725D02*
X157064786Y-114605820D01*
X157064786Y-114605820D02*
X156836215Y-114605820D01*
X156836215Y-114605820D02*
X156760024Y-114567725D01*
X156760024Y-114567725D02*
X156721929Y-114529629D01*
X157445739Y-113805820D02*
X157712406Y-114605820D01*
X157712406Y-114605820D02*
X157979072Y-113805820D01*
X155540977Y-115093775D02*
X155807644Y-115893775D01*
X155807644Y-115893775D02*
X156074310Y-115093775D01*
X156760024Y-115893775D02*
X156302881Y-115893775D01*
X156531453Y-115893775D02*
X156531453Y-115093775D01*
X156531453Y-115093775D02*
X156455262Y-115208060D01*
X156455262Y-115208060D02*
X156379072Y-115284251D01*
X156379072Y-115284251D02*
X156302881Y-115322346D01*
X157102882Y-115817584D02*
X157140977Y-115855680D01*
X157140977Y-115855680D02*
X157102882Y-115893775D01*
X157102882Y-115893775D02*
X157064786Y-115855680D01*
X157064786Y-115855680D02*
X157102882Y-115817584D01*
X157102882Y-115817584D02*
X157102882Y-115893775D01*
X157636215Y-115093775D02*
X157712405Y-115093775D01*
X157712405Y-115093775D02*
X157788596Y-115131870D01*
X157788596Y-115131870D02*
X157826691Y-115169965D01*
X157826691Y-115169965D02*
X157864786Y-115246156D01*
X157864786Y-115246156D02*
X157902881Y-115398537D01*
X157902881Y-115398537D02*
X157902881Y-115589013D01*
X157902881Y-115589013D02*
X157864786Y-115741394D01*
X157864786Y-115741394D02*
X157826691Y-115817584D01*
X157826691Y-115817584D02*
X157788596Y-115855680D01*
X157788596Y-115855680D02*
X157712405Y-115893775D01*
X157712405Y-115893775D02*
X157636215Y-115893775D01*
X157636215Y-115893775D02*
X157560024Y-115855680D01*
X157560024Y-115855680D02*
X157521929Y-115817584D01*
X157521929Y-115817584D02*
X157483834Y-115741394D01*
X157483834Y-115741394D02*
X157445738Y-115589013D01*
X157445738Y-115589013D02*
X157445738Y-115398537D01*
X157445738Y-115398537D02*
X157483834Y-115246156D01*
X157483834Y-115246156D02*
X157521929Y-115169965D01*
X157521929Y-115169965D02*
X157560024Y-115131870D01*
X157560024Y-115131870D02*
X157636215Y-115093775D01*
D11*
G36*
X181692847Y-116550632D02*
G01*
X181798848Y-116577401D01*
X181777817Y-116641210D01*
X181750680Y-116694709D01*
X181717738Y-116739322D01*
X181678876Y-116776117D01*
X181633973Y-116805603D01*
X181584320Y-116826858D01*
X181529060Y-116839963D01*
X181467117Y-116844505D01*
X181401790Y-116840793D01*
X181345762Y-116830321D01*
X181297693Y-116813847D01*
X181256434Y-116791797D01*
X181218865Y-116762986D01*
X181185886Y-116728331D01*
X181157250Y-116687281D01*
X181132944Y-116639048D01*
X181109556Y-116571239D01*
X181095396Y-116499878D01*
X181090593Y-116424260D01*
X181096251Y-116341952D01*
X181112439Y-116269702D01*
X181138415Y-116205956D01*
X181165228Y-116161630D01*
X181196689Y-116123612D01*
X181232979Y-116091316D01*
X181274508Y-116064393D01*
X181334934Y-116037660D01*
X181399364Y-116021523D01*
X181468778Y-116016033D01*
X181528562Y-116020124D01*
X181581527Y-116031875D01*
X181628713Y-116050806D01*
X181670963Y-116076849D01*
X181708294Y-116109748D01*
X181739647Y-116148696D01*
X181765298Y-116194378D01*
X181785171Y-116247771D01*
X181680830Y-116272390D01*
X181657999Y-116216814D01*
X181630927Y-116175455D01*
X181599937Y-116145628D01*
X181562758Y-116124079D01*
X181518849Y-116110657D01*
X181466580Y-116105914D01*
X181406401Y-116111209D01*
X181355520Y-116126220D01*
X181312170Y-116150318D01*
X181275009Y-116183189D01*
X181246121Y-116222581D01*
X181225024Y-116269459D01*
X181211077Y-116319825D01*
X181202717Y-116371133D01*
X181199916Y-116423674D01*
X181203485Y-116491548D01*
X181213624Y-116550813D01*
X181229665Y-116602607D01*
X181253822Y-116650216D01*
X181284585Y-116687821D01*
X181322281Y-116716815D01*
X181365475Y-116737869D01*
X181410599Y-116750403D01*
X181458374Y-116754623D01*
X181502330Y-116751235D01*
X181541627Y-116741436D01*
X181577052Y-116725483D01*
X181609218Y-116703235D01*
X181636517Y-116675731D01*
X181659623Y-116641841D01*
X181678518Y-116600570D01*
X181692847Y-116550632D01*
G37*
G36*
X181890000Y-116619997D02*
G01*
X181988381Y-116606905D01*
X182003666Y-116660415D01*
X182023124Y-116699017D01*
X182046022Y-116725998D01*
X182074949Y-116746137D01*
X182107649Y-116758256D01*
X182145233Y-116762439D01*
X182189525Y-116757006D01*
X182228116Y-116741171D01*
X182262421Y-116714519D01*
X182288948Y-116680071D01*
X182304787Y-116640963D01*
X182310244Y-116595719D01*
X182305131Y-116552530D01*
X182290415Y-116515894D01*
X182265987Y-116484295D01*
X182234161Y-116460121D01*
X182197156Y-116445514D01*
X182153440Y-116440429D01*
X182124106Y-116442862D01*
X182084026Y-116451371D01*
X182094919Y-116365056D01*
X182110795Y-116366180D01*
X182151697Y-116362465D01*
X182189142Y-116351566D01*
X182223880Y-116333451D01*
X182245711Y-116315048D01*
X182261177Y-116292689D01*
X182270781Y-116265597D01*
X182274194Y-116232481D01*
X182269991Y-116197985D01*
X182257844Y-116168538D01*
X182237557Y-116142942D01*
X182211274Y-116123500D01*
X182180219Y-116111638D01*
X182143035Y-116107478D01*
X182106187Y-116111619D01*
X182074706Y-116123536D01*
X182047390Y-116143235D01*
X182025938Y-116169412D01*
X182009346Y-116204419D01*
X181998199Y-116250506D01*
X181899867Y-116233018D01*
X181912371Y-116184535D01*
X181930322Y-116143514D01*
X181953443Y-116108865D01*
X181981835Y-116079780D01*
X182015181Y-116056320D01*
X182052296Y-116039439D01*
X182093881Y-116029027D01*
X182140837Y-116025412D01*
X182183882Y-116028620D01*
X182223966Y-116038051D01*
X182261639Y-116053646D01*
X182296084Y-116075124D01*
X182323978Y-116100689D01*
X182346050Y-116130583D01*
X182362420Y-116164050D01*
X182372082Y-116198379D01*
X182375310Y-116234093D01*
X182372172Y-116267946D01*
X182362912Y-116299337D01*
X182347418Y-116328859D01*
X182326485Y-116354765D01*
X182299309Y-116377373D01*
X182264912Y-116396759D01*
X182309710Y-116412041D01*
X182346027Y-116434657D01*
X182375261Y-116464756D01*
X182396674Y-116500979D01*
X182409955Y-116543500D01*
X182414633Y-116593863D01*
X182409768Y-116644706D01*
X182395550Y-116690623D01*
X182371944Y-116732683D01*
X182338136Y-116771623D01*
X182297809Y-116803225D01*
X182252790Y-116825805D01*
X182202164Y-116839686D01*
X182144696Y-116844505D01*
X182092673Y-116840349D01*
X182046805Y-116828390D01*
X182006026Y-116808993D01*
X181969525Y-116781979D01*
X181938541Y-116748549D01*
X181915149Y-116710899D01*
X181898933Y-116668366D01*
X181890000Y-116619997D01*
G37*
G36*
X181391828Y-117832000D02*
G01*
X181293447Y-117832000D01*
X181293447Y-117203514D01*
X181254299Y-117236085D01*
X181200293Y-117271462D01*
X181143457Y-117302215D01*
X181096734Y-117322411D01*
X181096734Y-117228622D01*
X181150240Y-117200157D01*
X181198178Y-117168497D01*
X181240984Y-117133660D01*
X181280255Y-117094523D01*
X181308817Y-117058594D01*
X181328422Y-117025412D01*
X181391828Y-117025412D01*
X181391828Y-117832000D01*
G37*
G36*
X181947029Y-117028465D02*
G01*
X181984463Y-117037239D01*
X182017773Y-117051399D01*
X182048127Y-117071125D01*
X182074823Y-117095957D01*
X182098129Y-117126382D01*
X182125711Y-117179006D01*
X182147857Y-117245670D01*
X182160771Y-117322097D01*
X182165882Y-117435251D01*
X182162144Y-117529629D01*
X182152016Y-117604503D01*
X182136915Y-117663130D01*
X182113456Y-117718382D01*
X182084540Y-117762498D01*
X182050307Y-117797170D01*
X182009575Y-117822967D01*
X181961652Y-117838898D01*
X181904689Y-117844505D01*
X181848317Y-117838989D01*
X181800212Y-117823228D01*
X181758697Y-117797583D01*
X181722679Y-117761316D01*
X181697029Y-117721782D01*
X181675471Y-117671699D01*
X181658625Y-117608946D01*
X181647502Y-117531055D01*
X181643447Y-117435251D01*
X181643459Y-117434958D01*
X181744563Y-117434958D01*
X181748617Y-117540167D01*
X181759044Y-117614335D01*
X181773618Y-117664643D01*
X181790725Y-117697226D01*
X181816389Y-117726912D01*
X181843560Y-117746849D01*
X181872704Y-117758509D01*
X181904689Y-117762439D01*
X181936631Y-117758497D01*
X181965752Y-117746796D01*
X181992921Y-117726773D01*
X182018604Y-117696933D01*
X182035751Y-117664211D01*
X182050340Y-117613854D01*
X182060765Y-117539800D01*
X182064815Y-117434958D01*
X182060749Y-117329418D01*
X182050300Y-117255153D01*
X182035711Y-117204897D01*
X182018604Y-117172446D01*
X181992964Y-117142962D01*
X181965631Y-117123088D01*
X181936127Y-117111421D01*
X181903566Y-117107478D01*
X181871157Y-117111115D01*
X181842890Y-117121670D01*
X181817808Y-117139246D01*
X181795366Y-117164777D01*
X181776121Y-117201321D01*
X181760107Y-117254879D01*
X181748870Y-117330717D01*
X181744563Y-117434958D01*
X181643459Y-117434958D01*
X181647227Y-117340073D01*
X181657448Y-117264866D01*
X181672658Y-117206249D01*
X181696301Y-117151003D01*
X181725315Y-117106991D01*
X181759560Y-117072502D01*
X181800296Y-117046823D01*
X181848070Y-117030980D01*
X181904689Y-117025412D01*
X181947029Y-117028465D01*
G37*
G36*
X182599211Y-117242394D02*
G01*
X182642582Y-117255176D01*
X182681967Y-117276249D01*
X182716367Y-117304821D01*
X182744895Y-117340454D01*
X182767794Y-117384156D01*
X182783702Y-117431378D01*
X182793431Y-117482103D01*
X182796762Y-117536905D01*
X182793040Y-117595583D01*
X182782258Y-117648780D01*
X182764766Y-117697275D01*
X182739768Y-117741777D01*
X182708908Y-117777867D01*
X182671856Y-117806549D01*
X182629972Y-117827865D01*
X182587489Y-117840355D01*
X182543726Y-117844505D01*
X182496546Y-117839108D01*
X182455505Y-117823451D01*
X182419576Y-117799313D01*
X182391270Y-117770206D01*
X182391270Y-118053967D01*
X182292889Y-118053967D01*
X182292889Y-117543695D01*
X182381988Y-117543695D01*
X182385422Y-117600826D01*
X182394774Y-117646008D01*
X182408942Y-117681455D01*
X182427320Y-117708999D01*
X182460446Y-117739201D01*
X182496607Y-117756590D01*
X182537180Y-117762439D01*
X182568578Y-117759030D01*
X182597326Y-117748960D01*
X182624143Y-117731956D01*
X182649483Y-117707094D01*
X182668417Y-117678586D01*
X182683030Y-117641836D01*
X182692684Y-117594924D01*
X182696231Y-117535538D01*
X182692813Y-117479111D01*
X182683453Y-117433954D01*
X182669181Y-117398044D01*
X182650558Y-117369697D01*
X182617185Y-117338388D01*
X182581309Y-117320548D01*
X182541577Y-117314595D01*
X182511791Y-117318081D01*
X182483741Y-117328532D01*
X182456737Y-117346505D01*
X182430348Y-117373263D01*
X182410438Y-117403466D01*
X182395340Y-117440878D01*
X182385538Y-117487011D01*
X182381988Y-117543695D01*
X182292889Y-117543695D01*
X182292889Y-117250506D01*
X182382526Y-117250506D01*
X182382526Y-117326075D01*
X182417052Y-117286838D01*
X182454089Y-117260032D01*
X182481522Y-117248137D01*
X182513482Y-117240647D01*
X182550858Y-117238001D01*
X182599211Y-117242394D01*
G37*
G36*
X182933098Y-117832000D02*
G01*
X182933098Y-117028538D01*
X183473559Y-117028538D01*
X183473559Y-117121546D01*
X183039099Y-117121546D01*
X183039099Y-117372432D01*
X183415087Y-117372432D01*
X183415087Y-117465440D01*
X183039099Y-117465440D01*
X183039099Y-117832000D01*
X182933098Y-117832000D01*
G37*
G36*
X159549960Y-115531450D02*
G01*
X159602931Y-115539086D01*
X159640921Y-115550032D01*
X159675358Y-115567865D01*
X159704863Y-115592890D01*
X159729972Y-115625942D01*
X159748472Y-115663366D01*
X159759570Y-115703190D01*
X159763335Y-115746110D01*
X159759748Y-115787641D01*
X159749337Y-115824818D01*
X159732251Y-115858465D01*
X159708136Y-115889187D01*
X159679061Y-115914060D01*
X159642048Y-115934933D01*
X159595550Y-115951526D01*
X159537655Y-115963144D01*
X159576582Y-115984691D01*
X159601549Y-116003493D01*
X159645685Y-116050683D01*
X159689574Y-116111351D01*
X159828890Y-116332000D01*
X159695582Y-116332000D01*
X159589532Y-116163179D01*
X159513035Y-116051413D01*
X159482619Y-116016521D01*
X159459204Y-115997143D01*
X159434879Y-115983851D01*
X159410844Y-115975551D01*
X159351835Y-115971692D01*
X159228883Y-115971692D01*
X159228883Y-116332000D01*
X159122833Y-116332000D01*
X159122833Y-115881811D01*
X159228883Y-115881811D01*
X159456762Y-115881811D01*
X159525336Y-115877565D01*
X159570432Y-115866912D01*
X159596070Y-115854648D01*
X159616592Y-115838759D01*
X159632714Y-115819090D01*
X159648709Y-115784726D01*
X159654012Y-115747673D01*
X159649322Y-115711885D01*
X159635709Y-115681369D01*
X159612735Y-115654812D01*
X159582966Y-115635921D01*
X159540890Y-115623231D01*
X159482456Y-115618420D01*
X159228883Y-115618420D01*
X159228883Y-115881811D01*
X159122833Y-115881811D01*
X159122833Y-115528538D01*
X159478060Y-115528538D01*
X159549960Y-115531450D01*
G37*
G36*
X160303161Y-116050632D02*
G01*
X160411360Y-116050632D01*
X160411360Y-116140513D01*
X160303161Y-116140513D01*
X160303161Y-116332000D01*
X160204780Y-116332000D01*
X160204780Y-116140513D01*
X159857222Y-116140513D01*
X159857222Y-116050632D01*
X159953942Y-116050632D01*
X160204780Y-116050632D01*
X160204780Y-115689543D01*
X159953942Y-116050632D01*
X159857222Y-116050632D01*
X160222805Y-115531665D01*
X160303161Y-115531665D01*
X160303161Y-116050632D01*
G37*
G36*
X159389693Y-117332000D02*
G01*
X159291312Y-117332000D01*
X159291312Y-116703514D01*
X159252164Y-116736085D01*
X159198158Y-116771462D01*
X159141322Y-116802215D01*
X159094599Y-116822411D01*
X159094599Y-116728622D01*
X159148105Y-116700157D01*
X159196043Y-116668497D01*
X159238849Y-116633660D01*
X159278120Y-116594523D01*
X159306682Y-116558594D01*
X159326287Y-116525412D01*
X159389693Y-116525412D01*
X159389693Y-117332000D01*
G37*
G36*
X159677948Y-117332000D02*
G01*
X159677948Y-116528538D01*
X159837488Y-116528538D01*
X160027118Y-117097673D01*
X160065366Y-117216668D01*
X160108011Y-117087806D01*
X160299839Y-116528538D01*
X160442477Y-116528538D01*
X160442477Y-117332000D01*
X160340286Y-117332000D01*
X160340286Y-116659159D01*
X160107474Y-117332000D01*
X160011828Y-117332000D01*
X159780140Y-116647680D01*
X159780140Y-117332000D01*
X159677948Y-117332000D01*
G37*
G36*
X153985090Y-106781891D02*
G01*
X154039804Y-106790066D01*
X154084232Y-106803816D01*
X154123170Y-106823008D01*
X154157334Y-106847610D01*
X154195685Y-106886316D01*
X154227210Y-106931778D01*
X154252100Y-106984875D01*
X154269158Y-107041430D01*
X154279834Y-107104773D01*
X154283559Y-107175872D01*
X154281005Y-107236706D01*
X154273728Y-107290534D01*
X154262212Y-107338147D01*
X154236983Y-107404679D01*
X154207550Y-107455140D01*
X154171839Y-107497332D01*
X154134619Y-107528022D01*
X154092046Y-107550898D01*
X154038974Y-107568322D01*
X153980768Y-107578369D01*
X153910307Y-107582000D01*
X153621221Y-107582000D01*
X153621221Y-107488992D01*
X153727222Y-107488992D01*
X153898290Y-107488992D01*
X153973157Y-107484759D01*
X154022609Y-107474142D01*
X154064125Y-107455622D01*
X154094466Y-107432230D01*
X154116950Y-107405109D01*
X154136586Y-107371383D01*
X154153182Y-107329941D01*
X154164387Y-107286616D01*
X154171637Y-107235134D01*
X154174235Y-107174212D01*
X154171129Y-107109062D01*
X154162604Y-107056137D01*
X154149649Y-107013475D01*
X154132958Y-106979355D01*
X154102145Y-106937442D01*
X154068850Y-106907656D01*
X154032721Y-106888106D01*
X154003435Y-106879855D01*
X153959280Y-106873885D01*
X153895554Y-106871546D01*
X153727222Y-106871546D01*
X153727222Y-107488992D01*
X153621221Y-107488992D01*
X153621221Y-106778538D01*
X153897166Y-106778538D01*
X153985090Y-106781891D01*
G37*
G36*
X154906427Y-107488992D02*
G01*
X154906427Y-107582000D01*
X154376908Y-107582000D01*
X154379224Y-107547171D01*
X154388388Y-107513807D01*
X154413968Y-107461408D01*
X154453112Y-107407464D01*
X154503808Y-107354561D01*
X154581828Y-107286368D01*
X154668271Y-107211586D01*
X154724588Y-107156111D01*
X154758318Y-107115886D01*
X154785052Y-107072249D01*
X154799661Y-107032993D01*
X154804235Y-106996940D01*
X154799516Y-106959563D01*
X154785730Y-106926946D01*
X154762421Y-106897875D01*
X154732401Y-106875784D01*
X154696617Y-106862245D01*
X154653440Y-106857478D01*
X154607838Y-106862575D01*
X154570549Y-106876982D01*
X154539720Y-106900415D01*
X154516648Y-106931468D01*
X154502068Y-106970344D01*
X154496587Y-107019264D01*
X154395471Y-107008810D01*
X154404951Y-106952461D01*
X154421432Y-106905748D01*
X154444323Y-106867049D01*
X154473628Y-106835154D01*
X154508946Y-106809849D01*
X154550242Y-106791269D01*
X154598645Y-106779557D01*
X154655589Y-106775412D01*
X154712873Y-106779850D01*
X154761436Y-106792395D01*
X154802801Y-106812357D01*
X154838136Y-106839697D01*
X154867696Y-106873957D01*
X154888454Y-106911403D01*
X154901029Y-106952731D01*
X154905352Y-106998943D01*
X154900488Y-107046575D01*
X154885666Y-107093953D01*
X154860800Y-107139907D01*
X154820355Y-107192286D01*
X154766061Y-107247457D01*
X154668729Y-107333946D01*
X154588508Y-107403445D01*
X154555010Y-107435405D01*
X154531695Y-107462621D01*
X154513538Y-107488992D01*
X154906427Y-107488992D01*
G37*
G36*
X166299960Y-113531450D02*
G01*
X166352931Y-113539086D01*
X166390921Y-113550032D01*
X166425358Y-113567865D01*
X166454863Y-113592890D01*
X166479972Y-113625942D01*
X166498472Y-113663366D01*
X166509570Y-113703190D01*
X166513335Y-113746110D01*
X166509748Y-113787641D01*
X166499337Y-113824818D01*
X166482251Y-113858465D01*
X166458136Y-113889187D01*
X166429061Y-113914060D01*
X166392048Y-113934933D01*
X166345550Y-113951526D01*
X166287655Y-113963144D01*
X166326582Y-113984691D01*
X166351549Y-114003493D01*
X166395685Y-114050683D01*
X166439574Y-114111351D01*
X166578890Y-114332000D01*
X166445582Y-114332000D01*
X166339532Y-114163179D01*
X166263035Y-114051413D01*
X166232619Y-114016521D01*
X166209204Y-113997143D01*
X166184879Y-113983851D01*
X166160844Y-113975551D01*
X166101835Y-113971692D01*
X165978883Y-113971692D01*
X165978883Y-114332000D01*
X165872833Y-114332000D01*
X165872833Y-113881811D01*
X165978883Y-113881811D01*
X166206762Y-113881811D01*
X166275336Y-113877565D01*
X166320432Y-113866912D01*
X166346070Y-113854648D01*
X166366592Y-113838759D01*
X166382714Y-113819090D01*
X166398709Y-113784726D01*
X166404012Y-113747673D01*
X166399322Y-113711885D01*
X166385709Y-113681369D01*
X166362735Y-113654812D01*
X166332966Y-113635921D01*
X166290890Y-113623231D01*
X166232456Y-113618420D01*
X165978883Y-113618420D01*
X165978883Y-113881811D01*
X165872833Y-113881811D01*
X165872833Y-113528538D01*
X166228060Y-113528538D01*
X166299960Y-113531450D01*
G37*
G36*
X166640000Y-114119997D02*
G01*
X166738381Y-114106905D01*
X166753666Y-114160415D01*
X166773124Y-114199017D01*
X166796022Y-114225998D01*
X166824949Y-114246137D01*
X166857649Y-114258256D01*
X166895233Y-114262439D01*
X166939525Y-114257006D01*
X166978116Y-114241171D01*
X167012421Y-114214519D01*
X167038948Y-114180071D01*
X167054787Y-114140963D01*
X167060244Y-114095719D01*
X167055131Y-114052530D01*
X167040415Y-114015894D01*
X167015987Y-113984295D01*
X166984161Y-113960121D01*
X166947156Y-113945514D01*
X166903440Y-113940429D01*
X166874106Y-113942862D01*
X166834026Y-113951371D01*
X166844919Y-113865056D01*
X166860795Y-113866180D01*
X166901697Y-113862465D01*
X166939142Y-113851566D01*
X166973880Y-113833451D01*
X166995711Y-113815048D01*
X167011177Y-113792689D01*
X167020781Y-113765597D01*
X167024194Y-113732481D01*
X167019991Y-113697985D01*
X167007844Y-113668538D01*
X166987557Y-113642942D01*
X166961274Y-113623500D01*
X166930219Y-113611638D01*
X166893035Y-113607478D01*
X166856187Y-113611619D01*
X166824706Y-113623536D01*
X166797390Y-113643235D01*
X166775938Y-113669412D01*
X166759346Y-113704419D01*
X166748199Y-113750506D01*
X166649867Y-113733018D01*
X166662371Y-113684535D01*
X166680322Y-113643514D01*
X166703443Y-113608865D01*
X166731835Y-113579780D01*
X166765181Y-113556320D01*
X166802296Y-113539439D01*
X166843881Y-113529027D01*
X166890837Y-113525412D01*
X166933882Y-113528620D01*
X166973966Y-113538051D01*
X167011639Y-113553646D01*
X167046084Y-113575124D01*
X167073978Y-113600689D01*
X167096050Y-113630583D01*
X167112420Y-113664050D01*
X167122082Y-113698379D01*
X167125310Y-113734093D01*
X167122172Y-113767946D01*
X167112912Y-113799337D01*
X167097418Y-113828859D01*
X167076485Y-113854765D01*
X167049309Y-113877373D01*
X167014912Y-113896759D01*
X167059710Y-113912041D01*
X167096027Y-113934657D01*
X167125261Y-113964756D01*
X167146674Y-114000979D01*
X167159955Y-114043500D01*
X167164633Y-114093863D01*
X167159768Y-114144706D01*
X167145550Y-114190623D01*
X167121944Y-114232683D01*
X167088136Y-114271623D01*
X167047809Y-114303225D01*
X167002790Y-114325805D01*
X166952164Y-114339686D01*
X166894696Y-114344505D01*
X166842673Y-114340349D01*
X166796805Y-114328390D01*
X166756026Y-114308993D01*
X166719525Y-114281979D01*
X166688541Y-114248549D01*
X166665149Y-114210899D01*
X166648933Y-114168366D01*
X166640000Y-114119997D01*
G37*
G36*
X166171633Y-115582000D02*
G01*
X166073252Y-115582000D01*
X166073252Y-114953514D01*
X166034104Y-114986085D01*
X165980098Y-115021462D01*
X165923262Y-115052215D01*
X165876539Y-115072411D01*
X165876539Y-114978622D01*
X165930045Y-114950157D01*
X165977983Y-114918497D01*
X166020789Y-114883660D01*
X166060060Y-114844523D01*
X166088622Y-114808594D01*
X166108227Y-114775412D01*
X166171633Y-114775412D01*
X166171633Y-115582000D01*
G37*
G36*
X166726834Y-114778465D02*
G01*
X166764268Y-114787239D01*
X166797578Y-114801399D01*
X166827932Y-114821125D01*
X166854628Y-114845957D01*
X166877934Y-114876382D01*
X166905516Y-114929006D01*
X166927662Y-114995670D01*
X166940576Y-115072097D01*
X166945687Y-115185251D01*
X166941949Y-115279629D01*
X166931821Y-115354503D01*
X166916720Y-115413130D01*
X166893261Y-115468382D01*
X166864345Y-115512498D01*
X166830112Y-115547170D01*
X166789380Y-115572967D01*
X166741457Y-115588898D01*
X166684494Y-115594505D01*
X166628122Y-115588989D01*
X166580017Y-115573228D01*
X166538502Y-115547583D01*
X166502484Y-115511316D01*
X166476834Y-115471782D01*
X166455276Y-115421699D01*
X166438430Y-115358946D01*
X166427307Y-115281055D01*
X166423252Y-115185251D01*
X166423264Y-115184958D01*
X166524368Y-115184958D01*
X166528422Y-115290167D01*
X166538849Y-115364335D01*
X166553423Y-115414643D01*
X166570530Y-115447226D01*
X166596194Y-115476912D01*
X166623365Y-115496849D01*
X166652509Y-115508509D01*
X166684494Y-115512439D01*
X166716436Y-115508497D01*
X166745557Y-115496796D01*
X166772726Y-115476773D01*
X166798409Y-115446933D01*
X166815556Y-115414211D01*
X166830145Y-115363854D01*
X166840570Y-115289800D01*
X166844620Y-115184958D01*
X166840554Y-115079418D01*
X166830105Y-115005153D01*
X166815516Y-114954897D01*
X166798409Y-114922446D01*
X166772769Y-114892962D01*
X166745436Y-114873088D01*
X166715932Y-114861421D01*
X166683371Y-114857478D01*
X166650962Y-114861115D01*
X166622695Y-114871670D01*
X166597613Y-114889246D01*
X166575171Y-114914777D01*
X166555926Y-114951321D01*
X166539912Y-115004879D01*
X166528675Y-115080717D01*
X166524368Y-115184958D01*
X166423264Y-115184958D01*
X166427032Y-115090073D01*
X166437253Y-115014866D01*
X166452463Y-114956249D01*
X166476106Y-114901003D01*
X166505120Y-114856991D01*
X166539365Y-114822502D01*
X166580101Y-114796823D01*
X166627875Y-114780980D01*
X166684494Y-114775412D01*
X166726834Y-114778465D01*
G37*
G36*
X167080900Y-115582000D02*
G01*
X167080900Y-114778538D01*
X167186950Y-114778538D01*
X167186950Y-115177484D01*
X167584773Y-114778538D01*
X167728486Y-114778538D01*
X167392407Y-115104212D01*
X167743238Y-115582000D01*
X167603336Y-115582000D01*
X167318109Y-115175286D01*
X167186950Y-115303758D01*
X167186950Y-115582000D01*
X167080900Y-115582000D01*
G37*
G36*
X166442847Y-117550632D02*
G01*
X166548848Y-117577401D01*
X166527817Y-117641210D01*
X166500680Y-117694709D01*
X166467738Y-117739322D01*
X166428876Y-117776117D01*
X166383973Y-117805603D01*
X166334320Y-117826858D01*
X166279060Y-117839963D01*
X166217117Y-117844505D01*
X166151790Y-117840793D01*
X166095762Y-117830321D01*
X166047693Y-117813847D01*
X166006434Y-117791797D01*
X165968865Y-117762986D01*
X165935886Y-117728331D01*
X165907250Y-117687281D01*
X165882944Y-117639048D01*
X165859556Y-117571239D01*
X165845396Y-117499878D01*
X165840593Y-117424260D01*
X165846251Y-117341952D01*
X165862439Y-117269702D01*
X165888415Y-117205956D01*
X165915228Y-117161630D01*
X165946689Y-117123612D01*
X165982979Y-117091316D01*
X166024508Y-117064393D01*
X166084934Y-117037660D01*
X166149364Y-117021523D01*
X166218778Y-117016033D01*
X166278562Y-117020124D01*
X166331527Y-117031875D01*
X166378713Y-117050806D01*
X166420963Y-117076849D01*
X166458294Y-117109748D01*
X166489647Y-117148696D01*
X166515298Y-117194378D01*
X166535171Y-117247771D01*
X166430830Y-117272390D01*
X166407999Y-117216814D01*
X166380927Y-117175455D01*
X166349937Y-117145628D01*
X166312758Y-117124079D01*
X166268849Y-117110657D01*
X166216580Y-117105914D01*
X166156401Y-117111209D01*
X166105520Y-117126220D01*
X166062170Y-117150318D01*
X166025009Y-117183189D01*
X165996121Y-117222581D01*
X165975024Y-117269459D01*
X165961077Y-117319825D01*
X165952717Y-117371133D01*
X165949916Y-117423674D01*
X165953485Y-117491548D01*
X165963624Y-117550813D01*
X165979665Y-117602607D01*
X166003822Y-117650216D01*
X166034585Y-117687821D01*
X166072281Y-117716815D01*
X166115475Y-117737869D01*
X166160599Y-117750403D01*
X166208374Y-117754623D01*
X166252330Y-117751235D01*
X166291627Y-117741436D01*
X166327052Y-117725483D01*
X166359218Y-117703235D01*
X166386517Y-117675731D01*
X166409623Y-117641841D01*
X166428518Y-117600570D01*
X166442847Y-117550632D01*
G37*
G36*
X167009979Y-117832000D02*
G01*
X166911598Y-117832000D01*
X166911598Y-117203514D01*
X166872450Y-117236085D01*
X166818443Y-117271462D01*
X166761608Y-117302215D01*
X166714884Y-117322411D01*
X166714884Y-117228622D01*
X166768390Y-117200157D01*
X166816329Y-117168497D01*
X166859134Y-117133660D01*
X166898406Y-117094523D01*
X166926968Y-117058594D01*
X166946573Y-117025412D01*
X167009979Y-117025412D01*
X167009979Y-117832000D01*
G37*
G36*
X166279477Y-118550632D02*
G01*
X166387677Y-118550632D01*
X166387677Y-118640513D01*
X166279477Y-118640513D01*
X166279477Y-118832000D01*
X166181096Y-118832000D01*
X166181096Y-118640513D01*
X165833538Y-118640513D01*
X165833538Y-118550632D01*
X165930259Y-118550632D01*
X166181096Y-118550632D01*
X166181096Y-118189543D01*
X165930259Y-118550632D01*
X165833538Y-118550632D01*
X166199121Y-118031665D01*
X166279477Y-118031665D01*
X166279477Y-118550632D01*
G37*
G36*
X166543113Y-118832000D02*
G01*
X166543113Y-118719452D01*
X166655123Y-118719452D01*
X166655123Y-118832000D01*
X166543113Y-118832000D01*
G37*
G36*
X166805527Y-118130925D02*
G01*
X166805527Y-118037917D01*
X167324153Y-118037917D01*
X167324153Y-118114414D01*
X167276181Y-118171181D01*
X167225669Y-118242880D01*
X167172478Y-118331839D01*
X167125897Y-118423719D01*
X167087277Y-118516603D01*
X167056365Y-118610715D01*
X167039396Y-118678625D01*
X167026729Y-118752222D01*
X167018654Y-118832000D01*
X166917586Y-118832000D01*
X166921870Y-118768924D01*
X166933725Y-118692928D01*
X166954711Y-118601972D01*
X166981779Y-118513345D01*
X167015712Y-118426747D01*
X167056658Y-118341951D01*
X167103641Y-118259982D01*
X167150751Y-118190050D01*
X167197928Y-118130925D01*
X166805527Y-118130925D01*
G37*
G36*
X167828807Y-118832000D02*
G01*
X167828807Y-118746466D01*
X167799008Y-118782517D01*
X167766217Y-118809616D01*
X167730070Y-118828785D01*
X167689872Y-118840471D01*
X167644648Y-118844505D01*
X167594656Y-118839519D01*
X167548709Y-118824819D01*
X167508715Y-118801710D01*
X167482568Y-118775335D01*
X167464569Y-118742976D01*
X167452282Y-118702307D01*
X167448071Y-118669057D01*
X167446274Y-118610422D01*
X167446274Y-118250506D01*
X167544606Y-118250506D01*
X167544606Y-118572907D01*
X167546510Y-118643841D01*
X167550614Y-118676905D01*
X167559308Y-118701296D01*
X167572366Y-118721408D01*
X167589986Y-118737917D01*
X167611017Y-118749991D01*
X167635506Y-118757468D01*
X167664285Y-118760094D01*
X167707137Y-118754436D01*
X167747377Y-118737380D01*
X167771006Y-118720150D01*
X167789115Y-118699659D01*
X167802282Y-118675538D01*
X167813746Y-118631787D01*
X167818402Y-118561965D01*
X167818402Y-118250506D01*
X167916783Y-118250506D01*
X167916783Y-118832000D01*
X167828807Y-118832000D01*
G37*
G36*
X168088633Y-118832000D02*
G01*
X168088633Y-118028538D01*
X168629093Y-118028538D01*
X168629093Y-118121546D01*
X168194634Y-118121546D01*
X168194634Y-118372432D01*
X168570621Y-118372432D01*
X168570621Y-118465440D01*
X168194634Y-118465440D01*
X168194634Y-118832000D01*
X168088633Y-118832000D01*
G37*
G36*
X169691368Y-107854414D02*
G01*
X169787013Y-107841274D01*
X169793685Y-107902486D01*
X169805782Y-107942557D01*
X169821402Y-107967498D01*
X169843853Y-107986043D01*
X169871577Y-107997443D01*
X169906155Y-108001497D01*
X169943940Y-107996730D01*
X169974982Y-107983130D01*
X169999510Y-107961382D01*
X170014892Y-107933207D01*
X170022558Y-107896924D01*
X170025834Y-107832530D01*
X170025834Y-107278538D01*
X170131835Y-107278538D01*
X170131835Y-107825251D01*
X170128611Y-107892541D01*
X170120043Y-107943442D01*
X170107509Y-107981225D01*
X170088062Y-108015275D01*
X170062583Y-108043141D01*
X170030474Y-108065489D01*
X169994260Y-108081282D01*
X169953305Y-108091085D01*
X169906692Y-108094505D01*
X169854299Y-108090267D01*
X169810974Y-108078400D01*
X169775026Y-108059661D01*
X169745199Y-108034079D01*
X169722150Y-108002553D01*
X169705079Y-107963314D01*
X169694443Y-107914649D01*
X169691368Y-107854414D01*
G37*
G36*
X170265729Y-107869997D02*
G01*
X170364110Y-107856905D01*
X170379396Y-107910415D01*
X170398853Y-107949017D01*
X170421751Y-107975998D01*
X170450679Y-107996137D01*
X170483378Y-108008256D01*
X170520963Y-108012439D01*
X170565255Y-108007006D01*
X170603846Y-107991171D01*
X170638151Y-107964519D01*
X170664678Y-107930071D01*
X170680516Y-107890963D01*
X170685973Y-107845719D01*
X170680860Y-107802530D01*
X170666145Y-107765894D01*
X170641716Y-107734295D01*
X170609891Y-107710121D01*
X170572886Y-107695514D01*
X170529169Y-107690429D01*
X170499836Y-107692862D01*
X170459756Y-107701371D01*
X170470649Y-107615056D01*
X170486525Y-107616180D01*
X170527426Y-107612465D01*
X170564872Y-107601566D01*
X170599609Y-107583451D01*
X170621441Y-107565048D01*
X170636906Y-107542689D01*
X170646511Y-107515597D01*
X170649923Y-107482481D01*
X170645720Y-107447985D01*
X170633573Y-107418538D01*
X170613287Y-107392942D01*
X170587003Y-107373500D01*
X170555949Y-107361638D01*
X170518765Y-107357478D01*
X170481916Y-107361619D01*
X170450436Y-107373536D01*
X170423119Y-107393235D01*
X170401668Y-107419412D01*
X170385075Y-107454419D01*
X170373929Y-107500506D01*
X170275596Y-107483018D01*
X170288101Y-107434535D01*
X170306052Y-107393514D01*
X170329172Y-107358865D01*
X170357564Y-107329780D01*
X170390910Y-107306320D01*
X170428025Y-107289439D01*
X170469610Y-107279027D01*
X170516566Y-107275412D01*
X170559612Y-107278620D01*
X170599695Y-107288051D01*
X170637369Y-107303646D01*
X170671813Y-107325124D01*
X170699707Y-107350689D01*
X170721779Y-107380583D01*
X170738150Y-107414050D01*
X170747811Y-107448379D01*
X170751040Y-107484093D01*
X170747902Y-107517946D01*
X170738641Y-107549337D01*
X170723147Y-107578859D01*
X170702214Y-107604765D01*
X170675038Y-107627373D01*
X170640642Y-107646759D01*
X170685439Y-107662041D01*
X170721757Y-107684657D01*
X170750991Y-107714756D01*
X170772403Y-107750979D01*
X170785685Y-107793500D01*
X170790363Y-107843863D01*
X170785498Y-107894706D01*
X170771279Y-107940623D01*
X170747673Y-107982683D01*
X170713866Y-108021623D01*
X170673538Y-108053225D01*
X170628519Y-108075805D01*
X170577893Y-108089686D01*
X170520425Y-108094505D01*
X170468402Y-108090349D01*
X170422534Y-108078390D01*
X170381755Y-108058993D01*
X170345255Y-108031979D01*
X170314270Y-107998549D01*
X170290879Y-107960899D01*
X170274663Y-107918366D01*
X170265729Y-107869997D01*
G37*
G36*
X187941368Y-113559414D02*
G01*
X188037013Y-113546274D01*
X188043685Y-113607486D01*
X188055782Y-113647557D01*
X188071402Y-113672498D01*
X188093853Y-113691043D01*
X188121577Y-113702443D01*
X188156155Y-113706497D01*
X188193940Y-113701730D01*
X188224982Y-113688130D01*
X188249510Y-113666382D01*
X188264892Y-113638207D01*
X188272558Y-113601924D01*
X188275834Y-113537530D01*
X188275834Y-112983538D01*
X188381835Y-112983538D01*
X188381835Y-113530251D01*
X188378611Y-113597541D01*
X188370043Y-113648442D01*
X188357509Y-113686225D01*
X188338062Y-113720275D01*
X188312583Y-113748141D01*
X188280474Y-113770489D01*
X188244260Y-113786282D01*
X188203305Y-113796085D01*
X188156692Y-113799505D01*
X188104299Y-113795267D01*
X188060974Y-113783400D01*
X188025026Y-113764661D01*
X187995199Y-113739079D01*
X187972150Y-113707553D01*
X187955079Y-113668314D01*
X187944443Y-113619649D01*
X187941368Y-113559414D01*
G37*
G36*
X188885708Y-113787000D02*
G01*
X188787327Y-113787000D01*
X188787327Y-113158514D01*
X188748179Y-113191085D01*
X188694173Y-113226462D01*
X188637337Y-113257215D01*
X188590614Y-113277411D01*
X188590614Y-113183622D01*
X188644120Y-113155157D01*
X188692058Y-113123497D01*
X188734864Y-113088660D01*
X188774135Y-113049523D01*
X188802697Y-113013594D01*
X188822303Y-112980412D01*
X188885708Y-112980412D01*
X188885708Y-113787000D01*
G37*
G36*
X175049960Y-121781450D02*
G01*
X175102931Y-121789086D01*
X175140921Y-121800032D01*
X175175358Y-121817865D01*
X175204863Y-121842890D01*
X175229972Y-121875942D01*
X175248472Y-121913366D01*
X175259570Y-121953190D01*
X175263335Y-121996110D01*
X175259748Y-122037641D01*
X175249337Y-122074818D01*
X175232251Y-122108465D01*
X175208136Y-122139187D01*
X175179061Y-122164060D01*
X175142048Y-122184933D01*
X175095550Y-122201526D01*
X175037655Y-122213144D01*
X175076582Y-122234691D01*
X175101549Y-122253493D01*
X175145685Y-122300683D01*
X175189574Y-122361351D01*
X175328890Y-122582000D01*
X175195582Y-122582000D01*
X175089532Y-122413179D01*
X175013035Y-122301413D01*
X174982619Y-122266521D01*
X174959204Y-122247143D01*
X174934879Y-122233851D01*
X174910844Y-122225551D01*
X174851835Y-122221692D01*
X174728883Y-122221692D01*
X174728883Y-122582000D01*
X174622833Y-122582000D01*
X174622833Y-122131811D01*
X174728883Y-122131811D01*
X174956762Y-122131811D01*
X175025336Y-122127565D01*
X175070432Y-122116912D01*
X175096070Y-122104648D01*
X175116592Y-122088759D01*
X175132714Y-122069090D01*
X175148709Y-122034726D01*
X175154012Y-121997673D01*
X175149322Y-121961885D01*
X175135709Y-121931369D01*
X175112735Y-121904812D01*
X175082966Y-121885921D01*
X175040890Y-121873231D01*
X174982456Y-121868420D01*
X174728883Y-121868420D01*
X174728883Y-122131811D01*
X174622833Y-122131811D01*
X174622833Y-121778538D01*
X174978060Y-121778538D01*
X175049960Y-121781450D01*
G37*
G36*
X175906427Y-122488992D02*
G01*
X175906427Y-122582000D01*
X175376908Y-122582000D01*
X175379224Y-122547171D01*
X175388388Y-122513807D01*
X175413968Y-122461408D01*
X175453112Y-122407464D01*
X175503808Y-122354561D01*
X175581828Y-122286368D01*
X175668271Y-122211586D01*
X175724588Y-122156111D01*
X175758318Y-122115886D01*
X175785052Y-122072249D01*
X175799661Y-122032993D01*
X175804235Y-121996940D01*
X175799516Y-121959563D01*
X175785730Y-121926946D01*
X175762421Y-121897875D01*
X175732401Y-121875784D01*
X175696617Y-121862245D01*
X175653440Y-121857478D01*
X175607838Y-121862575D01*
X175570549Y-121876982D01*
X175539720Y-121900415D01*
X175516648Y-121931468D01*
X175502068Y-121970344D01*
X175496587Y-122019264D01*
X175395471Y-122008810D01*
X175404951Y-121952461D01*
X175421432Y-121905748D01*
X175444323Y-121867049D01*
X175473628Y-121835154D01*
X175508946Y-121809849D01*
X175550242Y-121791269D01*
X175598645Y-121779557D01*
X175655589Y-121775412D01*
X175712873Y-121779850D01*
X175761436Y-121792395D01*
X175802801Y-121812357D01*
X175838136Y-121839697D01*
X175867696Y-121873957D01*
X175888454Y-121911403D01*
X175901029Y-121952731D01*
X175905352Y-121998943D01*
X175900488Y-122046575D01*
X175885666Y-122093953D01*
X175860800Y-122139907D01*
X175820355Y-122192286D01*
X175766061Y-122247457D01*
X175668729Y-122333946D01*
X175588508Y-122403445D01*
X175555010Y-122435405D01*
X175531695Y-122462621D01*
X175513538Y-122488992D01*
X175906427Y-122488992D01*
G37*
G36*
X172069978Y-123278979D02*
G01*
X172110783Y-123289177D01*
X172146553Y-123305580D01*
X172178074Y-123328217D01*
X172204710Y-123356452D01*
X172225624Y-123389628D01*
X172240969Y-123428504D01*
X172250467Y-123474128D01*
X172152672Y-123481748D01*
X172135548Y-123429785D01*
X172115499Y-123398901D01*
X172086731Y-123375829D01*
X172054345Y-123362162D01*
X172017118Y-123357478D01*
X171986650Y-123360460D01*
X171959378Y-123369153D01*
X171934612Y-123383563D01*
X171906641Y-123408610D01*
X171882211Y-123441020D01*
X171861339Y-123482041D01*
X171847506Y-123526154D01*
X171837712Y-123586254D01*
X171833496Y-123666347D01*
X171859514Y-123632784D01*
X171888389Y-123606296D01*
X171920349Y-123586138D01*
X171955365Y-123571496D01*
X171991130Y-123562809D01*
X172028060Y-123559906D01*
X172075727Y-123564504D01*
X172118923Y-123577966D01*
X172158640Y-123600359D01*
X172195561Y-123632495D01*
X172225349Y-123670698D01*
X172246780Y-123713991D01*
X172260048Y-123763350D01*
X172264682Y-123820073D01*
X172261005Y-123869707D01*
X172250155Y-123916355D01*
X172232149Y-123960611D01*
X172207317Y-124001115D01*
X172177630Y-124033964D01*
X172142805Y-124060018D01*
X172103675Y-124079010D01*
X172060967Y-124090547D01*
X172013845Y-124094505D01*
X171954214Y-124088642D01*
X171901827Y-124071683D01*
X171855177Y-124043761D01*
X171813272Y-124003939D01*
X171788033Y-123967866D01*
X171766920Y-123922112D01*
X171750465Y-123864724D01*
X171743656Y-123819976D01*
X171848785Y-123819976D01*
X171854172Y-123869691D01*
X171870376Y-123917331D01*
X171887078Y-123946407D01*
X171907152Y-123969766D01*
X171930753Y-123988113D01*
X171970898Y-124006467D01*
X172012184Y-124012439D01*
X172051536Y-124006929D01*
X172086818Y-123990546D01*
X172119309Y-123962174D01*
X172143432Y-123926192D01*
X172158636Y-123881417D01*
X172164103Y-123825447D01*
X172158709Y-123771728D01*
X172143704Y-123728879D01*
X172119846Y-123694533D01*
X172087753Y-123667914D01*
X172051095Y-123652105D01*
X172008374Y-123646661D01*
X171965933Y-123652043D01*
X171928672Y-123667809D01*
X171895240Y-123694533D01*
X171869859Y-123728934D01*
X171854280Y-123770110D01*
X171848785Y-123819976D01*
X171743656Y-123819976D01*
X171739610Y-123793384D01*
X171735652Y-123705475D01*
X171739988Y-123607366D01*
X171751921Y-123527062D01*
X171770083Y-123461842D01*
X171793465Y-123409288D01*
X171821479Y-123367345D01*
X171853579Y-123334188D01*
X171889187Y-123308797D01*
X171928780Y-123290554D01*
X171973103Y-123279313D01*
X172023126Y-123275412D01*
X172069978Y-123278979D01*
G37*
G36*
X172665766Y-123278465D02*
G01*
X172703200Y-123287239D01*
X172736510Y-123301399D01*
X172766864Y-123321125D01*
X172793560Y-123345957D01*
X172816866Y-123376382D01*
X172844448Y-123429006D01*
X172866594Y-123495670D01*
X172879508Y-123572097D01*
X172884619Y-123685251D01*
X172880881Y-123779629D01*
X172870753Y-123854503D01*
X172855652Y-123913130D01*
X172832193Y-123968382D01*
X172803277Y-124012498D01*
X172769044Y-124047170D01*
X172728312Y-124072967D01*
X172680389Y-124088898D01*
X172623426Y-124094505D01*
X172567054Y-124088989D01*
X172518949Y-124073228D01*
X172477434Y-124047583D01*
X172441416Y-124011316D01*
X172415766Y-123971782D01*
X172394208Y-123921699D01*
X172377362Y-123858946D01*
X172366239Y-123781055D01*
X172362184Y-123685251D01*
X172362196Y-123684958D01*
X172463300Y-123684958D01*
X172467354Y-123790167D01*
X172477781Y-123864335D01*
X172492355Y-123914643D01*
X172509462Y-123947226D01*
X172535126Y-123976912D01*
X172562297Y-123996849D01*
X172591441Y-124008509D01*
X172623426Y-124012439D01*
X172655368Y-124008497D01*
X172684489Y-123996796D01*
X172711658Y-123976773D01*
X172737341Y-123946933D01*
X172754488Y-123914211D01*
X172769077Y-123863854D01*
X172779502Y-123789800D01*
X172783552Y-123684958D01*
X172779486Y-123579418D01*
X172769037Y-123505153D01*
X172754448Y-123454897D01*
X172737341Y-123422446D01*
X172711701Y-123392962D01*
X172684368Y-123373088D01*
X172654864Y-123361421D01*
X172622303Y-123357478D01*
X172589894Y-123361115D01*
X172561627Y-123371670D01*
X172536545Y-123389246D01*
X172514103Y-123414777D01*
X172494858Y-123451321D01*
X172478844Y-123504879D01*
X172467607Y-123580717D01*
X172463300Y-123684958D01*
X172362196Y-123684958D01*
X172365964Y-123590073D01*
X172376185Y-123514866D01*
X172391395Y-123456249D01*
X172415038Y-123401003D01*
X172444052Y-123356991D01*
X172478297Y-123322502D01*
X172519033Y-123296823D01*
X172566807Y-123280980D01*
X172623426Y-123275412D01*
X172665766Y-123278465D01*
G37*
G36*
X173398018Y-123800632D02*
G01*
X173506217Y-123800632D01*
X173506217Y-123890513D01*
X173398018Y-123890513D01*
X173398018Y-124082000D01*
X173299637Y-124082000D01*
X173299637Y-123890513D01*
X172952079Y-123890513D01*
X172952079Y-123800632D01*
X173048799Y-123800632D01*
X173299637Y-123800632D01*
X173299637Y-123439543D01*
X173048799Y-123800632D01*
X172952079Y-123800632D01*
X173317662Y-123281665D01*
X173398018Y-123281665D01*
X173398018Y-123800632D01*
G37*
G36*
X173641968Y-124082000D02*
G01*
X173641968Y-123278538D01*
X173748018Y-123278538D01*
X173748018Y-123677484D01*
X174145841Y-123278538D01*
X174289553Y-123278538D01*
X173953475Y-123604212D01*
X174304305Y-124082000D01*
X174164403Y-124082000D01*
X173879176Y-123675286D01*
X173748018Y-123803758D01*
X173748018Y-124082000D01*
X173641968Y-124082000D01*
G37*
G36*
X183085090Y-108281891D02*
G01*
X183139804Y-108290066D01*
X183184232Y-108303816D01*
X183223170Y-108323008D01*
X183257334Y-108347610D01*
X183295685Y-108386316D01*
X183327210Y-108431778D01*
X183352100Y-108484875D01*
X183369158Y-108541430D01*
X183379834Y-108604773D01*
X183383559Y-108675872D01*
X183381005Y-108736706D01*
X183373728Y-108790534D01*
X183362212Y-108838147D01*
X183336983Y-108904679D01*
X183307550Y-108955140D01*
X183271839Y-108997332D01*
X183234619Y-109028022D01*
X183192046Y-109050898D01*
X183138974Y-109068322D01*
X183080768Y-109078369D01*
X183010307Y-109082000D01*
X182721221Y-109082000D01*
X182721221Y-108988992D01*
X182827222Y-108988992D01*
X182998290Y-108988992D01*
X183073157Y-108984759D01*
X183122609Y-108974142D01*
X183164125Y-108955622D01*
X183194466Y-108932230D01*
X183216950Y-108905109D01*
X183236586Y-108871383D01*
X183253182Y-108829941D01*
X183264387Y-108786616D01*
X183271637Y-108735134D01*
X183274235Y-108674212D01*
X183271129Y-108609062D01*
X183262604Y-108556137D01*
X183249649Y-108513475D01*
X183232958Y-108479355D01*
X183202145Y-108437442D01*
X183168850Y-108407656D01*
X183132721Y-108388106D01*
X183103435Y-108379855D01*
X183059280Y-108373885D01*
X182995554Y-108371546D01*
X182827222Y-108371546D01*
X182827222Y-108988992D01*
X182721221Y-108988992D01*
X182721221Y-108278538D01*
X182997166Y-108278538D01*
X183085090Y-108281891D01*
G37*
G36*
X183490000Y-108869997D02*
G01*
X183588381Y-108856905D01*
X183603666Y-108910415D01*
X183623124Y-108949017D01*
X183646022Y-108975998D01*
X183674949Y-108996137D01*
X183707649Y-109008256D01*
X183745233Y-109012439D01*
X183789525Y-109007006D01*
X183828116Y-108991171D01*
X183862421Y-108964519D01*
X183888948Y-108930071D01*
X183904787Y-108890963D01*
X183910244Y-108845719D01*
X183905131Y-108802530D01*
X183890415Y-108765894D01*
X183865987Y-108734295D01*
X183834161Y-108710121D01*
X183797156Y-108695514D01*
X183753440Y-108690429D01*
X183724106Y-108692862D01*
X183684026Y-108701371D01*
X183694919Y-108615056D01*
X183710795Y-108616180D01*
X183751697Y-108612465D01*
X183789142Y-108601566D01*
X183823880Y-108583451D01*
X183845711Y-108565048D01*
X183861177Y-108542689D01*
X183870781Y-108515597D01*
X183874194Y-108482481D01*
X183869991Y-108447985D01*
X183857844Y-108418538D01*
X183837557Y-108392942D01*
X183811274Y-108373500D01*
X183780219Y-108361638D01*
X183743035Y-108357478D01*
X183706187Y-108361619D01*
X183674706Y-108373536D01*
X183647390Y-108393235D01*
X183625938Y-108419412D01*
X183609346Y-108454419D01*
X183598199Y-108500506D01*
X183499867Y-108483018D01*
X183512371Y-108434535D01*
X183530322Y-108393514D01*
X183553443Y-108358865D01*
X183581835Y-108329780D01*
X183615181Y-108306320D01*
X183652296Y-108289439D01*
X183693881Y-108279027D01*
X183740837Y-108275412D01*
X183783882Y-108278620D01*
X183823966Y-108288051D01*
X183861639Y-108303646D01*
X183896084Y-108325124D01*
X183923978Y-108350689D01*
X183946050Y-108380583D01*
X183962420Y-108414050D01*
X183972082Y-108448379D01*
X183975310Y-108484093D01*
X183972172Y-108517946D01*
X183962912Y-108549337D01*
X183947418Y-108578859D01*
X183926485Y-108604765D01*
X183899309Y-108627373D01*
X183864912Y-108646759D01*
X183909710Y-108662041D01*
X183946027Y-108684657D01*
X183975261Y-108714756D01*
X183996674Y-108750979D01*
X184009955Y-108793500D01*
X184014633Y-108843863D01*
X184009768Y-108894706D01*
X183995550Y-108940623D01*
X183971944Y-108982683D01*
X183938136Y-109021623D01*
X183897809Y-109053225D01*
X183852790Y-109075805D01*
X183802164Y-109089686D01*
X183744696Y-109094505D01*
X183692673Y-109090349D01*
X183646805Y-109078390D01*
X183606026Y-109058993D01*
X183569525Y-109031979D01*
X183538541Y-108998549D01*
X183515149Y-108960899D01*
X183498933Y-108918366D01*
X183490000Y-108869997D01*
G37*
G36*
X181942847Y-120800632D02*
G01*
X182048848Y-120827401D01*
X182027817Y-120891210D01*
X182000680Y-120944709D01*
X181967738Y-120989322D01*
X181928876Y-121026117D01*
X181883973Y-121055603D01*
X181834320Y-121076858D01*
X181779060Y-121089963D01*
X181717117Y-121094505D01*
X181651790Y-121090793D01*
X181595762Y-121080321D01*
X181547693Y-121063847D01*
X181506434Y-121041797D01*
X181468865Y-121012986D01*
X181435886Y-120978331D01*
X181407250Y-120937281D01*
X181382944Y-120889048D01*
X181359556Y-120821239D01*
X181345396Y-120749878D01*
X181340593Y-120674260D01*
X181346251Y-120591952D01*
X181362439Y-120519702D01*
X181388415Y-120455956D01*
X181415228Y-120411630D01*
X181446689Y-120373612D01*
X181482979Y-120341316D01*
X181524508Y-120314393D01*
X181584934Y-120287660D01*
X181649364Y-120271523D01*
X181718778Y-120266033D01*
X181778562Y-120270124D01*
X181831527Y-120281875D01*
X181878713Y-120300806D01*
X181920963Y-120326849D01*
X181958294Y-120359748D01*
X181989647Y-120398696D01*
X182015298Y-120444378D01*
X182035171Y-120497771D01*
X181930830Y-120522390D01*
X181907999Y-120466814D01*
X181880927Y-120425455D01*
X181849937Y-120395628D01*
X181812758Y-120374079D01*
X181768849Y-120360657D01*
X181716580Y-120355914D01*
X181656401Y-120361209D01*
X181605520Y-120376220D01*
X181562170Y-120400318D01*
X181525009Y-120433189D01*
X181496121Y-120472581D01*
X181475024Y-120519459D01*
X181461077Y-120569825D01*
X181452717Y-120621133D01*
X181449916Y-120673674D01*
X181453485Y-120741548D01*
X181463624Y-120800813D01*
X181479665Y-120852607D01*
X181503822Y-120900216D01*
X181534585Y-120937821D01*
X181572281Y-120966815D01*
X181615475Y-120987869D01*
X181660599Y-121000403D01*
X181708374Y-121004623D01*
X181752330Y-121001235D01*
X181791627Y-120991436D01*
X181827052Y-120975483D01*
X181859218Y-120953235D01*
X181886517Y-120925731D01*
X181909623Y-120891841D01*
X181928518Y-120850570D01*
X181942847Y-120800632D01*
G37*
G36*
X182656427Y-120988992D02*
G01*
X182656427Y-121082000D01*
X182126908Y-121082000D01*
X182129224Y-121047171D01*
X182138388Y-121013807D01*
X182163968Y-120961408D01*
X182203112Y-120907464D01*
X182253808Y-120854561D01*
X182331828Y-120786368D01*
X182418271Y-120711586D01*
X182474588Y-120656111D01*
X182508318Y-120615886D01*
X182535052Y-120572249D01*
X182549661Y-120532993D01*
X182554235Y-120496940D01*
X182549516Y-120459563D01*
X182535730Y-120426946D01*
X182512421Y-120397875D01*
X182482401Y-120375784D01*
X182446617Y-120362245D01*
X182403440Y-120357478D01*
X182357838Y-120362575D01*
X182320549Y-120376982D01*
X182289720Y-120400415D01*
X182266648Y-120431468D01*
X182252068Y-120470344D01*
X182246587Y-120519264D01*
X182145471Y-120508810D01*
X182154951Y-120452461D01*
X182171432Y-120405748D01*
X182194323Y-120367049D01*
X182223628Y-120335154D01*
X182258946Y-120309849D01*
X182300242Y-120291269D01*
X182348645Y-120279557D01*
X182405589Y-120275412D01*
X182462873Y-120279850D01*
X182511436Y-120292395D01*
X182552801Y-120312357D01*
X182588136Y-120339697D01*
X182617696Y-120373957D01*
X182638454Y-120411403D01*
X182651029Y-120452731D01*
X182655352Y-120498943D01*
X182650488Y-120546575D01*
X182635666Y-120593953D01*
X182610800Y-120639907D01*
X182570355Y-120692286D01*
X182516061Y-120747457D01*
X182418729Y-120833946D01*
X182338508Y-120903445D01*
X182305010Y-120935405D01*
X182281695Y-120962621D01*
X182263538Y-120988992D01*
X182656427Y-120988992D01*
G37*
G36*
X182038276Y-122238992D02*
G01*
X182038276Y-122332000D01*
X181508757Y-122332000D01*
X181511074Y-122297171D01*
X181520237Y-122263807D01*
X181545817Y-122211408D01*
X181584961Y-122157464D01*
X181635657Y-122104561D01*
X181713677Y-122036368D01*
X181800120Y-121961586D01*
X181856437Y-121906111D01*
X181890167Y-121865886D01*
X181916901Y-121822249D01*
X181931511Y-121782993D01*
X181936085Y-121746940D01*
X181931366Y-121709563D01*
X181917579Y-121676946D01*
X181894270Y-121647875D01*
X181864251Y-121625784D01*
X181828467Y-121612245D01*
X181785289Y-121607478D01*
X181739687Y-121612575D01*
X181702398Y-121626982D01*
X181671570Y-121650415D01*
X181648497Y-121681468D01*
X181633917Y-121720344D01*
X181628436Y-121769264D01*
X181527320Y-121758810D01*
X181536800Y-121702461D01*
X181553281Y-121655748D01*
X181576172Y-121617049D01*
X181605478Y-121585154D01*
X181640796Y-121559849D01*
X181682091Y-121541269D01*
X181730494Y-121529557D01*
X181787438Y-121525412D01*
X181844723Y-121529850D01*
X181893285Y-121542395D01*
X181934650Y-121562357D01*
X181969986Y-121589697D01*
X181999546Y-121623957D01*
X182020303Y-121661403D01*
X182032878Y-121702731D01*
X182037201Y-121748943D01*
X182032337Y-121796575D01*
X182017515Y-121843953D01*
X181992650Y-121889907D01*
X181952205Y-121942286D01*
X181897910Y-121997457D01*
X181800579Y-122083946D01*
X181720357Y-122153445D01*
X181686859Y-122185405D01*
X181663544Y-122212621D01*
X181645387Y-122238992D01*
X182038276Y-122238992D01*
G37*
G36*
X182660411Y-122238992D02*
G01*
X182660411Y-122332000D01*
X182130893Y-122332000D01*
X182133209Y-122297171D01*
X182142372Y-122263807D01*
X182167952Y-122211408D01*
X182207097Y-122157464D01*
X182257792Y-122104561D01*
X182335813Y-122036368D01*
X182422256Y-121961586D01*
X182478573Y-121906111D01*
X182512302Y-121865886D01*
X182539036Y-121822249D01*
X182553646Y-121782993D01*
X182558220Y-121746940D01*
X182553501Y-121709563D01*
X182539714Y-121676946D01*
X182516406Y-121647875D01*
X182486386Y-121625784D01*
X182450602Y-121612245D01*
X182407425Y-121607478D01*
X182361822Y-121612575D01*
X182324534Y-121626982D01*
X182293705Y-121650415D01*
X182270632Y-121681468D01*
X182256053Y-121720344D01*
X182250572Y-121769264D01*
X182149455Y-121758810D01*
X182158935Y-121702461D01*
X182175416Y-121655748D01*
X182198308Y-121617049D01*
X182227613Y-121585154D01*
X182262931Y-121559849D01*
X182304226Y-121541269D01*
X182352629Y-121529557D01*
X182409574Y-121525412D01*
X182466858Y-121529850D01*
X182515420Y-121542395D01*
X182556786Y-121562357D01*
X182592121Y-121589697D01*
X182621681Y-121623957D01*
X182642438Y-121661403D01*
X182655013Y-121702731D01*
X182659337Y-121748943D01*
X182654472Y-121796575D01*
X182639651Y-121843953D01*
X182614785Y-121889907D01*
X182574340Y-121942286D01*
X182520046Y-121997457D01*
X182422714Y-122083946D01*
X182342492Y-122153445D01*
X182308995Y-122185405D01*
X182285680Y-122212621D01*
X182267522Y-122238992D01*
X182660411Y-122238992D01*
G37*
G36*
X183173272Y-122332000D02*
G01*
X183173272Y-122246466D01*
X183143474Y-122282517D01*
X183110683Y-122309616D01*
X183074536Y-122328785D01*
X183034337Y-122340471D01*
X182989113Y-122344505D01*
X182939121Y-122339519D01*
X182893175Y-122324819D01*
X182853181Y-122301710D01*
X182827034Y-122275335D01*
X182809034Y-122242976D01*
X182796748Y-122202307D01*
X182792536Y-122169057D01*
X182790739Y-122110422D01*
X182790739Y-121750506D01*
X182889071Y-121750506D01*
X182889071Y-122072907D01*
X182890975Y-122143841D01*
X182895080Y-122176905D01*
X182903774Y-122201296D01*
X182916831Y-122221408D01*
X182934452Y-122237917D01*
X182955482Y-122249991D01*
X182979971Y-122257468D01*
X183008750Y-122260094D01*
X183051602Y-122254436D01*
X183091842Y-122237380D01*
X183115471Y-122220150D01*
X183133581Y-122199659D01*
X183146748Y-122175538D01*
X183158211Y-122131787D01*
X183162868Y-122061965D01*
X183162868Y-121750506D01*
X183261249Y-121750506D01*
X183261249Y-122332000D01*
X183173272Y-122332000D01*
G37*
G36*
X183433098Y-122332000D02*
G01*
X183433098Y-121528538D01*
X183973559Y-121528538D01*
X183973559Y-121621546D01*
X183539099Y-121621546D01*
X183539099Y-121872432D01*
X183915087Y-121872432D01*
X183915087Y-121965440D01*
X183539099Y-121965440D01*
X183539099Y-122332000D01*
X183433098Y-122332000D01*
G37*
G36*
X175049960Y-117031450D02*
G01*
X175102931Y-117039086D01*
X175140921Y-117050032D01*
X175175358Y-117067865D01*
X175204863Y-117092890D01*
X175229972Y-117125942D01*
X175248472Y-117163366D01*
X175259570Y-117203190D01*
X175263335Y-117246110D01*
X175259748Y-117287641D01*
X175249337Y-117324818D01*
X175232251Y-117358465D01*
X175208136Y-117389187D01*
X175179061Y-117414060D01*
X175142048Y-117434933D01*
X175095550Y-117451526D01*
X175037655Y-117463144D01*
X175076582Y-117484691D01*
X175101549Y-117503493D01*
X175145685Y-117550683D01*
X175189574Y-117611351D01*
X175328890Y-117832000D01*
X175195582Y-117832000D01*
X175089532Y-117663179D01*
X175013035Y-117551413D01*
X174982619Y-117516521D01*
X174959204Y-117497143D01*
X174934879Y-117483851D01*
X174910844Y-117475551D01*
X174851835Y-117471692D01*
X174728883Y-117471692D01*
X174728883Y-117832000D01*
X174622833Y-117832000D01*
X174622833Y-117381811D01*
X174728883Y-117381811D01*
X174956762Y-117381811D01*
X175025336Y-117377565D01*
X175070432Y-117366912D01*
X175096070Y-117354648D01*
X175116592Y-117338759D01*
X175132714Y-117319090D01*
X175148709Y-117284726D01*
X175154012Y-117247673D01*
X175149322Y-117211885D01*
X175135709Y-117181369D01*
X175112735Y-117154812D01*
X175082966Y-117135921D01*
X175040890Y-117123231D01*
X174982456Y-117118420D01*
X174728883Y-117118420D01*
X174728883Y-117381811D01*
X174622833Y-117381811D01*
X174622833Y-117028538D01*
X174978060Y-117028538D01*
X175049960Y-117031450D01*
G37*
G36*
X175759979Y-117832000D02*
G01*
X175661598Y-117832000D01*
X175661598Y-117203514D01*
X175622450Y-117236085D01*
X175568443Y-117271462D01*
X175511608Y-117302215D01*
X175464884Y-117322411D01*
X175464884Y-117228622D01*
X175518390Y-117200157D01*
X175566329Y-117168497D01*
X175609134Y-117133660D01*
X175648406Y-117094523D01*
X175676968Y-117058594D01*
X175696573Y-117025412D01*
X175759979Y-117025412D01*
X175759979Y-117832000D01*
G37*
G36*
X174889693Y-119082000D02*
G01*
X174791312Y-119082000D01*
X174791312Y-118453514D01*
X174752164Y-118486085D01*
X174698158Y-118521462D01*
X174641322Y-118552215D01*
X174594599Y-118572411D01*
X174594599Y-118478622D01*
X174648105Y-118450157D01*
X174696043Y-118418497D01*
X174738849Y-118383660D01*
X174778120Y-118344523D01*
X174806682Y-118308594D01*
X174826287Y-118275412D01*
X174889693Y-118275412D01*
X174889693Y-119082000D01*
G37*
G36*
X175177948Y-119082000D02*
G01*
X175177948Y-118278538D01*
X175337488Y-118278538D01*
X175527118Y-118847673D01*
X175565366Y-118966668D01*
X175608011Y-118837806D01*
X175799839Y-118278538D01*
X175942477Y-118278538D01*
X175942477Y-119082000D01*
X175840286Y-119082000D01*
X175840286Y-118409159D01*
X175607474Y-119082000D01*
X175511828Y-119082000D01*
X175280140Y-118397680D01*
X175280140Y-119082000D01*
X175177948Y-119082000D01*
G37*
G36*
X158990326Y-120019442D02*
G01*
X159041641Y-120029438D01*
X159089811Y-120045849D01*
X159135303Y-120068741D01*
X159177256Y-120097766D01*
X159213631Y-120131777D01*
X159244848Y-120171086D01*
X159271102Y-120216214D01*
X159296703Y-120280845D01*
X159312429Y-120351718D01*
X159317850Y-120429976D01*
X159314327Y-120495360D01*
X159304163Y-120554365D01*
X159287808Y-120607785D01*
X159264321Y-120658205D01*
X159234186Y-120703816D01*
X159197097Y-120745098D01*
X159270661Y-120790569D01*
X159333189Y-120819494D01*
X159302023Y-120894526D01*
X159246146Y-120870249D01*
X159188876Y-120837321D01*
X159129881Y-120794826D01*
X159068831Y-120822281D01*
X159003587Y-120838861D01*
X158933119Y-120844505D01*
X158862078Y-120838544D01*
X158796692Y-120821058D01*
X158735820Y-120792090D01*
X158694153Y-120763237D01*
X158657760Y-120729294D01*
X158626260Y-120689931D01*
X158599483Y-120644616D01*
X158573296Y-120579743D01*
X158557238Y-120508774D01*
X158551709Y-120430562D01*
X158551730Y-120430269D01*
X158660984Y-120430269D01*
X158666529Y-120508975D01*
X158681962Y-120573741D01*
X158706035Y-120627030D01*
X158738311Y-120670799D01*
X158779679Y-120707489D01*
X158825683Y-120733379D01*
X158877280Y-120749162D01*
X158935854Y-120754623D01*
X158991328Y-120749234D01*
X159042979Y-120733277D01*
X158991650Y-120706077D01*
X158938053Y-120688189D01*
X158963747Y-120610032D01*
X159023223Y-120630817D01*
X159073269Y-120656505D01*
X159115129Y-120686822D01*
X159147284Y-120651205D01*
X159172901Y-120608921D01*
X159192033Y-120558907D01*
X159204232Y-120499755D01*
X159208576Y-120429780D01*
X159204640Y-120365409D01*
X159193412Y-120308977D01*
X159175506Y-120259348D01*
X159149681Y-120213842D01*
X159117571Y-120176436D01*
X159078785Y-120146214D01*
X159034870Y-120123925D01*
X158987531Y-120110494D01*
X158935854Y-120105914D01*
X158878031Y-120111204D01*
X158826768Y-120126521D01*
X158780774Y-120151671D01*
X158739141Y-120187296D01*
X158712595Y-120220596D01*
X158691182Y-120260350D01*
X158675038Y-120307622D01*
X158664682Y-120363744D01*
X158660984Y-120430269D01*
X158551730Y-120430269D01*
X158557227Y-120352703D01*
X158573343Y-120281142D01*
X158599776Y-120214847D01*
X158626855Y-120168421D01*
X158658560Y-120128667D01*
X158695035Y-120094941D01*
X158736650Y-120066836D01*
X158797603Y-120038821D01*
X158863446Y-120021839D01*
X158935317Y-120016033D01*
X158990326Y-120019442D01*
G37*
G36*
X159791242Y-120832000D02*
G01*
X159692861Y-120832000D01*
X159692861Y-120203514D01*
X159653713Y-120236085D01*
X159599707Y-120271462D01*
X159542871Y-120302215D01*
X159496148Y-120322411D01*
X159496148Y-120228622D01*
X159549654Y-120200157D01*
X159597592Y-120168497D01*
X159640397Y-120133660D01*
X159679669Y-120094523D01*
X159708231Y-120058594D01*
X159727836Y-120025412D01*
X159791242Y-120025412D01*
X159791242Y-120832000D01*
G37*
G36*
X174459832Y-107832000D02*
G01*
X174459832Y-107028538D01*
X174565883Y-107028538D01*
X174565883Y-107738992D01*
X174960433Y-107738992D01*
X174960433Y-107832000D01*
X174459832Y-107832000D01*
G37*
G36*
X175416971Y-107832000D02*
G01*
X175318590Y-107832000D01*
X175318590Y-107203514D01*
X175279442Y-107236085D01*
X175225436Y-107271462D01*
X175168600Y-107302215D01*
X175121877Y-107322411D01*
X175121877Y-107228622D01*
X175175383Y-107200157D01*
X175223321Y-107168497D01*
X175266127Y-107133660D01*
X175305398Y-107094523D01*
X175333960Y-107058594D01*
X175353566Y-107025412D01*
X175416971Y-107025412D01*
X175416971Y-107832000D01*
G37*
G36*
X153191368Y-114104414D02*
G01*
X153287013Y-114091274D01*
X153293685Y-114152486D01*
X153305782Y-114192557D01*
X153321402Y-114217498D01*
X153343853Y-114236043D01*
X153371577Y-114247443D01*
X153406155Y-114251497D01*
X153443940Y-114246730D01*
X153474982Y-114233130D01*
X153499510Y-114211382D01*
X153514892Y-114183207D01*
X153522558Y-114146924D01*
X153525834Y-114082530D01*
X153525834Y-113528538D01*
X153631835Y-113528538D01*
X153631835Y-114075251D01*
X153628611Y-114142541D01*
X153620043Y-114193442D01*
X153607509Y-114231225D01*
X153588062Y-114265275D01*
X153562583Y-114293141D01*
X153530474Y-114315489D01*
X153494260Y-114331282D01*
X153453305Y-114341085D01*
X153406692Y-114344505D01*
X153354299Y-114340267D01*
X153310974Y-114328400D01*
X153275026Y-114309661D01*
X153245199Y-114284079D01*
X153222150Y-114252553D01*
X153205079Y-114213314D01*
X153194443Y-114164649D01*
X153191368Y-114104414D01*
G37*
G36*
X154178890Y-114050632D02*
G01*
X154287090Y-114050632D01*
X154287090Y-114140513D01*
X154178890Y-114140513D01*
X154178890Y-114332000D01*
X154080509Y-114332000D01*
X154080509Y-114140513D01*
X153732952Y-114140513D01*
X153732952Y-114050632D01*
X153829672Y-114050632D01*
X154080509Y-114050632D01*
X154080509Y-113689543D01*
X153829672Y-114050632D01*
X153732952Y-114050632D01*
X154098534Y-113531665D01*
X154178890Y-113531665D01*
X154178890Y-114050632D01*
G37*
G36*
X167146929Y-121778538D02*
G01*
X167252930Y-121778538D01*
X167252930Y-122242062D01*
X167249372Y-122322901D01*
X167239801Y-122385865D01*
X167225624Y-122434184D01*
X167202886Y-122478121D01*
X167170425Y-122516497D01*
X167126999Y-122549906D01*
X167077486Y-122573636D01*
X167016016Y-122588955D01*
X166939811Y-122594505D01*
X166865469Y-122589672D01*
X166804874Y-122576310D01*
X166755603Y-122555670D01*
X166712142Y-122525626D01*
X166678398Y-122488417D01*
X166653412Y-122443172D01*
X166637553Y-122393043D01*
X166626830Y-122327210D01*
X166622833Y-122242062D01*
X166622833Y-121778538D01*
X166728883Y-121778538D01*
X166728883Y-122243284D01*
X166731584Y-122313912D01*
X166738540Y-122363883D01*
X166748276Y-122397938D01*
X166764320Y-122428588D01*
X166786322Y-122453934D01*
X166814905Y-122474581D01*
X166847468Y-122489100D01*
X166885633Y-122498256D01*
X166930530Y-122501497D01*
X166990058Y-122497423D01*
X167035910Y-122486422D01*
X167070888Y-122469826D01*
X167097201Y-122448203D01*
X167116314Y-122420687D01*
X167131905Y-122380259D01*
X167142767Y-122322785D01*
X167146929Y-122243284D01*
X167146929Y-121778538D01*
G37*
G36*
X167759979Y-122582000D02*
G01*
X167661598Y-122582000D01*
X167661598Y-121953514D01*
X167622450Y-121986085D01*
X167568443Y-122021462D01*
X167511608Y-122052215D01*
X167464884Y-122072411D01*
X167464884Y-121978622D01*
X167518390Y-121950157D01*
X167566329Y-121918497D01*
X167609134Y-121883660D01*
X167648406Y-121844523D01*
X167676968Y-121808594D01*
X167696573Y-121775412D01*
X167759979Y-121775412D01*
X167759979Y-122582000D01*
G37*
G36*
X152941368Y-120604414D02*
G01*
X153037013Y-120591274D01*
X153043685Y-120652486D01*
X153055782Y-120692557D01*
X153071402Y-120717498D01*
X153093853Y-120736043D01*
X153121577Y-120747443D01*
X153156155Y-120751497D01*
X153193940Y-120746730D01*
X153224982Y-120733130D01*
X153249510Y-120711382D01*
X153264892Y-120683207D01*
X153272558Y-120646924D01*
X153275834Y-120582530D01*
X153275834Y-120028538D01*
X153381835Y-120028538D01*
X153381835Y-120575251D01*
X153378611Y-120642541D01*
X153370043Y-120693442D01*
X153357509Y-120731225D01*
X153338062Y-120765275D01*
X153312583Y-120793141D01*
X153280474Y-120815489D01*
X153244260Y-120831282D01*
X153203305Y-120841085D01*
X153156692Y-120844505D01*
X153104299Y-120840267D01*
X153060974Y-120828400D01*
X153025026Y-120809661D01*
X152995199Y-120784079D01*
X152972150Y-120752553D01*
X152955079Y-120713314D01*
X152944443Y-120664649D01*
X152941368Y-120604414D01*
G37*
G36*
X154032156Y-120738992D02*
G01*
X154032156Y-120832000D01*
X153502638Y-120832000D01*
X153504954Y-120797171D01*
X153514117Y-120763807D01*
X153539697Y-120711408D01*
X153578841Y-120657464D01*
X153629537Y-120604561D01*
X153707557Y-120536368D01*
X153794001Y-120461586D01*
X153850318Y-120406111D01*
X153884047Y-120365886D01*
X153910781Y-120322249D01*
X153925391Y-120282993D01*
X153929965Y-120246940D01*
X153925246Y-120209563D01*
X153911459Y-120176946D01*
X153888151Y-120147875D01*
X153858131Y-120125784D01*
X153822347Y-120112245D01*
X153779169Y-120107478D01*
X153733567Y-120112575D01*
X153696279Y-120126982D01*
X153665450Y-120150415D01*
X153642377Y-120181468D01*
X153627798Y-120220344D01*
X153622317Y-120269264D01*
X153521200Y-120258810D01*
X153530680Y-120202461D01*
X153547161Y-120155748D01*
X153570053Y-120117049D01*
X153599358Y-120085154D01*
X153634676Y-120059849D01*
X153675971Y-120041269D01*
X153724374Y-120029557D01*
X153781319Y-120025412D01*
X153838603Y-120029850D01*
X153887165Y-120042395D01*
X153928531Y-120062357D01*
X153963866Y-120089697D01*
X153993426Y-120123957D01*
X154014183Y-120161403D01*
X154026758Y-120202731D01*
X154031081Y-120248943D01*
X154026217Y-120296575D01*
X154011395Y-120343953D01*
X153986530Y-120389907D01*
X153946085Y-120442286D01*
X153891790Y-120497457D01*
X153794459Y-120583946D01*
X153714237Y-120653445D01*
X153680740Y-120685405D01*
X153657425Y-120712621D01*
X153639267Y-120738992D01*
X154032156Y-120738992D01*
G37*
D12*
%TO.C,C3*%
X178988748Y-117265000D02*
X179511252Y-117265000D01*
X178988748Y-118735000D02*
X179511252Y-118735000D01*
%TO.C,R4*%
X157022936Y-117265000D02*
X157477064Y-117265000D01*
X157022936Y-118735000D02*
X157477064Y-118735000D01*
D13*
%TO.C,D2*%
X152085000Y-107970000D02*
X152085000Y-108180000D01*
X152085000Y-110320000D02*
X152085000Y-110530000D01*
X152085000Y-110530000D02*
X156415000Y-110530000D01*
X156415000Y-107970000D02*
X152085000Y-107970000D01*
X156415000Y-107970000D02*
X156415000Y-108180000D01*
X156415000Y-110530000D02*
X156415000Y-110320000D01*
D14*
X158350000Y-109250000D02*
G75*
G02*
X158150000Y-109250000I-100000J0D01*
G01*
X158150000Y-109250000D02*
G75*
G02*
X158350000Y-109250000I100000J0D01*
G01*
D12*
%TO.C,R3*%
X163727064Y-114265000D02*
X163272936Y-114265000D01*
X163727064Y-115735000D02*
X163272936Y-115735000D01*
%TO.C,C1*%
X163761252Y-117265000D02*
X163238748Y-117265000D01*
X163761252Y-118735000D02*
X163238748Y-118735000D01*
%TO.C,J3*%
X159240000Y-111920000D02*
X159240000Y-107080000D01*
X164866667Y-110135000D02*
X164866667Y-108865000D01*
X169140000Y-107080000D02*
X159240000Y-107080000D01*
X169140000Y-111920000D02*
X159240000Y-111920000D01*
X169140000Y-111920000D02*
X169140000Y-107080000D01*
X169380000Y-112160000D02*
X167997000Y-112160000D01*
X169380000Y-112160000D02*
X169380000Y-110777000D01*
X166220000Y-110135000D02*
X162160000Y-110135000D01*
X162160000Y-108865000D01*
X166220000Y-108865000D01*
X166220000Y-110135000D01*
X166220000Y-110135000D02*
X164866667Y-110135000D01*
X164866667Y-108865000D01*
X166220000Y-108865000D01*
X166220000Y-110135000D01*
G36*
X166220000Y-110135000D02*
G01*
X164866667Y-110135000D01*
X164866667Y-108865000D01*
X166220000Y-108865000D01*
X166220000Y-110135000D01*
G37*
%TO.C,J1*%
X184845000Y-114455000D02*
X186115000Y-114455000D01*
X184845000Y-115725000D02*
X184845000Y-114455000D01*
X187192358Y-117835000D02*
X187505000Y-117835000D01*
X187192358Y-118695000D02*
X187505000Y-118695000D01*
X187275000Y-115295000D02*
X187505000Y-115295000D01*
X187275000Y-116155000D02*
X187505000Y-116155000D01*
X187505000Y-114345000D02*
X187505000Y-119645000D01*
X187505000Y-116995000D02*
X190265000Y-116995000D01*
X187505000Y-119645000D02*
X190265000Y-119645000D01*
X190265000Y-114345000D02*
X187505000Y-114345000D01*
X190265000Y-117835000D02*
X196265000Y-117835000D01*
X190265000Y-119645000D02*
X190265000Y-114345000D01*
X196265000Y-117835000D02*
X196265000Y-118695000D01*
X196265000Y-118695000D02*
X190265000Y-118695000D01*
X190265000Y-115295000D02*
X196265000Y-115295000D01*
X196265000Y-116155000D01*
X190265000Y-116155000D01*
X190265000Y-115295000D01*
G36*
X190265000Y-115295000D02*
G01*
X196265000Y-115295000D01*
X196265000Y-116155000D01*
X190265000Y-116155000D01*
X190265000Y-115295000D01*
G37*
%TO.C,R2*%
X172272936Y-121265000D02*
X172727064Y-121265000D01*
X172272936Y-122735000D02*
X172727064Y-122735000D01*
D13*
%TO.C,D3*%
X181310000Y-109970000D02*
X181310000Y-110180000D01*
X181310000Y-112320000D02*
X181310000Y-112530000D01*
X181310000Y-112530000D02*
X185640000Y-112530000D01*
X185640000Y-109970000D02*
X181310000Y-109970000D01*
X185640000Y-109970000D02*
X185640000Y-110180000D01*
X185640000Y-112530000D02*
X185640000Y-112320000D01*
D14*
X187575000Y-111250000D02*
G75*
G02*
X187375000Y-111250000I-100000J0D01*
G01*
X187375000Y-111250000D02*
G75*
G02*
X187575000Y-111250000I100000J0D01*
G01*
D12*
%TO.C,C2*%
X178988748Y-121265000D02*
X179511252Y-121265000D01*
X178988748Y-122735000D02*
X179511252Y-122735000D01*
%TO.C,R1*%
X172727064Y-117265000D02*
X172272936Y-117265000D01*
X172727064Y-118735000D02*
X172272936Y-118735000D01*
D11*
%TO.C,Q1*%
X156675000Y-120875000D02*
X156675000Y-120925000D01*
X156675000Y-120925000D02*
X155900000Y-120925000D01*
X156675000Y-123900000D02*
X156675000Y-123550000D01*
X157050000Y-120600000D02*
X156675000Y-120875000D01*
X157150000Y-123900000D02*
X156675000Y-123900000D01*
X157325000Y-120600000D02*
X157050000Y-120600000D01*
X157950000Y-120600000D02*
X158325000Y-120600000D01*
X158325000Y-120600000D02*
X158325000Y-120900000D01*
X158325000Y-123600000D02*
X158325000Y-123900000D01*
X158325000Y-123675000D02*
X158325000Y-123550000D01*
X158325000Y-123900000D02*
X157875000Y-123900000D01*
D15*
%TO.C,L1*%
X171126500Y-108444000D02*
X171126500Y-110016260D01*
X171126500Y-113983740D02*
X171126500Y-115556000D01*
X171126500Y-115556000D02*
X178873500Y-115556000D01*
X178873500Y-108444000D02*
X171126500Y-108444000D01*
X178873500Y-110016260D02*
X178873500Y-108444000D01*
X178873500Y-115556000D02*
X178873500Y-113983740D01*
X170059700Y-112000000D02*
G75*
G02*
X169907300Y-112000000I-76200J0D01*
G01*
X169907300Y-112000000D02*
G75*
G02*
X170059700Y-112000000I76200J0D01*
G01*
D12*
%TO.C,J4*%
X141600000Y-112530000D02*
X147600000Y-112530000D01*
X141600000Y-113390000D02*
X141600000Y-112530000D01*
X147600000Y-111580000D02*
X147600000Y-116880000D01*
X147600000Y-113390000D02*
X141600000Y-113390000D01*
X147600000Y-116880000D02*
X150360000Y-116880000D01*
X150360000Y-111580000D02*
X147600000Y-111580000D01*
X150360000Y-114230000D02*
X147600000Y-114230000D01*
X150360000Y-116880000D02*
X150360000Y-111580000D01*
X150590000Y-115070000D02*
X150360000Y-115070000D01*
X150590000Y-115930000D02*
X150360000Y-115930000D01*
X150672642Y-112530000D02*
X150360000Y-112530000D01*
X150672642Y-113390000D02*
X150360000Y-113390000D01*
X153020000Y-115500000D02*
X153020000Y-116770000D01*
X153020000Y-116770000D02*
X151750000Y-116770000D01*
X147600000Y-115930000D02*
X141600000Y-115930000D01*
X141600000Y-115070000D01*
X147600000Y-115070000D01*
X147600000Y-115930000D01*
G36*
X147600000Y-115930000D02*
G01*
X141600000Y-115930000D01*
X141600000Y-115070000D01*
X147600000Y-115070000D01*
X147600000Y-115930000D01*
G37*
D15*
%TO.C,U1*%
X162848300Y-123824800D02*
X164651700Y-123824800D01*
X164651700Y-120675200D02*
X162848300Y-120675200D01*
X164651700Y-122587861D02*
X164651700Y-121912139D01*
D12*
%TO.C,J2*%
X141485000Y-119030000D02*
X147485000Y-119030000D01*
X141485000Y-119890000D02*
X141485000Y-119030000D01*
X147485000Y-118080000D02*
X147485000Y-123380000D01*
X147485000Y-119890000D02*
X141485000Y-119890000D01*
X147485000Y-123380000D02*
X150245000Y-123380000D01*
X150245000Y-118080000D02*
X147485000Y-118080000D01*
X150245000Y-120730000D02*
X147485000Y-120730000D01*
X150245000Y-123380000D02*
X150245000Y-118080000D01*
X150475000Y-121570000D02*
X150245000Y-121570000D01*
X150475000Y-122430000D02*
X150245000Y-122430000D01*
X150557642Y-119030000D02*
X150245000Y-119030000D01*
X150557642Y-119890000D02*
X150245000Y-119890000D01*
X152905000Y-122000000D02*
X152905000Y-123270000D01*
X152905000Y-123270000D02*
X151635000Y-123270000D01*
X147485000Y-122430000D02*
X141485000Y-122430000D01*
X141485000Y-121570000D01*
X147485000Y-121570000D01*
X147485000Y-122430000D01*
G36*
X147485000Y-122430000D02*
G01*
X141485000Y-122430000D01*
X141485000Y-121570000D01*
X147485000Y-121570000D01*
X147485000Y-122430000D01*
G37*
%TD*%
M02*
