%TF.GenerationSoftware,KiCad,Pcbnew,9.0.1*%
%TF.CreationDate,2025-10-15T17:05:29+03:00*%
%TF.ProjectId,Solar Supply,536f6c61-7220-4537-9570-706c792e6b69,rev?*%
%TF.SameCoordinates,Original*%
%TF.FileFunction,Legend,Bot*%
%TF.FilePolarity,Positive*%
%FSLAX46Y46*%
G04 Gerber Fmt 4.6, Leading zero omitted, Abs format (unit mm)*
G04 Created by KiCad (PCBNEW 9.0.1) date 2025-10-15 17:05:29*
%MOMM*%
%LPD*%
G01*
G04 APERTURE LIST*
%ADD10C,0.150000*%
G04 APERTURE END LIST*
D10*
X183925125Y-118277550D02*
X183925125Y-116277550D01*
X182972744Y-118277550D02*
X182972744Y-116944216D01*
X182972744Y-117134692D02*
X182877506Y-117039454D01*
X182877506Y-117039454D02*
X182687030Y-116944216D01*
X182687030Y-116944216D02*
X182401315Y-116944216D01*
X182401315Y-116944216D02*
X182210839Y-117039454D01*
X182210839Y-117039454D02*
X182115601Y-117229931D01*
X182115601Y-117229931D02*
X182115601Y-118277550D01*
X182115601Y-117229931D02*
X182020363Y-117039454D01*
X182020363Y-117039454D02*
X181829887Y-116944216D01*
X181829887Y-116944216D02*
X181544173Y-116944216D01*
X181544173Y-116944216D02*
X181353696Y-117039454D01*
X181353696Y-117039454D02*
X181258458Y-117229931D01*
X181258458Y-117229931D02*
X181258458Y-118277550D01*
X180306077Y-116944216D02*
X180306077Y-118944216D01*
X180306077Y-117039454D02*
X180115601Y-116944216D01*
X180115601Y-116944216D02*
X179734648Y-116944216D01*
X179734648Y-116944216D02*
X179544172Y-117039454D01*
X179544172Y-117039454D02*
X179448934Y-117134692D01*
X179448934Y-117134692D02*
X179353696Y-117325169D01*
X179353696Y-117325169D02*
X179353696Y-117896597D01*
X179353696Y-117896597D02*
X179448934Y-118087073D01*
X179448934Y-118087073D02*
X179544172Y-118182312D01*
X179544172Y-118182312D02*
X179734648Y-118277550D01*
X179734648Y-118277550D02*
X180115601Y-118277550D01*
X180115601Y-118277550D02*
X180306077Y-118182312D01*
X178210839Y-118277550D02*
X178401315Y-118182312D01*
X178401315Y-118182312D02*
X178496553Y-117991835D01*
X178496553Y-117991835D02*
X178496553Y-116277550D01*
X176687029Y-118182312D02*
X176877505Y-118277550D01*
X176877505Y-118277550D02*
X177258458Y-118277550D01*
X177258458Y-118277550D02*
X177448934Y-118182312D01*
X177448934Y-118182312D02*
X177544172Y-117991835D01*
X177544172Y-117991835D02*
X177544172Y-117229931D01*
X177544172Y-117229931D02*
X177448934Y-117039454D01*
X177448934Y-117039454D02*
X177258458Y-116944216D01*
X177258458Y-116944216D02*
X176877505Y-116944216D01*
X176877505Y-116944216D02*
X176687029Y-117039454D01*
X176687029Y-117039454D02*
X176591791Y-117229931D01*
X176591791Y-117229931D02*
X176591791Y-117420407D01*
X176591791Y-117420407D02*
X177544172Y-117610883D01*
X175734648Y-118277550D02*
X175734648Y-116944216D01*
X175734648Y-117134692D02*
X175639410Y-117039454D01*
X175639410Y-117039454D02*
X175448934Y-116944216D01*
X175448934Y-116944216D02*
X175163219Y-116944216D01*
X175163219Y-116944216D02*
X174972743Y-117039454D01*
X174972743Y-117039454D02*
X174877505Y-117229931D01*
X174877505Y-117229931D02*
X174877505Y-118277550D01*
X174877505Y-117229931D02*
X174782267Y-117039454D01*
X174782267Y-117039454D02*
X174591791Y-116944216D01*
X174591791Y-116944216D02*
X174306077Y-116944216D01*
X174306077Y-116944216D02*
X174115600Y-117039454D01*
X174115600Y-117039454D02*
X174020362Y-117229931D01*
X174020362Y-117229931D02*
X174020362Y-118277550D01*
X172306076Y-118182312D02*
X172496552Y-118277550D01*
X172496552Y-118277550D02*
X172877505Y-118277550D01*
X172877505Y-118277550D02*
X173067981Y-118182312D01*
X173067981Y-118182312D02*
X173163219Y-117991835D01*
X173163219Y-117991835D02*
X173163219Y-117229931D01*
X173163219Y-117229931D02*
X173067981Y-117039454D01*
X173067981Y-117039454D02*
X172877505Y-116944216D01*
X172877505Y-116944216D02*
X172496552Y-116944216D01*
X172496552Y-116944216D02*
X172306076Y-117039454D01*
X172306076Y-117039454D02*
X172210838Y-117229931D01*
X172210838Y-117229931D02*
X172210838Y-117420407D01*
X172210838Y-117420407D02*
X173163219Y-117610883D01*
X171353695Y-116944216D02*
X171353695Y-118277550D01*
X171353695Y-117134692D02*
X171258457Y-117039454D01*
X171258457Y-117039454D02*
X171067981Y-116944216D01*
X171067981Y-116944216D02*
X170782266Y-116944216D01*
X170782266Y-116944216D02*
X170591790Y-117039454D01*
X170591790Y-117039454D02*
X170496552Y-117229931D01*
X170496552Y-117229931D02*
X170496552Y-118277550D01*
X169829885Y-116944216D02*
X169067981Y-116944216D01*
X169544171Y-116277550D02*
X169544171Y-117991835D01*
X169544171Y-117991835D02*
X169448933Y-118182312D01*
X169448933Y-118182312D02*
X169258457Y-118277550D01*
X169258457Y-118277550D02*
X169067981Y-118277550D01*
X167639409Y-118182312D02*
X167829885Y-118277550D01*
X167829885Y-118277550D02*
X168210838Y-118277550D01*
X168210838Y-118277550D02*
X168401314Y-118182312D01*
X168401314Y-118182312D02*
X168496552Y-117991835D01*
X168496552Y-117991835D02*
X168496552Y-117229931D01*
X168496552Y-117229931D02*
X168401314Y-117039454D01*
X168401314Y-117039454D02*
X168210838Y-116944216D01*
X168210838Y-116944216D02*
X167829885Y-116944216D01*
X167829885Y-116944216D02*
X167639409Y-117039454D01*
X167639409Y-117039454D02*
X167544171Y-117229931D01*
X167544171Y-117229931D02*
X167544171Y-117420407D01*
X167544171Y-117420407D02*
X168496552Y-117610883D01*
X165829885Y-118277550D02*
X165829885Y-116277550D01*
X165829885Y-118182312D02*
X166020361Y-118277550D01*
X166020361Y-118277550D02*
X166401314Y-118277550D01*
X166401314Y-118277550D02*
X166591790Y-118182312D01*
X166591790Y-118182312D02*
X166687028Y-118087073D01*
X166687028Y-118087073D02*
X166782266Y-117896597D01*
X166782266Y-117896597D02*
X166782266Y-117325169D01*
X166782266Y-117325169D02*
X166687028Y-117134692D01*
X166687028Y-117134692D02*
X166591790Y-117039454D01*
X166591790Y-117039454D02*
X166401314Y-116944216D01*
X166401314Y-116944216D02*
X166020361Y-116944216D01*
X166020361Y-116944216D02*
X165829885Y-117039454D01*
X163353694Y-118277550D02*
X163353694Y-116277550D01*
X163353694Y-117039454D02*
X163163218Y-116944216D01*
X163163218Y-116944216D02*
X162782265Y-116944216D01*
X162782265Y-116944216D02*
X162591789Y-117039454D01*
X162591789Y-117039454D02*
X162496551Y-117134692D01*
X162496551Y-117134692D02*
X162401313Y-117325169D01*
X162401313Y-117325169D02*
X162401313Y-117896597D01*
X162401313Y-117896597D02*
X162496551Y-118087073D01*
X162496551Y-118087073D02*
X162591789Y-118182312D01*
X162591789Y-118182312D02*
X162782265Y-118277550D01*
X162782265Y-118277550D02*
X163163218Y-118277550D01*
X163163218Y-118277550D02*
X163353694Y-118182312D01*
X161734646Y-116944216D02*
X161258456Y-118277550D01*
X160782265Y-116944216D02*
X161258456Y-118277550D01*
X161258456Y-118277550D02*
X161448932Y-118753740D01*
X161448932Y-118753740D02*
X161544170Y-118848978D01*
X161544170Y-118848978D02*
X161734646Y-118944216D01*
X184020363Y-121402200D02*
X183734649Y-121497438D01*
X183734649Y-121497438D02*
X183258458Y-121497438D01*
X183258458Y-121497438D02*
X183067982Y-121402200D01*
X183067982Y-121402200D02*
X182972744Y-121306961D01*
X182972744Y-121306961D02*
X182877506Y-121116485D01*
X182877506Y-121116485D02*
X182877506Y-120926009D01*
X182877506Y-120926009D02*
X182972744Y-120735533D01*
X182972744Y-120735533D02*
X183067982Y-120640295D01*
X183067982Y-120640295D02*
X183258458Y-120545057D01*
X183258458Y-120545057D02*
X183639411Y-120449819D01*
X183639411Y-120449819D02*
X183829887Y-120354580D01*
X183829887Y-120354580D02*
X183925125Y-120259342D01*
X183925125Y-120259342D02*
X184020363Y-120068866D01*
X184020363Y-120068866D02*
X184020363Y-119878390D01*
X184020363Y-119878390D02*
X183925125Y-119687914D01*
X183925125Y-119687914D02*
X183829887Y-119592676D01*
X183829887Y-119592676D02*
X183639411Y-119497438D01*
X183639411Y-119497438D02*
X183163220Y-119497438D01*
X183163220Y-119497438D02*
X182877506Y-119592676D01*
X181258458Y-121402200D02*
X181448934Y-121497438D01*
X181448934Y-121497438D02*
X181829887Y-121497438D01*
X181829887Y-121497438D02*
X182020363Y-121402200D01*
X182020363Y-121402200D02*
X182115601Y-121211723D01*
X182115601Y-121211723D02*
X182115601Y-120449819D01*
X182115601Y-120449819D02*
X182020363Y-120259342D01*
X182020363Y-120259342D02*
X181829887Y-120164104D01*
X181829887Y-120164104D02*
X181448934Y-120164104D01*
X181448934Y-120164104D02*
X181258458Y-120259342D01*
X181258458Y-120259342D02*
X181163220Y-120449819D01*
X181163220Y-120449819D02*
X181163220Y-120640295D01*
X181163220Y-120640295D02*
X182115601Y-120830771D01*
X180306077Y-121497438D02*
X180306077Y-120164104D01*
X180306077Y-119497438D02*
X180401315Y-119592676D01*
X180401315Y-119592676D02*
X180306077Y-119687914D01*
X180306077Y-119687914D02*
X180210839Y-119592676D01*
X180210839Y-119592676D02*
X180306077Y-119497438D01*
X180306077Y-119497438D02*
X180306077Y-119687914D01*
X179639410Y-120164104D02*
X178877506Y-120164104D01*
X179353696Y-121497438D02*
X179353696Y-119783152D01*
X179353696Y-119783152D02*
X179258458Y-119592676D01*
X179258458Y-119592676D02*
X179067982Y-119497438D01*
X179067982Y-119497438D02*
X178877506Y-119497438D01*
X176782267Y-120926009D02*
X175829886Y-120926009D01*
X176972743Y-121497438D02*
X176306077Y-119497438D01*
X176306077Y-119497438D02*
X175639410Y-121497438D01*
X174972743Y-121497438D02*
X174972743Y-119497438D01*
X174115600Y-121497438D02*
X174115600Y-120449819D01*
X174115600Y-120449819D02*
X174210838Y-120259342D01*
X174210838Y-120259342D02*
X174401314Y-120164104D01*
X174401314Y-120164104D02*
X174687029Y-120164104D01*
X174687029Y-120164104D02*
X174877505Y-120259342D01*
X174877505Y-120259342D02*
X174972743Y-120354580D01*
X173163219Y-121497438D02*
X173163219Y-120164104D01*
X173163219Y-120354580D02*
X173067981Y-120259342D01*
X173067981Y-120259342D02*
X172877505Y-120164104D01*
X172877505Y-120164104D02*
X172591790Y-120164104D01*
X172591790Y-120164104D02*
X172401314Y-120259342D01*
X172401314Y-120259342D02*
X172306076Y-120449819D01*
X172306076Y-120449819D02*
X172306076Y-121497438D01*
X172306076Y-120449819D02*
X172210838Y-120259342D01*
X172210838Y-120259342D02*
X172020362Y-120164104D01*
X172020362Y-120164104D02*
X171734648Y-120164104D01*
X171734648Y-120164104D02*
X171544171Y-120259342D01*
X171544171Y-120259342D02*
X171448933Y-120449819D01*
X171448933Y-120449819D02*
X171448933Y-121497438D01*
X169734647Y-121402200D02*
X169925123Y-121497438D01*
X169925123Y-121497438D02*
X170306076Y-121497438D01*
X170306076Y-121497438D02*
X170496552Y-121402200D01*
X170496552Y-121402200D02*
X170591790Y-121211723D01*
X170591790Y-121211723D02*
X170591790Y-120449819D01*
X170591790Y-120449819D02*
X170496552Y-120259342D01*
X170496552Y-120259342D02*
X170306076Y-120164104D01*
X170306076Y-120164104D02*
X169925123Y-120164104D01*
X169925123Y-120164104D02*
X169734647Y-120259342D01*
X169734647Y-120259342D02*
X169639409Y-120449819D01*
X169639409Y-120449819D02*
X169639409Y-120640295D01*
X169639409Y-120640295D02*
X170591790Y-120830771D01*
X167925123Y-121497438D02*
X167925123Y-119497438D01*
X167925123Y-121402200D02*
X168115599Y-121497438D01*
X168115599Y-121497438D02*
X168496552Y-121497438D01*
X168496552Y-121497438D02*
X168687028Y-121402200D01*
X168687028Y-121402200D02*
X168782266Y-121306961D01*
X168782266Y-121306961D02*
X168877504Y-121116485D01*
X168877504Y-121116485D02*
X168877504Y-120545057D01*
X168877504Y-120545057D02*
X168782266Y-120354580D01*
X168782266Y-120354580D02*
X168687028Y-120259342D01*
X168687028Y-120259342D02*
X168496552Y-120164104D01*
X168496552Y-120164104D02*
X168115599Y-120164104D01*
X168115599Y-120164104D02*
X167925123Y-120259342D01*
M02*
