%TF.GenerationSoftware,KiCad,Pcbnew,9.0.1*%
%TF.CreationDate,2025-10-21T23:30:23+03:00*%
%TF.ProjectId,MCU DataLogger,4d435520-4461-4746-914c-6f676765722e,1*%
%TF.SameCoordinates,Original*%
%TF.FileFunction,Copper,L2,Bot*%
%TF.FilePolarity,Positive*%
%FSLAX46Y46*%
G04 Gerber Fmt 4.6, Leading zero omitted, Abs format (unit mm)*
G04 Created by KiCad (PCBNEW 9.0.1) date 2025-10-21 23:30:23*
%MOMM*%
%LPD*%
G01*
G04 APERTURE LIST*
%TA.AperFunction,ComponentPad*%
%ADD10R,1.700000X1.700000*%
%TD*%
%TA.AperFunction,ComponentPad*%
%ADD11C,1.700000*%
%TD*%
%TA.AperFunction,ViaPad*%
%ADD12C,0.600000*%
%TD*%
%TA.AperFunction,Conductor*%
%ADD13C,0.350000*%
%TD*%
%TA.AperFunction,Conductor*%
%ADD14C,0.200000*%
%TD*%
G04 APERTURE END LIST*
D10*
%TO.P,I2C,1,Pin_1*%
%TO.N,GND*%
X196190000Y-87000000D03*
D11*
%TO.P,I2C,2,Pin_2*%
%TO.N,/VCC*%
X198730000Y-87000000D03*
%TO.P,I2C,3,Pin_3*%
%TO.N,/SDA*%
X201270000Y-87000000D03*
%TO.P,I2C,4,Pin_4*%
%TO.N,/SCK*%
X203810000Y-87000000D03*
%TD*%
D10*
%TO.P,ICSP,1,Pin_1*%
%TO.N,/MISO*%
X209710000Y-113025000D03*
D11*
%TO.P,ICSP,2,Pin_2*%
%TO.N,/VCC*%
X209710000Y-110485000D03*
%TO.P,ICSP,3,Pin_3*%
%TO.N,/RESET*%
X212250000Y-113025000D03*
%TO.P,ICSP,4,Pin_4*%
%TO.N,/MOSI*%
X212250000Y-110485000D03*
%TO.P,ICSP,5,Pin_5*%
%TO.N,/SCK*%
X214790000Y-113025000D03*
%TO.P,ICSP,6,Pin_6*%
%TO.N,GND*%
X214790000Y-110485000D03*
%TD*%
D10*
%TO.P,SERIAL,1,Pin_1*%
%TO.N,GND*%
X209190000Y-87000000D03*
D11*
%TO.P,SERIAL,2,Pin_2*%
%TO.N,/VCC*%
X211730000Y-87000000D03*
%TO.P,SERIAL,3,Pin_3*%
%TO.N,/RX*%
X214270000Y-87000000D03*
%TO.P,SERIAL,4,Pin_4*%
%TO.N,/TX*%
X216810000Y-87000000D03*
%TD*%
D10*
%TO.P,Battery,1,+*%
%TO.N,/VCC*%
X176750000Y-98725000D03*
D11*
%TO.P,Battery,2,-*%
%TO.N,GND*%
X176750000Y-101265000D03*
%TD*%
D10*
%TO.P,GPIO,1,Pin_1*%
%TO.N,/D2*%
X183340000Y-113000000D03*
D11*
%TO.P,GPIO,2,Pin_2*%
%TO.N,/D3*%
X185880000Y-113000000D03*
%TO.P,GPIO,3,Pin_3*%
%TO.N,/D4*%
X188420000Y-113000000D03*
%TO.P,GPIO,4,Pin_4*%
%TO.N,/D5*%
X190960000Y-113000000D03*
%TO.P,GPIO,5,Pin_5*%
%TO.N,/D6*%
X193500000Y-113000000D03*
%TO.P,GPIO,6,Pin_6*%
%TO.N,/D7*%
X196040000Y-113000000D03*
%TO.P,GPIO,7,Pin_7*%
%TO.N,/D8*%
X198580000Y-113000000D03*
%TO.P,GPIO,8,Pin_8*%
%TO.N,GND*%
X201120000Y-113000000D03*
%TO.P,GPIO,9,Pin_9*%
%TO.N,/VCC*%
X203660000Y-113000000D03*
%TD*%
D12*
%TO.N,GND*%
X198250000Y-94500000D03*
X191000000Y-101750000D03*
X187000000Y-91750000D03*
X198000000Y-89750000D03*
X212500000Y-92500000D03*
X220000000Y-107500000D03*
X207500000Y-98500000D03*
X182626000Y-106291001D03*
X190000000Y-96500000D03*
%TO.N,/VCC*%
X211250000Y-101500000D03*
X205000000Y-90750000D03*
X186000000Y-104595000D03*
X193250000Y-100500000D03*
%TO.N,/SCK*%
X195044420Y-93294420D03*
X193750000Y-92000000D03*
%TO.N,/SDA*%
X192500000Y-92000000D03*
X195130000Y-94630000D03*
%TO.N,/TX*%
X203500000Y-93750000D03*
%TO.N,/RX*%
X204500000Y-93750000D03*
%TO.N,/D4*%
X199500000Y-98250000D03*
%TO.N,/D3*%
X198500000Y-98250000D03*
%TO.N,/D2*%
X200000000Y-95500000D03*
%TO.N,/D5*%
X200750000Y-105000000D03*
%TO.N,/MISO*%
X211000000Y-107500000D03*
%TD*%
D13*
%TO.N,/VCC*%
X207980000Y-90750000D02*
X205000000Y-90750000D01*
X209710000Y-103040000D02*
X209710000Y-110485000D01*
X190095000Y-100500000D02*
X186000000Y-104595000D01*
X211730000Y-87000000D02*
X207980000Y-90750000D01*
X211250000Y-101500000D02*
X209710000Y-103040000D01*
X193250000Y-100500000D02*
X190095000Y-100500000D01*
D14*
%TO.N,/SCK*%
X195044420Y-93294420D02*
X193750000Y-92000000D01*
%TO.N,/SDA*%
X195130000Y-94630000D02*
X192500000Y-92000000D01*
X201270000Y-88490000D02*
X201270000Y-87000000D01*
X195130000Y-94630000D02*
X201270000Y-88490000D01*
%TO.N,/TX*%
X203500000Y-90288000D02*
X203500000Y-93750000D01*
X207989000Y-85799000D02*
X203500000Y-90288000D01*
X216810000Y-87000000D02*
X215609000Y-85799000D01*
X215609000Y-85799000D02*
X207989000Y-85799000D01*
%TO.N,/RX*%
X207520000Y-93750000D02*
X204500000Y-93750000D01*
X214270000Y-87000000D02*
X207520000Y-93750000D01*
%TO.N,/D4*%
X199500000Y-101920000D02*
X199500000Y-98250000D01*
X188420000Y-113000000D02*
X199500000Y-101920000D01*
%TO.N,/D3*%
X198500000Y-100380000D02*
X185880000Y-113000000D01*
X198500000Y-98250000D02*
X198500000Y-100380000D01*
%TO.N,/D2*%
X200000000Y-95500000D02*
X183340000Y-112160000D01*
X183340000Y-112160000D02*
X183340000Y-113000000D01*
%TO.N,/D5*%
X190960000Y-113000000D02*
X198960000Y-105000000D01*
X198960000Y-105000000D02*
X200750000Y-105000000D01*
%TO.N,/MISO*%
X211000000Y-111735000D02*
X211000000Y-107500000D01*
X209710000Y-113025000D02*
X211000000Y-111735000D01*
%TD*%
%TA.AperFunction,Conductor*%
%TO.N,GND*%
G36*
X195067770Y-85520185D02*
G01*
X195113525Y-85572989D01*
X195123469Y-85642147D01*
X195094444Y-85705703D01*
X195075042Y-85723766D01*
X194982812Y-85792809D01*
X194982809Y-85792812D01*
X194896649Y-85907906D01*
X194896645Y-85907913D01*
X194846403Y-86042620D01*
X194846401Y-86042627D01*
X194840000Y-86102155D01*
X194840000Y-86750000D01*
X195756988Y-86750000D01*
X195724075Y-86807007D01*
X195690000Y-86934174D01*
X195690000Y-87065826D01*
X195724075Y-87192993D01*
X195756988Y-87250000D01*
X194840000Y-87250000D01*
X194840000Y-87897844D01*
X194846401Y-87957372D01*
X194846403Y-87957379D01*
X194896645Y-88092086D01*
X194896649Y-88092093D01*
X194982809Y-88207187D01*
X194982812Y-88207190D01*
X195097906Y-88293350D01*
X195097913Y-88293354D01*
X195232620Y-88343596D01*
X195232627Y-88343598D01*
X195292155Y-88349999D01*
X195292172Y-88350000D01*
X195940000Y-88350000D01*
X195940000Y-87433012D01*
X195997007Y-87465925D01*
X196124174Y-87500000D01*
X196255826Y-87500000D01*
X196382993Y-87465925D01*
X196440000Y-87433012D01*
X196440000Y-88350000D01*
X197087828Y-88350000D01*
X197087844Y-88349999D01*
X197147372Y-88343598D01*
X197147379Y-88343596D01*
X197282086Y-88293354D01*
X197282093Y-88293350D01*
X197397187Y-88207190D01*
X197397190Y-88207187D01*
X197483350Y-88092093D01*
X197483354Y-88092086D01*
X197532422Y-87960529D01*
X197574293Y-87904595D01*
X197639757Y-87880178D01*
X197708030Y-87895030D01*
X197736285Y-87916181D01*
X197850213Y-88030109D01*
X198022179Y-88155048D01*
X198022181Y-88155049D01*
X198022184Y-88155051D01*
X198211588Y-88251557D01*
X198413757Y-88317246D01*
X198623713Y-88350500D01*
X198623714Y-88350500D01*
X198836286Y-88350500D01*
X198836287Y-88350500D01*
X199046243Y-88317246D01*
X199248412Y-88251557D01*
X199437816Y-88155051D01*
X199524471Y-88092093D01*
X199609786Y-88030109D01*
X199609788Y-88030106D01*
X199609792Y-88030104D01*
X199760104Y-87879792D01*
X199760106Y-87879788D01*
X199760109Y-87879786D01*
X199885048Y-87707820D01*
X199885047Y-87707820D01*
X199885051Y-87707816D01*
X199889514Y-87699054D01*
X199937488Y-87648259D01*
X200005308Y-87631463D01*
X200071444Y-87653999D01*
X200110486Y-87699056D01*
X200114951Y-87707820D01*
X200239890Y-87879786D01*
X200239896Y-87879792D01*
X200390208Y-88030104D01*
X200556818Y-88151152D01*
X200599483Y-88206481D01*
X200605462Y-88276094D01*
X200572857Y-88337890D01*
X200571613Y-88339151D01*
X195955833Y-92954930D01*
X195894510Y-92988415D01*
X195824818Y-92983431D01*
X195768885Y-92941559D01*
X195756892Y-92920499D01*
X195756684Y-92920611D01*
X195753810Y-92915234D01*
X195666209Y-92784131D01*
X195666206Y-92784127D01*
X195554712Y-92672633D01*
X195554708Y-92672630D01*
X195423605Y-92585029D01*
X195423592Y-92585022D01*
X195277921Y-92524684D01*
X195277911Y-92524681D01*
X195122569Y-92493781D01*
X195060658Y-92461396D01*
X195059080Y-92459845D01*
X194584574Y-91985339D01*
X194551089Y-91924016D01*
X194550638Y-91921849D01*
X194519738Y-91766510D01*
X194519737Y-91766503D01*
X194519735Y-91766498D01*
X194459397Y-91620827D01*
X194459390Y-91620814D01*
X194371789Y-91489711D01*
X194371786Y-91489707D01*
X194260292Y-91378213D01*
X194260288Y-91378210D01*
X194129185Y-91290609D01*
X194129172Y-91290602D01*
X193983501Y-91230264D01*
X193983489Y-91230261D01*
X193828845Y-91199500D01*
X193828842Y-91199500D01*
X193671158Y-91199500D01*
X193671155Y-91199500D01*
X193516510Y-91230261D01*
X193516498Y-91230264D01*
X193370827Y-91290602D01*
X193370814Y-91290609D01*
X193239711Y-91378210D01*
X193239707Y-91378213D01*
X193212681Y-91405240D01*
X193151358Y-91438725D01*
X193081666Y-91433741D01*
X193037319Y-91405240D01*
X193010292Y-91378213D01*
X193010288Y-91378210D01*
X192879185Y-91290609D01*
X192879172Y-91290602D01*
X192733501Y-91230264D01*
X192733489Y-91230261D01*
X192578845Y-91199500D01*
X192578842Y-91199500D01*
X192421158Y-91199500D01*
X192421155Y-91199500D01*
X192266510Y-91230261D01*
X192266498Y-91230264D01*
X192120827Y-91290602D01*
X192120814Y-91290609D01*
X191989711Y-91378210D01*
X191989707Y-91378213D01*
X191878213Y-91489707D01*
X191878210Y-91489711D01*
X191790609Y-91620814D01*
X191790602Y-91620827D01*
X191730264Y-91766498D01*
X191730261Y-91766510D01*
X191699500Y-91921153D01*
X191699500Y-92078846D01*
X191730261Y-92233489D01*
X191730264Y-92233501D01*
X191790602Y-92379172D01*
X191790609Y-92379185D01*
X191878210Y-92510288D01*
X191878213Y-92510292D01*
X191989707Y-92621786D01*
X191989711Y-92621789D01*
X192120814Y-92709390D01*
X192120827Y-92709397D01*
X192266498Y-92769735D01*
X192266503Y-92769737D01*
X192331147Y-92782595D01*
X192421849Y-92800638D01*
X192483760Y-92833023D01*
X192485339Y-92834574D01*
X194295425Y-94644660D01*
X194328910Y-94705983D01*
X194329361Y-94708149D01*
X194360261Y-94863491D01*
X194360264Y-94863501D01*
X194420602Y-95009172D01*
X194420609Y-95009185D01*
X194508210Y-95140288D01*
X194508213Y-95140292D01*
X194619707Y-95251786D01*
X194619711Y-95251789D01*
X194750814Y-95339390D01*
X194750827Y-95339397D01*
X194896498Y-95399735D01*
X194896503Y-95399737D01*
X195007672Y-95421850D01*
X195051153Y-95430499D01*
X195051156Y-95430500D01*
X195051158Y-95430500D01*
X195208844Y-95430500D01*
X195208845Y-95430499D01*
X195363497Y-95399737D01*
X195509179Y-95339394D01*
X195640289Y-95251789D01*
X195751789Y-95140289D01*
X195839394Y-95009179D01*
X195899737Y-94863497D01*
X195926239Y-94730263D01*
X195930638Y-94708150D01*
X195963023Y-94646239D01*
X195964518Y-94644716D01*
X201628506Y-88980727D01*
X201628511Y-88980724D01*
X201638714Y-88970520D01*
X201638716Y-88970520D01*
X201750520Y-88858716D01*
X201802619Y-88768477D01*
X201829577Y-88721785D01*
X201870500Y-88569058D01*
X201870500Y-88410943D01*
X201870500Y-88285718D01*
X201890185Y-88218679D01*
X201938207Y-88175233D01*
X201977815Y-88155052D01*
X201977815Y-88155051D01*
X201977816Y-88155051D01*
X202069193Y-88088661D01*
X202149786Y-88030109D01*
X202149788Y-88030106D01*
X202149792Y-88030104D01*
X202300104Y-87879792D01*
X202300106Y-87879788D01*
X202300109Y-87879786D01*
X202425048Y-87707820D01*
X202425047Y-87707820D01*
X202425051Y-87707816D01*
X202429514Y-87699054D01*
X202477488Y-87648259D01*
X202545308Y-87631463D01*
X202611444Y-87653999D01*
X202650486Y-87699056D01*
X202654951Y-87707820D01*
X202779890Y-87879786D01*
X202930213Y-88030109D01*
X203102179Y-88155048D01*
X203102181Y-88155049D01*
X203102184Y-88155051D01*
X203291588Y-88251557D01*
X203493757Y-88317246D01*
X203703713Y-88350500D01*
X203703714Y-88350500D01*
X203916286Y-88350500D01*
X203916287Y-88350500D01*
X204126243Y-88317246D01*
X204328412Y-88251557D01*
X204362363Y-88234257D01*
X204431031Y-88221361D01*
X204495772Y-88247636D01*
X204536030Y-88304742D01*
X204539024Y-88374548D01*
X204506340Y-88432423D01*
X203131286Y-89807478D01*
X203019481Y-89919282D01*
X203019480Y-89919284D01*
X202984274Y-89980263D01*
X202940423Y-90056215D01*
X202899499Y-90208943D01*
X202899499Y-90208945D01*
X202899499Y-90377046D01*
X202899500Y-90377059D01*
X202899500Y-93170234D01*
X202879815Y-93237273D01*
X202878602Y-93239125D01*
X202790609Y-93370814D01*
X202790602Y-93370827D01*
X202730264Y-93516498D01*
X202730261Y-93516510D01*
X202699500Y-93671153D01*
X202699500Y-93828846D01*
X202730261Y-93983489D01*
X202730264Y-93983501D01*
X202790602Y-94129172D01*
X202790609Y-94129185D01*
X202878210Y-94260288D01*
X202878213Y-94260292D01*
X202989707Y-94371786D01*
X202989711Y-94371789D01*
X203120814Y-94459390D01*
X203120827Y-94459397D01*
X203266498Y-94519735D01*
X203266503Y-94519737D01*
X203421153Y-94550499D01*
X203421156Y-94550500D01*
X203421158Y-94550500D01*
X203578844Y-94550500D01*
X203578845Y-94550499D01*
X203733497Y-94519737D01*
X203879179Y-94459394D01*
X203931110Y-94424694D01*
X203997785Y-94403816D01*
X204065165Y-94422300D01*
X204068863Y-94424676D01*
X204120821Y-94459394D01*
X204120823Y-94459395D01*
X204120825Y-94459396D01*
X204266498Y-94519735D01*
X204266503Y-94519737D01*
X204421153Y-94550499D01*
X204421156Y-94550500D01*
X204421158Y-94550500D01*
X204578844Y-94550500D01*
X204578845Y-94550499D01*
X204733497Y-94519737D01*
X204879179Y-94459394D01*
X204934694Y-94422300D01*
X205010875Y-94371398D01*
X205077553Y-94350520D01*
X205079766Y-94350500D01*
X207433331Y-94350500D01*
X207433347Y-94350501D01*
X207440943Y-94350501D01*
X207599054Y-94350501D01*
X207599057Y-94350501D01*
X207751785Y-94309577D01*
X207801904Y-94280639D01*
X207888716Y-94230520D01*
X208000520Y-94118716D01*
X208000520Y-94118714D01*
X208010728Y-94108507D01*
X208010730Y-94108504D01*
X213785478Y-88333755D01*
X213846799Y-88300272D01*
X213911473Y-88303506D01*
X213953757Y-88317246D01*
X214163713Y-88350500D01*
X214163714Y-88350500D01*
X214376286Y-88350500D01*
X214376287Y-88350500D01*
X214586243Y-88317246D01*
X214788412Y-88251557D01*
X214977816Y-88155051D01*
X215064471Y-88092093D01*
X215149786Y-88030109D01*
X215149788Y-88030106D01*
X215149792Y-88030104D01*
X215300104Y-87879792D01*
X215300106Y-87879788D01*
X215300109Y-87879786D01*
X215425048Y-87707820D01*
X215425047Y-87707820D01*
X215425051Y-87707816D01*
X215429514Y-87699054D01*
X215477488Y-87648259D01*
X215545308Y-87631463D01*
X215611444Y-87653999D01*
X215650486Y-87699056D01*
X215654951Y-87707820D01*
X215779890Y-87879786D01*
X215930213Y-88030109D01*
X216102179Y-88155048D01*
X216102181Y-88155049D01*
X216102184Y-88155051D01*
X216291588Y-88251557D01*
X216493757Y-88317246D01*
X216703713Y-88350500D01*
X216703714Y-88350500D01*
X216916286Y-88350500D01*
X216916287Y-88350500D01*
X217126243Y-88317246D01*
X217328412Y-88251557D01*
X217517816Y-88155051D01*
X217604471Y-88092093D01*
X217689786Y-88030109D01*
X217689788Y-88030106D01*
X217689792Y-88030104D01*
X217840104Y-87879792D01*
X217840106Y-87879788D01*
X217840109Y-87879786D01*
X217965048Y-87707820D01*
X217965047Y-87707820D01*
X217965051Y-87707816D01*
X218061557Y-87518412D01*
X218100796Y-87397648D01*
X221199500Y-87397648D01*
X221199500Y-87602351D01*
X221231522Y-87804534D01*
X221294781Y-87999223D01*
X221358691Y-88124653D01*
X221374180Y-88155051D01*
X221387715Y-88181613D01*
X221508028Y-88347213D01*
X221652786Y-88491971D01*
X221807749Y-88604556D01*
X221818390Y-88612287D01*
X221934607Y-88671503D01*
X222000776Y-88705218D01*
X222000778Y-88705218D01*
X222000781Y-88705220D01*
X222051763Y-88721785D01*
X222195465Y-88768477D01*
X222296557Y-88784488D01*
X222397648Y-88800500D01*
X222397649Y-88800500D01*
X222602351Y-88800500D01*
X222602352Y-88800500D01*
X222804534Y-88768477D01*
X222999219Y-88705220D01*
X223181610Y-88612287D01*
X223274590Y-88544732D01*
X223347213Y-88491971D01*
X223347215Y-88491968D01*
X223347219Y-88491966D01*
X223491966Y-88347219D01*
X223491968Y-88347215D01*
X223491971Y-88347213D01*
X223561468Y-88251557D01*
X223612287Y-88181610D01*
X223705220Y-87999219D01*
X223768477Y-87804534D01*
X223800500Y-87602352D01*
X223800500Y-87397648D01*
X223786144Y-87307007D01*
X223768477Y-87195465D01*
X223705218Y-87000776D01*
X223650666Y-86893713D01*
X223612287Y-86818390D01*
X223576901Y-86769685D01*
X223491971Y-86652786D01*
X223347213Y-86508028D01*
X223181613Y-86387715D01*
X223181612Y-86387714D01*
X223181610Y-86387713D01*
X223099740Y-86345998D01*
X222999223Y-86294781D01*
X222804534Y-86231522D01*
X222629995Y-86203878D01*
X222602352Y-86199500D01*
X222397648Y-86199500D01*
X222373329Y-86203351D01*
X222195465Y-86231522D01*
X222000776Y-86294781D01*
X221818386Y-86387715D01*
X221652786Y-86508028D01*
X221508028Y-86652786D01*
X221387715Y-86818386D01*
X221294781Y-87000776D01*
X221231522Y-87195465D01*
X221199500Y-87397648D01*
X218100796Y-87397648D01*
X218127246Y-87316243D01*
X218160500Y-87106287D01*
X218160500Y-86893713D01*
X218127246Y-86683757D01*
X218061557Y-86481588D01*
X217965051Y-86292184D01*
X217965049Y-86292181D01*
X217965048Y-86292179D01*
X217840109Y-86120213D01*
X217689786Y-85969890D01*
X217517820Y-85844951D01*
X217328414Y-85748444D01*
X217328413Y-85748443D01*
X217328412Y-85748443D01*
X217309907Y-85742430D01*
X217252232Y-85702994D01*
X217225034Y-85638635D01*
X217236949Y-85569789D01*
X217284193Y-85518313D01*
X217348226Y-85500500D01*
X224375500Y-85500500D01*
X224442539Y-85520185D01*
X224488294Y-85572989D01*
X224499500Y-85624500D01*
X224499500Y-114375500D01*
X224479815Y-114442539D01*
X224427011Y-114488294D01*
X224375500Y-114499500D01*
X215387360Y-114499500D01*
X215320321Y-114479815D01*
X215274566Y-114427011D01*
X215264622Y-114357853D01*
X215293647Y-114294297D01*
X215331065Y-114265015D01*
X215358384Y-114251095D01*
X215497816Y-114180051D01*
X215618557Y-114092328D01*
X215669786Y-114055109D01*
X215669788Y-114055106D01*
X215669792Y-114055104D01*
X215820104Y-113904792D01*
X215820106Y-113904788D01*
X215820109Y-113904786D01*
X215945048Y-113732820D01*
X215945047Y-113732820D01*
X215945051Y-113732816D01*
X216041557Y-113543412D01*
X216107246Y-113341243D01*
X216140500Y-113131287D01*
X216140500Y-112918713D01*
X216107246Y-112708757D01*
X216041557Y-112506588D01*
X215986049Y-112397648D01*
X221199500Y-112397648D01*
X221199500Y-112602351D01*
X221231522Y-112804534D01*
X221294781Y-112999223D01*
X221387715Y-113181613D01*
X221508028Y-113347213D01*
X221652786Y-113491971D01*
X221807749Y-113604556D01*
X221818390Y-113612287D01*
X221922247Y-113665205D01*
X222000776Y-113705218D01*
X222000778Y-113705218D01*
X222000781Y-113705220D01*
X222085713Y-113732816D01*
X222195465Y-113768477D01*
X222296557Y-113784488D01*
X222397648Y-113800500D01*
X222397649Y-113800500D01*
X222602351Y-113800500D01*
X222602352Y-113800500D01*
X222804534Y-113768477D01*
X222999219Y-113705220D01*
X223181610Y-113612287D01*
X223276409Y-113543412D01*
X223347213Y-113491971D01*
X223347215Y-113491968D01*
X223347219Y-113491966D01*
X223491966Y-113347219D01*
X223491968Y-113347215D01*
X223491971Y-113347213D01*
X223544732Y-113274590D01*
X223612287Y-113181610D01*
X223705220Y-112999219D01*
X223768477Y-112804534D01*
X223800500Y-112602352D01*
X223800500Y-112397648D01*
X223783837Y-112292446D01*
X223768477Y-112195465D01*
X223732075Y-112083431D01*
X223705220Y-112000781D01*
X223705218Y-112000778D01*
X223705218Y-112000776D01*
X223646087Y-111884727D01*
X223612287Y-111818390D01*
X223592467Y-111791110D01*
X223491971Y-111652786D01*
X223347213Y-111508028D01*
X223181613Y-111387715D01*
X223181612Y-111387714D01*
X223181610Y-111387713D01*
X223124653Y-111358691D01*
X222999223Y-111294781D01*
X222804534Y-111231522D01*
X222629995Y-111203878D01*
X222602352Y-111199500D01*
X222397648Y-111199500D01*
X222373329Y-111203351D01*
X222195465Y-111231522D01*
X222000776Y-111294781D01*
X221818386Y-111387715D01*
X221652786Y-111508028D01*
X221508028Y-111652786D01*
X221387715Y-111818386D01*
X221294781Y-112000776D01*
X221231522Y-112195465D01*
X221199500Y-112397648D01*
X215986049Y-112397648D01*
X215945051Y-112317184D01*
X215933650Y-112301492D01*
X215820109Y-112145213D01*
X215669786Y-111994890D01*
X215497817Y-111869949D01*
X215488504Y-111865204D01*
X215437707Y-111817230D01*
X215420912Y-111749409D01*
X215443449Y-111683274D01*
X215488507Y-111644232D01*
X215497555Y-111639622D01*
X215551716Y-111600270D01*
X215551717Y-111600270D01*
X214919408Y-110967962D01*
X214982993Y-110950925D01*
X215097007Y-110885099D01*
X215190099Y-110792007D01*
X215255925Y-110677993D01*
X215272962Y-110614408D01*
X215905270Y-111246717D01*
X215905270Y-111246716D01*
X215944622Y-111192554D01*
X216041095Y-111003217D01*
X216106757Y-110801130D01*
X216106757Y-110801127D01*
X216140000Y-110591246D01*
X216140000Y-110378753D01*
X216106757Y-110168872D01*
X216106757Y-110168869D01*
X216041095Y-109966782D01*
X215944624Y-109777449D01*
X215905270Y-109723282D01*
X215905269Y-109723282D01*
X215272962Y-110355590D01*
X215255925Y-110292007D01*
X215190099Y-110177993D01*
X215097007Y-110084901D01*
X214982993Y-110019075D01*
X214919409Y-110002037D01*
X215551716Y-109369728D01*
X215497550Y-109330375D01*
X215308217Y-109233904D01*
X215106129Y-109168242D01*
X214896246Y-109135000D01*
X214683754Y-109135000D01*
X214473872Y-109168242D01*
X214473869Y-109168242D01*
X214271782Y-109233904D01*
X214082439Y-109330380D01*
X214028282Y-109369727D01*
X214028282Y-109369728D01*
X214660591Y-110002037D01*
X214597007Y-110019075D01*
X214482993Y-110084901D01*
X214389901Y-110177993D01*
X214324075Y-110292007D01*
X214307037Y-110355590D01*
X213674728Y-109723282D01*
X213674727Y-109723282D01*
X213635380Y-109777440D01*
X213635376Y-109777446D01*
X213630760Y-109786505D01*
X213582781Y-109837297D01*
X213514959Y-109854087D01*
X213448826Y-109831543D01*
X213409794Y-109786493D01*
X213405051Y-109777184D01*
X213405049Y-109777181D01*
X213405048Y-109777179D01*
X213280109Y-109605213D01*
X213129786Y-109454890D01*
X212957820Y-109329951D01*
X212768414Y-109233444D01*
X212768413Y-109233443D01*
X212768412Y-109233443D01*
X212566243Y-109167754D01*
X212566241Y-109167753D01*
X212566240Y-109167753D01*
X212404957Y-109142208D01*
X212356287Y-109134500D01*
X212143713Y-109134500D01*
X212095042Y-109142208D01*
X211933760Y-109167753D01*
X211933757Y-109167754D01*
X211762817Y-109223296D01*
X211692977Y-109225291D01*
X211633144Y-109189211D01*
X211602316Y-109126510D01*
X211600500Y-109105365D01*
X211600500Y-108079765D01*
X211620185Y-108012726D01*
X211621398Y-108010874D01*
X211709390Y-107879185D01*
X211709390Y-107879184D01*
X211709394Y-107879179D01*
X211769737Y-107733497D01*
X211800500Y-107578842D01*
X211800500Y-107421158D01*
X211800500Y-107421155D01*
X211800499Y-107421153D01*
X211769738Y-107266510D01*
X211769737Y-107266503D01*
X211769735Y-107266498D01*
X211709397Y-107120827D01*
X211709390Y-107120814D01*
X211621789Y-106989711D01*
X211621786Y-106989707D01*
X211510292Y-106878213D01*
X211510288Y-106878210D01*
X211379185Y-106790609D01*
X211379172Y-106790602D01*
X211233501Y-106730264D01*
X211233489Y-106730261D01*
X211078845Y-106699500D01*
X211078842Y-106699500D01*
X210921158Y-106699500D01*
X210921155Y-106699500D01*
X210766510Y-106730261D01*
X210766498Y-106730264D01*
X210620827Y-106790602D01*
X210620809Y-106790612D01*
X210578390Y-106818956D01*
X210511713Y-106839834D01*
X210444333Y-106821349D01*
X210397643Y-106769370D01*
X210385500Y-106715854D01*
X210385500Y-103371162D01*
X210405185Y-103304123D01*
X210421814Y-103283485D01*
X211397064Y-102308235D01*
X211458385Y-102274752D01*
X211460490Y-102274313D01*
X211483497Y-102269737D01*
X211629179Y-102209394D01*
X211760289Y-102121789D01*
X211871789Y-102010289D01*
X211959394Y-101879179D01*
X212019737Y-101733497D01*
X212050500Y-101578842D01*
X212050500Y-101421158D01*
X212050500Y-101421155D01*
X212050499Y-101421153D01*
X212040572Y-101371246D01*
X212019737Y-101266503D01*
X212019735Y-101266498D01*
X211959397Y-101120827D01*
X211959390Y-101120814D01*
X211871789Y-100989711D01*
X211871786Y-100989707D01*
X211760292Y-100878213D01*
X211760288Y-100878210D01*
X211629185Y-100790609D01*
X211629172Y-100790602D01*
X211483501Y-100730264D01*
X211483489Y-100730261D01*
X211328845Y-100699500D01*
X211328842Y-100699500D01*
X211171158Y-100699500D01*
X211171155Y-100699500D01*
X211016510Y-100730261D01*
X211016498Y-100730264D01*
X210870827Y-100790602D01*
X210870814Y-100790609D01*
X210739711Y-100878210D01*
X210739707Y-100878213D01*
X210628213Y-100989707D01*
X210628210Y-100989711D01*
X210540609Y-101120814D01*
X210540602Y-101120827D01*
X210480263Y-101266500D01*
X210480262Y-101266503D01*
X210475698Y-101289449D01*
X210443311Y-101351359D01*
X210441762Y-101352935D01*
X209185307Y-102609390D01*
X209185304Y-102609394D01*
X209111383Y-102720024D01*
X209111378Y-102720034D01*
X209060459Y-102842963D01*
X209060457Y-102842971D01*
X209034500Y-102973464D01*
X209034500Y-109243288D01*
X209014815Y-109310327D01*
X208983385Y-109343606D01*
X208830214Y-109454890D01*
X208830209Y-109454894D01*
X208679890Y-109605213D01*
X208554951Y-109777179D01*
X208458444Y-109966585D01*
X208392753Y-110168760D01*
X208359500Y-110378713D01*
X208359500Y-110591286D01*
X208392753Y-110801239D01*
X208458444Y-111003414D01*
X208554951Y-111192820D01*
X208679890Y-111364786D01*
X208793430Y-111478326D01*
X208826915Y-111539649D01*
X208821931Y-111609341D01*
X208780059Y-111665274D01*
X208749083Y-111682189D01*
X208617669Y-111731203D01*
X208617664Y-111731206D01*
X208502455Y-111817452D01*
X208502452Y-111817455D01*
X208416206Y-111932664D01*
X208416202Y-111932671D01*
X208365908Y-112067517D01*
X208359501Y-112127116D01*
X208359500Y-112127135D01*
X208359500Y-113922870D01*
X208359501Y-113922876D01*
X208365908Y-113982483D01*
X208416202Y-114117328D01*
X208416206Y-114117335D01*
X208444441Y-114155051D01*
X208502454Y-114232546D01*
X208560813Y-114276234D01*
X208602684Y-114332167D01*
X208607668Y-114401859D01*
X208574183Y-114463182D01*
X208512859Y-114496666D01*
X208486502Y-114499500D01*
X204198226Y-114499500D01*
X204131187Y-114479815D01*
X204085432Y-114427011D01*
X204075488Y-114357853D01*
X204104513Y-114294297D01*
X204159906Y-114257569D01*
X204178412Y-114251557D01*
X204367816Y-114155051D01*
X204419728Y-114117335D01*
X204539786Y-114030109D01*
X204539788Y-114030106D01*
X204539792Y-114030104D01*
X204690104Y-113879792D01*
X204690106Y-113879788D01*
X204690109Y-113879786D01*
X204815048Y-113707820D01*
X204815047Y-113707820D01*
X204815051Y-113707816D01*
X204911557Y-113518412D01*
X204977246Y-113316243D01*
X205010500Y-113106287D01*
X205010500Y-112893713D01*
X204977246Y-112683757D01*
X204911557Y-112481588D01*
X204815051Y-112292184D01*
X204815049Y-112292181D01*
X204815048Y-112292179D01*
X204690109Y-112120213D01*
X204539786Y-111969890D01*
X204367820Y-111844951D01*
X204178414Y-111748444D01*
X204178413Y-111748443D01*
X204178412Y-111748443D01*
X203976243Y-111682754D01*
X203976241Y-111682753D01*
X203976240Y-111682753D01*
X203814957Y-111657208D01*
X203766287Y-111649500D01*
X203553713Y-111649500D01*
X203505042Y-111657208D01*
X203343760Y-111682753D01*
X203141585Y-111748444D01*
X202952179Y-111844951D01*
X202780213Y-111969890D01*
X202629890Y-112120213D01*
X202504949Y-112292182D01*
X202500202Y-112301499D01*
X202452227Y-112352293D01*
X202384405Y-112369087D01*
X202318271Y-112346548D01*
X202279234Y-112301495D01*
X202274626Y-112292452D01*
X202235270Y-112238282D01*
X202235269Y-112238282D01*
X201602962Y-112870590D01*
X201585925Y-112807007D01*
X201520099Y-112692993D01*
X201427007Y-112599901D01*
X201312993Y-112534075D01*
X201249409Y-112517037D01*
X201881716Y-111884728D01*
X201827550Y-111845375D01*
X201638217Y-111748904D01*
X201436129Y-111683242D01*
X201226246Y-111650000D01*
X201013754Y-111650000D01*
X200803872Y-111683242D01*
X200803869Y-111683242D01*
X200601782Y-111748904D01*
X200412439Y-111845380D01*
X200358282Y-111884727D01*
X200358282Y-111884728D01*
X200990591Y-112517037D01*
X200927007Y-112534075D01*
X200812993Y-112599901D01*
X200719901Y-112692993D01*
X200654075Y-112807007D01*
X200637037Y-112870591D01*
X200004728Y-112238282D01*
X200004727Y-112238282D01*
X199965380Y-112292440D01*
X199965376Y-112292446D01*
X199960760Y-112301505D01*
X199912781Y-112352297D01*
X199844959Y-112369087D01*
X199778826Y-112346543D01*
X199739794Y-112301493D01*
X199735051Y-112292184D01*
X199735049Y-112292181D01*
X199735048Y-112292179D01*
X199610109Y-112120213D01*
X199459786Y-111969890D01*
X199287820Y-111844951D01*
X199098414Y-111748444D01*
X199098413Y-111748443D01*
X199098412Y-111748443D01*
X198896243Y-111682754D01*
X198896241Y-111682753D01*
X198896240Y-111682753D01*
X198734957Y-111657208D01*
X198686287Y-111649500D01*
X198473713Y-111649500D01*
X198425042Y-111657208D01*
X198263760Y-111682753D01*
X198061585Y-111748444D01*
X197872179Y-111844951D01*
X197700213Y-111969890D01*
X197549890Y-112120213D01*
X197424949Y-112292182D01*
X197420484Y-112300946D01*
X197372509Y-112351742D01*
X197304688Y-112368536D01*
X197238553Y-112345998D01*
X197199516Y-112300946D01*
X197195050Y-112292182D01*
X197070109Y-112120213D01*
X196919786Y-111969890D01*
X196747820Y-111844951D01*
X196558414Y-111748444D01*
X196558413Y-111748443D01*
X196558412Y-111748443D01*
X196356243Y-111682754D01*
X196356241Y-111682753D01*
X196356240Y-111682753D01*
X196194957Y-111657208D01*
X196146287Y-111649500D01*
X195933713Y-111649500D01*
X195885042Y-111657208D01*
X195723760Y-111682753D01*
X195521585Y-111748444D01*
X195332179Y-111844951D01*
X195160213Y-111969890D01*
X195009890Y-112120213D01*
X194884949Y-112292182D01*
X194880484Y-112300946D01*
X194832509Y-112351742D01*
X194764688Y-112368536D01*
X194698553Y-112345998D01*
X194659516Y-112300946D01*
X194655050Y-112292182D01*
X194530109Y-112120213D01*
X194379786Y-111969890D01*
X194207820Y-111844951D01*
X194018414Y-111748444D01*
X194018413Y-111748443D01*
X194018412Y-111748443D01*
X193816243Y-111682754D01*
X193816241Y-111682753D01*
X193816240Y-111682753D01*
X193654957Y-111657208D01*
X193606287Y-111649500D01*
X193459096Y-111649500D01*
X193392057Y-111629815D01*
X193346302Y-111577011D01*
X193336358Y-111507853D01*
X193365383Y-111444297D01*
X193371415Y-111437819D01*
X199172416Y-105636819D01*
X199233739Y-105603334D01*
X199260097Y-105600500D01*
X200170234Y-105600500D01*
X200237273Y-105620185D01*
X200239125Y-105621398D01*
X200370814Y-105709390D01*
X200370827Y-105709397D01*
X200516498Y-105769735D01*
X200516503Y-105769737D01*
X200671153Y-105800499D01*
X200671156Y-105800500D01*
X200671158Y-105800500D01*
X200828844Y-105800500D01*
X200828845Y-105800499D01*
X200983497Y-105769737D01*
X201129179Y-105709394D01*
X201260289Y-105621789D01*
X201371789Y-105510289D01*
X201459394Y-105379179D01*
X201519737Y-105233497D01*
X201550500Y-105078842D01*
X201550500Y-104921158D01*
X201550500Y-104921155D01*
X201550499Y-104921153D01*
X201532069Y-104828501D01*
X201519737Y-104766503D01*
X201463728Y-104631284D01*
X201459397Y-104620827D01*
X201459390Y-104620814D01*
X201371789Y-104489711D01*
X201371786Y-104489707D01*
X201260292Y-104378213D01*
X201260288Y-104378210D01*
X201129185Y-104290609D01*
X201129172Y-104290602D01*
X200983501Y-104230264D01*
X200983489Y-104230261D01*
X200828845Y-104199500D01*
X200828842Y-104199500D01*
X200671158Y-104199500D01*
X200671155Y-104199500D01*
X200516510Y-104230261D01*
X200516498Y-104230264D01*
X200370827Y-104290602D01*
X200370814Y-104290609D01*
X200239125Y-104378602D01*
X200172447Y-104399480D01*
X200170234Y-104399500D01*
X198880939Y-104399500D01*
X198859459Y-104405255D01*
X198859460Y-104405256D01*
X198728214Y-104440423D01*
X198728209Y-104440426D01*
X198591290Y-104519475D01*
X198591282Y-104519481D01*
X198479478Y-104631286D01*
X191444522Y-111666241D01*
X191383199Y-111699726D01*
X191318523Y-111696491D01*
X191276245Y-111682754D01*
X191136272Y-111660584D01*
X191066287Y-111649500D01*
X190919096Y-111649500D01*
X190852057Y-111629815D01*
X190806302Y-111577011D01*
X190796358Y-111507853D01*
X190825383Y-111444297D01*
X190831415Y-111437819D01*
X195286812Y-106982422D01*
X199868713Y-102400521D01*
X199868716Y-102400520D01*
X199980520Y-102288716D01*
X200030639Y-102201904D01*
X200059577Y-102151785D01*
X200100500Y-101999058D01*
X200100500Y-101840943D01*
X200100500Y-98829765D01*
X200120185Y-98762726D01*
X200121398Y-98760874D01*
X200209390Y-98629185D01*
X200209390Y-98629184D01*
X200209394Y-98629179D01*
X200269737Y-98483497D01*
X200300500Y-98328842D01*
X200300500Y-98171158D01*
X200300500Y-98171155D01*
X200300499Y-98171153D01*
X200269738Y-98016510D01*
X200269737Y-98016503D01*
X200269735Y-98016498D01*
X200209397Y-97870827D01*
X200209390Y-97870814D01*
X200121789Y-97739711D01*
X200121786Y-97739707D01*
X200010292Y-97628213D01*
X200010288Y-97628210D01*
X199879185Y-97540609D01*
X199879172Y-97540602D01*
X199733501Y-97480264D01*
X199733489Y-97480261D01*
X199578845Y-97449500D01*
X199578842Y-97449500D01*
X199421158Y-97449500D01*
X199421155Y-97449500D01*
X199266510Y-97480261D01*
X199266503Y-97480263D01*
X199163809Y-97522799D01*
X199094340Y-97530267D01*
X199031861Y-97498991D01*
X198996209Y-97438901D01*
X198998704Y-97369076D01*
X199028675Y-97320559D01*
X200014662Y-96334572D01*
X200075983Y-96301089D01*
X200078150Y-96300638D01*
X200136085Y-96289113D01*
X200233497Y-96269737D01*
X200379179Y-96209394D01*
X200510289Y-96121789D01*
X200621789Y-96010289D01*
X200709394Y-95879179D01*
X200769737Y-95733497D01*
X200800500Y-95578842D01*
X200800500Y-95421158D01*
X200800500Y-95421155D01*
X200800499Y-95421153D01*
X200796239Y-95399735D01*
X200769737Y-95266503D01*
X200763641Y-95251786D01*
X200709397Y-95120827D01*
X200709390Y-95120814D01*
X200621789Y-94989711D01*
X200621786Y-94989707D01*
X200510292Y-94878213D01*
X200510288Y-94878210D01*
X200379185Y-94790609D01*
X200379172Y-94790602D01*
X200233501Y-94730264D01*
X200233489Y-94730261D01*
X200078845Y-94699500D01*
X200078842Y-94699500D01*
X199921158Y-94699500D01*
X199921155Y-94699500D01*
X199766510Y-94730261D01*
X199766498Y-94730264D01*
X199620827Y-94790602D01*
X199620814Y-94790609D01*
X199489711Y-94878210D01*
X199489707Y-94878213D01*
X199378213Y-94989707D01*
X199378210Y-94989711D01*
X199290609Y-95120814D01*
X199290602Y-95120827D01*
X199230264Y-95266498D01*
X199230261Y-95266508D01*
X199199361Y-95421850D01*
X199166976Y-95483761D01*
X199165425Y-95485339D01*
X194244255Y-100406508D01*
X194182932Y-100439993D01*
X194113240Y-100435009D01*
X194057307Y-100393137D01*
X194034957Y-100343018D01*
X194019738Y-100266510D01*
X194019737Y-100266503D01*
X194019735Y-100266498D01*
X193959397Y-100120827D01*
X193959390Y-100120814D01*
X193871789Y-99989711D01*
X193871786Y-99989707D01*
X193760292Y-99878213D01*
X193760288Y-99878210D01*
X193629185Y-99790609D01*
X193629172Y-99790602D01*
X193483501Y-99730264D01*
X193483489Y-99730261D01*
X193328845Y-99699500D01*
X193328842Y-99699500D01*
X193171158Y-99699500D01*
X193171155Y-99699500D01*
X193016510Y-99730261D01*
X193016498Y-99730264D01*
X192870827Y-99790602D01*
X192870813Y-99790610D01*
X192851372Y-99803601D01*
X192784695Y-99824480D01*
X192782480Y-99824500D01*
X190028464Y-99824500D01*
X189897971Y-99850457D01*
X189897963Y-99850459D01*
X189830965Y-99878211D01*
X189775034Y-99901378D01*
X189741874Y-99923535D01*
X189664391Y-99975306D01*
X185852935Y-103786762D01*
X185791612Y-103820247D01*
X185789449Y-103820698D01*
X185766503Y-103825262D01*
X185766500Y-103825263D01*
X185620827Y-103885602D01*
X185620814Y-103885609D01*
X185489711Y-103973210D01*
X185489707Y-103973213D01*
X185378213Y-104084707D01*
X185378210Y-104084711D01*
X185290609Y-104215814D01*
X185290602Y-104215827D01*
X185230264Y-104361498D01*
X185230261Y-104361510D01*
X185199500Y-104516153D01*
X185199500Y-104673846D01*
X185230261Y-104828489D01*
X185230264Y-104828501D01*
X185290602Y-104974172D01*
X185290609Y-104974185D01*
X185378210Y-105105288D01*
X185378213Y-105105292D01*
X185489707Y-105216786D01*
X185489711Y-105216789D01*
X185620814Y-105304390D01*
X185620827Y-105304397D01*
X185766498Y-105364735D01*
X185766503Y-105364737D01*
X185921153Y-105395499D01*
X185921156Y-105395500D01*
X185921158Y-105395500D01*
X186078844Y-105395500D01*
X186078845Y-105395499D01*
X186233497Y-105364737D01*
X186379179Y-105304394D01*
X186510289Y-105216789D01*
X186621789Y-105105289D01*
X186709394Y-104974179D01*
X186769737Y-104828497D01*
X186774300Y-104805552D01*
X186806684Y-104743642D01*
X186808179Y-104742120D01*
X190338482Y-101211819D01*
X190399805Y-101178334D01*
X190426163Y-101175500D01*
X192782480Y-101175500D01*
X192849519Y-101195185D01*
X192851372Y-101196399D01*
X192870813Y-101209389D01*
X192870816Y-101209391D01*
X192870821Y-101209394D01*
X192870823Y-101209395D01*
X192870827Y-101209397D01*
X193005064Y-101264999D01*
X193016503Y-101269737D01*
X193075400Y-101281452D01*
X193093018Y-101284957D01*
X193154929Y-101317341D01*
X193189503Y-101378057D01*
X193185764Y-101447827D01*
X193156508Y-101494255D01*
X183037582Y-111613181D01*
X182976259Y-111646666D01*
X182949901Y-111649500D01*
X182442129Y-111649500D01*
X182442123Y-111649501D01*
X182382516Y-111655908D01*
X182247671Y-111706202D01*
X182247664Y-111706206D01*
X182132455Y-111792452D01*
X182132452Y-111792455D01*
X182046206Y-111907664D01*
X182046202Y-111907671D01*
X181995908Y-112042517D01*
X181989501Y-112102116D01*
X181989500Y-112102135D01*
X181989500Y-113897870D01*
X181989501Y-113897876D01*
X181995908Y-113957483D01*
X182046202Y-114092328D01*
X182046206Y-114092335D01*
X182132452Y-114207544D01*
X182132455Y-114207547D01*
X182224208Y-114276234D01*
X182266079Y-114332168D01*
X182271063Y-114401859D01*
X182237577Y-114463182D01*
X182176254Y-114496666D01*
X182149897Y-114499500D01*
X175624500Y-114499500D01*
X175557461Y-114479815D01*
X175511706Y-114427011D01*
X175500500Y-114375500D01*
X175500500Y-112397648D01*
X176199500Y-112397648D01*
X176199500Y-112602351D01*
X176231522Y-112804534D01*
X176294781Y-112999223D01*
X176387715Y-113181613D01*
X176508028Y-113347213D01*
X176652786Y-113491971D01*
X176807749Y-113604556D01*
X176818390Y-113612287D01*
X176922247Y-113665205D01*
X177000776Y-113705218D01*
X177000778Y-113705218D01*
X177000781Y-113705220D01*
X177085713Y-113732816D01*
X177195465Y-113768477D01*
X177296557Y-113784488D01*
X177397648Y-113800500D01*
X177397649Y-113800500D01*
X177602351Y-113800500D01*
X177602352Y-113800500D01*
X177804534Y-113768477D01*
X177999219Y-113705220D01*
X178181610Y-113612287D01*
X178276409Y-113543412D01*
X178347213Y-113491971D01*
X178347215Y-113491968D01*
X178347219Y-113491966D01*
X178491966Y-113347219D01*
X178491968Y-113347215D01*
X178491971Y-113347213D01*
X178544732Y-113274590D01*
X178612287Y-113181610D01*
X178705220Y-112999219D01*
X178768477Y-112804534D01*
X178800500Y-112602352D01*
X178800500Y-112397648D01*
X178783837Y-112292446D01*
X178768477Y-112195465D01*
X178732075Y-112083431D01*
X178705220Y-112000781D01*
X178705218Y-112000778D01*
X178705218Y-112000776D01*
X178646087Y-111884727D01*
X178612287Y-111818390D01*
X178592467Y-111791110D01*
X178491971Y-111652786D01*
X178347213Y-111508028D01*
X178181613Y-111387715D01*
X178181612Y-111387714D01*
X178181610Y-111387713D01*
X178124653Y-111358691D01*
X177999223Y-111294781D01*
X177804534Y-111231522D01*
X177629995Y-111203878D01*
X177602352Y-111199500D01*
X177397648Y-111199500D01*
X177373329Y-111203351D01*
X177195465Y-111231522D01*
X177000776Y-111294781D01*
X176818386Y-111387715D01*
X176652786Y-111508028D01*
X176508028Y-111652786D01*
X176387715Y-111818386D01*
X176294781Y-112000776D01*
X176231522Y-112195465D01*
X176199500Y-112397648D01*
X175500500Y-112397648D01*
X175500500Y-102150295D01*
X175520185Y-102083256D01*
X175572989Y-102037501D01*
X175634230Y-102026677D01*
X175634728Y-102026716D01*
X176267037Y-101394408D01*
X176284075Y-101457993D01*
X176349901Y-101572007D01*
X176442993Y-101665099D01*
X176557007Y-101730925D01*
X176620590Y-101747962D01*
X175988282Y-102380269D01*
X175988282Y-102380270D01*
X176042449Y-102419624D01*
X176231782Y-102516095D01*
X176433870Y-102581757D01*
X176643754Y-102615000D01*
X176856246Y-102615000D01*
X177066127Y-102581757D01*
X177066130Y-102581757D01*
X177268217Y-102516095D01*
X177457554Y-102419622D01*
X177511716Y-102380270D01*
X177511717Y-102380270D01*
X176879408Y-101747962D01*
X176942993Y-101730925D01*
X177057007Y-101665099D01*
X177150099Y-101572007D01*
X177215925Y-101457993D01*
X177232962Y-101394408D01*
X177865270Y-102026717D01*
X177865270Y-102026716D01*
X177904622Y-101972554D01*
X178001095Y-101783217D01*
X178066757Y-101581130D01*
X178066757Y-101581127D01*
X178100000Y-101371246D01*
X178100000Y-101158753D01*
X178066757Y-100948872D01*
X178066757Y-100948869D01*
X178001095Y-100746782D01*
X177904624Y-100557449D01*
X177865270Y-100503282D01*
X177865269Y-100503282D01*
X177232962Y-101135590D01*
X177215925Y-101072007D01*
X177150099Y-100957993D01*
X177057007Y-100864901D01*
X176942993Y-100799075D01*
X176879409Y-100782037D01*
X177549627Y-100111818D01*
X177610950Y-100078333D01*
X177637307Y-100075499D01*
X177647872Y-100075499D01*
X177707483Y-100069091D01*
X177842331Y-100018796D01*
X177957546Y-99932546D01*
X178043796Y-99817331D01*
X178094091Y-99682483D01*
X178100500Y-99622873D01*
X178100499Y-97827128D01*
X178094091Y-97767517D01*
X178043796Y-97632669D01*
X178043795Y-97632668D01*
X178043793Y-97632664D01*
X177957547Y-97517455D01*
X177957544Y-97517452D01*
X177842335Y-97431206D01*
X177842328Y-97431202D01*
X177707482Y-97380908D01*
X177707483Y-97380908D01*
X177647883Y-97374501D01*
X177647881Y-97374500D01*
X177647873Y-97374500D01*
X177647864Y-97374500D01*
X175852129Y-97374500D01*
X175852123Y-97374501D01*
X175792515Y-97380909D01*
X175667832Y-97427412D01*
X175598141Y-97432396D01*
X175536818Y-97398910D01*
X175503334Y-97337587D01*
X175500500Y-97311230D01*
X175500500Y-87397648D01*
X176199500Y-87397648D01*
X176199500Y-87602351D01*
X176231522Y-87804534D01*
X176294781Y-87999223D01*
X176358691Y-88124653D01*
X176374180Y-88155051D01*
X176387715Y-88181613D01*
X176508028Y-88347213D01*
X176652786Y-88491971D01*
X176807749Y-88604556D01*
X176818390Y-88612287D01*
X176934607Y-88671503D01*
X177000776Y-88705218D01*
X177000778Y-88705218D01*
X177000781Y-88705220D01*
X177051763Y-88721785D01*
X177195465Y-88768477D01*
X177296557Y-88784488D01*
X177397648Y-88800500D01*
X177397649Y-88800500D01*
X177602351Y-88800500D01*
X177602352Y-88800500D01*
X177804534Y-88768477D01*
X177999219Y-88705220D01*
X178181610Y-88612287D01*
X178274590Y-88544732D01*
X178347213Y-88491971D01*
X178347215Y-88491968D01*
X178347219Y-88491966D01*
X178491966Y-88347219D01*
X178491968Y-88347215D01*
X178491971Y-88347213D01*
X178561468Y-88251557D01*
X178612287Y-88181610D01*
X178705220Y-87999219D01*
X178768477Y-87804534D01*
X178800500Y-87602352D01*
X178800500Y-87397648D01*
X178786144Y-87307007D01*
X178772052Y-87218036D01*
X178768477Y-87195465D01*
X178705218Y-87000776D01*
X178650666Y-86893713D01*
X178612287Y-86818390D01*
X178576901Y-86769685D01*
X178491971Y-86652786D01*
X178347213Y-86508028D01*
X178181613Y-86387715D01*
X178181612Y-86387714D01*
X178181610Y-86387713D01*
X178099740Y-86345998D01*
X177999223Y-86294781D01*
X177804534Y-86231522D01*
X177629995Y-86203878D01*
X177602352Y-86199500D01*
X177397648Y-86199500D01*
X177373329Y-86203351D01*
X177195465Y-86231522D01*
X177000776Y-86294781D01*
X176818386Y-86387715D01*
X176652786Y-86508028D01*
X176508028Y-86652786D01*
X176387715Y-86818386D01*
X176294781Y-87000776D01*
X176231522Y-87195465D01*
X176199500Y-87397648D01*
X175500500Y-87397648D01*
X175500500Y-85624500D01*
X175520185Y-85557461D01*
X175572989Y-85511706D01*
X175624500Y-85500500D01*
X195000731Y-85500500D01*
X195067770Y-85520185D01*
G37*
%TD.AperFunction*%
%TA.AperFunction,Conductor*%
G36*
X200654075Y-113192993D02*
G01*
X200719901Y-113307007D01*
X200812993Y-113400099D01*
X200927007Y-113465925D01*
X200990590Y-113482962D01*
X200358282Y-114115269D01*
X200358282Y-114115270D01*
X200412449Y-114154624D01*
X200601782Y-114251095D01*
X200621706Y-114257569D01*
X200679381Y-114297006D01*
X200706580Y-114361365D01*
X200694665Y-114430211D01*
X200647421Y-114481687D01*
X200583388Y-114499500D01*
X199118226Y-114499500D01*
X199051187Y-114479815D01*
X199005432Y-114427011D01*
X198995488Y-114357853D01*
X199024513Y-114294297D01*
X199079906Y-114257569D01*
X199098412Y-114251557D01*
X199287816Y-114155051D01*
X199339728Y-114117335D01*
X199459786Y-114030109D01*
X199459788Y-114030106D01*
X199459792Y-114030104D01*
X199610104Y-113879792D01*
X199610106Y-113879788D01*
X199610109Y-113879786D01*
X199677515Y-113787007D01*
X199735051Y-113707816D01*
X199739793Y-113698508D01*
X199787763Y-113647711D01*
X199855583Y-113630911D01*
X199921719Y-113653445D01*
X199960763Y-113698500D01*
X199965373Y-113707547D01*
X200004728Y-113761716D01*
X200637037Y-113129408D01*
X200654075Y-113192993D01*
G37*
%TD.AperFunction*%
%TA.AperFunction,Conductor*%
G36*
X202235270Y-113761717D02*
G01*
X202235270Y-113761716D01*
X202274622Y-113707555D01*
X202279232Y-113698507D01*
X202327205Y-113647709D01*
X202395025Y-113630912D01*
X202461161Y-113653447D01*
X202500204Y-113698504D01*
X202504949Y-113707817D01*
X202629890Y-113879786D01*
X202780213Y-114030109D01*
X202952179Y-114155048D01*
X202952181Y-114155049D01*
X202952184Y-114155051D01*
X203141588Y-114251557D01*
X203160092Y-114257569D01*
X203217768Y-114297006D01*
X203244966Y-114361365D01*
X203233051Y-114430211D01*
X203185807Y-114481687D01*
X203121774Y-114499500D01*
X201656612Y-114499500D01*
X201589573Y-114479815D01*
X201543818Y-114427011D01*
X201533874Y-114357853D01*
X201562899Y-114294297D01*
X201618294Y-114257569D01*
X201638217Y-114251095D01*
X201827554Y-114154622D01*
X201881716Y-114115270D01*
X201881717Y-114115270D01*
X201249408Y-113482962D01*
X201312993Y-113465925D01*
X201427007Y-113400099D01*
X201520099Y-113307007D01*
X201585925Y-113192993D01*
X201602962Y-113129408D01*
X202235270Y-113761717D01*
G37*
%TD.AperFunction*%
%TA.AperFunction,Conductor*%
G36*
X214324075Y-110677993D02*
G01*
X214389901Y-110792007D01*
X214482993Y-110885099D01*
X214597007Y-110950925D01*
X214660590Y-110967962D01*
X214028282Y-111600269D01*
X214028282Y-111600270D01*
X214082452Y-111639626D01*
X214082451Y-111639626D01*
X214091495Y-111644234D01*
X214142292Y-111692208D01*
X214159087Y-111760029D01*
X214136550Y-111826164D01*
X214091499Y-111865202D01*
X214082182Y-111869949D01*
X213910213Y-111994890D01*
X213759890Y-112145213D01*
X213634949Y-112317182D01*
X213630484Y-112325946D01*
X213582509Y-112376742D01*
X213514688Y-112393536D01*
X213448553Y-112370998D01*
X213409516Y-112325946D01*
X213405050Y-112317182D01*
X213280109Y-112145213D01*
X213129786Y-111994890D01*
X212957820Y-111869951D01*
X212957115Y-111869591D01*
X212949054Y-111865485D01*
X212898259Y-111817512D01*
X212881463Y-111749692D01*
X212903999Y-111683556D01*
X212949054Y-111644515D01*
X212957816Y-111640051D01*
X213044584Y-111577011D01*
X213129786Y-111515109D01*
X213129788Y-111515106D01*
X213129792Y-111515104D01*
X213280104Y-111364792D01*
X213280106Y-111364788D01*
X213280109Y-111364786D01*
X213365890Y-111246717D01*
X213405051Y-111192816D01*
X213409793Y-111183508D01*
X213457763Y-111132711D01*
X213525583Y-111115911D01*
X213591719Y-111138445D01*
X213630763Y-111183500D01*
X213635373Y-111192547D01*
X213674728Y-111246716D01*
X214307037Y-110614408D01*
X214324075Y-110677993D01*
G37*
%TD.AperFunction*%
%TA.AperFunction,Conductor*%
G36*
X175667833Y-100022587D02*
G01*
X175792517Y-100069091D01*
X175852127Y-100075500D01*
X175862685Y-100075499D01*
X175929723Y-100095179D01*
X175950372Y-100111818D01*
X176620591Y-100782037D01*
X176557007Y-100799075D01*
X176442993Y-100864901D01*
X176349901Y-100957993D01*
X176284075Y-101072007D01*
X176267037Y-101135591D01*
X175634727Y-100503281D01*
X175634228Y-100503321D01*
X175620618Y-100500461D01*
X175606853Y-100502441D01*
X175587099Y-100493420D01*
X175565851Y-100488956D01*
X175555948Y-100479193D01*
X175543297Y-100473416D01*
X175531556Y-100455147D01*
X175516095Y-100439905D01*
X175512268Y-100425134D01*
X175505523Y-100414638D01*
X175500500Y-100379703D01*
X175500500Y-100138769D01*
X175520185Y-100071730D01*
X175572989Y-100025975D01*
X175642147Y-100016031D01*
X175667833Y-100022587D01*
G37*
%TD.AperFunction*%
%TA.AperFunction,Conductor*%
G36*
X208724075Y-86807007D02*
G01*
X208690000Y-86934174D01*
X208690000Y-87065826D01*
X208724075Y-87192993D01*
X208756988Y-87250000D01*
X207840000Y-87250000D01*
X207840000Y-87897844D01*
X207846401Y-87957372D01*
X207846403Y-87957379D01*
X207896645Y-88092086D01*
X207896649Y-88092093D01*
X207982809Y-88207187D01*
X207982812Y-88207190D01*
X208097906Y-88293350D01*
X208097913Y-88293354D01*
X208232620Y-88343596D01*
X208232627Y-88343598D01*
X208292155Y-88349999D01*
X208292172Y-88350000D01*
X208940000Y-88350000D01*
X208940000Y-87433012D01*
X208997007Y-87465925D01*
X209124174Y-87500000D01*
X209255826Y-87500000D01*
X209382993Y-87465925D01*
X209440000Y-87433012D01*
X209440000Y-88283336D01*
X209420315Y-88350375D01*
X209403681Y-88371017D01*
X207736518Y-90038181D01*
X207675195Y-90071666D01*
X207648837Y-90074500D01*
X205467520Y-90074500D01*
X205400481Y-90054815D01*
X205398628Y-90053601D01*
X205379186Y-90040610D01*
X205379172Y-90040602D01*
X205233501Y-89980264D01*
X205233489Y-89980261D01*
X205078845Y-89949500D01*
X205078842Y-89949500D01*
X204987096Y-89949500D01*
X204920057Y-89929815D01*
X204874302Y-89877011D01*
X204864358Y-89807853D01*
X204893383Y-89744297D01*
X204899415Y-89737819D01*
X207526279Y-87110957D01*
X207850917Y-86786319D01*
X207912240Y-86752834D01*
X207938598Y-86750000D01*
X208756988Y-86750000D01*
X208724075Y-86807007D01*
G37*
%TD.AperFunction*%
%TD*%
M02*
