%TF.GenerationSoftware,KiCad,Pcbnew,9.0.1*%
%TF.CreationDate,2025-10-21T23:30:23+03:00*%
%TF.ProjectId,MCU DataLogger,4d435520-4461-4746-914c-6f676765722e,1*%
%TF.SameCoordinates,Original*%
%TF.FileFunction,Soldermask,Top*%
%TF.FilePolarity,Negative*%
%FSLAX46Y46*%
G04 Gerber Fmt 4.6, Leading zero omitted, Abs format (unit mm)*
G04 Created by KiCad (PCBNEW 9.0.1) date 2025-10-21 23:30:23*
%MOMM*%
%LPD*%
G01*
G04 APERTURE LIST*
G04 Aperture macros list*
%AMRoundRect*
0 Rectangle with rounded corners*
0 $1 Rounding radius*
0 $2 $3 $4 $5 $6 $7 $8 $9 X,Y pos of 4 corners*
0 Add a 4 corners polygon primitive as box body*
4,1,4,$2,$3,$4,$5,$6,$7,$8,$9,$2,$3,0*
0 Add four circle primitives for the rounded corners*
1,1,$1+$1,$2,$3*
1,1,$1+$1,$4,$5*
1,1,$1+$1,$6,$7*
1,1,$1+$1,$8,$9*
0 Add four rect primitives between the rounded corners*
20,1,$1+$1,$2,$3,$4,$5,0*
20,1,$1+$1,$4,$5,$6,$7,0*
20,1,$1+$1,$6,$7,$8,$9,0*
20,1,$1+$1,$8,$9,$2,$3,0*%
G04 Aperture macros list end*
%ADD10R,1.700000X1.700000*%
%ADD11C,1.700000*%
%ADD12RoundRect,0.243750X0.243750X0.456250X-0.243750X0.456250X-0.243750X-0.456250X0.243750X-0.456250X0*%
%ADD13RoundRect,0.250000X0.250000X0.475000X-0.250000X0.475000X-0.250000X-0.475000X0.250000X-0.475000X0*%
%ADD14RoundRect,0.250000X-0.250000X-0.475000X0.250000X-0.475000X0.250000X0.475000X-0.250000X0.475000X0*%
%ADD15R,2.400000X2.000000*%
%ADD16RoundRect,0.250000X0.262500X0.450000X-0.262500X0.450000X-0.262500X-0.450000X0.262500X-0.450000X0*%
%ADD17RoundRect,0.250000X-0.262500X-0.450000X0.262500X-0.450000X0.262500X0.450000X-0.262500X0.450000X0*%
%ADD18RoundRect,0.099250X-0.987750X-0.297750X0.987750X-0.297750X0.987750X0.297750X-0.987750X0.297750X0*%
%ADD19RoundRect,0.150000X-0.800000X-0.150000X0.800000X-0.150000X0.800000X0.150000X-0.800000X0.150000X0*%
%ADD20C,2.100000*%
%ADD21RoundRect,0.102000X-0.750000X-0.275000X0.750000X-0.275000X0.750000X0.275000X-0.750000X0.275000X0*%
%ADD22RoundRect,0.102000X-0.275000X-0.750000X0.275000X-0.750000X0.275000X0.750000X-0.275000X0.750000X0*%
G04 APERTURE END LIST*
D10*
%TO.C,I2C*%
X196190000Y-87000000D03*
D11*
X198730000Y-87000000D03*
X201270000Y-87000000D03*
X203810000Y-87000000D03*
%TD*%
D12*
%TO.C,D2*%
X214687500Y-102008700D03*
X212812500Y-102008700D03*
%TD*%
D10*
%TO.C,ICSP*%
X209710000Y-113025000D03*
D11*
X209710000Y-110485000D03*
X212250000Y-113025000D03*
X212250000Y-110485000D03*
X214790000Y-113025000D03*
X214790000Y-110485000D03*
%TD*%
D13*
%TO.C,C6*%
X198700000Y-96500000D03*
X196800000Y-96500000D03*
%TD*%
D14*
%TO.C,C3*%
X191800000Y-106750000D03*
X193700000Y-106750000D03*
%TD*%
D13*
%TO.C,C4*%
X214700000Y-96250000D03*
X212800000Y-96250000D03*
%TD*%
D15*
%TO.C,Y2*%
X197500000Y-106850000D03*
X197500000Y-103150000D03*
%TD*%
D14*
%TO.C,C5*%
X212800000Y-99250000D03*
X214700000Y-99250000D03*
%TD*%
D10*
%TO.C,SERIAL*%
X209190000Y-87000000D03*
D11*
X211730000Y-87000000D03*
X214270000Y-87000000D03*
X216810000Y-87000000D03*
%TD*%
D16*
%TO.C,R6*%
X203825000Y-92250000D03*
X202000000Y-92250000D03*
%TD*%
D10*
%TO.C,Battery*%
X176750000Y-98725000D03*
D11*
X176750000Y-101265000D03*
%TD*%
D17*
%TO.C,R2*%
X190337500Y-93250000D03*
X192162500Y-93250000D03*
%TD*%
D14*
%TO.C,C1*%
X194800000Y-90250000D03*
X196700000Y-90250000D03*
%TD*%
D18*
%TO.C,RTC*%
X186775000Y-86845000D03*
X186775000Y-88115000D03*
X186775000Y-89385000D03*
X186775000Y-90655000D03*
X191725000Y-90655000D03*
X191725000Y-89385000D03*
X191725000Y-88115000D03*
X191725000Y-86845000D03*
%TD*%
D16*
%TO.C,R5*%
X220662500Y-104750000D03*
X218837500Y-104750000D03*
%TD*%
%TO.C,R1*%
X188162500Y-93250000D03*
X186337500Y-93250000D03*
%TD*%
D19*
%TO.C,U1*%
X181250000Y-96845000D03*
X181250000Y-98115000D03*
X181250000Y-99385000D03*
X181250000Y-100655000D03*
X188250000Y-100655000D03*
X188250000Y-99385000D03*
X188250000Y-98115000D03*
X188250000Y-96845000D03*
%TD*%
D10*
%TO.C,GPIO*%
X183340000Y-113000000D03*
D11*
X185880000Y-113000000D03*
X188420000Y-113000000D03*
X190960000Y-113000000D03*
X193500000Y-113000000D03*
X196040000Y-113000000D03*
X198580000Y-113000000D03*
X201120000Y-113000000D03*
X203660000Y-113000000D03*
%TD*%
D12*
%TO.C,D1*%
X214687500Y-104500000D03*
X212812500Y-104500000D03*
%TD*%
D20*
%TO.C,H1*%
X222500000Y-112500000D03*
%TD*%
D16*
%TO.C,R3*%
X198662500Y-99750000D03*
X196837500Y-99750000D03*
%TD*%
D15*
%TO.C,Y1*%
X182000000Y-87900000D03*
X182000000Y-91600000D03*
%TD*%
D20*
%TO.C,H3*%
X177500000Y-112500000D03*
%TD*%
%TO.C,H2*%
X222500000Y-87500000D03*
%TD*%
D17*
%TO.C,R7*%
X218837500Y-102000000D03*
X220662500Y-102000000D03*
%TD*%
D19*
%TO.C,U4*%
X181250000Y-104595000D03*
X181250000Y-105865000D03*
X181250000Y-107135000D03*
X181250000Y-108405000D03*
X188250000Y-108405000D03*
X188250000Y-107135000D03*
X188250000Y-105865000D03*
X188250000Y-104595000D03*
%TD*%
D21*
%TO.C,U3*%
X201200000Y-96700000D03*
X201200000Y-97500000D03*
X201200000Y-98300000D03*
X201200000Y-99100000D03*
X201200000Y-99900000D03*
X201200000Y-100700000D03*
X201200000Y-101500000D03*
X201200000Y-102300000D03*
D22*
X202700000Y-103800000D03*
X203500000Y-103800000D03*
X204300000Y-103800000D03*
X205100000Y-103800000D03*
X205900000Y-103800000D03*
X206700000Y-103800000D03*
X207500000Y-103800000D03*
X208300000Y-103800000D03*
D21*
X209800000Y-102300000D03*
X209800000Y-101500000D03*
X209800000Y-100700000D03*
X209800000Y-99900000D03*
X209800000Y-99100000D03*
X209800000Y-98300000D03*
X209800000Y-97500000D03*
X209800000Y-96700000D03*
D22*
X208300000Y-95200000D03*
X207500000Y-95200000D03*
X206700000Y-95200000D03*
X205900000Y-95200000D03*
X205100000Y-95200000D03*
X204300000Y-95200000D03*
X203500000Y-95200000D03*
X202700000Y-95200000D03*
%TD*%
D14*
%TO.C,C2*%
X191800000Y-103250000D03*
X193700000Y-103250000D03*
%TD*%
D16*
%TO.C,R4*%
X193662500Y-98000000D03*
X191837500Y-98000000D03*
%TD*%
D20*
%TO.C,H4*%
X177500000Y-87500000D03*
%TD*%
M02*
