%TF.GenerationSoftware,KiCad,Pcbnew,9.0.1*%
%TF.CreationDate,2025-10-21T23:30:23+03:00*%
%TF.ProjectId,MCU DataLogger,4d435520-4461-4746-914c-6f676765722e,1*%
%TF.SameCoordinates,Original*%
%TF.FileFunction,Legend,Bot*%
%TF.FilePolarity,Positive*%
%FSLAX46Y46*%
G04 Gerber Fmt 4.6, Leading zero omitted, Abs format (unit mm)*
G04 Created by KiCad (PCBNEW 9.0.1) date 2025-10-21 23:30:23*
%MOMM*%
%LPD*%
G01*
G04 APERTURE LIST*
%ADD10C,0.080000*%
%ADD11C,0.100000*%
G04 APERTURE END LIST*
D10*
X209530702Y-114910173D02*
X209530702Y-114210173D01*
X209530702Y-114210173D02*
X209297369Y-114710173D01*
X209297369Y-114710173D02*
X209064035Y-114210173D01*
X209064035Y-114210173D02*
X209064035Y-114910173D01*
X208730702Y-114910173D02*
X208730702Y-114210173D01*
X208430702Y-114876840D02*
X208330702Y-114910173D01*
X208330702Y-114910173D02*
X208164036Y-114910173D01*
X208164036Y-114910173D02*
X208097369Y-114876840D01*
X208097369Y-114876840D02*
X208064036Y-114843506D01*
X208064036Y-114843506D02*
X208030702Y-114776840D01*
X208030702Y-114776840D02*
X208030702Y-114710173D01*
X208030702Y-114710173D02*
X208064036Y-114643506D01*
X208064036Y-114643506D02*
X208097369Y-114610173D01*
X208097369Y-114610173D02*
X208164036Y-114576840D01*
X208164036Y-114576840D02*
X208297369Y-114543506D01*
X208297369Y-114543506D02*
X208364036Y-114510173D01*
X208364036Y-114510173D02*
X208397369Y-114476840D01*
X208397369Y-114476840D02*
X208430702Y-114410173D01*
X208430702Y-114410173D02*
X208430702Y-114343506D01*
X208430702Y-114343506D02*
X208397369Y-114276840D01*
X208397369Y-114276840D02*
X208364036Y-114243506D01*
X208364036Y-114243506D02*
X208297369Y-114210173D01*
X208297369Y-114210173D02*
X208130702Y-114210173D01*
X208130702Y-114210173D02*
X208030702Y-114243506D01*
X207597369Y-114210173D02*
X207464035Y-114210173D01*
X207464035Y-114210173D02*
X207397369Y-114243506D01*
X207397369Y-114243506D02*
X207330702Y-114310173D01*
X207330702Y-114310173D02*
X207297369Y-114443506D01*
X207297369Y-114443506D02*
X207297369Y-114676840D01*
X207297369Y-114676840D02*
X207330702Y-114810173D01*
X207330702Y-114810173D02*
X207397369Y-114876840D01*
X207397369Y-114876840D02*
X207464035Y-114910173D01*
X207464035Y-114910173D02*
X207597369Y-114910173D01*
X207597369Y-114910173D02*
X207664035Y-114876840D01*
X207664035Y-114876840D02*
X207730702Y-114810173D01*
X207730702Y-114810173D02*
X207764035Y-114676840D01*
X207764035Y-114676840D02*
X207764035Y-114443506D01*
X207764035Y-114443506D02*
X207730702Y-114310173D01*
X207730702Y-114310173D02*
X207664035Y-114243506D01*
X207664035Y-114243506D02*
X207597369Y-114210173D01*
X216064035Y-114876840D02*
X215964035Y-114910173D01*
X215964035Y-114910173D02*
X215797369Y-114910173D01*
X215797369Y-114910173D02*
X215730702Y-114876840D01*
X215730702Y-114876840D02*
X215697369Y-114843506D01*
X215697369Y-114843506D02*
X215664035Y-114776840D01*
X215664035Y-114776840D02*
X215664035Y-114710173D01*
X215664035Y-114710173D02*
X215697369Y-114643506D01*
X215697369Y-114643506D02*
X215730702Y-114610173D01*
X215730702Y-114610173D02*
X215797369Y-114576840D01*
X215797369Y-114576840D02*
X215930702Y-114543506D01*
X215930702Y-114543506D02*
X215997369Y-114510173D01*
X215997369Y-114510173D02*
X216030702Y-114476840D01*
X216030702Y-114476840D02*
X216064035Y-114410173D01*
X216064035Y-114410173D02*
X216064035Y-114343506D01*
X216064035Y-114343506D02*
X216030702Y-114276840D01*
X216030702Y-114276840D02*
X215997369Y-114243506D01*
X215997369Y-114243506D02*
X215930702Y-114210173D01*
X215930702Y-114210173D02*
X215764035Y-114210173D01*
X215764035Y-114210173D02*
X215664035Y-114243506D01*
X214964035Y-114843506D02*
X214997368Y-114876840D01*
X214997368Y-114876840D02*
X215097368Y-114910173D01*
X215097368Y-114910173D02*
X215164035Y-114910173D01*
X215164035Y-114910173D02*
X215264035Y-114876840D01*
X215264035Y-114876840D02*
X215330702Y-114810173D01*
X215330702Y-114810173D02*
X215364035Y-114743506D01*
X215364035Y-114743506D02*
X215397368Y-114610173D01*
X215397368Y-114610173D02*
X215397368Y-114510173D01*
X215397368Y-114510173D02*
X215364035Y-114376840D01*
X215364035Y-114376840D02*
X215330702Y-114310173D01*
X215330702Y-114310173D02*
X215264035Y-114243506D01*
X215264035Y-114243506D02*
X215164035Y-114210173D01*
X215164035Y-114210173D02*
X215097368Y-114210173D01*
X215097368Y-114210173D02*
X214997368Y-114243506D01*
X214997368Y-114243506D02*
X214964035Y-114276840D01*
X214664035Y-114910173D02*
X214664035Y-114210173D01*
X214264035Y-114910173D02*
X214564035Y-114510173D01*
X214264035Y-114210173D02*
X214664035Y-114610173D01*
D11*
X192196115Y-94012475D02*
X192196115Y-93012475D01*
X191719925Y-94012475D02*
X191719925Y-93345808D01*
X191719925Y-93441046D02*
X191672306Y-93393427D01*
X191672306Y-93393427D02*
X191577068Y-93345808D01*
X191577068Y-93345808D02*
X191434211Y-93345808D01*
X191434211Y-93345808D02*
X191338973Y-93393427D01*
X191338973Y-93393427D02*
X191291354Y-93488665D01*
X191291354Y-93488665D02*
X191291354Y-94012475D01*
X191291354Y-93488665D02*
X191243735Y-93393427D01*
X191243735Y-93393427D02*
X191148497Y-93345808D01*
X191148497Y-93345808D02*
X191005640Y-93345808D01*
X191005640Y-93345808D02*
X190910401Y-93393427D01*
X190910401Y-93393427D02*
X190862782Y-93488665D01*
X190862782Y-93488665D02*
X190862782Y-94012475D01*
X190386592Y-93345808D02*
X190386592Y-94345808D01*
X190386592Y-93393427D02*
X190291354Y-93345808D01*
X190291354Y-93345808D02*
X190100878Y-93345808D01*
X190100878Y-93345808D02*
X190005640Y-93393427D01*
X190005640Y-93393427D02*
X189958021Y-93441046D01*
X189958021Y-93441046D02*
X189910402Y-93536284D01*
X189910402Y-93536284D02*
X189910402Y-93821998D01*
X189910402Y-93821998D02*
X189958021Y-93917236D01*
X189958021Y-93917236D02*
X190005640Y-93964856D01*
X190005640Y-93964856D02*
X190100878Y-94012475D01*
X190100878Y-94012475D02*
X190291354Y-94012475D01*
X190291354Y-94012475D02*
X190386592Y-93964856D01*
X189338973Y-94012475D02*
X189434211Y-93964856D01*
X189434211Y-93964856D02*
X189481830Y-93869617D01*
X189481830Y-93869617D02*
X189481830Y-93012475D01*
X188577068Y-93964856D02*
X188672306Y-94012475D01*
X188672306Y-94012475D02*
X188862782Y-94012475D01*
X188862782Y-94012475D02*
X188958020Y-93964856D01*
X188958020Y-93964856D02*
X189005639Y-93869617D01*
X189005639Y-93869617D02*
X189005639Y-93488665D01*
X189005639Y-93488665D02*
X188958020Y-93393427D01*
X188958020Y-93393427D02*
X188862782Y-93345808D01*
X188862782Y-93345808D02*
X188672306Y-93345808D01*
X188672306Y-93345808D02*
X188577068Y-93393427D01*
X188577068Y-93393427D02*
X188529449Y-93488665D01*
X188529449Y-93488665D02*
X188529449Y-93583903D01*
X188529449Y-93583903D02*
X189005639Y-93679141D01*
X188100877Y-94012475D02*
X188100877Y-93345808D01*
X188100877Y-93441046D02*
X188053258Y-93393427D01*
X188053258Y-93393427D02*
X187958020Y-93345808D01*
X187958020Y-93345808D02*
X187815163Y-93345808D01*
X187815163Y-93345808D02*
X187719925Y-93393427D01*
X187719925Y-93393427D02*
X187672306Y-93488665D01*
X187672306Y-93488665D02*
X187672306Y-94012475D01*
X187672306Y-93488665D02*
X187624687Y-93393427D01*
X187624687Y-93393427D02*
X187529449Y-93345808D01*
X187529449Y-93345808D02*
X187386592Y-93345808D01*
X187386592Y-93345808D02*
X187291353Y-93393427D01*
X187291353Y-93393427D02*
X187243734Y-93488665D01*
X187243734Y-93488665D02*
X187243734Y-94012475D01*
X186386592Y-93964856D02*
X186481830Y-94012475D01*
X186481830Y-94012475D02*
X186672306Y-94012475D01*
X186672306Y-94012475D02*
X186767544Y-93964856D01*
X186767544Y-93964856D02*
X186815163Y-93869617D01*
X186815163Y-93869617D02*
X186815163Y-93488665D01*
X186815163Y-93488665D02*
X186767544Y-93393427D01*
X186767544Y-93393427D02*
X186672306Y-93345808D01*
X186672306Y-93345808D02*
X186481830Y-93345808D01*
X186481830Y-93345808D02*
X186386592Y-93393427D01*
X186386592Y-93393427D02*
X186338973Y-93488665D01*
X186338973Y-93488665D02*
X186338973Y-93583903D01*
X186338973Y-93583903D02*
X186815163Y-93679141D01*
X185910401Y-93345808D02*
X185910401Y-94012475D01*
X185910401Y-93441046D02*
X185862782Y-93393427D01*
X185862782Y-93393427D02*
X185767544Y-93345808D01*
X185767544Y-93345808D02*
X185624687Y-93345808D01*
X185624687Y-93345808D02*
X185529449Y-93393427D01*
X185529449Y-93393427D02*
X185481830Y-93488665D01*
X185481830Y-93488665D02*
X185481830Y-94012475D01*
X185148496Y-93345808D02*
X184767544Y-93345808D01*
X185005639Y-93012475D02*
X185005639Y-93869617D01*
X185005639Y-93869617D02*
X184958020Y-93964856D01*
X184958020Y-93964856D02*
X184862782Y-94012475D01*
X184862782Y-94012475D02*
X184767544Y-94012475D01*
X184053258Y-93964856D02*
X184148496Y-94012475D01*
X184148496Y-94012475D02*
X184338972Y-94012475D01*
X184338972Y-94012475D02*
X184434210Y-93964856D01*
X184434210Y-93964856D02*
X184481829Y-93869617D01*
X184481829Y-93869617D02*
X184481829Y-93488665D01*
X184481829Y-93488665D02*
X184434210Y-93393427D01*
X184434210Y-93393427D02*
X184338972Y-93345808D01*
X184338972Y-93345808D02*
X184148496Y-93345808D01*
X184148496Y-93345808D02*
X184053258Y-93393427D01*
X184053258Y-93393427D02*
X184005639Y-93488665D01*
X184005639Y-93488665D02*
X184005639Y-93583903D01*
X184005639Y-93583903D02*
X184481829Y-93679141D01*
X183148496Y-94012475D02*
X183148496Y-93012475D01*
X183148496Y-93964856D02*
X183243734Y-94012475D01*
X183243734Y-94012475D02*
X183434210Y-94012475D01*
X183434210Y-94012475D02*
X183529448Y-93964856D01*
X183529448Y-93964856D02*
X183577067Y-93917236D01*
X183577067Y-93917236D02*
X183624686Y-93821998D01*
X183624686Y-93821998D02*
X183624686Y-93536284D01*
X183624686Y-93536284D02*
X183577067Y-93441046D01*
X183577067Y-93441046D02*
X183529448Y-93393427D01*
X183529448Y-93393427D02*
X183434210Y-93345808D01*
X183434210Y-93345808D02*
X183243734Y-93345808D01*
X183243734Y-93345808D02*
X183148496Y-93393427D01*
X181910400Y-94012475D02*
X181910400Y-93012475D01*
X181910400Y-93393427D02*
X181815162Y-93345808D01*
X181815162Y-93345808D02*
X181624686Y-93345808D01*
X181624686Y-93345808D02*
X181529448Y-93393427D01*
X181529448Y-93393427D02*
X181481829Y-93441046D01*
X181481829Y-93441046D02*
X181434210Y-93536284D01*
X181434210Y-93536284D02*
X181434210Y-93821998D01*
X181434210Y-93821998D02*
X181481829Y-93917236D01*
X181481829Y-93917236D02*
X181529448Y-93964856D01*
X181529448Y-93964856D02*
X181624686Y-94012475D01*
X181624686Y-94012475D02*
X181815162Y-94012475D01*
X181815162Y-94012475D02*
X181910400Y-93964856D01*
X181100876Y-93345808D02*
X180862781Y-94012475D01*
X180624686Y-93345808D02*
X180862781Y-94012475D01*
X180862781Y-94012475D02*
X180958019Y-94250570D01*
X180958019Y-94250570D02*
X181005638Y-94298189D01*
X181005638Y-94298189D02*
X181100876Y-94345808D01*
X192243734Y-95574800D02*
X192100877Y-95622419D01*
X192100877Y-95622419D02*
X191862782Y-95622419D01*
X191862782Y-95622419D02*
X191767544Y-95574800D01*
X191767544Y-95574800D02*
X191719925Y-95527180D01*
X191719925Y-95527180D02*
X191672306Y-95431942D01*
X191672306Y-95431942D02*
X191672306Y-95336704D01*
X191672306Y-95336704D02*
X191719925Y-95241466D01*
X191719925Y-95241466D02*
X191767544Y-95193847D01*
X191767544Y-95193847D02*
X191862782Y-95146228D01*
X191862782Y-95146228D02*
X192053258Y-95098609D01*
X192053258Y-95098609D02*
X192148496Y-95050990D01*
X192148496Y-95050990D02*
X192196115Y-95003371D01*
X192196115Y-95003371D02*
X192243734Y-94908133D01*
X192243734Y-94908133D02*
X192243734Y-94812895D01*
X192243734Y-94812895D02*
X192196115Y-94717657D01*
X192196115Y-94717657D02*
X192148496Y-94670038D01*
X192148496Y-94670038D02*
X192053258Y-94622419D01*
X192053258Y-94622419D02*
X191815163Y-94622419D01*
X191815163Y-94622419D02*
X191672306Y-94670038D01*
X190862782Y-95574800D02*
X190958020Y-95622419D01*
X190958020Y-95622419D02*
X191148496Y-95622419D01*
X191148496Y-95622419D02*
X191243734Y-95574800D01*
X191243734Y-95574800D02*
X191291353Y-95479561D01*
X191291353Y-95479561D02*
X191291353Y-95098609D01*
X191291353Y-95098609D02*
X191243734Y-95003371D01*
X191243734Y-95003371D02*
X191148496Y-94955752D01*
X191148496Y-94955752D02*
X190958020Y-94955752D01*
X190958020Y-94955752D02*
X190862782Y-95003371D01*
X190862782Y-95003371D02*
X190815163Y-95098609D01*
X190815163Y-95098609D02*
X190815163Y-95193847D01*
X190815163Y-95193847D02*
X191291353Y-95289085D01*
X190386591Y-95622419D02*
X190386591Y-94955752D01*
X190386591Y-94622419D02*
X190434210Y-94670038D01*
X190434210Y-94670038D02*
X190386591Y-94717657D01*
X190386591Y-94717657D02*
X190338972Y-94670038D01*
X190338972Y-94670038D02*
X190386591Y-94622419D01*
X190386591Y-94622419D02*
X190386591Y-94717657D01*
X190053258Y-94955752D02*
X189672306Y-94955752D01*
X189910401Y-95622419D02*
X189910401Y-94765276D01*
X189910401Y-94765276D02*
X189862782Y-94670038D01*
X189862782Y-94670038D02*
X189767544Y-94622419D01*
X189767544Y-94622419D02*
X189672306Y-94622419D01*
X188624686Y-95336704D02*
X188148496Y-95336704D01*
X188719924Y-95622419D02*
X188386591Y-94622419D01*
X188386591Y-94622419D02*
X188053258Y-95622419D01*
X187719924Y-95622419D02*
X187719924Y-94622419D01*
X187291353Y-95622419D02*
X187291353Y-95098609D01*
X187291353Y-95098609D02*
X187338972Y-95003371D01*
X187338972Y-95003371D02*
X187434210Y-94955752D01*
X187434210Y-94955752D02*
X187577067Y-94955752D01*
X187577067Y-94955752D02*
X187672305Y-95003371D01*
X187672305Y-95003371D02*
X187719924Y-95050990D01*
X186815162Y-95622419D02*
X186815162Y-94955752D01*
X186815162Y-95050990D02*
X186767543Y-95003371D01*
X186767543Y-95003371D02*
X186672305Y-94955752D01*
X186672305Y-94955752D02*
X186529448Y-94955752D01*
X186529448Y-94955752D02*
X186434210Y-95003371D01*
X186434210Y-95003371D02*
X186386591Y-95098609D01*
X186386591Y-95098609D02*
X186386591Y-95622419D01*
X186386591Y-95098609D02*
X186338972Y-95003371D01*
X186338972Y-95003371D02*
X186243734Y-94955752D01*
X186243734Y-94955752D02*
X186100877Y-94955752D01*
X186100877Y-94955752D02*
X186005638Y-95003371D01*
X186005638Y-95003371D02*
X185958019Y-95098609D01*
X185958019Y-95098609D02*
X185958019Y-95622419D01*
X185100877Y-95574800D02*
X185196115Y-95622419D01*
X185196115Y-95622419D02*
X185386591Y-95622419D01*
X185386591Y-95622419D02*
X185481829Y-95574800D01*
X185481829Y-95574800D02*
X185529448Y-95479561D01*
X185529448Y-95479561D02*
X185529448Y-95098609D01*
X185529448Y-95098609D02*
X185481829Y-95003371D01*
X185481829Y-95003371D02*
X185386591Y-94955752D01*
X185386591Y-94955752D02*
X185196115Y-94955752D01*
X185196115Y-94955752D02*
X185100877Y-95003371D01*
X185100877Y-95003371D02*
X185053258Y-95098609D01*
X185053258Y-95098609D02*
X185053258Y-95193847D01*
X185053258Y-95193847D02*
X185529448Y-95289085D01*
X184196115Y-95622419D02*
X184196115Y-94622419D01*
X184196115Y-95574800D02*
X184291353Y-95622419D01*
X184291353Y-95622419D02*
X184481829Y-95622419D01*
X184481829Y-95622419D02*
X184577067Y-95574800D01*
X184577067Y-95574800D02*
X184624686Y-95527180D01*
X184624686Y-95527180D02*
X184672305Y-95431942D01*
X184672305Y-95431942D02*
X184672305Y-95146228D01*
X184672305Y-95146228D02*
X184624686Y-95050990D01*
X184624686Y-95050990D02*
X184577067Y-95003371D01*
X184577067Y-95003371D02*
X184481829Y-94955752D01*
X184481829Y-94955752D02*
X184291353Y-94955752D01*
X184291353Y-94955752D02*
X184196115Y-95003371D01*
D10*
X212880702Y-114910173D02*
X213114035Y-114576840D01*
X213280702Y-114910173D02*
X213280702Y-114210173D01*
X213280702Y-114210173D02*
X213014035Y-114210173D01*
X213014035Y-114210173D02*
X212947369Y-114243506D01*
X212947369Y-114243506D02*
X212914035Y-114276840D01*
X212914035Y-114276840D02*
X212880702Y-114343506D01*
X212880702Y-114343506D02*
X212880702Y-114443506D01*
X212880702Y-114443506D02*
X212914035Y-114510173D01*
X212914035Y-114510173D02*
X212947369Y-114543506D01*
X212947369Y-114543506D02*
X213014035Y-114576840D01*
X213014035Y-114576840D02*
X213280702Y-114576840D01*
X212580702Y-114543506D02*
X212347369Y-114543506D01*
X212247369Y-114910173D02*
X212580702Y-114910173D01*
X212580702Y-114910173D02*
X212580702Y-114210173D01*
X212580702Y-114210173D02*
X212247369Y-114210173D01*
X211980702Y-114876840D02*
X211880702Y-114910173D01*
X211880702Y-114910173D02*
X211714036Y-114910173D01*
X211714036Y-114910173D02*
X211647369Y-114876840D01*
X211647369Y-114876840D02*
X211614036Y-114843506D01*
X211614036Y-114843506D02*
X211580702Y-114776840D01*
X211580702Y-114776840D02*
X211580702Y-114710173D01*
X211580702Y-114710173D02*
X211614036Y-114643506D01*
X211614036Y-114643506D02*
X211647369Y-114610173D01*
X211647369Y-114610173D02*
X211714036Y-114576840D01*
X211714036Y-114576840D02*
X211847369Y-114543506D01*
X211847369Y-114543506D02*
X211914036Y-114510173D01*
X211914036Y-114510173D02*
X211947369Y-114476840D01*
X211947369Y-114476840D02*
X211980702Y-114410173D01*
X211980702Y-114410173D02*
X211980702Y-114343506D01*
X211980702Y-114343506D02*
X211947369Y-114276840D01*
X211947369Y-114276840D02*
X211914036Y-114243506D01*
X211914036Y-114243506D02*
X211847369Y-114210173D01*
X211847369Y-114210173D02*
X211680702Y-114210173D01*
X211680702Y-114210173D02*
X211580702Y-114243506D01*
X211280702Y-114543506D02*
X211047369Y-114543506D01*
X210947369Y-114910173D02*
X211280702Y-114910173D01*
X211280702Y-114910173D02*
X211280702Y-114210173D01*
X211280702Y-114210173D02*
X210947369Y-114210173D01*
X210747369Y-114210173D02*
X210347369Y-114210173D01*
X210547369Y-114910173D02*
X210547369Y-114210173D01*
M02*
