%TF.GenerationSoftware,KiCad,Pcbnew,9.0.1*%
%TF.CreationDate,2025-10-21T23:30:21+03:00*%
%TF.ProjectId,MCU DataLogger,4d435520-4461-4746-914c-6f676765722e,1*%
%TF.SameCoordinates,Original*%
%TF.FileFunction,Plated,1,2,PTH,Drill*%
%TF.FilePolarity,Positive*%
%FSLAX46Y46*%
G04 Gerber Fmt 4.6, Leading zero omitted, Abs format (unit mm)*
G04 Created by KiCad (PCBNEW 9.0.1) date 2025-10-21 23:30:21*
%MOMM*%
%LPD*%
G01*
G04 APERTURE LIST*
%TA.AperFunction,ViaDrill*%
%ADD10C,0.300000*%
%TD*%
%TA.AperFunction,ComponentDrill*%
%ADD11C,1.000000*%
%TD*%
G04 APERTURE END LIST*
D10*
X182626000Y-106291001D03*
X186000000Y-104595000D03*
X187000000Y-91750000D03*
X190000000Y-96500000D03*
X191000000Y-101750000D03*
X192500000Y-92000000D03*
X193250000Y-100500000D03*
X193750000Y-92000000D03*
X195044420Y-93294420D03*
X195130000Y-94630000D03*
X198000000Y-89750000D03*
X198250000Y-94500000D03*
X198500000Y-98250000D03*
X199500000Y-98250000D03*
X200000000Y-95500000D03*
X200750000Y-105000000D03*
X203500000Y-93750000D03*
X204500000Y-93750000D03*
X205000000Y-90750000D03*
X207500000Y-98500000D03*
X211000000Y-107500000D03*
X211250000Y-101500000D03*
X212500000Y-92500000D03*
X220000000Y-107500000D03*
D11*
%TO.C,Battery*%
X176750000Y-98725000D03*
X176750000Y-101265000D03*
%TO.C,GPIO*%
X183340000Y-113000000D03*
X185880000Y-113000000D03*
X188420000Y-113000000D03*
X190960000Y-113000000D03*
X193500000Y-113000000D03*
X196040000Y-113000000D03*
%TO.C,I2C*%
X196190000Y-87000000D03*
%TO.C,GPIO*%
X198580000Y-113000000D03*
%TO.C,I2C*%
X198730000Y-87000000D03*
%TO.C,GPIO*%
X201120000Y-113000000D03*
%TO.C,I2C*%
X201270000Y-87000000D03*
%TO.C,GPIO*%
X203660000Y-113000000D03*
%TO.C,I2C*%
X203810000Y-87000000D03*
%TO.C,SERIAL*%
X209190000Y-87000000D03*
%TO.C,ICSP*%
X209710000Y-110485000D03*
X209710000Y-113025000D03*
%TO.C,SERIAL*%
X211730000Y-87000000D03*
%TO.C,ICSP*%
X212250000Y-110485000D03*
X212250000Y-113025000D03*
%TO.C,SERIAL*%
X214270000Y-87000000D03*
%TO.C,ICSP*%
X214790000Y-110485000D03*
X214790000Y-113025000D03*
%TO.C,SERIAL*%
X216810000Y-87000000D03*
M02*
