%TF.GenerationSoftware,KiCad,Pcbnew,9.0.1*%
%TF.CreationDate,2025-08-07T19:45:49+03:00*%
%TF.ProjectId,BreadBoard_PowerSupply,42726561-6442-46f6-9172-645f506f7765,rev?*%
%TF.SameCoordinates,Original*%
%TF.FileFunction,Plated,1,2,PTH,Mixed*%
%TF.FilePolarity,Positive*%
%FSLAX46Y46*%
G04 Gerber Fmt 4.6, Leading zero omitted, Abs format (unit mm)*
G04 Created by KiCad (PCBNEW 9.0.1) date 2025-08-07 19:45:49*
%MOMM*%
%LPD*%
G01*
G04 APERTURE LIST*
%TA.AperFunction,ComponentDrill*%
%ADD10C,0.700000*%
%TD*%
%TA.AperFunction,ComponentDrill*%
%ADD11C,0.800000*%
%TD*%
%TA.AperFunction,ComponentDrill*%
%ADD12C,0.900000*%
%TD*%
G04 aperture for slot hole*
%TA.AperFunction,ComponentDrill*%
%ADD13C,1.000000*%
%TD*%
%TA.AperFunction,ComponentDrill*%
%ADD14C,1.000000*%
%TD*%
%TA.AperFunction,ComponentDrill*%
%ADD15C,1.100000*%
%TD*%
%TA.AperFunction,ComponentDrill*%
%ADD16C,1.520000*%
%TD*%
G04 APERTURE END LIST*
D10*
%TO.C,R1*%
X60000000Y-88190000D03*
X60000000Y-95810000D03*
%TO.C,R2*%
X66000000Y-88190000D03*
X66000000Y-95810000D03*
%TO.C,R3*%
X72000000Y-88190000D03*
X72000000Y-95810000D03*
D11*
%TO.C,C1*%
X67750000Y-101000000D03*
%TO.C,C2*%
X67750000Y-106500000D03*
%TO.C,C3*%
X67750000Y-112000000D03*
%TO.C,C1*%
X70250000Y-101000000D03*
%TO.C,C2*%
X70250000Y-106500000D03*
%TO.C,C3*%
X70250000Y-112000000D03*
D12*
%TO.C,S1*%
X63000000Y-76880000D03*
X63000000Y-79380000D03*
X63000000Y-81880000D03*
%TO.C,D1*%
X81000000Y-87235000D03*
X81000000Y-89775000D03*
D13*
%TO.C,J6*%
X65000000Y-66500000D02*
X65000000Y-64500000D01*
X69000000Y-70200000D02*
X67000000Y-70200000D01*
X71000000Y-66500000D02*
X71000000Y-64500000D01*
D14*
%TO.C,J3*%
X82500000Y-73960000D03*
X82500000Y-76500000D03*
X82500000Y-79040000D03*
%TO.C,J4*%
X82500000Y-96960000D03*
X82500000Y-99500000D03*
X82500000Y-102040000D03*
%TO.C,J1*%
X89000000Y-63685000D03*
X89000000Y-66225000D03*
%TO.C,J2*%
X89000000Y-109500000D03*
X89000000Y-112040000D03*
D15*
%TO.C,U1*%
X60305000Y-102960000D03*
X60305000Y-105500000D03*
X60305000Y-108040000D03*
%TO.C,U2*%
X72055000Y-77000000D03*
X72055000Y-79540000D03*
X72055000Y-82080000D03*
D16*
%TO.C,J5*%
X76960000Y-66500000D03*
%TO.C,J7*%
X76960000Y-109500000D03*
%TO.C,J5*%
X82040000Y-66500000D03*
%TO.C,J7*%
X82040000Y-109500000D03*
M02*
