%TF.GenerationSoftware,KiCad,Pcbnew,9.0.1*%
%TF.CreationDate,2025-08-07T19:45:44+03:00*%
%TF.ProjectId,BreadBoard_PowerSupply,42726561-6442-46f6-9172-645f506f7765,rev?*%
%TF.SameCoordinates,Original*%
%TF.FileFunction,Legend,Top*%
%TF.FilePolarity,Positive*%
%FSLAX46Y46*%
G04 Gerber Fmt 4.6, Leading zero omitted, Abs format (unit mm)*
G04 Created by KiCad (PCBNEW 9.0.1) date 2025-08-07 19:45:44*
%MOMM*%
%LPD*%
G01*
G04 APERTURE LIST*
%ADD10C,0.250000*%
%ADD11C,0.150000*%
%ADD12C,0.100000*%
%ADD13C,0.120000*%
G04 APERTURE END LIST*
D10*
X81926377Y-113912238D02*
X81831139Y-113864619D01*
X81831139Y-113864619D02*
X81688282Y-113864619D01*
X81688282Y-113864619D02*
X81545425Y-113912238D01*
X81545425Y-113912238D02*
X81450187Y-114007476D01*
X81450187Y-114007476D02*
X81402568Y-114102714D01*
X81402568Y-114102714D02*
X81354949Y-114293190D01*
X81354949Y-114293190D02*
X81354949Y-114436047D01*
X81354949Y-114436047D02*
X81402568Y-114626523D01*
X81402568Y-114626523D02*
X81450187Y-114721761D01*
X81450187Y-114721761D02*
X81545425Y-114817000D01*
X81545425Y-114817000D02*
X81688282Y-114864619D01*
X81688282Y-114864619D02*
X81783520Y-114864619D01*
X81783520Y-114864619D02*
X81926377Y-114817000D01*
X81926377Y-114817000D02*
X81973996Y-114769380D01*
X81973996Y-114769380D02*
X81973996Y-114436047D01*
X81973996Y-114436047D02*
X81783520Y-114436047D01*
X82402568Y-114864619D02*
X82402568Y-113864619D01*
X82402568Y-113864619D02*
X82973996Y-114864619D01*
X82973996Y-114864619D02*
X82973996Y-113864619D01*
X83450187Y-114864619D02*
X83450187Y-113864619D01*
X83450187Y-113864619D02*
X83688282Y-113864619D01*
X83688282Y-113864619D02*
X83831139Y-113912238D01*
X83831139Y-113912238D02*
X83926377Y-114007476D01*
X83926377Y-114007476D02*
X83973996Y-114102714D01*
X83973996Y-114102714D02*
X84021615Y-114293190D01*
X84021615Y-114293190D02*
X84021615Y-114436047D01*
X84021615Y-114436047D02*
X83973996Y-114626523D01*
X83973996Y-114626523D02*
X83926377Y-114721761D01*
X83926377Y-114721761D02*
X83831139Y-114817000D01*
X83831139Y-114817000D02*
X83688282Y-114864619D01*
X83688282Y-114864619D02*
X83450187Y-114864619D01*
X76807330Y-78364619D02*
X77426377Y-78364619D01*
X77426377Y-78364619D02*
X77093044Y-78745571D01*
X77093044Y-78745571D02*
X77235901Y-78745571D01*
X77235901Y-78745571D02*
X77331139Y-78793190D01*
X77331139Y-78793190D02*
X77378758Y-78840809D01*
X77378758Y-78840809D02*
X77426377Y-78936047D01*
X77426377Y-78936047D02*
X77426377Y-79174142D01*
X77426377Y-79174142D02*
X77378758Y-79269380D01*
X77378758Y-79269380D02*
X77331139Y-79317000D01*
X77331139Y-79317000D02*
X77235901Y-79364619D01*
X77235901Y-79364619D02*
X76950187Y-79364619D01*
X76950187Y-79364619D02*
X76854949Y-79317000D01*
X76854949Y-79317000D02*
X76807330Y-79269380D01*
X77854949Y-79269380D02*
X77902568Y-79317000D01*
X77902568Y-79317000D02*
X77854949Y-79364619D01*
X77854949Y-79364619D02*
X77807330Y-79317000D01*
X77807330Y-79317000D02*
X77854949Y-79269380D01*
X77854949Y-79269380D02*
X77854949Y-79364619D01*
X78235901Y-78364619D02*
X78854948Y-78364619D01*
X78854948Y-78364619D02*
X78521615Y-78745571D01*
X78521615Y-78745571D02*
X78664472Y-78745571D01*
X78664472Y-78745571D02*
X78759710Y-78793190D01*
X78759710Y-78793190D02*
X78807329Y-78840809D01*
X78807329Y-78840809D02*
X78854948Y-78936047D01*
X78854948Y-78936047D02*
X78854948Y-79174142D01*
X78854948Y-79174142D02*
X78807329Y-79269380D01*
X78807329Y-79269380D02*
X78759710Y-79317000D01*
X78759710Y-79317000D02*
X78664472Y-79364619D01*
X78664472Y-79364619D02*
X78378758Y-79364619D01*
X78378758Y-79364619D02*
X78283520Y-79317000D01*
X78283520Y-79317000D02*
X78235901Y-79269380D01*
X79902568Y-78364619D02*
X80235901Y-79364619D01*
X80235901Y-79364619D02*
X80569234Y-78364619D01*
X85412238Y-110073622D02*
X85364619Y-110168860D01*
X85364619Y-110168860D02*
X85364619Y-110311717D01*
X85364619Y-110311717D02*
X85412238Y-110454574D01*
X85412238Y-110454574D02*
X85507476Y-110549812D01*
X85507476Y-110549812D02*
X85602714Y-110597431D01*
X85602714Y-110597431D02*
X85793190Y-110645050D01*
X85793190Y-110645050D02*
X85936047Y-110645050D01*
X85936047Y-110645050D02*
X86126523Y-110597431D01*
X86126523Y-110597431D02*
X86221761Y-110549812D01*
X86221761Y-110549812D02*
X86317000Y-110454574D01*
X86317000Y-110454574D02*
X86364619Y-110311717D01*
X86364619Y-110311717D02*
X86364619Y-110216479D01*
X86364619Y-110216479D02*
X86317000Y-110073622D01*
X86317000Y-110073622D02*
X86269380Y-110026003D01*
X86269380Y-110026003D02*
X85936047Y-110026003D01*
X85936047Y-110026003D02*
X85936047Y-110216479D01*
X86364619Y-109597431D02*
X85364619Y-109597431D01*
X85364619Y-109597431D02*
X86364619Y-109026003D01*
X86364619Y-109026003D02*
X85364619Y-109026003D01*
X86364619Y-108549812D02*
X85364619Y-108549812D01*
X85364619Y-108549812D02*
X85364619Y-108311717D01*
X85364619Y-108311717D02*
X85412238Y-108168860D01*
X85412238Y-108168860D02*
X85507476Y-108073622D01*
X85507476Y-108073622D02*
X85602714Y-108026003D01*
X85602714Y-108026003D02*
X85793190Y-107978384D01*
X85793190Y-107978384D02*
X85936047Y-107978384D01*
X85936047Y-107978384D02*
X86126523Y-108026003D01*
X86126523Y-108026003D02*
X86221761Y-108073622D01*
X86221761Y-108073622D02*
X86317000Y-108168860D01*
X86317000Y-108168860D02*
X86364619Y-108311717D01*
X86364619Y-108311717D02*
X86364619Y-108549812D01*
X75926377Y-71412238D02*
X75831139Y-71364619D01*
X75831139Y-71364619D02*
X75688282Y-71364619D01*
X75688282Y-71364619D02*
X75545425Y-71412238D01*
X75545425Y-71412238D02*
X75450187Y-71507476D01*
X75450187Y-71507476D02*
X75402568Y-71602714D01*
X75402568Y-71602714D02*
X75354949Y-71793190D01*
X75354949Y-71793190D02*
X75354949Y-71936047D01*
X75354949Y-71936047D02*
X75402568Y-72126523D01*
X75402568Y-72126523D02*
X75450187Y-72221761D01*
X75450187Y-72221761D02*
X75545425Y-72317000D01*
X75545425Y-72317000D02*
X75688282Y-72364619D01*
X75688282Y-72364619D02*
X75783520Y-72364619D01*
X75783520Y-72364619D02*
X75926377Y-72317000D01*
X75926377Y-72317000D02*
X75973996Y-72269380D01*
X75973996Y-72269380D02*
X75973996Y-71936047D01*
X75973996Y-71936047D02*
X75783520Y-71936047D01*
X76402568Y-72364619D02*
X76402568Y-71364619D01*
X76402568Y-71364619D02*
X76973996Y-72364619D01*
X76973996Y-72364619D02*
X76973996Y-71364619D01*
X77450187Y-72364619D02*
X77450187Y-71364619D01*
X77450187Y-71364619D02*
X77688282Y-71364619D01*
X77688282Y-71364619D02*
X77831139Y-71412238D01*
X77831139Y-71412238D02*
X77926377Y-71507476D01*
X77926377Y-71507476D02*
X77973996Y-71602714D01*
X77973996Y-71602714D02*
X78021615Y-71793190D01*
X78021615Y-71793190D02*
X78021615Y-71936047D01*
X78021615Y-71936047D02*
X77973996Y-72126523D01*
X77973996Y-72126523D02*
X77926377Y-72221761D01*
X77926377Y-72221761D02*
X77831139Y-72317000D01*
X77831139Y-72317000D02*
X77688282Y-72364619D01*
X77688282Y-72364619D02*
X77450187Y-72364619D01*
X78378758Y-73364619D02*
X77902568Y-73364619D01*
X77902568Y-73364619D02*
X77854949Y-73840809D01*
X77854949Y-73840809D02*
X77902568Y-73793190D01*
X77902568Y-73793190D02*
X77997806Y-73745571D01*
X77997806Y-73745571D02*
X78235901Y-73745571D01*
X78235901Y-73745571D02*
X78331139Y-73793190D01*
X78331139Y-73793190D02*
X78378758Y-73840809D01*
X78378758Y-73840809D02*
X78426377Y-73936047D01*
X78426377Y-73936047D02*
X78426377Y-74174142D01*
X78426377Y-74174142D02*
X78378758Y-74269380D01*
X78378758Y-74269380D02*
X78331139Y-74317000D01*
X78331139Y-74317000D02*
X78235901Y-74364619D01*
X78235901Y-74364619D02*
X77997806Y-74364619D01*
X77997806Y-74364619D02*
X77902568Y-74317000D01*
X77902568Y-74317000D02*
X77854949Y-74269380D01*
X79473997Y-73364619D02*
X79807330Y-74364619D01*
X79807330Y-74364619D02*
X80140663Y-73364619D01*
X77878758Y-101364619D02*
X77402568Y-101364619D01*
X77402568Y-101364619D02*
X77354949Y-101840809D01*
X77354949Y-101840809D02*
X77402568Y-101793190D01*
X77402568Y-101793190D02*
X77497806Y-101745571D01*
X77497806Y-101745571D02*
X77735901Y-101745571D01*
X77735901Y-101745571D02*
X77831139Y-101793190D01*
X77831139Y-101793190D02*
X77878758Y-101840809D01*
X77878758Y-101840809D02*
X77926377Y-101936047D01*
X77926377Y-101936047D02*
X77926377Y-102174142D01*
X77926377Y-102174142D02*
X77878758Y-102269380D01*
X77878758Y-102269380D02*
X77831139Y-102317000D01*
X77831139Y-102317000D02*
X77735901Y-102364619D01*
X77735901Y-102364619D02*
X77497806Y-102364619D01*
X77497806Y-102364619D02*
X77402568Y-102317000D01*
X77402568Y-102317000D02*
X77354949Y-102269380D01*
X78973997Y-101364619D02*
X79307330Y-102364619D01*
X79307330Y-102364619D02*
X79640663Y-101364619D01*
X76307330Y-96364619D02*
X76926377Y-96364619D01*
X76926377Y-96364619D02*
X76593044Y-96745571D01*
X76593044Y-96745571D02*
X76735901Y-96745571D01*
X76735901Y-96745571D02*
X76831139Y-96793190D01*
X76831139Y-96793190D02*
X76878758Y-96840809D01*
X76878758Y-96840809D02*
X76926377Y-96936047D01*
X76926377Y-96936047D02*
X76926377Y-97174142D01*
X76926377Y-97174142D02*
X76878758Y-97269380D01*
X76878758Y-97269380D02*
X76831139Y-97317000D01*
X76831139Y-97317000D02*
X76735901Y-97364619D01*
X76735901Y-97364619D02*
X76450187Y-97364619D01*
X76450187Y-97364619D02*
X76354949Y-97317000D01*
X76354949Y-97317000D02*
X76307330Y-97269380D01*
X77354949Y-97269380D02*
X77402568Y-97317000D01*
X77402568Y-97317000D02*
X77354949Y-97364619D01*
X77354949Y-97364619D02*
X77307330Y-97317000D01*
X77307330Y-97317000D02*
X77354949Y-97269380D01*
X77354949Y-97269380D02*
X77354949Y-97364619D01*
X77735901Y-96364619D02*
X78354948Y-96364619D01*
X78354948Y-96364619D02*
X78021615Y-96745571D01*
X78021615Y-96745571D02*
X78164472Y-96745571D01*
X78164472Y-96745571D02*
X78259710Y-96793190D01*
X78259710Y-96793190D02*
X78307329Y-96840809D01*
X78307329Y-96840809D02*
X78354948Y-96936047D01*
X78354948Y-96936047D02*
X78354948Y-97174142D01*
X78354948Y-97174142D02*
X78307329Y-97269380D01*
X78307329Y-97269380D02*
X78259710Y-97317000D01*
X78259710Y-97317000D02*
X78164472Y-97364619D01*
X78164472Y-97364619D02*
X77878758Y-97364619D01*
X77878758Y-97364619D02*
X77783520Y-97317000D01*
X77783520Y-97317000D02*
X77735901Y-97269380D01*
X79402568Y-96364619D02*
X79735901Y-97364619D01*
X79735901Y-97364619D02*
X80069234Y-96364619D01*
X85912238Y-67073622D02*
X85864619Y-67168860D01*
X85864619Y-67168860D02*
X85864619Y-67311717D01*
X85864619Y-67311717D02*
X85912238Y-67454574D01*
X85912238Y-67454574D02*
X86007476Y-67549812D01*
X86007476Y-67549812D02*
X86102714Y-67597431D01*
X86102714Y-67597431D02*
X86293190Y-67645050D01*
X86293190Y-67645050D02*
X86436047Y-67645050D01*
X86436047Y-67645050D02*
X86626523Y-67597431D01*
X86626523Y-67597431D02*
X86721761Y-67549812D01*
X86721761Y-67549812D02*
X86817000Y-67454574D01*
X86817000Y-67454574D02*
X86864619Y-67311717D01*
X86864619Y-67311717D02*
X86864619Y-67216479D01*
X86864619Y-67216479D02*
X86817000Y-67073622D01*
X86817000Y-67073622D02*
X86769380Y-67026003D01*
X86769380Y-67026003D02*
X86436047Y-67026003D01*
X86436047Y-67026003D02*
X86436047Y-67216479D01*
X86864619Y-66597431D02*
X85864619Y-66597431D01*
X85864619Y-66597431D02*
X86864619Y-66026003D01*
X86864619Y-66026003D02*
X85864619Y-66026003D01*
X86864619Y-65549812D02*
X85864619Y-65549812D01*
X85864619Y-65549812D02*
X85864619Y-65311717D01*
X85864619Y-65311717D02*
X85912238Y-65168860D01*
X85912238Y-65168860D02*
X86007476Y-65073622D01*
X86007476Y-65073622D02*
X86102714Y-65026003D01*
X86102714Y-65026003D02*
X86293190Y-64978384D01*
X86293190Y-64978384D02*
X86436047Y-64978384D01*
X86436047Y-64978384D02*
X86626523Y-65026003D01*
X86626523Y-65026003D02*
X86721761Y-65073622D01*
X86721761Y-65073622D02*
X86817000Y-65168860D01*
X86817000Y-65168860D02*
X86864619Y-65311717D01*
X86864619Y-65311717D02*
X86864619Y-65549812D01*
D11*
X66407200Y-80261904D02*
X66454819Y-80119047D01*
X66454819Y-80119047D02*
X66454819Y-79880952D01*
X66454819Y-79880952D02*
X66407200Y-79785714D01*
X66407200Y-79785714D02*
X66359580Y-79738095D01*
X66359580Y-79738095D02*
X66264342Y-79690476D01*
X66264342Y-79690476D02*
X66169104Y-79690476D01*
X66169104Y-79690476D02*
X66073866Y-79738095D01*
X66073866Y-79738095D02*
X66026247Y-79785714D01*
X66026247Y-79785714D02*
X65978628Y-79880952D01*
X65978628Y-79880952D02*
X65931009Y-80071428D01*
X65931009Y-80071428D02*
X65883390Y-80166666D01*
X65883390Y-80166666D02*
X65835771Y-80214285D01*
X65835771Y-80214285D02*
X65740533Y-80261904D01*
X65740533Y-80261904D02*
X65645295Y-80261904D01*
X65645295Y-80261904D02*
X65550057Y-80214285D01*
X65550057Y-80214285D02*
X65502438Y-80166666D01*
X65502438Y-80166666D02*
X65454819Y-80071428D01*
X65454819Y-80071428D02*
X65454819Y-79833333D01*
X65454819Y-79833333D02*
X65502438Y-79690476D01*
X66454819Y-78738095D02*
X66454819Y-79309523D01*
X66454819Y-79023809D02*
X65454819Y-79023809D01*
X65454819Y-79023809D02*
X65597676Y-79119047D01*
X65597676Y-79119047D02*
X65692914Y-79214285D01*
X65692914Y-79214285D02*
X65740533Y-79309523D01*
X59431009Y-82389047D02*
X59431009Y-82055714D01*
X59954819Y-81912857D02*
X59954819Y-82389047D01*
X59954819Y-82389047D02*
X58954819Y-82389047D01*
X58954819Y-82389047D02*
X58954819Y-81912857D01*
X59002438Y-80960476D02*
X58954819Y-81055714D01*
X58954819Y-81055714D02*
X58954819Y-81198571D01*
X58954819Y-81198571D02*
X59002438Y-81341428D01*
X59002438Y-81341428D02*
X59097676Y-81436666D01*
X59097676Y-81436666D02*
X59192914Y-81484285D01*
X59192914Y-81484285D02*
X59383390Y-81531904D01*
X59383390Y-81531904D02*
X59526247Y-81531904D01*
X59526247Y-81531904D02*
X59716723Y-81484285D01*
X59716723Y-81484285D02*
X59811961Y-81436666D01*
X59811961Y-81436666D02*
X59907200Y-81341428D01*
X59907200Y-81341428D02*
X59954819Y-81198571D01*
X59954819Y-81198571D02*
X59954819Y-81103333D01*
X59954819Y-81103333D02*
X59907200Y-80960476D01*
X59907200Y-80960476D02*
X59859580Y-80912857D01*
X59859580Y-80912857D02*
X59526247Y-80912857D01*
X59526247Y-80912857D02*
X59526247Y-81103333D01*
X59954819Y-79960476D02*
X59954819Y-80531904D01*
X59954819Y-80246190D02*
X58954819Y-80246190D01*
X58954819Y-80246190D02*
X59097676Y-80341428D01*
X59097676Y-80341428D02*
X59192914Y-80436666D01*
X59192914Y-80436666D02*
X59240533Y-80531904D01*
X59050057Y-79579523D02*
X59002438Y-79531904D01*
X59002438Y-79531904D02*
X58954819Y-79436666D01*
X58954819Y-79436666D02*
X58954819Y-79198571D01*
X58954819Y-79198571D02*
X59002438Y-79103333D01*
X59002438Y-79103333D02*
X59050057Y-79055714D01*
X59050057Y-79055714D02*
X59145295Y-79008095D01*
X59145295Y-79008095D02*
X59240533Y-79008095D01*
X59240533Y-79008095D02*
X59383390Y-79055714D01*
X59383390Y-79055714D02*
X59954819Y-79627142D01*
X59954819Y-79627142D02*
X59954819Y-79008095D01*
X59954819Y-78055714D02*
X59954819Y-78627142D01*
X59954819Y-78341428D02*
X58954819Y-78341428D01*
X58954819Y-78341428D02*
X59097676Y-78436666D01*
X59097676Y-78436666D02*
X59192914Y-78531904D01*
X59192914Y-78531904D02*
X59240533Y-78627142D01*
X59383390Y-77484285D02*
X59335771Y-77579523D01*
X59335771Y-77579523D02*
X59288152Y-77627142D01*
X59288152Y-77627142D02*
X59192914Y-77674761D01*
X59192914Y-77674761D02*
X59145295Y-77674761D01*
X59145295Y-77674761D02*
X59050057Y-77627142D01*
X59050057Y-77627142D02*
X59002438Y-77579523D01*
X59002438Y-77579523D02*
X58954819Y-77484285D01*
X58954819Y-77484285D02*
X58954819Y-77293809D01*
X58954819Y-77293809D02*
X59002438Y-77198571D01*
X59002438Y-77198571D02*
X59050057Y-77150952D01*
X59050057Y-77150952D02*
X59145295Y-77103333D01*
X59145295Y-77103333D02*
X59192914Y-77103333D01*
X59192914Y-77103333D02*
X59288152Y-77150952D01*
X59288152Y-77150952D02*
X59335771Y-77198571D01*
X59335771Y-77198571D02*
X59383390Y-77293809D01*
X59383390Y-77293809D02*
X59383390Y-77484285D01*
X59383390Y-77484285D02*
X59431009Y-77579523D01*
X59431009Y-77579523D02*
X59478628Y-77627142D01*
X59478628Y-77627142D02*
X59573866Y-77674761D01*
X59573866Y-77674761D02*
X59764342Y-77674761D01*
X59764342Y-77674761D02*
X59859580Y-77627142D01*
X59859580Y-77627142D02*
X59907200Y-77579523D01*
X59907200Y-77579523D02*
X59954819Y-77484285D01*
X59954819Y-77484285D02*
X59954819Y-77293809D01*
X59954819Y-77293809D02*
X59907200Y-77198571D01*
X59907200Y-77198571D02*
X59859580Y-77150952D01*
X59859580Y-77150952D02*
X59764342Y-77103333D01*
X59764342Y-77103333D02*
X59573866Y-77103333D01*
X59573866Y-77103333D02*
X59478628Y-77150952D01*
X59478628Y-77150952D02*
X59431009Y-77198571D01*
X59431009Y-77198571D02*
X59383390Y-77293809D01*
X82166666Y-94034819D02*
X82166666Y-94749104D01*
X82166666Y-94749104D02*
X82119047Y-94891961D01*
X82119047Y-94891961D02*
X82023809Y-94987200D01*
X82023809Y-94987200D02*
X81880952Y-95034819D01*
X81880952Y-95034819D02*
X81785714Y-95034819D01*
X83071428Y-94368152D02*
X83071428Y-95034819D01*
X82833333Y-93987200D02*
X82595238Y-94701485D01*
X82595238Y-94701485D02*
X83214285Y-94701485D01*
X82166666Y-80874819D02*
X82166666Y-81589104D01*
X82166666Y-81589104D02*
X82119047Y-81731961D01*
X82119047Y-81731961D02*
X82023809Y-81827200D01*
X82023809Y-81827200D02*
X81880952Y-81874819D01*
X81880952Y-81874819D02*
X81785714Y-81874819D01*
X82547619Y-80874819D02*
X83166666Y-80874819D01*
X83166666Y-80874819D02*
X82833333Y-81255771D01*
X82833333Y-81255771D02*
X82976190Y-81255771D01*
X82976190Y-81255771D02*
X83071428Y-81303390D01*
X83071428Y-81303390D02*
X83119047Y-81351009D01*
X83119047Y-81351009D02*
X83166666Y-81446247D01*
X83166666Y-81446247D02*
X83166666Y-81684342D01*
X83166666Y-81684342D02*
X83119047Y-81779580D01*
X83119047Y-81779580D02*
X83071428Y-81827200D01*
X83071428Y-81827200D02*
X82976190Y-81874819D01*
X82976190Y-81874819D02*
X82690476Y-81874819D01*
X82690476Y-81874819D02*
X82595238Y-81827200D01*
X82595238Y-81827200D02*
X82547619Y-81779580D01*
X72333333Y-112359580D02*
X72285714Y-112407200D01*
X72285714Y-112407200D02*
X72142857Y-112454819D01*
X72142857Y-112454819D02*
X72047619Y-112454819D01*
X72047619Y-112454819D02*
X71904762Y-112407200D01*
X71904762Y-112407200D02*
X71809524Y-112311961D01*
X71809524Y-112311961D02*
X71761905Y-112216723D01*
X71761905Y-112216723D02*
X71714286Y-112026247D01*
X71714286Y-112026247D02*
X71714286Y-111883390D01*
X71714286Y-111883390D02*
X71761905Y-111692914D01*
X71761905Y-111692914D02*
X71809524Y-111597676D01*
X71809524Y-111597676D02*
X71904762Y-111502438D01*
X71904762Y-111502438D02*
X72047619Y-111454819D01*
X72047619Y-111454819D02*
X72142857Y-111454819D01*
X72142857Y-111454819D02*
X72285714Y-111502438D01*
X72285714Y-111502438D02*
X72333333Y-111550057D01*
X72666667Y-111454819D02*
X73285714Y-111454819D01*
X73285714Y-111454819D02*
X72952381Y-111835771D01*
X72952381Y-111835771D02*
X73095238Y-111835771D01*
X73095238Y-111835771D02*
X73190476Y-111883390D01*
X73190476Y-111883390D02*
X73238095Y-111931009D01*
X73238095Y-111931009D02*
X73285714Y-112026247D01*
X73285714Y-112026247D02*
X73285714Y-112264342D01*
X73285714Y-112264342D02*
X73238095Y-112359580D01*
X73238095Y-112359580D02*
X73190476Y-112407200D01*
X73190476Y-112407200D02*
X73095238Y-112454819D01*
X73095238Y-112454819D02*
X72809524Y-112454819D01*
X72809524Y-112454819D02*
X72714286Y-112407200D01*
X72714286Y-112407200D02*
X72666667Y-112359580D01*
X67785714Y-113454819D02*
X67880952Y-113454819D01*
X67880952Y-113454819D02*
X67976190Y-113502438D01*
X67976190Y-113502438D02*
X68023809Y-113550057D01*
X68023809Y-113550057D02*
X68071428Y-113645295D01*
X68071428Y-113645295D02*
X68119047Y-113835771D01*
X68119047Y-113835771D02*
X68119047Y-114073866D01*
X68119047Y-114073866D02*
X68071428Y-114264342D01*
X68071428Y-114264342D02*
X68023809Y-114359580D01*
X68023809Y-114359580D02*
X67976190Y-114407200D01*
X67976190Y-114407200D02*
X67880952Y-114454819D01*
X67880952Y-114454819D02*
X67785714Y-114454819D01*
X67785714Y-114454819D02*
X67690476Y-114407200D01*
X67690476Y-114407200D02*
X67642857Y-114359580D01*
X67642857Y-114359580D02*
X67595238Y-114264342D01*
X67595238Y-114264342D02*
X67547619Y-114073866D01*
X67547619Y-114073866D02*
X67547619Y-113835771D01*
X67547619Y-113835771D02*
X67595238Y-113645295D01*
X67595238Y-113645295D02*
X67642857Y-113550057D01*
X67642857Y-113550057D02*
X67690476Y-113502438D01*
X67690476Y-113502438D02*
X67785714Y-113454819D01*
X68547619Y-114359580D02*
X68595238Y-114407200D01*
X68595238Y-114407200D02*
X68547619Y-114454819D01*
X68547619Y-114454819D02*
X68500000Y-114407200D01*
X68500000Y-114407200D02*
X68547619Y-114359580D01*
X68547619Y-114359580D02*
X68547619Y-114454819D01*
X69547618Y-114454819D02*
X68976190Y-114454819D01*
X69261904Y-114454819D02*
X69261904Y-113454819D01*
X69261904Y-113454819D02*
X69166666Y-113597676D01*
X69166666Y-113597676D02*
X69071428Y-113692914D01*
X69071428Y-113692914D02*
X68976190Y-113740533D01*
X70404761Y-113788152D02*
X70404761Y-114454819D01*
X69976190Y-113788152D02*
X69976190Y-114311961D01*
X69976190Y-114311961D02*
X70023809Y-114407200D01*
X70023809Y-114407200D02*
X70119047Y-114454819D01*
X70119047Y-114454819D02*
X70261904Y-114454819D01*
X70261904Y-114454819D02*
X70357142Y-114407200D01*
X70357142Y-114407200D02*
X70404761Y-114359580D01*
X58534819Y-92166666D02*
X58058628Y-92499999D01*
X58534819Y-92738094D02*
X57534819Y-92738094D01*
X57534819Y-92738094D02*
X57534819Y-92357142D01*
X57534819Y-92357142D02*
X57582438Y-92261904D01*
X57582438Y-92261904D02*
X57630057Y-92214285D01*
X57630057Y-92214285D02*
X57725295Y-92166666D01*
X57725295Y-92166666D02*
X57868152Y-92166666D01*
X57868152Y-92166666D02*
X57963390Y-92214285D01*
X57963390Y-92214285D02*
X58011009Y-92261904D01*
X58011009Y-92261904D02*
X58058628Y-92357142D01*
X58058628Y-92357142D02*
X58058628Y-92738094D01*
X58534819Y-91214285D02*
X58534819Y-91785713D01*
X58534819Y-91499999D02*
X57534819Y-91499999D01*
X57534819Y-91499999D02*
X57677676Y-91595237D01*
X57677676Y-91595237D02*
X57772914Y-91690475D01*
X57772914Y-91690475D02*
X57820533Y-91785713D01*
X61374819Y-93285713D02*
X61374819Y-92666666D01*
X61374819Y-92666666D02*
X61755771Y-92999999D01*
X61755771Y-92999999D02*
X61755771Y-92857142D01*
X61755771Y-92857142D02*
X61803390Y-92761904D01*
X61803390Y-92761904D02*
X61851009Y-92714285D01*
X61851009Y-92714285D02*
X61946247Y-92666666D01*
X61946247Y-92666666D02*
X62184342Y-92666666D01*
X62184342Y-92666666D02*
X62279580Y-92714285D01*
X62279580Y-92714285D02*
X62327200Y-92761904D01*
X62327200Y-92761904D02*
X62374819Y-92857142D01*
X62374819Y-92857142D02*
X62374819Y-93142856D01*
X62374819Y-93142856D02*
X62327200Y-93238094D01*
X62327200Y-93238094D02*
X62279580Y-93285713D01*
X61374819Y-92333332D02*
X61374819Y-91714285D01*
X61374819Y-91714285D02*
X61755771Y-92047618D01*
X61755771Y-92047618D02*
X61755771Y-91904761D01*
X61755771Y-91904761D02*
X61803390Y-91809523D01*
X61803390Y-91809523D02*
X61851009Y-91761904D01*
X61851009Y-91761904D02*
X61946247Y-91714285D01*
X61946247Y-91714285D02*
X62184342Y-91714285D01*
X62184342Y-91714285D02*
X62279580Y-91761904D01*
X62279580Y-91761904D02*
X62327200Y-91809523D01*
X62327200Y-91809523D02*
X62374819Y-91904761D01*
X62374819Y-91904761D02*
X62374819Y-92190475D01*
X62374819Y-92190475D02*
X62327200Y-92285713D01*
X62327200Y-92285713D02*
X62279580Y-92333332D01*
X61374819Y-91095237D02*
X61374819Y-90999999D01*
X61374819Y-90999999D02*
X61422438Y-90904761D01*
X61422438Y-90904761D02*
X61470057Y-90857142D01*
X61470057Y-90857142D02*
X61565295Y-90809523D01*
X61565295Y-90809523D02*
X61755771Y-90761904D01*
X61755771Y-90761904D02*
X61993866Y-90761904D01*
X61993866Y-90761904D02*
X62184342Y-90809523D01*
X62184342Y-90809523D02*
X62279580Y-90857142D01*
X62279580Y-90857142D02*
X62327200Y-90904761D01*
X62327200Y-90904761D02*
X62374819Y-90999999D01*
X62374819Y-90999999D02*
X62374819Y-91095237D01*
X62374819Y-91095237D02*
X62327200Y-91190475D01*
X62327200Y-91190475D02*
X62279580Y-91238094D01*
X62279580Y-91238094D02*
X62184342Y-91285713D01*
X62184342Y-91285713D02*
X61993866Y-91333332D01*
X61993866Y-91333332D02*
X61755771Y-91333332D01*
X61755771Y-91333332D02*
X61565295Y-91285713D01*
X61565295Y-91285713D02*
X61470057Y-91238094D01*
X61470057Y-91238094D02*
X61422438Y-91190475D01*
X61422438Y-91190475D02*
X61374819Y-91095237D01*
X72333333Y-101359580D02*
X72285714Y-101407200D01*
X72285714Y-101407200D02*
X72142857Y-101454819D01*
X72142857Y-101454819D02*
X72047619Y-101454819D01*
X72047619Y-101454819D02*
X71904762Y-101407200D01*
X71904762Y-101407200D02*
X71809524Y-101311961D01*
X71809524Y-101311961D02*
X71761905Y-101216723D01*
X71761905Y-101216723D02*
X71714286Y-101026247D01*
X71714286Y-101026247D02*
X71714286Y-100883390D01*
X71714286Y-100883390D02*
X71761905Y-100692914D01*
X71761905Y-100692914D02*
X71809524Y-100597676D01*
X71809524Y-100597676D02*
X71904762Y-100502438D01*
X71904762Y-100502438D02*
X72047619Y-100454819D01*
X72047619Y-100454819D02*
X72142857Y-100454819D01*
X72142857Y-100454819D02*
X72285714Y-100502438D01*
X72285714Y-100502438D02*
X72333333Y-100550057D01*
X73285714Y-101454819D02*
X72714286Y-101454819D01*
X73000000Y-101454819D02*
X73000000Y-100454819D01*
X73000000Y-100454819D02*
X72904762Y-100597676D01*
X72904762Y-100597676D02*
X72809524Y-100692914D01*
X72809524Y-100692914D02*
X72714286Y-100740533D01*
X68357142Y-103504819D02*
X67785714Y-103504819D01*
X68071428Y-103504819D02*
X68071428Y-102504819D01*
X68071428Y-102504819D02*
X67976190Y-102647676D01*
X67976190Y-102647676D02*
X67880952Y-102742914D01*
X67880952Y-102742914D02*
X67785714Y-102790533D01*
X68976190Y-102504819D02*
X69071428Y-102504819D01*
X69071428Y-102504819D02*
X69166666Y-102552438D01*
X69166666Y-102552438D02*
X69214285Y-102600057D01*
X69214285Y-102600057D02*
X69261904Y-102695295D01*
X69261904Y-102695295D02*
X69309523Y-102885771D01*
X69309523Y-102885771D02*
X69309523Y-103123866D01*
X69309523Y-103123866D02*
X69261904Y-103314342D01*
X69261904Y-103314342D02*
X69214285Y-103409580D01*
X69214285Y-103409580D02*
X69166666Y-103457200D01*
X69166666Y-103457200D02*
X69071428Y-103504819D01*
X69071428Y-103504819D02*
X68976190Y-103504819D01*
X68976190Y-103504819D02*
X68880952Y-103457200D01*
X68880952Y-103457200D02*
X68833333Y-103409580D01*
X68833333Y-103409580D02*
X68785714Y-103314342D01*
X68785714Y-103314342D02*
X68738095Y-103123866D01*
X68738095Y-103123866D02*
X68738095Y-102885771D01*
X68738095Y-102885771D02*
X68785714Y-102695295D01*
X68785714Y-102695295D02*
X68833333Y-102600057D01*
X68833333Y-102600057D02*
X68880952Y-102552438D01*
X68880952Y-102552438D02*
X68976190Y-102504819D01*
X70166666Y-102838152D02*
X70166666Y-103504819D01*
X69738095Y-102838152D02*
X69738095Y-103361961D01*
X69738095Y-103361961D02*
X69785714Y-103457200D01*
X69785714Y-103457200D02*
X69880952Y-103504819D01*
X69880952Y-103504819D02*
X70023809Y-103504819D01*
X70023809Y-103504819D02*
X70119047Y-103457200D01*
X70119047Y-103457200D02*
X70166666Y-103409580D01*
X89666666Y-106954819D02*
X89666666Y-107669104D01*
X89666666Y-107669104D02*
X89619047Y-107811961D01*
X89619047Y-107811961D02*
X89523809Y-107907200D01*
X89523809Y-107907200D02*
X89380952Y-107954819D01*
X89380952Y-107954819D02*
X89285714Y-107954819D01*
X90095238Y-107050057D02*
X90142857Y-107002438D01*
X90142857Y-107002438D02*
X90238095Y-106954819D01*
X90238095Y-106954819D02*
X90476190Y-106954819D01*
X90476190Y-106954819D02*
X90571428Y-107002438D01*
X90571428Y-107002438D02*
X90619047Y-107050057D01*
X90619047Y-107050057D02*
X90666666Y-107145295D01*
X90666666Y-107145295D02*
X90666666Y-107240533D01*
X90666666Y-107240533D02*
X90619047Y-107383390D01*
X90619047Y-107383390D02*
X90047619Y-107954819D01*
X90047619Y-107954819D02*
X90666666Y-107954819D01*
X62216666Y-70704819D02*
X62216666Y-71419104D01*
X62216666Y-71419104D02*
X62169047Y-71561961D01*
X62169047Y-71561961D02*
X62073809Y-71657200D01*
X62073809Y-71657200D02*
X61930952Y-71704819D01*
X61930952Y-71704819D02*
X61835714Y-71704819D01*
X63121428Y-70704819D02*
X62930952Y-70704819D01*
X62930952Y-70704819D02*
X62835714Y-70752438D01*
X62835714Y-70752438D02*
X62788095Y-70800057D01*
X62788095Y-70800057D02*
X62692857Y-70942914D01*
X62692857Y-70942914D02*
X62645238Y-71133390D01*
X62645238Y-71133390D02*
X62645238Y-71514342D01*
X62645238Y-71514342D02*
X62692857Y-71609580D01*
X62692857Y-71609580D02*
X62740476Y-71657200D01*
X62740476Y-71657200D02*
X62835714Y-71704819D01*
X62835714Y-71704819D02*
X63026190Y-71704819D01*
X63026190Y-71704819D02*
X63121428Y-71657200D01*
X63121428Y-71657200D02*
X63169047Y-71609580D01*
X63169047Y-71609580D02*
X63216666Y-71514342D01*
X63216666Y-71514342D02*
X63216666Y-71276247D01*
X63216666Y-71276247D02*
X63169047Y-71181009D01*
X63169047Y-71181009D02*
X63121428Y-71133390D01*
X63121428Y-71133390D02*
X63026190Y-71085771D01*
X63026190Y-71085771D02*
X62835714Y-71085771D01*
X62835714Y-71085771D02*
X62740476Y-71133390D01*
X62740476Y-71133390D02*
X62692857Y-71181009D01*
X62692857Y-71181009D02*
X62645238Y-71276247D01*
X70454819Y-92166666D02*
X69978628Y-92499999D01*
X70454819Y-92738094D02*
X69454819Y-92738094D01*
X69454819Y-92738094D02*
X69454819Y-92357142D01*
X69454819Y-92357142D02*
X69502438Y-92261904D01*
X69502438Y-92261904D02*
X69550057Y-92214285D01*
X69550057Y-92214285D02*
X69645295Y-92166666D01*
X69645295Y-92166666D02*
X69788152Y-92166666D01*
X69788152Y-92166666D02*
X69883390Y-92214285D01*
X69883390Y-92214285D02*
X69931009Y-92261904D01*
X69931009Y-92261904D02*
X69978628Y-92357142D01*
X69978628Y-92357142D02*
X69978628Y-92738094D01*
X69454819Y-91833332D02*
X69454819Y-91214285D01*
X69454819Y-91214285D02*
X69835771Y-91547618D01*
X69835771Y-91547618D02*
X69835771Y-91404761D01*
X69835771Y-91404761D02*
X69883390Y-91309523D01*
X69883390Y-91309523D02*
X69931009Y-91261904D01*
X69931009Y-91261904D02*
X70026247Y-91214285D01*
X70026247Y-91214285D02*
X70264342Y-91214285D01*
X70264342Y-91214285D02*
X70359580Y-91261904D01*
X70359580Y-91261904D02*
X70407200Y-91309523D01*
X70407200Y-91309523D02*
X70454819Y-91404761D01*
X70454819Y-91404761D02*
X70454819Y-91690475D01*
X70454819Y-91690475D02*
X70407200Y-91785713D01*
X70407200Y-91785713D02*
X70359580Y-91833332D01*
X73454819Y-92714285D02*
X73454819Y-93190475D01*
X73454819Y-93190475D02*
X73931009Y-93238094D01*
X73931009Y-93238094D02*
X73883390Y-93190475D01*
X73883390Y-93190475D02*
X73835771Y-93095237D01*
X73835771Y-93095237D02*
X73835771Y-92857142D01*
X73835771Y-92857142D02*
X73883390Y-92761904D01*
X73883390Y-92761904D02*
X73931009Y-92714285D01*
X73931009Y-92714285D02*
X74026247Y-92666666D01*
X74026247Y-92666666D02*
X74264342Y-92666666D01*
X74264342Y-92666666D02*
X74359580Y-92714285D01*
X74359580Y-92714285D02*
X74407200Y-92761904D01*
X74407200Y-92761904D02*
X74454819Y-92857142D01*
X74454819Y-92857142D02*
X74454819Y-93095237D01*
X74454819Y-93095237D02*
X74407200Y-93190475D01*
X74407200Y-93190475D02*
X74359580Y-93238094D01*
X73454819Y-91809523D02*
X73454819Y-91999999D01*
X73454819Y-91999999D02*
X73502438Y-92095237D01*
X73502438Y-92095237D02*
X73550057Y-92142856D01*
X73550057Y-92142856D02*
X73692914Y-92238094D01*
X73692914Y-92238094D02*
X73883390Y-92285713D01*
X73883390Y-92285713D02*
X74264342Y-92285713D01*
X74264342Y-92285713D02*
X74359580Y-92238094D01*
X74359580Y-92238094D02*
X74407200Y-92190475D01*
X74407200Y-92190475D02*
X74454819Y-92095237D01*
X74454819Y-92095237D02*
X74454819Y-91904761D01*
X74454819Y-91904761D02*
X74407200Y-91809523D01*
X74407200Y-91809523D02*
X74359580Y-91761904D01*
X74359580Y-91761904D02*
X74264342Y-91714285D01*
X74264342Y-91714285D02*
X74026247Y-91714285D01*
X74026247Y-91714285D02*
X73931009Y-91761904D01*
X73931009Y-91761904D02*
X73883390Y-91809523D01*
X73883390Y-91809523D02*
X73835771Y-91904761D01*
X73835771Y-91904761D02*
X73835771Y-92095237D01*
X73835771Y-92095237D02*
X73883390Y-92190475D01*
X73883390Y-92190475D02*
X73931009Y-92238094D01*
X73931009Y-92238094D02*
X74026247Y-92285713D01*
X73454819Y-91095237D02*
X73454819Y-90999999D01*
X73454819Y-90999999D02*
X73502438Y-90904761D01*
X73502438Y-90904761D02*
X73550057Y-90857142D01*
X73550057Y-90857142D02*
X73645295Y-90809523D01*
X73645295Y-90809523D02*
X73835771Y-90761904D01*
X73835771Y-90761904D02*
X74073866Y-90761904D01*
X74073866Y-90761904D02*
X74264342Y-90809523D01*
X74264342Y-90809523D02*
X74359580Y-90857142D01*
X74359580Y-90857142D02*
X74407200Y-90904761D01*
X74407200Y-90904761D02*
X74454819Y-90999999D01*
X74454819Y-90999999D02*
X74454819Y-91095237D01*
X74454819Y-91095237D02*
X74407200Y-91190475D01*
X74407200Y-91190475D02*
X74359580Y-91238094D01*
X74359580Y-91238094D02*
X74264342Y-91285713D01*
X74264342Y-91285713D02*
X74073866Y-91333332D01*
X74073866Y-91333332D02*
X73835771Y-91333332D01*
X73835771Y-91333332D02*
X73645295Y-91285713D01*
X73645295Y-91285713D02*
X73550057Y-91238094D01*
X73550057Y-91238094D02*
X73502438Y-91190475D01*
X73502438Y-91190475D02*
X73454819Y-91095237D01*
X76954819Y-87738094D02*
X75954819Y-87738094D01*
X75954819Y-87738094D02*
X75954819Y-87499999D01*
X75954819Y-87499999D02*
X76002438Y-87357142D01*
X76002438Y-87357142D02*
X76097676Y-87261904D01*
X76097676Y-87261904D02*
X76192914Y-87214285D01*
X76192914Y-87214285D02*
X76383390Y-87166666D01*
X76383390Y-87166666D02*
X76526247Y-87166666D01*
X76526247Y-87166666D02*
X76716723Y-87214285D01*
X76716723Y-87214285D02*
X76811961Y-87261904D01*
X76811961Y-87261904D02*
X76907200Y-87357142D01*
X76907200Y-87357142D02*
X76954819Y-87499999D01*
X76954819Y-87499999D02*
X76954819Y-87738094D01*
X76954819Y-86214285D02*
X76954819Y-86785713D01*
X76954819Y-86499999D02*
X75954819Y-86499999D01*
X75954819Y-86499999D02*
X76097676Y-86595237D01*
X76097676Y-86595237D02*
X76192914Y-86690475D01*
X76192914Y-86690475D02*
X76240533Y-86785713D01*
X76954819Y-90642857D02*
X76954819Y-91119047D01*
X76954819Y-91119047D02*
X75954819Y-91119047D01*
X76431009Y-90309523D02*
X76431009Y-89976190D01*
X76954819Y-89833333D02*
X76954819Y-90309523D01*
X76954819Y-90309523D02*
X75954819Y-90309523D01*
X75954819Y-90309523D02*
X75954819Y-89833333D01*
X76954819Y-89404761D02*
X75954819Y-89404761D01*
X75954819Y-89404761D02*
X75954819Y-89166666D01*
X75954819Y-89166666D02*
X76002438Y-89023809D01*
X76002438Y-89023809D02*
X76097676Y-88928571D01*
X76097676Y-88928571D02*
X76192914Y-88880952D01*
X76192914Y-88880952D02*
X76383390Y-88833333D01*
X76383390Y-88833333D02*
X76526247Y-88833333D01*
X76526247Y-88833333D02*
X76716723Y-88880952D01*
X76716723Y-88880952D02*
X76811961Y-88928571D01*
X76811961Y-88928571D02*
X76907200Y-89023809D01*
X76907200Y-89023809D02*
X76954819Y-89166666D01*
X76954819Y-89166666D02*
X76954819Y-89404761D01*
X74666666Y-113954819D02*
X74666666Y-114669104D01*
X74666666Y-114669104D02*
X74619047Y-114811961D01*
X74619047Y-114811961D02*
X74523809Y-114907200D01*
X74523809Y-114907200D02*
X74380952Y-114954819D01*
X74380952Y-114954819D02*
X74285714Y-114954819D01*
X75047619Y-113954819D02*
X75714285Y-113954819D01*
X75714285Y-113954819D02*
X75285714Y-114954819D01*
X64029819Y-106261904D02*
X64839342Y-106261904D01*
X64839342Y-106261904D02*
X64934580Y-106214285D01*
X64934580Y-106214285D02*
X64982200Y-106166666D01*
X64982200Y-106166666D02*
X65029819Y-106071428D01*
X65029819Y-106071428D02*
X65029819Y-105880952D01*
X65029819Y-105880952D02*
X64982200Y-105785714D01*
X64982200Y-105785714D02*
X64934580Y-105738095D01*
X64934580Y-105738095D02*
X64839342Y-105690476D01*
X64839342Y-105690476D02*
X64029819Y-105690476D01*
X65029819Y-104690476D02*
X65029819Y-105261904D01*
X65029819Y-104976190D02*
X64029819Y-104976190D01*
X64029819Y-104976190D02*
X64172676Y-105071428D01*
X64172676Y-105071428D02*
X64267914Y-105166666D01*
X64267914Y-105166666D02*
X64315533Y-105261904D01*
X79166666Y-60874819D02*
X79166666Y-61589104D01*
X79166666Y-61589104D02*
X79119047Y-61731961D01*
X79119047Y-61731961D02*
X79023809Y-61827200D01*
X79023809Y-61827200D02*
X78880952Y-61874819D01*
X78880952Y-61874819D02*
X78785714Y-61874819D01*
X80119047Y-60874819D02*
X79642857Y-60874819D01*
X79642857Y-60874819D02*
X79595238Y-61351009D01*
X79595238Y-61351009D02*
X79642857Y-61303390D01*
X79642857Y-61303390D02*
X79738095Y-61255771D01*
X79738095Y-61255771D02*
X79976190Y-61255771D01*
X79976190Y-61255771D02*
X80071428Y-61303390D01*
X80071428Y-61303390D02*
X80119047Y-61351009D01*
X80119047Y-61351009D02*
X80166666Y-61446247D01*
X80166666Y-61446247D02*
X80166666Y-61684342D01*
X80166666Y-61684342D02*
X80119047Y-61779580D01*
X80119047Y-61779580D02*
X80071428Y-61827200D01*
X80071428Y-61827200D02*
X79976190Y-61874819D01*
X79976190Y-61874819D02*
X79738095Y-61874819D01*
X79738095Y-61874819D02*
X79642857Y-61827200D01*
X79642857Y-61827200D02*
X79595238Y-61779580D01*
X64534819Y-92166666D02*
X64058628Y-92499999D01*
X64534819Y-92738094D02*
X63534819Y-92738094D01*
X63534819Y-92738094D02*
X63534819Y-92357142D01*
X63534819Y-92357142D02*
X63582438Y-92261904D01*
X63582438Y-92261904D02*
X63630057Y-92214285D01*
X63630057Y-92214285D02*
X63725295Y-92166666D01*
X63725295Y-92166666D02*
X63868152Y-92166666D01*
X63868152Y-92166666D02*
X63963390Y-92214285D01*
X63963390Y-92214285D02*
X64011009Y-92261904D01*
X64011009Y-92261904D02*
X64058628Y-92357142D01*
X64058628Y-92357142D02*
X64058628Y-92738094D01*
X63630057Y-91785713D02*
X63582438Y-91738094D01*
X63582438Y-91738094D02*
X63534819Y-91642856D01*
X63534819Y-91642856D02*
X63534819Y-91404761D01*
X63534819Y-91404761D02*
X63582438Y-91309523D01*
X63582438Y-91309523D02*
X63630057Y-91261904D01*
X63630057Y-91261904D02*
X63725295Y-91214285D01*
X63725295Y-91214285D02*
X63820533Y-91214285D01*
X63820533Y-91214285D02*
X63963390Y-91261904D01*
X63963390Y-91261904D02*
X64534819Y-91833332D01*
X64534819Y-91833332D02*
X64534819Y-91214285D01*
X67374819Y-93285713D02*
X67374819Y-92666666D01*
X67374819Y-92666666D02*
X67755771Y-92999999D01*
X67755771Y-92999999D02*
X67755771Y-92857142D01*
X67755771Y-92857142D02*
X67803390Y-92761904D01*
X67803390Y-92761904D02*
X67851009Y-92714285D01*
X67851009Y-92714285D02*
X67946247Y-92666666D01*
X67946247Y-92666666D02*
X68184342Y-92666666D01*
X68184342Y-92666666D02*
X68279580Y-92714285D01*
X68279580Y-92714285D02*
X68327200Y-92761904D01*
X68327200Y-92761904D02*
X68374819Y-92857142D01*
X68374819Y-92857142D02*
X68374819Y-93142856D01*
X68374819Y-93142856D02*
X68327200Y-93238094D01*
X68327200Y-93238094D02*
X68279580Y-93285713D01*
X67374819Y-92333332D02*
X67374819Y-91714285D01*
X67374819Y-91714285D02*
X67755771Y-92047618D01*
X67755771Y-92047618D02*
X67755771Y-91904761D01*
X67755771Y-91904761D02*
X67803390Y-91809523D01*
X67803390Y-91809523D02*
X67851009Y-91761904D01*
X67851009Y-91761904D02*
X67946247Y-91714285D01*
X67946247Y-91714285D02*
X68184342Y-91714285D01*
X68184342Y-91714285D02*
X68279580Y-91761904D01*
X68279580Y-91761904D02*
X68327200Y-91809523D01*
X68327200Y-91809523D02*
X68374819Y-91904761D01*
X68374819Y-91904761D02*
X68374819Y-92190475D01*
X68374819Y-92190475D02*
X68327200Y-92285713D01*
X68327200Y-92285713D02*
X68279580Y-92333332D01*
X67374819Y-91095237D02*
X67374819Y-90999999D01*
X67374819Y-90999999D02*
X67422438Y-90904761D01*
X67422438Y-90904761D02*
X67470057Y-90857142D01*
X67470057Y-90857142D02*
X67565295Y-90809523D01*
X67565295Y-90809523D02*
X67755771Y-90761904D01*
X67755771Y-90761904D02*
X67993866Y-90761904D01*
X67993866Y-90761904D02*
X68184342Y-90809523D01*
X68184342Y-90809523D02*
X68279580Y-90857142D01*
X68279580Y-90857142D02*
X68327200Y-90904761D01*
X68327200Y-90904761D02*
X68374819Y-90999999D01*
X68374819Y-90999999D02*
X68374819Y-91095237D01*
X68374819Y-91095237D02*
X68327200Y-91190475D01*
X68327200Y-91190475D02*
X68279580Y-91238094D01*
X68279580Y-91238094D02*
X68184342Y-91285713D01*
X68184342Y-91285713D02*
X67993866Y-91333332D01*
X67993866Y-91333332D02*
X67755771Y-91333332D01*
X67755771Y-91333332D02*
X67565295Y-91285713D01*
X67565295Y-91285713D02*
X67470057Y-91238094D01*
X67470057Y-91238094D02*
X67422438Y-91190475D01*
X67422438Y-91190475D02*
X67374819Y-91095237D01*
X88666666Y-68059819D02*
X88666666Y-68774104D01*
X88666666Y-68774104D02*
X88619047Y-68916961D01*
X88619047Y-68916961D02*
X88523809Y-69012200D01*
X88523809Y-69012200D02*
X88380952Y-69059819D01*
X88380952Y-69059819D02*
X88285714Y-69059819D01*
X89666666Y-69059819D02*
X89095238Y-69059819D01*
X89380952Y-69059819D02*
X89380952Y-68059819D01*
X89380952Y-68059819D02*
X89285714Y-68202676D01*
X89285714Y-68202676D02*
X89190476Y-68297914D01*
X89190476Y-68297914D02*
X89095238Y-68345533D01*
X72333333Y-106859580D02*
X72285714Y-106907200D01*
X72285714Y-106907200D02*
X72142857Y-106954819D01*
X72142857Y-106954819D02*
X72047619Y-106954819D01*
X72047619Y-106954819D02*
X71904762Y-106907200D01*
X71904762Y-106907200D02*
X71809524Y-106811961D01*
X71809524Y-106811961D02*
X71761905Y-106716723D01*
X71761905Y-106716723D02*
X71714286Y-106526247D01*
X71714286Y-106526247D02*
X71714286Y-106383390D01*
X71714286Y-106383390D02*
X71761905Y-106192914D01*
X71761905Y-106192914D02*
X71809524Y-106097676D01*
X71809524Y-106097676D02*
X71904762Y-106002438D01*
X71904762Y-106002438D02*
X72047619Y-105954819D01*
X72047619Y-105954819D02*
X72142857Y-105954819D01*
X72142857Y-105954819D02*
X72285714Y-106002438D01*
X72285714Y-106002438D02*
X72333333Y-106050057D01*
X72714286Y-106050057D02*
X72761905Y-106002438D01*
X72761905Y-106002438D02*
X72857143Y-105954819D01*
X72857143Y-105954819D02*
X73095238Y-105954819D01*
X73095238Y-105954819D02*
X73190476Y-106002438D01*
X73190476Y-106002438D02*
X73238095Y-106050057D01*
X73238095Y-106050057D02*
X73285714Y-106145295D01*
X73285714Y-106145295D02*
X73285714Y-106240533D01*
X73285714Y-106240533D02*
X73238095Y-106383390D01*
X73238095Y-106383390D02*
X72666667Y-106954819D01*
X72666667Y-106954819D02*
X73285714Y-106954819D01*
X68833333Y-109004819D02*
X68261905Y-109004819D01*
X68547619Y-109004819D02*
X68547619Y-108004819D01*
X68547619Y-108004819D02*
X68452381Y-108147676D01*
X68452381Y-108147676D02*
X68357143Y-108242914D01*
X68357143Y-108242914D02*
X68261905Y-108290533D01*
X69690476Y-108338152D02*
X69690476Y-109004819D01*
X69261905Y-108338152D02*
X69261905Y-108861961D01*
X69261905Y-108861961D02*
X69309524Y-108957200D01*
X69309524Y-108957200D02*
X69404762Y-109004819D01*
X69404762Y-109004819D02*
X69547619Y-109004819D01*
X69547619Y-109004819D02*
X69642857Y-108957200D01*
X69642857Y-108957200D02*
X69690476Y-108909580D01*
X75954819Y-77261904D02*
X76764342Y-77261904D01*
X76764342Y-77261904D02*
X76859580Y-77214285D01*
X76859580Y-77214285D02*
X76907200Y-77166666D01*
X76907200Y-77166666D02*
X76954819Y-77071428D01*
X76954819Y-77071428D02*
X76954819Y-76880952D01*
X76954819Y-76880952D02*
X76907200Y-76785714D01*
X76907200Y-76785714D02*
X76859580Y-76738095D01*
X76859580Y-76738095D02*
X76764342Y-76690476D01*
X76764342Y-76690476D02*
X75954819Y-76690476D01*
X76050057Y-76261904D02*
X76002438Y-76214285D01*
X76002438Y-76214285D02*
X75954819Y-76119047D01*
X75954819Y-76119047D02*
X75954819Y-75880952D01*
X75954819Y-75880952D02*
X76002438Y-75785714D01*
X76002438Y-75785714D02*
X76050057Y-75738095D01*
X76050057Y-75738095D02*
X76145295Y-75690476D01*
X76145295Y-75690476D02*
X76240533Y-75690476D01*
X76240533Y-75690476D02*
X76383390Y-75738095D01*
X76383390Y-75738095D02*
X76954819Y-76309523D01*
X76954819Y-76309523D02*
X76954819Y-75690476D01*
X69454819Y-84563809D02*
X69454819Y-85039999D01*
X69454819Y-85039999D02*
X68454819Y-85039999D01*
X69454819Y-84230475D02*
X68454819Y-84230475D01*
X68454819Y-84230475D02*
X69169104Y-83897142D01*
X69169104Y-83897142D02*
X68454819Y-83563809D01*
X68454819Y-83563809D02*
X69454819Y-83563809D01*
X68454819Y-83182856D02*
X68454819Y-82563809D01*
X68454819Y-82563809D02*
X68835771Y-82897142D01*
X68835771Y-82897142D02*
X68835771Y-82754285D01*
X68835771Y-82754285D02*
X68883390Y-82659047D01*
X68883390Y-82659047D02*
X68931009Y-82611428D01*
X68931009Y-82611428D02*
X69026247Y-82563809D01*
X69026247Y-82563809D02*
X69264342Y-82563809D01*
X69264342Y-82563809D02*
X69359580Y-82611428D01*
X69359580Y-82611428D02*
X69407200Y-82659047D01*
X69407200Y-82659047D02*
X69454819Y-82754285D01*
X69454819Y-82754285D02*
X69454819Y-83039999D01*
X69454819Y-83039999D02*
X69407200Y-83135237D01*
X69407200Y-83135237D02*
X69359580Y-83182856D01*
X69454819Y-81611428D02*
X69454819Y-82182856D01*
X69454819Y-81897142D02*
X68454819Y-81897142D01*
X68454819Y-81897142D02*
X68597676Y-81992380D01*
X68597676Y-81992380D02*
X68692914Y-82087618D01*
X68692914Y-82087618D02*
X68740533Y-82182856D01*
X68454819Y-81278094D02*
X68454819Y-80611428D01*
X68454819Y-80611428D02*
X69454819Y-81039999D01*
X69550057Y-80468571D02*
X69550057Y-79706666D01*
X68454819Y-79611427D02*
X68454819Y-79039999D01*
X69454819Y-79325713D02*
X68454819Y-79325713D01*
X68454819Y-78516189D02*
X68454819Y-78325713D01*
X68454819Y-78325713D02*
X68502438Y-78230475D01*
X68502438Y-78230475D02*
X68597676Y-78135237D01*
X68597676Y-78135237D02*
X68788152Y-78087618D01*
X68788152Y-78087618D02*
X69121485Y-78087618D01*
X69121485Y-78087618D02*
X69311961Y-78135237D01*
X69311961Y-78135237D02*
X69407200Y-78230475D01*
X69407200Y-78230475D02*
X69454819Y-78325713D01*
X69454819Y-78325713D02*
X69454819Y-78516189D01*
X69454819Y-78516189D02*
X69407200Y-78611427D01*
X69407200Y-78611427D02*
X69311961Y-78706665D01*
X69311961Y-78706665D02*
X69121485Y-78754284D01*
X69121485Y-78754284D02*
X68788152Y-78754284D01*
X68788152Y-78754284D02*
X68597676Y-78706665D01*
X68597676Y-78706665D02*
X68502438Y-78611427D01*
X68502438Y-78611427D02*
X68454819Y-78516189D01*
X69073866Y-77659046D02*
X69073866Y-76897142D01*
X68550057Y-76468570D02*
X68502438Y-76420951D01*
X68502438Y-76420951D02*
X68454819Y-76325713D01*
X68454819Y-76325713D02*
X68454819Y-76087618D01*
X68454819Y-76087618D02*
X68502438Y-75992380D01*
X68502438Y-75992380D02*
X68550057Y-75944761D01*
X68550057Y-75944761D02*
X68645295Y-75897142D01*
X68645295Y-75897142D02*
X68740533Y-75897142D01*
X68740533Y-75897142D02*
X68883390Y-75944761D01*
X68883390Y-75944761D02*
X69454819Y-76516189D01*
X69454819Y-76516189D02*
X69454819Y-75897142D01*
X68550057Y-75516189D02*
X68502438Y-75468570D01*
X68502438Y-75468570D02*
X68454819Y-75373332D01*
X68454819Y-75373332D02*
X68454819Y-75135237D01*
X68454819Y-75135237D02*
X68502438Y-75039999D01*
X68502438Y-75039999D02*
X68550057Y-74992380D01*
X68550057Y-74992380D02*
X68645295Y-74944761D01*
X68645295Y-74944761D02*
X68740533Y-74944761D01*
X68740533Y-74944761D02*
X68883390Y-74992380D01*
X68883390Y-74992380D02*
X69454819Y-75563808D01*
X69454819Y-75563808D02*
X69454819Y-74944761D01*
X68454819Y-74325713D02*
X68454819Y-74230475D01*
X68454819Y-74230475D02*
X68502438Y-74135237D01*
X68502438Y-74135237D02*
X68550057Y-74087618D01*
X68550057Y-74087618D02*
X68645295Y-74039999D01*
X68645295Y-74039999D02*
X68835771Y-73992380D01*
X68835771Y-73992380D02*
X69073866Y-73992380D01*
X69073866Y-73992380D02*
X69264342Y-74039999D01*
X69264342Y-74039999D02*
X69359580Y-74087618D01*
X69359580Y-74087618D02*
X69407200Y-74135237D01*
X69407200Y-74135237D02*
X69454819Y-74230475D01*
X69454819Y-74230475D02*
X69454819Y-74325713D01*
X69454819Y-74325713D02*
X69407200Y-74420951D01*
X69407200Y-74420951D02*
X69359580Y-74468570D01*
X69359580Y-74468570D02*
X69264342Y-74516189D01*
X69264342Y-74516189D02*
X69073866Y-74563808D01*
X69073866Y-74563808D02*
X68835771Y-74563808D01*
X68835771Y-74563808D02*
X68645295Y-74516189D01*
X68645295Y-74516189D02*
X68550057Y-74468570D01*
X68550057Y-74468570D02*
X68502438Y-74420951D01*
X68502438Y-74420951D02*
X68454819Y-74325713D01*
D12*
%TO.C,S1*%
X60900000Y-73580000D02*
X60900000Y-74080000D01*
X60900000Y-73580000D02*
X61400000Y-73580000D01*
X60900000Y-85480000D02*
X60900000Y-84980000D01*
X60900000Y-85480000D02*
X61400000Y-85480000D01*
X65100000Y-73580000D02*
X64600000Y-73580000D01*
X65100000Y-73580000D02*
X65100000Y-74080000D01*
X65100000Y-85480000D02*
X64600000Y-85480000D01*
X65100000Y-85480000D02*
X65100000Y-84980000D01*
D13*
%TO.C,J4*%
X81120000Y-95580000D02*
X82500000Y-95580000D01*
X81120000Y-96960000D02*
X81120000Y-95580000D01*
X81120000Y-98230000D02*
X81120000Y-103420000D01*
X81120000Y-98230000D02*
X83880000Y-98230000D01*
X81120000Y-103420000D02*
X83880000Y-103420000D01*
X83880000Y-98230000D02*
X83880000Y-103420000D01*
%TO.C,J3*%
X81120000Y-77770000D02*
X81120000Y-72580000D01*
X83880000Y-72580000D02*
X81120000Y-72580000D01*
X83880000Y-77770000D02*
X81120000Y-77770000D01*
X83880000Y-77770000D02*
X83880000Y-72580000D01*
X83880000Y-79040000D02*
X83880000Y-80420000D01*
X83880000Y-80420000D02*
X82500000Y-80420000D01*
%TO.C,C3*%
X69765000Y-111080000D02*
X68235000Y-111080000D01*
X69765000Y-112920000D02*
X68235000Y-112920000D01*
%TO.C,R1*%
X59080000Y-90080000D02*
X59080000Y-93920000D01*
X59080000Y-93920000D02*
X60920000Y-93920000D01*
X60000000Y-89130000D02*
X60000000Y-90080000D01*
X60000000Y-94870000D02*
X60000000Y-93920000D01*
X60920000Y-90080000D02*
X59080000Y-90080000D01*
X60920000Y-93920000D02*
X60920000Y-90080000D01*
%TO.C,C1*%
X68235000Y-100080000D02*
X69765000Y-100080000D01*
X68235000Y-101920000D02*
X69765000Y-101920000D01*
%TO.C,J2*%
X87620000Y-108120000D02*
X89000000Y-108120000D01*
X87620000Y-109500000D02*
X87620000Y-108120000D01*
X87620000Y-110770000D02*
X87620000Y-113420000D01*
X87620000Y-110770000D02*
X90380000Y-110770000D01*
X87620000Y-113420000D02*
X90380000Y-113420000D01*
X90380000Y-110770000D02*
X90380000Y-113420000D01*
%TO.C,J6*%
X57200000Y-60900000D02*
X71900000Y-60900000D01*
X57200000Y-70100000D02*
X57200000Y-60900000D01*
X66000000Y-70100000D02*
X57200000Y-70100000D01*
X71050000Y-60700000D02*
X72100000Y-60700000D01*
X71900000Y-60900000D02*
X71900000Y-63500000D01*
X71900000Y-67400000D02*
X71900000Y-70100000D01*
X71900000Y-70100000D02*
X70000000Y-70100000D01*
X72100000Y-61750000D02*
X72100000Y-60700000D01*
%TO.C,R3*%
X71080000Y-90080000D02*
X71080000Y-93920000D01*
X71080000Y-93920000D02*
X72920000Y-93920000D01*
X72000000Y-89130000D02*
X72000000Y-90080000D01*
X72000000Y-94870000D02*
X72000000Y-93920000D01*
X72920000Y-90080000D02*
X71080000Y-90080000D01*
X72920000Y-93920000D02*
X72920000Y-90080000D01*
%TO.C,D1*%
X79455000Y-91065000D02*
X82545000Y-91065000D01*
X79455170Y-91065000D02*
G75*
G02*
X80999952Y-85515000I1544830J2560000D01*
G01*
X81000048Y-85515000D02*
G75*
G02*
X82544830Y-91065000I-48J-2990000D01*
G01*
X83500000Y-88505000D02*
G75*
G02*
X78500000Y-88505000I-2500000J0D01*
G01*
X78500000Y-88505000D02*
G75*
G02*
X83500000Y-88505000I2500000J0D01*
G01*
%TO.C,J7*%
X74420000Y-105690000D02*
X74420000Y-113310000D01*
X74420000Y-106960000D02*
X84580000Y-106960000D01*
X74420000Y-113310000D02*
X84580000Y-113310000D01*
X84580000Y-105690000D02*
X74420000Y-105690000D01*
X84580000Y-113310000D02*
X84580000Y-105690000D01*
%TO.C,U1*%
X58934000Y-100380000D02*
X58934000Y-110620000D01*
X62065000Y-100380000D02*
X62065000Y-110620000D01*
X63575000Y-100380000D02*
X58934000Y-100380000D01*
X63575000Y-100380000D02*
X63575000Y-110620000D01*
X63575000Y-103650000D02*
X62065000Y-103650000D01*
X63575000Y-107351000D02*
X62065000Y-107351000D01*
X63575000Y-110620000D02*
X58934000Y-110620000D01*
%TO.C,J5*%
X74420000Y-62690000D02*
X74420000Y-70310000D01*
X74420000Y-70310000D02*
X84580000Y-70310000D01*
X84580000Y-62690000D02*
X74420000Y-62690000D01*
X84580000Y-69040000D02*
X74420000Y-69040000D01*
X84580000Y-70310000D02*
X84580000Y-62690000D01*
%TO.C,R2*%
X65080000Y-90080000D02*
X65080000Y-93920000D01*
X65080000Y-93920000D02*
X66920000Y-93920000D01*
X66000000Y-89130000D02*
X66000000Y-90080000D01*
X66000000Y-94870000D02*
X66000000Y-93920000D01*
X66920000Y-90080000D02*
X65080000Y-90080000D01*
X66920000Y-93920000D02*
X66920000Y-90080000D01*
%TO.C,J1*%
X87620000Y-64955000D02*
X87620000Y-62305000D01*
X90380000Y-62305000D02*
X87620000Y-62305000D01*
X90380000Y-64955000D02*
X87620000Y-64955000D01*
X90380000Y-64955000D02*
X90380000Y-62305000D01*
X90380000Y-66225000D02*
X90380000Y-67605000D01*
X90380000Y-67605000D02*
X89000000Y-67605000D01*
%TO.C,C2*%
X68235000Y-105580000D02*
X69765000Y-105580000D01*
X68235000Y-107420000D02*
X69765000Y-107420000D01*
%TO.C,U2*%
X70684000Y-74420000D02*
X70684000Y-84660000D01*
X73815000Y-74420000D02*
X73815000Y-84660000D01*
X75325000Y-74420000D02*
X70684000Y-74420000D01*
X75325000Y-74420000D02*
X75325000Y-84660000D01*
X75325000Y-77690000D02*
X73815000Y-77690000D01*
X75325000Y-81391000D02*
X73815000Y-81391000D01*
X75325000Y-84660000D02*
X70684000Y-84660000D01*
%TD*%
M02*
