%TF.GenerationSoftware,KiCad,Pcbnew,9.0.1*%
%TF.CreationDate,2025-08-07T19:45:44+03:00*%
%TF.ProjectId,BreadBoard_PowerSupply,42726561-6442-46f6-9172-645f506f7765,rev?*%
%TF.SameCoordinates,Original*%
%TF.FileFunction,Copper,L2,Bot*%
%TF.FilePolarity,Positive*%
%FSLAX46Y46*%
G04 Gerber Fmt 4.6, Leading zero omitted, Abs format (unit mm)*
G04 Created by KiCad (PCBNEW 9.0.1) date 2025-08-07 19:45:44*
%MOMM*%
%LPD*%
G01*
G04 APERTURE LIST*
G04 Aperture macros list*
%AMRoundRect*
0 Rectangle with rounded corners*
0 $1 Rounding radius*
0 $2 $3 $4 $5 $6 $7 $8 $9 X,Y pos of 4 corners*
0 Add a 4 corners polygon primitive as box body*
4,1,4,$2,$3,$4,$5,$6,$7,$8,$9,$2,$3,0*
0 Add four circle primitives for the rounded corners*
1,1,$1+$1,$2,$3*
1,1,$1+$1,$4,$5*
1,1,$1+$1,$6,$7*
1,1,$1+$1,$8,$9*
0 Add four rect primitives between the rounded corners*
20,1,$1+$1,$2,$3,$4,$5,0*
20,1,$1+$1,$4,$5,$6,$7,0*
20,1,$1+$1,$6,$7,$8,$9,0*
20,1,$1+$1,$8,$9,$2,$3,0*%
G04 Aperture macros list end*
%TA.AperFunction,ComponentPad*%
%ADD10R,1.900000X1.900000*%
%TD*%
%TA.AperFunction,ComponentPad*%
%ADD11C,1.900000*%
%TD*%
%TA.AperFunction,ComponentPad*%
%ADD12R,1.700000X1.700000*%
%TD*%
%TA.AperFunction,ComponentPad*%
%ADD13C,1.700000*%
%TD*%
%TA.AperFunction,ComponentPad*%
%ADD14C,1.600000*%
%TD*%
%TA.AperFunction,ComponentPad*%
%ADD15C,1.400000*%
%TD*%
%TA.AperFunction,ComponentPad*%
%ADD16O,1.400000X1.400000*%
%TD*%
%TA.AperFunction,ComponentPad*%
%ADD17R,3.500000X3.500000*%
%TD*%
%TA.AperFunction,ComponentPad*%
%ADD18RoundRect,0.750000X-0.750000X-1.000000X0.750000X-1.000000X0.750000X1.000000X-0.750000X1.000000X0*%
%TD*%
%TA.AperFunction,ComponentPad*%
%ADD19RoundRect,0.875000X-0.875000X-0.875000X0.875000X-0.875000X0.875000X0.875000X-0.875000X0.875000X0*%
%TD*%
%TA.AperFunction,ComponentPad*%
%ADD20R,1.800000X1.800000*%
%TD*%
%TA.AperFunction,ComponentPad*%
%ADD21C,1.800000*%
%TD*%
%TA.AperFunction,ComponentPad*%
%ADD22R,3.000000X3.000000*%
%TD*%
%TA.AperFunction,ComponentPad*%
%ADD23C,3.000000*%
%TD*%
%TA.AperFunction,ComponentPad*%
%ADD24R,2.000000X1.905000*%
%TD*%
%TA.AperFunction,ComponentPad*%
%ADD25O,2.000000X1.905000*%
%TD*%
%TA.AperFunction,Conductor*%
%ADD26C,0.400000*%
%TD*%
G04 APERTURE END LIST*
D10*
%TO.P,S1,1*%
%TO.N,/12V*%
X63000000Y-81880000D03*
D11*
%TO.P,S1,2*%
%TO.N,/PWR_INPUT*%
X63000000Y-79380000D03*
%TO.P,S1,3*%
%TO.N,unconnected-(S1-Pad3)*%
X63000000Y-76880000D03*
%TD*%
D12*
%TO.P,J4,1,Pin_1*%
%TO.N,/3.3V*%
X82500000Y-96960000D03*
D13*
%TO.P,J4,2,Pin_2*%
%TO.N,Net-(J2-Pin_2)*%
X82500000Y-99500000D03*
%TO.P,J4,3,Pin_3*%
%TO.N,/5V*%
X82500000Y-102040000D03*
%TD*%
D12*
%TO.P,J3,1,Pin_1*%
%TO.N,/3.3V*%
X82500000Y-79040000D03*
D13*
%TO.P,J3,2,Pin_2*%
%TO.N,Net-(J1-Pin_2)*%
X82500000Y-76500000D03*
%TO.P,J3,3,Pin_3*%
%TO.N,/5V*%
X82500000Y-73960000D03*
%TD*%
D14*
%TO.P,C3,1*%
%TO.N,GND*%
X70250000Y-112000000D03*
%TO.P,C3,2*%
%TO.N,/5V*%
X67750000Y-112000000D03*
%TD*%
D15*
%TO.P,R1,1*%
%TO.N,/3.3V*%
X60000000Y-95810000D03*
D16*
%TO.P,R1,2*%
%TO.N,Net-(U2-ADJ)*%
X60000000Y-88190000D03*
%TD*%
D14*
%TO.P,C1,1*%
%TO.N,GND*%
X67750000Y-101000000D03*
%TO.P,C1,2*%
%TO.N,/12V*%
X70250000Y-101000000D03*
%TD*%
D12*
%TO.P,J2,1,Pin_1*%
%TO.N,GND*%
X89000000Y-109500000D03*
D13*
%TO.P,J2,2,Pin_2*%
%TO.N,Net-(J2-Pin_2)*%
X89000000Y-112040000D03*
%TD*%
D17*
%TO.P,J6,1*%
%TO.N,/PWR_INPUT*%
X71000000Y-65500000D03*
D18*
%TO.P,J6,2*%
%TO.N,GND*%
X65000000Y-65500000D03*
D19*
%TO.P,J6,3*%
X68000000Y-70200000D03*
%TD*%
D15*
%TO.P,R3,1*%
%TO.N,Net-(U2-ADJ)*%
X72000000Y-88190000D03*
D16*
%TO.P,R3,2*%
%TO.N,GND*%
X72000000Y-95810000D03*
%TD*%
D20*
%TO.P,D1,1,K*%
%TO.N,GND*%
X81000000Y-89775000D03*
D21*
%TO.P,D1,2,A*%
%TO.N,Net-(D1-A)*%
X81000000Y-87235000D03*
%TD*%
D22*
%TO.P,J7,1,Pin_1*%
%TO.N,GND*%
X82040000Y-109500000D03*
D23*
%TO.P,J7,2,Pin_2*%
%TO.N,Net-(J2-Pin_2)*%
X76960000Y-109500000D03*
%TD*%
D24*
%TO.P,U1,1,VI*%
%TO.N,/12V*%
X60305000Y-102960000D03*
D25*
%TO.P,U1,2,GND*%
%TO.N,GND*%
X60305000Y-105500000D03*
%TO.P,U1,3,VO*%
%TO.N,/5V*%
X60305000Y-108040000D03*
%TD*%
D22*
%TO.P,J5,1,Pin_1*%
%TO.N,GND*%
X76960000Y-66500000D03*
D23*
%TO.P,J5,2,Pin_2*%
%TO.N,Net-(J1-Pin_2)*%
X82040000Y-66500000D03*
%TD*%
D15*
%TO.P,R2,1*%
%TO.N,/12V*%
X66000000Y-95810000D03*
D16*
%TO.P,R2,2*%
%TO.N,Net-(D1-A)*%
X66000000Y-88190000D03*
%TD*%
D12*
%TO.P,J1,1,Pin_1*%
%TO.N,GND*%
X89000000Y-66225000D03*
D13*
%TO.P,J1,2,Pin_2*%
%TO.N,Net-(J1-Pin_2)*%
X89000000Y-63685000D03*
%TD*%
D14*
%TO.P,C2,1*%
%TO.N,/3.3V*%
X67750000Y-106500000D03*
%TO.P,C2,2*%
%TO.N,GND*%
X70250000Y-106500000D03*
%TD*%
D24*
%TO.P,U2,1,ADJ*%
%TO.N,Net-(U2-ADJ)*%
X72055000Y-77000000D03*
D25*
%TO.P,U2,2,VO*%
%TO.N,/3.3V*%
X72055000Y-79540000D03*
%TO.P,U2,3,VI*%
%TO.N,/12V*%
X72055000Y-82080000D03*
%TD*%
D26*
%TO.N,/12V*%
X72055000Y-82080000D02*
X63200000Y-82080000D01*
X66000000Y-95810000D02*
X66000000Y-97265000D01*
X63200000Y-82080000D02*
X63000000Y-81880000D01*
X66000000Y-97265000D02*
X60305000Y-102960000D01*
%TO.N,/5V*%
X84752000Y-99788000D02*
X82500000Y-102040000D01*
X82500000Y-102040000D02*
X77710000Y-102040000D01*
X84752000Y-76212000D02*
X84752000Y-99788000D01*
X82500000Y-73960000D02*
X84752000Y-76212000D01*
X77710000Y-102040000D02*
X67750000Y-112000000D01*
%TO.N,Net-(D1-A)*%
X67301000Y-86889000D02*
X80654000Y-86889000D01*
X80654000Y-86889000D02*
X81000000Y-87235000D01*
X66000000Y-88190000D02*
X67301000Y-86889000D01*
%TO.N,Net-(J1-Pin_2)*%
X82500000Y-76500000D02*
X82862000Y-76500000D01*
%TD*%
%TA.AperFunction,Conductor*%
%TO.N,GND*%
G36*
X89016177Y-61020185D02*
G01*
X89036819Y-61036819D01*
X90963181Y-62963181D01*
X90996666Y-63024504D01*
X90999500Y-63050862D01*
X90999500Y-66949138D01*
X90979815Y-67016177D01*
X90963181Y-67036819D01*
X89036819Y-68963181D01*
X88975496Y-68996666D01*
X88949138Y-68999500D01*
X86565892Y-68999500D01*
X86500000Y-68999500D01*
X86392682Y-68999500D01*
X86392679Y-68999500D01*
X86390113Y-68999684D01*
X86381265Y-69000000D01*
X85000000Y-69000000D01*
X85000000Y-70381265D01*
X84999684Y-70390113D01*
X84999500Y-70392684D01*
X84999500Y-75169481D01*
X84979815Y-75236520D01*
X84927011Y-75282275D01*
X84857853Y-75292219D01*
X84794297Y-75263194D01*
X84787819Y-75257162D01*
X83860507Y-74329850D01*
X83827022Y-74268527D01*
X83825715Y-74222771D01*
X83850500Y-74066286D01*
X83850500Y-73853713D01*
X83817246Y-73643760D01*
X83817246Y-73643757D01*
X83751557Y-73441588D01*
X83655051Y-73252184D01*
X83655049Y-73252181D01*
X83655048Y-73252179D01*
X83530109Y-73080213D01*
X83379786Y-72929890D01*
X83207820Y-72804951D01*
X83018414Y-72708444D01*
X83018413Y-72708443D01*
X83018412Y-72708443D01*
X82816243Y-72642754D01*
X82816241Y-72642753D01*
X82816240Y-72642753D01*
X82654957Y-72617208D01*
X82606287Y-72609500D01*
X82393713Y-72609500D01*
X82345042Y-72617208D01*
X82183760Y-72642753D01*
X81981585Y-72708444D01*
X81792179Y-72804951D01*
X81620213Y-72929890D01*
X81469890Y-73080213D01*
X81344951Y-73252179D01*
X81248444Y-73441585D01*
X81182753Y-73643760D01*
X81149500Y-73853713D01*
X81149500Y-74066286D01*
X81182753Y-74276239D01*
X81248444Y-74478414D01*
X81344951Y-74667820D01*
X81469890Y-74839786D01*
X81620213Y-74990109D01*
X81792182Y-75115050D01*
X81800946Y-75119516D01*
X81851742Y-75167491D01*
X81868536Y-75235312D01*
X81845998Y-75301447D01*
X81800946Y-75340484D01*
X81792182Y-75344949D01*
X81620213Y-75469890D01*
X81469890Y-75620213D01*
X81344951Y-75792179D01*
X81248444Y-75981585D01*
X81182753Y-76183760D01*
X81149500Y-76393713D01*
X81149500Y-76606286D01*
X81182753Y-76816239D01*
X81248444Y-77018414D01*
X81344951Y-77207820D01*
X81469890Y-77379786D01*
X81583430Y-77493326D01*
X81616915Y-77554649D01*
X81611931Y-77624341D01*
X81570059Y-77680274D01*
X81539083Y-77697189D01*
X81407669Y-77746203D01*
X81407664Y-77746206D01*
X81292455Y-77832452D01*
X81292452Y-77832455D01*
X81206206Y-77947664D01*
X81206202Y-77947671D01*
X81155908Y-78082517D01*
X81149501Y-78142116D01*
X81149500Y-78142135D01*
X81149500Y-79937870D01*
X81149501Y-79937876D01*
X81155908Y-79997483D01*
X81206202Y-80132328D01*
X81206206Y-80132335D01*
X81292452Y-80247544D01*
X81292455Y-80247547D01*
X81407664Y-80333793D01*
X81407671Y-80333797D01*
X81542517Y-80384091D01*
X81542516Y-80384091D01*
X81549444Y-80384835D01*
X81602127Y-80390500D01*
X83397872Y-80390499D01*
X83457483Y-80384091D01*
X83592331Y-80333796D01*
X83707546Y-80247546D01*
X83793796Y-80132331D01*
X83811318Y-80085353D01*
X83853188Y-80029419D01*
X83918653Y-80005001D01*
X83986926Y-80019852D01*
X84036332Y-80069257D01*
X84051500Y-80128685D01*
X84051500Y-95871314D01*
X84031815Y-95938353D01*
X83979011Y-95984108D01*
X83909853Y-95994052D01*
X83846297Y-95965027D01*
X83811318Y-95914647D01*
X83793797Y-95867671D01*
X83793793Y-95867664D01*
X83707547Y-95752455D01*
X83707544Y-95752452D01*
X83592335Y-95666206D01*
X83592328Y-95666202D01*
X83457482Y-95615908D01*
X83457483Y-95615908D01*
X83397883Y-95609501D01*
X83397881Y-95609500D01*
X83397873Y-95609500D01*
X83397864Y-95609500D01*
X81602129Y-95609500D01*
X81602123Y-95609501D01*
X81542516Y-95615908D01*
X81407671Y-95666202D01*
X81407664Y-95666206D01*
X81292455Y-95752452D01*
X81292452Y-95752455D01*
X81206206Y-95867664D01*
X81206202Y-95867671D01*
X81155908Y-96002517D01*
X81149501Y-96062116D01*
X81149500Y-96062135D01*
X81149500Y-97857870D01*
X81149501Y-97857876D01*
X81155908Y-97917483D01*
X81206202Y-98052328D01*
X81206206Y-98052335D01*
X81292452Y-98167544D01*
X81292455Y-98167547D01*
X81407664Y-98253793D01*
X81407671Y-98253797D01*
X81539082Y-98302810D01*
X81595016Y-98344681D01*
X81619433Y-98410145D01*
X81604582Y-98478418D01*
X81583431Y-98506673D01*
X81469889Y-98620215D01*
X81344951Y-98792179D01*
X81248444Y-98981585D01*
X81182753Y-99183760D01*
X81149500Y-99393713D01*
X81149500Y-99606286D01*
X81179354Y-99794781D01*
X81182754Y-99816243D01*
X81206115Y-99888141D01*
X81248444Y-100018414D01*
X81344951Y-100207820D01*
X81469890Y-100379786D01*
X81620213Y-100530109D01*
X81792182Y-100655050D01*
X81800946Y-100659516D01*
X81851742Y-100707491D01*
X81868536Y-100775312D01*
X81845998Y-100841447D01*
X81800946Y-100880484D01*
X81792182Y-100884949D01*
X81620213Y-101009890D01*
X81469892Y-101160211D01*
X81407851Y-101245606D01*
X81376770Y-101288385D01*
X81321442Y-101331051D01*
X81276453Y-101339500D01*
X77641004Y-101339500D01*
X77505677Y-101366418D01*
X77505667Y-101366421D01*
X77378192Y-101419222D01*
X77263454Y-101495887D01*
X71672908Y-107086433D01*
X71611585Y-107119918D01*
X71541893Y-107114934D01*
X71485960Y-107073062D01*
X71461543Y-107007598D01*
X71467296Y-106960433D01*
X71517990Y-106804417D01*
X71550000Y-106602317D01*
X71550000Y-106397682D01*
X71517990Y-106195582D01*
X71454755Y-106000968D01*
X71361859Y-105818650D01*
X71329474Y-105774077D01*
X71329474Y-105774076D01*
X70650000Y-106453553D01*
X70650000Y-106447339D01*
X70622741Y-106345606D01*
X70570080Y-106254394D01*
X70495606Y-106179920D01*
X70404394Y-106127259D01*
X70302661Y-106100000D01*
X70296446Y-106100000D01*
X70975922Y-105420524D01*
X70975921Y-105420523D01*
X70931359Y-105388147D01*
X70931350Y-105388141D01*
X70749031Y-105295244D01*
X70554417Y-105232009D01*
X70352317Y-105200000D01*
X70147683Y-105200000D01*
X69945582Y-105232009D01*
X69750968Y-105295244D01*
X69568644Y-105388143D01*
X69524077Y-105420523D01*
X69524077Y-105420524D01*
X70203554Y-106100000D01*
X70197339Y-106100000D01*
X70095606Y-106127259D01*
X70004394Y-106179920D01*
X69929920Y-106254394D01*
X69877259Y-106345606D01*
X69850000Y-106447339D01*
X69850000Y-106453553D01*
X69170524Y-105774077D01*
X69170523Y-105774077D01*
X69138143Y-105818644D01*
X69110765Y-105872378D01*
X69062790Y-105923174D01*
X68994969Y-105939969D01*
X68928834Y-105917431D01*
X68889795Y-105872378D01*
X68872130Y-105837708D01*
X68862287Y-105818390D01*
X68862285Y-105818387D01*
X68862284Y-105818385D01*
X68741971Y-105652786D01*
X68597213Y-105508028D01*
X68431613Y-105387715D01*
X68431612Y-105387714D01*
X68431610Y-105387713D01*
X68374653Y-105358691D01*
X68249223Y-105294781D01*
X68054534Y-105231522D01*
X67879995Y-105203878D01*
X67852352Y-105199500D01*
X67647648Y-105199500D01*
X67623329Y-105203351D01*
X67445465Y-105231522D01*
X67250776Y-105294781D01*
X67068386Y-105387715D01*
X66902786Y-105508028D01*
X66758028Y-105652786D01*
X66637715Y-105818386D01*
X66544781Y-106000776D01*
X66481522Y-106195465D01*
X66449500Y-106397648D01*
X66449500Y-106602351D01*
X66481522Y-106804534D01*
X66544781Y-106999223D01*
X66587248Y-107082567D01*
X66637585Y-107181359D01*
X66637715Y-107181613D01*
X66758028Y-107347213D01*
X66902786Y-107491971D01*
X67023226Y-107579474D01*
X67068390Y-107612287D01*
X67184607Y-107671503D01*
X67250776Y-107705218D01*
X67250778Y-107705218D01*
X67250781Y-107705220D01*
X67355137Y-107739127D01*
X67445465Y-107768477D01*
X67546557Y-107784488D01*
X67647648Y-107800500D01*
X67647649Y-107800500D01*
X67852351Y-107800500D01*
X67852352Y-107800500D01*
X68054534Y-107768477D01*
X68249219Y-107705220D01*
X68431610Y-107612287D01*
X68524590Y-107544732D01*
X68597213Y-107491971D01*
X68597215Y-107491968D01*
X68597219Y-107491966D01*
X68741966Y-107347219D01*
X68741968Y-107347215D01*
X68741971Y-107347213D01*
X68862286Y-107181611D01*
X68862415Y-107181359D01*
X68889795Y-107127621D01*
X68937769Y-107076826D01*
X69005589Y-107060030D01*
X69071725Y-107082567D01*
X69110765Y-107127621D01*
X69138141Y-107181350D01*
X69138147Y-107181359D01*
X69170523Y-107225921D01*
X69170524Y-107225922D01*
X69850000Y-106546446D01*
X69850000Y-106552661D01*
X69877259Y-106654394D01*
X69929920Y-106745606D01*
X70004394Y-106820080D01*
X70095606Y-106872741D01*
X70197339Y-106900000D01*
X70203553Y-106900000D01*
X69524076Y-107579474D01*
X69568650Y-107611859D01*
X69750968Y-107704755D01*
X69945582Y-107767990D01*
X70147683Y-107800000D01*
X70352317Y-107800000D01*
X70554417Y-107767990D01*
X70710433Y-107717296D01*
X70780274Y-107715300D01*
X70840107Y-107751380D01*
X70870936Y-107814081D01*
X70862972Y-107883495D01*
X70836433Y-107922908D01*
X68076147Y-110683194D01*
X68014824Y-110716679D01*
X67969068Y-110717986D01*
X67900904Y-110707190D01*
X67852352Y-110699500D01*
X67647648Y-110699500D01*
X67623329Y-110703351D01*
X67445465Y-110731522D01*
X67250776Y-110794781D01*
X67068386Y-110887715D01*
X66902786Y-111008028D01*
X66758028Y-111152786D01*
X66637715Y-111318386D01*
X66544781Y-111500776D01*
X66481522Y-111695465D01*
X66449500Y-111897648D01*
X66449500Y-112102351D01*
X66481522Y-112304534D01*
X66544781Y-112499223D01*
X66587248Y-112582567D01*
X66637585Y-112681359D01*
X66637715Y-112681613D01*
X66758028Y-112847213D01*
X66902786Y-112991971D01*
X67010336Y-113070109D01*
X67068390Y-113112287D01*
X67184607Y-113171503D01*
X67250776Y-113205218D01*
X67250778Y-113205218D01*
X67250781Y-113205220D01*
X67355137Y-113239127D01*
X67445465Y-113268477D01*
X67546557Y-113284488D01*
X67647648Y-113300500D01*
X67647649Y-113300500D01*
X67852351Y-113300500D01*
X67852352Y-113300500D01*
X68054534Y-113268477D01*
X68249219Y-113205220D01*
X68431610Y-113112287D01*
X68535484Y-113036819D01*
X68597213Y-112991971D01*
X68597215Y-112991968D01*
X68597219Y-112991966D01*
X68741966Y-112847219D01*
X68741968Y-112847215D01*
X68741971Y-112847213D01*
X68862286Y-112681611D01*
X68862415Y-112681359D01*
X68889795Y-112627621D01*
X68937769Y-112576826D01*
X69005589Y-112560030D01*
X69071725Y-112582567D01*
X69110765Y-112627621D01*
X69138141Y-112681350D01*
X69138147Y-112681359D01*
X69170523Y-112725921D01*
X69170524Y-112725922D01*
X69850000Y-112046446D01*
X69850000Y-112052661D01*
X69877259Y-112154394D01*
X69929920Y-112245606D01*
X70004394Y-112320080D01*
X70095606Y-112372741D01*
X70197339Y-112400000D01*
X70203553Y-112400000D01*
X69524076Y-113079474D01*
X69568650Y-113111859D01*
X69750968Y-113204755D01*
X69945582Y-113267990D01*
X70147683Y-113300000D01*
X70352317Y-113300000D01*
X70554417Y-113267990D01*
X70749031Y-113204755D01*
X70931349Y-113111859D01*
X70975921Y-113079474D01*
X70296447Y-112400000D01*
X70302661Y-112400000D01*
X70404394Y-112372741D01*
X70495606Y-112320080D01*
X70570080Y-112245606D01*
X70622741Y-112154394D01*
X70650000Y-112052661D01*
X70650000Y-112046447D01*
X71329474Y-112725921D01*
X71361859Y-112681349D01*
X71454755Y-112499031D01*
X71517990Y-112304417D01*
X71550000Y-112102317D01*
X71550000Y-111897682D01*
X71517990Y-111695582D01*
X71454755Y-111500968D01*
X71361859Y-111318650D01*
X71329474Y-111274077D01*
X71329474Y-111274076D01*
X70650000Y-111953551D01*
X70650000Y-111947339D01*
X70622741Y-111845606D01*
X70570080Y-111754394D01*
X70495606Y-111679920D01*
X70404394Y-111627259D01*
X70302661Y-111600000D01*
X70296446Y-111600000D01*
X70975922Y-110920524D01*
X70975921Y-110920523D01*
X70931359Y-110888147D01*
X70931350Y-110888141D01*
X70749031Y-110795244D01*
X70554417Y-110732009D01*
X70352317Y-110700000D01*
X70340017Y-110700000D01*
X70272978Y-110680315D01*
X70227223Y-110627511D01*
X70217279Y-110558353D01*
X70246304Y-110494797D01*
X70252320Y-110488335D01*
X71371783Y-109368872D01*
X74959500Y-109368872D01*
X74959500Y-109631127D01*
X74986123Y-109833339D01*
X74993730Y-109891116D01*
X75047109Y-110090330D01*
X75061602Y-110144418D01*
X75061605Y-110144428D01*
X75161953Y-110386690D01*
X75161958Y-110386700D01*
X75293075Y-110613803D01*
X75452718Y-110821851D01*
X75452726Y-110821860D01*
X75638140Y-111007274D01*
X75638148Y-111007281D01*
X75846196Y-111166924D01*
X76073299Y-111298041D01*
X76073309Y-111298046D01*
X76216096Y-111357190D01*
X76315581Y-111398398D01*
X76568884Y-111466270D01*
X76817188Y-111498960D01*
X76825074Y-111499999D01*
X76828880Y-111500500D01*
X76828887Y-111500500D01*
X77091113Y-111500500D01*
X77091120Y-111500500D01*
X77351116Y-111466270D01*
X77604419Y-111398398D01*
X77846697Y-111298043D01*
X78073803Y-111166924D01*
X78281851Y-111007282D01*
X78281855Y-111007277D01*
X78281860Y-111007274D01*
X78467274Y-110821860D01*
X78467277Y-110821855D01*
X78467282Y-110821851D01*
X78626924Y-110613803D01*
X78758043Y-110386697D01*
X78858398Y-110144419D01*
X78926270Y-109891116D01*
X78960500Y-109631120D01*
X78960500Y-109368880D01*
X78926270Y-109108884D01*
X78858398Y-108855581D01*
X78810523Y-108740000D01*
X78758046Y-108613309D01*
X78758041Y-108613299D01*
X78626924Y-108386196D01*
X78467281Y-108178148D01*
X78467274Y-108178140D01*
X78281860Y-107992726D01*
X78281851Y-107992718D01*
X78228989Y-107952155D01*
X80040000Y-107952155D01*
X80040000Y-109250000D01*
X81320936Y-109250000D01*
X81309207Y-109278316D01*
X81280000Y-109425147D01*
X81280000Y-109574853D01*
X81309207Y-109721684D01*
X81320936Y-109750000D01*
X80040000Y-109750000D01*
X80040000Y-111047844D01*
X80046401Y-111107372D01*
X80046403Y-111107379D01*
X80096645Y-111242086D01*
X80096649Y-111242093D01*
X80182809Y-111357187D01*
X80182812Y-111357190D01*
X80297906Y-111443350D01*
X80297913Y-111443354D01*
X80432620Y-111493596D01*
X80432627Y-111493598D01*
X80492155Y-111499999D01*
X80492172Y-111500000D01*
X81790000Y-111500000D01*
X81790000Y-110219064D01*
X81818316Y-110230793D01*
X81965147Y-110260000D01*
X82114853Y-110260000D01*
X82261684Y-110230793D01*
X82290000Y-110219064D01*
X82290000Y-111500000D01*
X83587828Y-111500000D01*
X83587844Y-111499999D01*
X83647372Y-111493598D01*
X83647379Y-111493596D01*
X83782086Y-111443354D01*
X83782093Y-111443350D01*
X83897187Y-111357190D01*
X83897190Y-111357187D01*
X83983350Y-111242093D01*
X83983354Y-111242086D01*
X84033596Y-111107379D01*
X84033598Y-111107372D01*
X84039999Y-111047844D01*
X84040000Y-111047827D01*
X84040000Y-109750000D01*
X82759064Y-109750000D01*
X82770793Y-109721684D01*
X82800000Y-109574853D01*
X82800000Y-109425147D01*
X82770793Y-109278316D01*
X82759064Y-109250000D01*
X84040000Y-109250000D01*
X84040000Y-107952172D01*
X84039999Y-107952155D01*
X84033598Y-107892627D01*
X84033596Y-107892620D01*
X83983354Y-107757913D01*
X83983350Y-107757906D01*
X83897190Y-107642812D01*
X83897187Y-107642809D01*
X83782093Y-107556649D01*
X83782086Y-107556645D01*
X83647379Y-107506403D01*
X83647372Y-107506401D01*
X83587844Y-107500000D01*
X82290000Y-107500000D01*
X82290000Y-108780935D01*
X82261684Y-108769207D01*
X82114853Y-108740000D01*
X81965147Y-108740000D01*
X81818316Y-108769207D01*
X81790000Y-108780935D01*
X81790000Y-107500000D01*
X80492155Y-107500000D01*
X80432627Y-107506401D01*
X80432620Y-107506403D01*
X80297913Y-107556645D01*
X80297906Y-107556649D01*
X80182812Y-107642809D01*
X80182809Y-107642812D01*
X80096649Y-107757906D01*
X80096645Y-107757913D01*
X80046403Y-107892620D01*
X80046401Y-107892627D01*
X80040000Y-107952155D01*
X78228989Y-107952155D01*
X78073803Y-107833075D01*
X77846700Y-107701958D01*
X77846690Y-107701953D01*
X77604428Y-107601605D01*
X77604421Y-107601603D01*
X77604419Y-107601602D01*
X77351116Y-107533730D01*
X77293339Y-107526123D01*
X77091127Y-107499500D01*
X77091120Y-107499500D01*
X76828880Y-107499500D01*
X76828872Y-107499500D01*
X76597772Y-107529926D01*
X76568884Y-107533730D01*
X76315581Y-107601602D01*
X76315571Y-107601605D01*
X76073309Y-107701953D01*
X76073299Y-107701958D01*
X75846196Y-107833075D01*
X75638148Y-107992718D01*
X75452718Y-108178148D01*
X75293075Y-108386196D01*
X75161958Y-108613299D01*
X75161953Y-108613309D01*
X75061605Y-108855571D01*
X75061602Y-108855581D01*
X75016340Y-109024504D01*
X74993730Y-109108885D01*
X74959500Y-109368872D01*
X71371783Y-109368872D01*
X77963838Y-102776819D01*
X78025161Y-102743334D01*
X78051519Y-102740500D01*
X81276453Y-102740500D01*
X81343492Y-102760185D01*
X81376769Y-102791614D01*
X81411842Y-102839887D01*
X81469892Y-102919788D01*
X81620213Y-103070109D01*
X81792179Y-103195048D01*
X81792181Y-103195049D01*
X81792184Y-103195051D01*
X81981588Y-103291557D01*
X82183757Y-103357246D01*
X82393713Y-103390500D01*
X82393714Y-103390500D01*
X82606286Y-103390500D01*
X82606287Y-103390500D01*
X82816243Y-103357246D01*
X83018412Y-103291557D01*
X83207816Y-103195051D01*
X83229789Y-103179086D01*
X83379786Y-103070109D01*
X83379788Y-103070106D01*
X83379792Y-103070104D01*
X83530104Y-102919792D01*
X83530106Y-102919788D01*
X83530109Y-102919786D01*
X83655048Y-102747820D01*
X83655047Y-102747820D01*
X83655051Y-102747816D01*
X83751557Y-102558412D01*
X83817246Y-102356243D01*
X83850500Y-102146287D01*
X83850500Y-101933713D01*
X83825715Y-101777227D01*
X83834670Y-101707933D01*
X83860504Y-101670151D01*
X84787820Y-100742836D01*
X84849142Y-100709352D01*
X84918834Y-100714336D01*
X84974767Y-100756208D01*
X84999184Y-100821672D01*
X84999500Y-100830518D01*
X84999500Y-105607319D01*
X84999684Y-105609892D01*
X85000000Y-105618738D01*
X85000000Y-107000000D01*
X86381265Y-107000000D01*
X86390113Y-107000316D01*
X86392679Y-107000499D01*
X86392682Y-107000500D01*
X86434108Y-107000500D01*
X88949138Y-107000500D01*
X89016177Y-107020185D01*
X89036819Y-107036819D01*
X89938319Y-107938319D01*
X89971804Y-107999642D01*
X89966820Y-108069334D01*
X89924948Y-108125267D01*
X89859484Y-108149684D01*
X89850638Y-108150000D01*
X89250000Y-108150000D01*
X89250000Y-109066988D01*
X89192993Y-109034075D01*
X89065826Y-109000000D01*
X88934174Y-109000000D01*
X88807007Y-109034075D01*
X88750000Y-109066988D01*
X88750000Y-108150000D01*
X88102155Y-108150000D01*
X88042627Y-108156401D01*
X88042620Y-108156403D01*
X87907913Y-108206645D01*
X87907906Y-108206649D01*
X87792812Y-108292809D01*
X87792809Y-108292812D01*
X87706649Y-108407906D01*
X87706645Y-108407913D01*
X87656403Y-108542620D01*
X87656401Y-108542627D01*
X87650000Y-108602155D01*
X87650000Y-109250000D01*
X88566988Y-109250000D01*
X88534075Y-109307007D01*
X88500000Y-109434174D01*
X88500000Y-109565826D01*
X88534075Y-109692993D01*
X88566988Y-109750000D01*
X87650000Y-109750000D01*
X87650000Y-110397844D01*
X87656401Y-110457372D01*
X87656403Y-110457379D01*
X87706645Y-110592086D01*
X87706649Y-110592093D01*
X87792809Y-110707187D01*
X87792812Y-110707190D01*
X87907906Y-110793350D01*
X87907913Y-110793354D01*
X88039470Y-110842422D01*
X88095404Y-110884293D01*
X88119821Y-110949758D01*
X88104969Y-111018031D01*
X88083819Y-111046285D01*
X87969889Y-111160215D01*
X87844951Y-111332179D01*
X87748444Y-111521585D01*
X87682753Y-111723760D01*
X87649500Y-111933713D01*
X87649500Y-112146286D01*
X87674545Y-112304417D01*
X87682754Y-112356243D01*
X87729211Y-112499223D01*
X87748444Y-112558414D01*
X87844951Y-112747820D01*
X87969890Y-112919786D01*
X88120213Y-113070109D01*
X88292179Y-113195048D01*
X88292181Y-113195049D01*
X88292184Y-113195051D01*
X88481588Y-113291557D01*
X88683757Y-113357246D01*
X88893713Y-113390500D01*
X88893714Y-113390500D01*
X89106286Y-113390500D01*
X89106287Y-113390500D01*
X89316243Y-113357246D01*
X89518412Y-113291557D01*
X89707816Y-113195051D01*
X89822321Y-113111859D01*
X89879786Y-113070109D01*
X89879788Y-113070106D01*
X89879792Y-113070104D01*
X90030104Y-112919792D01*
X90030106Y-112919788D01*
X90030109Y-112919786D01*
X90155048Y-112747820D01*
X90155047Y-112747820D01*
X90155051Y-112747816D01*
X90251557Y-112558412D01*
X90317246Y-112356243D01*
X90350500Y-112146287D01*
X90350500Y-111933713D01*
X90317246Y-111723757D01*
X90251557Y-111521588D01*
X90155051Y-111332184D01*
X90155049Y-111332181D01*
X90155048Y-111332179D01*
X90030109Y-111160213D01*
X89916181Y-111046285D01*
X89882696Y-110984962D01*
X89887680Y-110915270D01*
X89929552Y-110859337D01*
X89960529Y-110842422D01*
X90092086Y-110793354D01*
X90092093Y-110793350D01*
X90207187Y-110707190D01*
X90207190Y-110707187D01*
X90293350Y-110592093D01*
X90293354Y-110592086D01*
X90343596Y-110457379D01*
X90343598Y-110457372D01*
X90349999Y-110397844D01*
X90350000Y-110397827D01*
X90350000Y-109750000D01*
X89433012Y-109750000D01*
X89465925Y-109692993D01*
X89500000Y-109565826D01*
X89500000Y-109434174D01*
X89465925Y-109307007D01*
X89433012Y-109250000D01*
X90350000Y-109250000D01*
X90350000Y-108649362D01*
X90369685Y-108582323D01*
X90422489Y-108536568D01*
X90491647Y-108526624D01*
X90555203Y-108555649D01*
X90561681Y-108561681D01*
X90963181Y-108963181D01*
X90996666Y-109024504D01*
X90999500Y-109050862D01*
X90999500Y-112949138D01*
X90979815Y-113016177D01*
X90963181Y-113036819D01*
X89036819Y-114963181D01*
X88975496Y-114996666D01*
X88949138Y-114999500D01*
X59050862Y-114999500D01*
X58983823Y-114979815D01*
X58963181Y-114963181D01*
X57036819Y-113036819D01*
X57003334Y-112975496D01*
X57000500Y-112949138D01*
X57000500Y-101959635D01*
X58804500Y-101959635D01*
X58804500Y-103960370D01*
X58804501Y-103960376D01*
X58810908Y-104019983D01*
X58861202Y-104154828D01*
X58861206Y-104154835D01*
X58947452Y-104270044D01*
X58947455Y-104270047D01*
X59062664Y-104356293D01*
X59062667Y-104356295D01*
X59062668Y-104356295D01*
X59062669Y-104356296D01*
X59091025Y-104366872D01*
X59146958Y-104408742D01*
X59171376Y-104474206D01*
X59156525Y-104542479D01*
X59148010Y-104555939D01*
X59015213Y-104738719D01*
X58911417Y-104942429D01*
X58840765Y-105159871D01*
X58826491Y-105250000D01*
X59814252Y-105250000D01*
X59792482Y-105287708D01*
X59755000Y-105427591D01*
X59755000Y-105572409D01*
X59792482Y-105712292D01*
X59814252Y-105750000D01*
X58826491Y-105750000D01*
X58840765Y-105840128D01*
X58911417Y-106057570D01*
X59015211Y-106261276D01*
X59149597Y-106446242D01*
X59311257Y-106607902D01*
X59311263Y-106607907D01*
X59395863Y-106669372D01*
X59438529Y-106724701D01*
X59444508Y-106794315D01*
X59411903Y-106856110D01*
X59395864Y-106870007D01*
X59310940Y-106931709D01*
X59310931Y-106931716D01*
X59149216Y-107093431D01*
X59149216Y-107093432D01*
X59149214Y-107093434D01*
X59124376Y-107127621D01*
X59014783Y-107278461D01*
X58910950Y-107482244D01*
X58840278Y-107699750D01*
X58840278Y-107699753D01*
X58804500Y-107925646D01*
X58804500Y-108154353D01*
X58840278Y-108380246D01*
X58840278Y-108380249D01*
X58910950Y-108597755D01*
X59014783Y-108801538D01*
X59149214Y-108986566D01*
X59310934Y-109148286D01*
X59495962Y-109282717D01*
X59699742Y-109386548D01*
X59699744Y-109386549D01*
X59917251Y-109457221D01*
X59917252Y-109457221D01*
X59917255Y-109457222D01*
X60143146Y-109493000D01*
X60143147Y-109493000D01*
X60466853Y-109493000D01*
X60466854Y-109493000D01*
X60692745Y-109457222D01*
X60692748Y-109457221D01*
X60692749Y-109457221D01*
X60910255Y-109386549D01*
X60910255Y-109386548D01*
X60910258Y-109386548D01*
X61114038Y-109282717D01*
X61299066Y-109148286D01*
X61460786Y-108986566D01*
X61595217Y-108801538D01*
X61699048Y-108597758D01*
X61760732Y-108407913D01*
X61769721Y-108380249D01*
X61769721Y-108380248D01*
X61769722Y-108380245D01*
X61805500Y-108154354D01*
X61805500Y-107925646D01*
X61769722Y-107699755D01*
X61769721Y-107699751D01*
X61769721Y-107699750D01*
X61699049Y-107482244D01*
X61699048Y-107482242D01*
X61595217Y-107278462D01*
X61460786Y-107093434D01*
X61299066Y-106931714D01*
X61214134Y-106870007D01*
X61171470Y-106814678D01*
X61165491Y-106745064D01*
X61198097Y-106683269D01*
X61214137Y-106669371D01*
X61298739Y-106607905D01*
X61460402Y-106446242D01*
X61460407Y-106446236D01*
X61552203Y-106319891D01*
X61552203Y-106319890D01*
X61594788Y-106261276D01*
X61698582Y-106057570D01*
X61769234Y-105840128D01*
X61783509Y-105750000D01*
X60795748Y-105750000D01*
X60817518Y-105712292D01*
X60855000Y-105572409D01*
X60855000Y-105427591D01*
X60817518Y-105287708D01*
X60795748Y-105250000D01*
X61783509Y-105250000D01*
X61769234Y-105159871D01*
X61698582Y-104942429D01*
X61594788Y-104738723D01*
X61461988Y-104555940D01*
X61438508Y-104490133D01*
X61454333Y-104422079D01*
X61504439Y-104373384D01*
X61518966Y-104366875D01*
X61547331Y-104356296D01*
X61662546Y-104270046D01*
X61748796Y-104154831D01*
X61799091Y-104019983D01*
X61805500Y-103960373D01*
X61805499Y-102501517D01*
X61825184Y-102434479D01*
X61841813Y-102413842D01*
X63357974Y-100897682D01*
X66450000Y-100897682D01*
X66450000Y-101102317D01*
X66482009Y-101304417D01*
X66545244Y-101499031D01*
X66638141Y-101681350D01*
X66638147Y-101681359D01*
X66670523Y-101725921D01*
X66670524Y-101725922D01*
X67350000Y-101046446D01*
X67350000Y-101052661D01*
X67377259Y-101154394D01*
X67429920Y-101245606D01*
X67504394Y-101320080D01*
X67595606Y-101372741D01*
X67697339Y-101400000D01*
X67703553Y-101400000D01*
X67024076Y-102079474D01*
X67068650Y-102111859D01*
X67250968Y-102204755D01*
X67445582Y-102267990D01*
X67647683Y-102300000D01*
X67852317Y-102300000D01*
X68054417Y-102267990D01*
X68249031Y-102204755D01*
X68431349Y-102111859D01*
X68475921Y-102079474D01*
X67796447Y-101400000D01*
X67802661Y-101400000D01*
X67904394Y-101372741D01*
X67995606Y-101320080D01*
X68070080Y-101245606D01*
X68122741Y-101154394D01*
X68150000Y-101052661D01*
X68150000Y-101046447D01*
X68829474Y-101725921D01*
X68861859Y-101681349D01*
X68889233Y-101627624D01*
X68937207Y-101576827D01*
X69005028Y-101560031D01*
X69071163Y-101582567D01*
X69110203Y-101627621D01*
X69137713Y-101681611D01*
X69258028Y-101847213D01*
X69402786Y-101991971D01*
X69523226Y-102079474D01*
X69568390Y-102112287D01*
X69635117Y-102146286D01*
X69750776Y-102205218D01*
X69750778Y-102205218D01*
X69750781Y-102205220D01*
X69855137Y-102239127D01*
X69945465Y-102268477D01*
X70046557Y-102284488D01*
X70147648Y-102300500D01*
X70147649Y-102300500D01*
X70352351Y-102300500D01*
X70352352Y-102300500D01*
X70554534Y-102268477D01*
X70749219Y-102205220D01*
X70931610Y-102112287D01*
X71024590Y-102044732D01*
X71097213Y-101991971D01*
X71097215Y-101991968D01*
X71097219Y-101991966D01*
X71241966Y-101847219D01*
X71241968Y-101847215D01*
X71241971Y-101847213D01*
X71301582Y-101765164D01*
X71362287Y-101681610D01*
X71455220Y-101499219D01*
X71518477Y-101304534D01*
X71550500Y-101102352D01*
X71550500Y-100897648D01*
X71542257Y-100845606D01*
X71518477Y-100695465D01*
X71487458Y-100600000D01*
X71455220Y-100500781D01*
X71455218Y-100500778D01*
X71455218Y-100500776D01*
X71412750Y-100417429D01*
X71362287Y-100318390D01*
X71330092Y-100274077D01*
X71241971Y-100152786D01*
X71097213Y-100008028D01*
X70931613Y-99887715D01*
X70931612Y-99887714D01*
X70931610Y-99887713D01*
X70874653Y-99858691D01*
X70749223Y-99794781D01*
X70554534Y-99731522D01*
X70379995Y-99703878D01*
X70352352Y-99699500D01*
X70147648Y-99699500D01*
X70123329Y-99703351D01*
X69945465Y-99731522D01*
X69750776Y-99794781D01*
X69568386Y-99887715D01*
X69402786Y-100008028D01*
X69258028Y-100152786D01*
X69137714Y-100318386D01*
X69110203Y-100372379D01*
X69062227Y-100423174D01*
X68994406Y-100439968D01*
X68928272Y-100417429D01*
X68889234Y-100372376D01*
X68861861Y-100318652D01*
X68829474Y-100274077D01*
X68829474Y-100274076D01*
X68150000Y-100953551D01*
X68150000Y-100947339D01*
X68122741Y-100845606D01*
X68070080Y-100754394D01*
X67995606Y-100679920D01*
X67904394Y-100627259D01*
X67802661Y-100600000D01*
X67796446Y-100600000D01*
X68475922Y-99920524D01*
X68475921Y-99920523D01*
X68431359Y-99888147D01*
X68431350Y-99888141D01*
X68249031Y-99795244D01*
X68054417Y-99732009D01*
X67852317Y-99700000D01*
X67647683Y-99700000D01*
X67445582Y-99732009D01*
X67250968Y-99795244D01*
X67068644Y-99888143D01*
X67024077Y-99920523D01*
X67024077Y-99920524D01*
X67703554Y-100600000D01*
X67697339Y-100600000D01*
X67595606Y-100627259D01*
X67504394Y-100679920D01*
X67429920Y-100754394D01*
X67377259Y-100845606D01*
X67350000Y-100947339D01*
X67350000Y-100953553D01*
X66670524Y-100274077D01*
X66670523Y-100274077D01*
X66638143Y-100318644D01*
X66545244Y-100500968D01*
X66482009Y-100695582D01*
X66450000Y-100897682D01*
X63357974Y-100897682D01*
X63883280Y-100372376D01*
X64375555Y-99880102D01*
X66544112Y-97711545D01*
X66544112Y-97711544D01*
X66544114Y-97711543D01*
X66620775Y-97596811D01*
X66673580Y-97469329D01*
X66677593Y-97449149D01*
X66680624Y-97433917D01*
X66680624Y-97433914D01*
X66700500Y-97333993D01*
X66700500Y-96848137D01*
X66720185Y-96781098D01*
X66751615Y-96747818D01*
X66782073Y-96725690D01*
X66915690Y-96592073D01*
X67026760Y-96439199D01*
X67112547Y-96270832D01*
X67170940Y-96091118D01*
X67175868Y-96060000D01*
X70824638Y-96060000D01*
X70829548Y-96091002D01*
X70887914Y-96270637D01*
X70973670Y-96438940D01*
X71084685Y-96591741D01*
X71084689Y-96591746D01*
X71218253Y-96725310D01*
X71218258Y-96725314D01*
X71371059Y-96836329D01*
X71539362Y-96922085D01*
X71718997Y-96980451D01*
X71750000Y-96985362D01*
X71750000Y-96985361D01*
X72250000Y-96985361D01*
X72281002Y-96980451D01*
X72460637Y-96922085D01*
X72628940Y-96836329D01*
X72781741Y-96725314D01*
X72781746Y-96725310D01*
X72915310Y-96591746D01*
X72915314Y-96591741D01*
X73026329Y-96438940D01*
X73112085Y-96270637D01*
X73170451Y-96091002D01*
X73175362Y-96060000D01*
X72250000Y-96060000D01*
X72250000Y-96985361D01*
X71750000Y-96985361D01*
X71750000Y-96060000D01*
X70824638Y-96060000D01*
X67175868Y-96060000D01*
X67187363Y-95987423D01*
X67200500Y-95904485D01*
X67200500Y-95763922D01*
X71650000Y-95763922D01*
X71650000Y-95856078D01*
X71673852Y-95945095D01*
X71719930Y-96024905D01*
X71785095Y-96090070D01*
X71864905Y-96136148D01*
X71953922Y-96160000D01*
X72046078Y-96160000D01*
X72135095Y-96136148D01*
X72214905Y-96090070D01*
X72280070Y-96024905D01*
X72326148Y-95945095D01*
X72350000Y-95856078D01*
X72350000Y-95763922D01*
X72326148Y-95674905D01*
X72280070Y-95595095D01*
X72244975Y-95560000D01*
X72250000Y-95560000D01*
X73175362Y-95560000D01*
X73170451Y-95528997D01*
X73112085Y-95349362D01*
X73026329Y-95181059D01*
X72915314Y-95028258D01*
X72915310Y-95028253D01*
X72781746Y-94894689D01*
X72781741Y-94894685D01*
X72628940Y-94783670D01*
X72460635Y-94697913D01*
X72281004Y-94639549D01*
X72280995Y-94639547D01*
X72250000Y-94634637D01*
X72250000Y-95560000D01*
X72244975Y-95560000D01*
X72214905Y-95529930D01*
X72135095Y-95483852D01*
X72046078Y-95460000D01*
X71953922Y-95460000D01*
X71864905Y-95483852D01*
X71785095Y-95529930D01*
X71719930Y-95595095D01*
X71673852Y-95674905D01*
X71650000Y-95763922D01*
X67200500Y-95763922D01*
X67200500Y-95715514D01*
X67184811Y-95616462D01*
X67184811Y-95616460D01*
X67175869Y-95560000D01*
X70824638Y-95560000D01*
X71750000Y-95560000D01*
X71750000Y-94634637D01*
X71749999Y-94634637D01*
X71719004Y-94639547D01*
X71718995Y-94639549D01*
X71539364Y-94697913D01*
X71371059Y-94783670D01*
X71218258Y-94894685D01*
X71218253Y-94894689D01*
X71084689Y-95028253D01*
X71084685Y-95028258D01*
X70973670Y-95181059D01*
X70887914Y-95349362D01*
X70829548Y-95528997D01*
X70824638Y-95560000D01*
X67175869Y-95560000D01*
X67170940Y-95528882D01*
X67170940Y-95528881D01*
X67112545Y-95349163D01*
X67026759Y-95180800D01*
X66915690Y-95027927D01*
X66782073Y-94894310D01*
X66629199Y-94783240D01*
X66460836Y-94697454D01*
X66281118Y-94639059D01*
X66094486Y-94609500D01*
X66094481Y-94609500D01*
X65905519Y-94609500D01*
X65905514Y-94609500D01*
X65718881Y-94639059D01*
X65539163Y-94697454D01*
X65370800Y-94783240D01*
X65283579Y-94846610D01*
X65217927Y-94894310D01*
X65217925Y-94894312D01*
X65217924Y-94894312D01*
X65084312Y-95027924D01*
X65084312Y-95027925D01*
X65084310Y-95027927D01*
X65084070Y-95028258D01*
X64973240Y-95180800D01*
X64887454Y-95349163D01*
X64829059Y-95528881D01*
X64799500Y-95715513D01*
X64799500Y-95904486D01*
X64829059Y-96091118D01*
X64887454Y-96270836D01*
X64973108Y-96438940D01*
X64973240Y-96439199D01*
X65084310Y-96592073D01*
X65217927Y-96725690D01*
X65217928Y-96725691D01*
X65217927Y-96725691D01*
X65238442Y-96740595D01*
X65248383Y-96747818D01*
X65251724Y-96752150D01*
X65256703Y-96754424D01*
X65272834Y-96779525D01*
X65291050Y-96803147D01*
X65292303Y-96809819D01*
X65294477Y-96813202D01*
X65299500Y-96848137D01*
X65299500Y-96923480D01*
X65279815Y-96990519D01*
X65263181Y-97011161D01*
X60803660Y-101470681D01*
X60742337Y-101504166D01*
X60715979Y-101507000D01*
X59257129Y-101507000D01*
X59257123Y-101507001D01*
X59197516Y-101513408D01*
X59062671Y-101563702D01*
X59062664Y-101563706D01*
X58947455Y-101649952D01*
X58947452Y-101649955D01*
X58861206Y-101765164D01*
X58861202Y-101765171D01*
X58810908Y-101900017D01*
X58804501Y-101959616D01*
X58804500Y-101959635D01*
X57000500Y-101959635D01*
X57000500Y-95715513D01*
X58799500Y-95715513D01*
X58799500Y-95904486D01*
X58829059Y-96091118D01*
X58887454Y-96270836D01*
X58973108Y-96438940D01*
X58973240Y-96439199D01*
X59084310Y-96592073D01*
X59217927Y-96725690D01*
X59370801Y-96836760D01*
X59393130Y-96848137D01*
X59539163Y-96922545D01*
X59539165Y-96922545D01*
X59539168Y-96922547D01*
X59635497Y-96953846D01*
X59718881Y-96980940D01*
X59905514Y-97010500D01*
X59905519Y-97010500D01*
X60094486Y-97010500D01*
X60281118Y-96980940D01*
X60282623Y-96980451D01*
X60460832Y-96922547D01*
X60629199Y-96836760D01*
X60782073Y-96725690D01*
X60915690Y-96592073D01*
X61026760Y-96439199D01*
X61112547Y-96270832D01*
X61170940Y-96091118D01*
X61171106Y-96090070D01*
X61200500Y-95904486D01*
X61200500Y-95715513D01*
X61170940Y-95528881D01*
X61112545Y-95349163D01*
X61026759Y-95180800D01*
X60915690Y-95027927D01*
X60782073Y-94894310D01*
X60629199Y-94783240D01*
X60460836Y-94697454D01*
X60281118Y-94639059D01*
X60094486Y-94609500D01*
X60094481Y-94609500D01*
X59905519Y-94609500D01*
X59905514Y-94609500D01*
X59718881Y-94639059D01*
X59539163Y-94697454D01*
X59370800Y-94783240D01*
X59283579Y-94846610D01*
X59217927Y-94894310D01*
X59217925Y-94894312D01*
X59217924Y-94894312D01*
X59084312Y-95027924D01*
X59084312Y-95027925D01*
X59084310Y-95027927D01*
X59084070Y-95028258D01*
X58973240Y-95180800D01*
X58887454Y-95349163D01*
X58829059Y-95528881D01*
X58799500Y-95715513D01*
X57000500Y-95715513D01*
X57000500Y-88095513D01*
X58799500Y-88095513D01*
X58799500Y-88284486D01*
X58829059Y-88471118D01*
X58887454Y-88650836D01*
X58946959Y-88767620D01*
X58973240Y-88819199D01*
X59084310Y-88972073D01*
X59217927Y-89105690D01*
X59370801Y-89216760D01*
X59450347Y-89257290D01*
X59539163Y-89302545D01*
X59539165Y-89302545D01*
X59539168Y-89302547D01*
X59608271Y-89325000D01*
X59718881Y-89360940D01*
X59905514Y-89390500D01*
X59905519Y-89390500D01*
X60094486Y-89390500D01*
X60281118Y-89360940D01*
X60460832Y-89302547D01*
X60629199Y-89216760D01*
X60782073Y-89105690D01*
X60915690Y-88972073D01*
X61026760Y-88819199D01*
X61112547Y-88650832D01*
X61170940Y-88471118D01*
X61197529Y-88303242D01*
X61200500Y-88284486D01*
X61200500Y-88095513D01*
X64799500Y-88095513D01*
X64799500Y-88284486D01*
X64829059Y-88471118D01*
X64887454Y-88650836D01*
X64946959Y-88767620D01*
X64973240Y-88819199D01*
X65084310Y-88972073D01*
X65217927Y-89105690D01*
X65370801Y-89216760D01*
X65450347Y-89257290D01*
X65539163Y-89302545D01*
X65539165Y-89302545D01*
X65539168Y-89302547D01*
X65608271Y-89325000D01*
X65718881Y-89360940D01*
X65905514Y-89390500D01*
X65905519Y-89390500D01*
X66094486Y-89390500D01*
X66281118Y-89360940D01*
X66460832Y-89302547D01*
X66629199Y-89216760D01*
X66782073Y-89105690D01*
X66915690Y-88972073D01*
X67026760Y-88819199D01*
X67112547Y-88650832D01*
X67170940Y-88471118D01*
X67197529Y-88303242D01*
X67200500Y-88284486D01*
X67200500Y-88095520D01*
X67194610Y-88058333D01*
X67203564Y-87989040D01*
X67229402Y-87951254D01*
X67554838Y-87625819D01*
X67616161Y-87592334D01*
X67642519Y-87589500D01*
X70762163Y-87589500D01*
X70829202Y-87609185D01*
X70874957Y-87661989D01*
X70884901Y-87731147D01*
X70880096Y-87751810D01*
X70860818Y-87811141D01*
X70829059Y-87908881D01*
X70799500Y-88095513D01*
X70799500Y-88284486D01*
X70829059Y-88471118D01*
X70887454Y-88650836D01*
X70946959Y-88767620D01*
X70973240Y-88819199D01*
X71084310Y-88972073D01*
X71217927Y-89105690D01*
X71370801Y-89216760D01*
X71450347Y-89257290D01*
X71539163Y-89302545D01*
X71539165Y-89302545D01*
X71539168Y-89302547D01*
X71608271Y-89325000D01*
X71718881Y-89360940D01*
X71905514Y-89390500D01*
X71905519Y-89390500D01*
X72094486Y-89390500D01*
X72281118Y-89360940D01*
X72460832Y-89302547D01*
X72629199Y-89216760D01*
X72782073Y-89105690D01*
X72915690Y-88972073D01*
X73026760Y-88819199D01*
X73112547Y-88650832D01*
X73170940Y-88471118D01*
X73197529Y-88303242D01*
X73200500Y-88284486D01*
X73200500Y-88095513D01*
X73170940Y-87908881D01*
X73156253Y-87863682D01*
X73119905Y-87751816D01*
X73117911Y-87681978D01*
X73153991Y-87622145D01*
X73216691Y-87591316D01*
X73237837Y-87589500D01*
X79552519Y-87589500D01*
X79619558Y-87609185D01*
X79665313Y-87661989D01*
X79670450Y-87675182D01*
X79702103Y-87772603D01*
X79702104Y-87772606D01*
X79802187Y-87969025D01*
X79931752Y-88147358D01*
X79931756Y-88147363D01*
X79982316Y-88197923D01*
X80015801Y-88259246D01*
X80010817Y-88328938D01*
X79968945Y-88384871D01*
X79937969Y-88401785D01*
X79857918Y-88431643D01*
X79857906Y-88431649D01*
X79742812Y-88517809D01*
X79742809Y-88517812D01*
X79656649Y-88632906D01*
X79656645Y-88632913D01*
X79606403Y-88767620D01*
X79606401Y-88767627D01*
X79600000Y-88827155D01*
X79600000Y-89525000D01*
X80624722Y-89525000D01*
X80580667Y-89601306D01*
X80550000Y-89715756D01*
X80550000Y-89834244D01*
X80580667Y-89948694D01*
X80624722Y-90025000D01*
X79600000Y-90025000D01*
X79600000Y-90722844D01*
X79606401Y-90782372D01*
X79606403Y-90782379D01*
X79656645Y-90917086D01*
X79656649Y-90917093D01*
X79742809Y-91032187D01*
X79742812Y-91032190D01*
X79857906Y-91118350D01*
X79857913Y-91118354D01*
X79992620Y-91168596D01*
X79992627Y-91168598D01*
X80052155Y-91174999D01*
X80052172Y-91175000D01*
X80750000Y-91175000D01*
X80750000Y-90150277D01*
X80826306Y-90194333D01*
X80940756Y-90225000D01*
X81059244Y-90225000D01*
X81173694Y-90194333D01*
X81250000Y-90150277D01*
X81250000Y-91175000D01*
X81947828Y-91175000D01*
X81947844Y-91174999D01*
X82007372Y-91168598D01*
X82007379Y-91168596D01*
X82142086Y-91118354D01*
X82142093Y-91118350D01*
X82257187Y-91032190D01*
X82257190Y-91032187D01*
X82343350Y-90917093D01*
X82343354Y-90917086D01*
X82393596Y-90782379D01*
X82393598Y-90782372D01*
X82399999Y-90722844D01*
X82400000Y-90722827D01*
X82400000Y-90025000D01*
X81375278Y-90025000D01*
X81419333Y-89948694D01*
X81450000Y-89834244D01*
X81450000Y-89715756D01*
X81419333Y-89601306D01*
X81375278Y-89525000D01*
X82400000Y-89525000D01*
X82400000Y-88827172D01*
X82399999Y-88827155D01*
X82393598Y-88767627D01*
X82393596Y-88767620D01*
X82343354Y-88632913D01*
X82343350Y-88632906D01*
X82257190Y-88517812D01*
X82257187Y-88517809D01*
X82142093Y-88431649D01*
X82142087Y-88431646D01*
X82062030Y-88401786D01*
X82006097Y-88359914D01*
X81981680Y-88294450D01*
X81996532Y-88226177D01*
X82017681Y-88197925D01*
X82068242Y-88147365D01*
X82197815Y-87969022D01*
X82297895Y-87772606D01*
X82366015Y-87562951D01*
X82400500Y-87345222D01*
X82400500Y-87124778D01*
X82366015Y-86907049D01*
X82297895Y-86697394D01*
X82297895Y-86697393D01*
X82263237Y-86629375D01*
X82197815Y-86500978D01*
X82084409Y-86344887D01*
X82068247Y-86322641D01*
X82068243Y-86322636D01*
X81912363Y-86166756D01*
X81912358Y-86166752D01*
X81734025Y-86037187D01*
X81734024Y-86037186D01*
X81734022Y-86037185D01*
X81671096Y-86005122D01*
X81537606Y-85937104D01*
X81537603Y-85937103D01*
X81327952Y-85868985D01*
X81219086Y-85851742D01*
X81110222Y-85834500D01*
X80889778Y-85834500D01*
X80817201Y-85845995D01*
X80672047Y-85868985D01*
X80462396Y-85937103D01*
X80462393Y-85937104D01*
X80265974Y-86037187D01*
X80090304Y-86164818D01*
X80024498Y-86188298D01*
X80017419Y-86188500D01*
X67232004Y-86188500D01*
X67096677Y-86215418D01*
X67096667Y-86215421D01*
X66969192Y-86268222D01*
X66854454Y-86344887D01*
X66238745Y-86960596D01*
X66177422Y-86994081D01*
X66131668Y-86995389D01*
X66094483Y-86989500D01*
X66094481Y-86989500D01*
X65905519Y-86989500D01*
X65905514Y-86989500D01*
X65718881Y-87019059D01*
X65539163Y-87077454D01*
X65370800Y-87163240D01*
X65283579Y-87226610D01*
X65217927Y-87274310D01*
X65217925Y-87274312D01*
X65217924Y-87274312D01*
X65084312Y-87407924D01*
X65084312Y-87407925D01*
X65084310Y-87407927D01*
X65036610Y-87473579D01*
X64973240Y-87560800D01*
X64887454Y-87729163D01*
X64829059Y-87908881D01*
X64799500Y-88095513D01*
X61200500Y-88095513D01*
X61170940Y-87908881D01*
X61112545Y-87729163D01*
X61026759Y-87560800D01*
X60915690Y-87407927D01*
X60782073Y-87274310D01*
X60629199Y-87163240D01*
X60460836Y-87077454D01*
X60281118Y-87019059D01*
X60094486Y-86989500D01*
X60094481Y-86989500D01*
X59905519Y-86989500D01*
X59905514Y-86989500D01*
X59718881Y-87019059D01*
X59539163Y-87077454D01*
X59370800Y-87163240D01*
X59283579Y-87226610D01*
X59217927Y-87274310D01*
X59217925Y-87274312D01*
X59217924Y-87274312D01*
X59084312Y-87407924D01*
X59084312Y-87407925D01*
X59084310Y-87407927D01*
X59036610Y-87473579D01*
X58973240Y-87560800D01*
X58887454Y-87729163D01*
X58829059Y-87908881D01*
X58799500Y-88095513D01*
X57000500Y-88095513D01*
X57000500Y-76765837D01*
X61549500Y-76765837D01*
X61549500Y-76994162D01*
X61585215Y-77219660D01*
X61655770Y-77436803D01*
X61751326Y-77624341D01*
X61759421Y-77640228D01*
X61893621Y-77824937D01*
X62055063Y-77986379D01*
X62055069Y-77986383D01*
X62114664Y-78029683D01*
X62157330Y-78085013D01*
X62163308Y-78154627D01*
X62130701Y-78216421D01*
X62114664Y-78230317D01*
X62055069Y-78273616D01*
X62055060Y-78273623D01*
X61893622Y-78435061D01*
X61759421Y-78619771D01*
X61655770Y-78823196D01*
X61585215Y-79040339D01*
X61549500Y-79265837D01*
X61549500Y-79494162D01*
X61585215Y-79719660D01*
X61655770Y-79936803D01*
X61759421Y-80140228D01*
X61871552Y-80294562D01*
X61895032Y-80360369D01*
X61879207Y-80428423D01*
X61829101Y-80477118D01*
X61814572Y-80483628D01*
X61807675Y-80486200D01*
X61807664Y-80486206D01*
X61692455Y-80572452D01*
X61692452Y-80572455D01*
X61606206Y-80687664D01*
X61606202Y-80687671D01*
X61555908Y-80822517D01*
X61549501Y-80882116D01*
X61549501Y-80882123D01*
X61549500Y-80882135D01*
X61549500Y-82877870D01*
X61549501Y-82877876D01*
X61555908Y-82937483D01*
X61606202Y-83072328D01*
X61606206Y-83072335D01*
X61692452Y-83187544D01*
X61692455Y-83187547D01*
X61807664Y-83273793D01*
X61807671Y-83273797D01*
X61942517Y-83324091D01*
X61942516Y-83324091D01*
X61949444Y-83324835D01*
X62002127Y-83330500D01*
X63997872Y-83330499D01*
X64057483Y-83324091D01*
X64192331Y-83273796D01*
X64307546Y-83187546D01*
X64393796Y-83072331D01*
X64444091Y-82937483D01*
X64449062Y-82891242D01*
X64475799Y-82826694D01*
X64533191Y-82786846D01*
X64572351Y-82780500D01*
X70657936Y-82780500D01*
X70724975Y-82800185D01*
X70761726Y-82837735D01*
X70761919Y-82837596D01*
X70762866Y-82838899D01*
X70763669Y-82839720D01*
X70764781Y-82841536D01*
X70791180Y-82877870D01*
X70899214Y-83026566D01*
X71060934Y-83188286D01*
X71245962Y-83322717D01*
X71449742Y-83426548D01*
X71449744Y-83426549D01*
X71667251Y-83497221D01*
X71667252Y-83497221D01*
X71667255Y-83497222D01*
X71893146Y-83533000D01*
X71893147Y-83533000D01*
X72216853Y-83533000D01*
X72216854Y-83533000D01*
X72442745Y-83497222D01*
X72442748Y-83497221D01*
X72442749Y-83497221D01*
X72660255Y-83426549D01*
X72660255Y-83426548D01*
X72660258Y-83426548D01*
X72864038Y-83322717D01*
X73049066Y-83188286D01*
X73210786Y-83026566D01*
X73345217Y-82841538D01*
X73449048Y-82637758D01*
X73519722Y-82420245D01*
X73555500Y-82194354D01*
X73555500Y-81965646D01*
X73519722Y-81739755D01*
X73519721Y-81739751D01*
X73519721Y-81739750D01*
X73449049Y-81522244D01*
X73376317Y-81379500D01*
X73345217Y-81318462D01*
X73210786Y-81133434D01*
X73049066Y-80971714D01*
X72964559Y-80910316D01*
X72921896Y-80854988D01*
X72915917Y-80785375D01*
X72948523Y-80723580D01*
X72964556Y-80709685D01*
X73049066Y-80648286D01*
X73210786Y-80486566D01*
X73345217Y-80301538D01*
X73449048Y-80097758D01*
X73474361Y-80019852D01*
X73519721Y-79880249D01*
X73519721Y-79880248D01*
X73519722Y-79880245D01*
X73555500Y-79654354D01*
X73555500Y-79425646D01*
X73519722Y-79199755D01*
X73519721Y-79199751D01*
X73519721Y-79199750D01*
X73449049Y-78982244D01*
X73449048Y-78982242D01*
X73345217Y-78778462D01*
X73212472Y-78595755D01*
X73188994Y-78529953D01*
X73204819Y-78461899D01*
X73254925Y-78413204D01*
X73269455Y-78406692D01*
X73297331Y-78396296D01*
X73412546Y-78310046D01*
X73498796Y-78194831D01*
X73549091Y-78059983D01*
X73555500Y-78000373D01*
X73555499Y-75999628D01*
X73549091Y-75940017D01*
X73547243Y-75935063D01*
X73498797Y-75805171D01*
X73498793Y-75805164D01*
X73412547Y-75689955D01*
X73412544Y-75689952D01*
X73297335Y-75603706D01*
X73297328Y-75603702D01*
X73162482Y-75553408D01*
X73162483Y-75553408D01*
X73102883Y-75547001D01*
X73102881Y-75547000D01*
X73102873Y-75547000D01*
X73102864Y-75547000D01*
X71007129Y-75547000D01*
X71007123Y-75547001D01*
X70947516Y-75553408D01*
X70812671Y-75603702D01*
X70812664Y-75603706D01*
X70697455Y-75689952D01*
X70697452Y-75689955D01*
X70611206Y-75805164D01*
X70611202Y-75805171D01*
X70560908Y-75940017D01*
X70556439Y-75981588D01*
X70554501Y-75999623D01*
X70554500Y-75999635D01*
X70554500Y-78000370D01*
X70554501Y-78000376D01*
X70560908Y-78059983D01*
X70611202Y-78194828D01*
X70611206Y-78194835D01*
X70697452Y-78310044D01*
X70697455Y-78310047D01*
X70812664Y-78396293D01*
X70812669Y-78396296D01*
X70840539Y-78406690D01*
X70896473Y-78448561D01*
X70920891Y-78514024D01*
X70906040Y-78582298D01*
X70897525Y-78595759D01*
X70764783Y-78778461D01*
X70660950Y-78982244D01*
X70590278Y-79199750D01*
X70590278Y-79199753D01*
X70554500Y-79425646D01*
X70554500Y-79654353D01*
X70590278Y-79880246D01*
X70590278Y-79880249D01*
X70660950Y-80097755D01*
X70682592Y-80140229D01*
X70764783Y-80301538D01*
X70899214Y-80486566D01*
X71060934Y-80648286D01*
X71115133Y-80687664D01*
X71145438Y-80709682D01*
X71188103Y-80765013D01*
X71194082Y-80834626D01*
X71161476Y-80896421D01*
X71145438Y-80910318D01*
X71060932Y-80971715D01*
X70899216Y-81133431D01*
X70899216Y-81133432D01*
X70899214Y-81133434D01*
X70858826Y-81189022D01*
X70764781Y-81318463D01*
X70763669Y-81320280D01*
X70763065Y-81320826D01*
X70761919Y-81322404D01*
X70761587Y-81322163D01*
X70711862Y-81367160D01*
X70657936Y-81379500D01*
X64574499Y-81379500D01*
X64507460Y-81359815D01*
X64461705Y-81307011D01*
X64450499Y-81255500D01*
X64450499Y-80882129D01*
X64450498Y-80882123D01*
X64450497Y-80882116D01*
X64444091Y-80822517D01*
X64439422Y-80810000D01*
X64393797Y-80687671D01*
X64393793Y-80687664D01*
X64307547Y-80572455D01*
X64307544Y-80572452D01*
X64192335Y-80486206D01*
X64192328Y-80486202D01*
X64185431Y-80483630D01*
X64129497Y-80441759D01*
X64105080Y-80376294D01*
X64119932Y-80308021D01*
X64128436Y-80294578D01*
X64240579Y-80140228D01*
X64344231Y-79936799D01*
X64414784Y-79719660D01*
X64450500Y-79494162D01*
X64450500Y-79265837D01*
X64414784Y-79040339D01*
X64344229Y-78823196D01*
X64240578Y-78619771D01*
X64163748Y-78514024D01*
X64106379Y-78435063D01*
X63944937Y-78273621D01*
X63885333Y-78230316D01*
X63842670Y-78174988D01*
X63836691Y-78105374D01*
X63869297Y-78043579D01*
X63885329Y-78029686D01*
X63944937Y-77986379D01*
X64106379Y-77824937D01*
X64240579Y-77640228D01*
X64344231Y-77436799D01*
X64414784Y-77219660D01*
X64416660Y-77207816D01*
X64450500Y-76994162D01*
X64450500Y-76765837D01*
X64414784Y-76540339D01*
X64344229Y-76323196D01*
X64240578Y-76119771D01*
X64106379Y-75935063D01*
X63944937Y-75773621D01*
X63760228Y-75639421D01*
X63722530Y-75620213D01*
X63556803Y-75535770D01*
X63339660Y-75465215D01*
X63114162Y-75429500D01*
X63114157Y-75429500D01*
X62885843Y-75429500D01*
X62885838Y-75429500D01*
X62660339Y-75465215D01*
X62443196Y-75535770D01*
X62239771Y-75639421D01*
X62055061Y-75773622D01*
X61893622Y-75935061D01*
X61759421Y-76119771D01*
X61655770Y-76323196D01*
X61585215Y-76540339D01*
X61549500Y-76765837D01*
X57000500Y-76765837D01*
X57000500Y-69231421D01*
X65750000Y-69231421D01*
X65750000Y-69950000D01*
X66566988Y-69950000D01*
X66534075Y-70007007D01*
X66500000Y-70134174D01*
X66500000Y-70265826D01*
X66534075Y-70392993D01*
X66566988Y-70450000D01*
X65750001Y-70450000D01*
X65750001Y-71168588D01*
X65752794Y-71221191D01*
X65797237Y-71450987D01*
X65879879Y-71669975D01*
X65998339Y-71871841D01*
X65998344Y-71871848D01*
X66149211Y-72050786D01*
X66149213Y-72050788D01*
X66328151Y-72201655D01*
X66328158Y-72201660D01*
X66530024Y-72320120D01*
X66749012Y-72402762D01*
X66978809Y-72447205D01*
X67031382Y-72449998D01*
X67031421Y-72449999D01*
X67749999Y-72449999D01*
X67750000Y-72449998D01*
X67750000Y-70700000D01*
X68250000Y-70700000D01*
X68250000Y-72449999D01*
X68968576Y-72449999D01*
X68968588Y-72449998D01*
X69021191Y-72447205D01*
X69250987Y-72402762D01*
X69469975Y-72320120D01*
X69671841Y-72201660D01*
X69671848Y-72201655D01*
X69850786Y-72050788D01*
X69850788Y-72050786D01*
X70001655Y-71871848D01*
X70001660Y-71871841D01*
X70120120Y-71669975D01*
X70202762Y-71450987D01*
X70247205Y-71221191D01*
X70247205Y-71221190D01*
X70249998Y-71168617D01*
X70250000Y-71168578D01*
X70250000Y-70450000D01*
X69433012Y-70450000D01*
X69465925Y-70392993D01*
X69500000Y-70265826D01*
X69500000Y-70134174D01*
X69465925Y-70007007D01*
X69433012Y-69950000D01*
X70249999Y-69950000D01*
X70249999Y-69231423D01*
X70249998Y-69231411D01*
X70247205Y-69178808D01*
X70202762Y-68949012D01*
X70120120Y-68730024D01*
X70001660Y-68528158D01*
X70001655Y-68528151D01*
X69850788Y-68349213D01*
X69850786Y-68349211D01*
X69671848Y-68198344D01*
X69671841Y-68198339D01*
X69469975Y-68079879D01*
X69250984Y-67997236D01*
X69245840Y-67996241D01*
X69183760Y-67964180D01*
X69148869Y-67903646D01*
X69152244Y-67833858D01*
X69192814Y-67776973D01*
X69257697Y-67751052D01*
X69269374Y-67750499D01*
X72797872Y-67750499D01*
X72857483Y-67744091D01*
X72992331Y-67693796D01*
X73107546Y-67607546D01*
X73193796Y-67492331D01*
X73244091Y-67357483D01*
X73250500Y-67297873D01*
X73250499Y-64952155D01*
X74960000Y-64952155D01*
X74960000Y-66250000D01*
X76240936Y-66250000D01*
X76229207Y-66278316D01*
X76200000Y-66425147D01*
X76200000Y-66574853D01*
X76229207Y-66721684D01*
X76240936Y-66750000D01*
X74960000Y-66750000D01*
X74960000Y-68047844D01*
X74966401Y-68107372D01*
X74966403Y-68107379D01*
X75016645Y-68242086D01*
X75016649Y-68242093D01*
X75102809Y-68357187D01*
X75102812Y-68357190D01*
X75217906Y-68443350D01*
X75217913Y-68443354D01*
X75352620Y-68493596D01*
X75352627Y-68493598D01*
X75412155Y-68499999D01*
X75412172Y-68500000D01*
X76710000Y-68500000D01*
X76710000Y-67219064D01*
X76738316Y-67230793D01*
X76885147Y-67260000D01*
X77034853Y-67260000D01*
X77181684Y-67230793D01*
X77210000Y-67219064D01*
X77210000Y-68500000D01*
X78507828Y-68500000D01*
X78507844Y-68499999D01*
X78567372Y-68493598D01*
X78567379Y-68493596D01*
X78702086Y-68443354D01*
X78702093Y-68443350D01*
X78817187Y-68357190D01*
X78817190Y-68357187D01*
X78903350Y-68242093D01*
X78903354Y-68242086D01*
X78953596Y-68107379D01*
X78953598Y-68107372D01*
X78959999Y-68047844D01*
X78960000Y-68047827D01*
X78960000Y-66750000D01*
X77679064Y-66750000D01*
X77690793Y-66721684D01*
X77720000Y-66574853D01*
X77720000Y-66425147D01*
X77708806Y-66368872D01*
X80039500Y-66368872D01*
X80039500Y-66631127D01*
X80066123Y-66833339D01*
X80073730Y-66891116D01*
X80135821Y-67122844D01*
X80141602Y-67144418D01*
X80141605Y-67144428D01*
X80241953Y-67386690D01*
X80241958Y-67386700D01*
X80373075Y-67613803D01*
X80532718Y-67821851D01*
X80532726Y-67821860D01*
X80718140Y-68007274D01*
X80718148Y-68007281D01*
X80926196Y-68166924D01*
X81153299Y-68298041D01*
X81153309Y-68298046D01*
X81296096Y-68357190D01*
X81395581Y-68398398D01*
X81648884Y-68466270D01*
X81897188Y-68498960D01*
X81905074Y-68499999D01*
X81908880Y-68500500D01*
X81908887Y-68500500D01*
X82171113Y-68500500D01*
X82171120Y-68500500D01*
X82431116Y-68466270D01*
X82684419Y-68398398D01*
X82926697Y-68298043D01*
X83153803Y-68166924D01*
X83361851Y-68007282D01*
X83361855Y-68007277D01*
X83361860Y-68007274D01*
X83547274Y-67821860D01*
X83547277Y-67821855D01*
X83547282Y-67821851D01*
X83706924Y-67613803D01*
X83838043Y-67386697D01*
X83938398Y-67144419D01*
X84006270Y-66891116D01*
X84040500Y-66631120D01*
X84040500Y-66368880D01*
X84006270Y-66108884D01*
X83938398Y-65855581D01*
X83890523Y-65740000D01*
X83838046Y-65613309D01*
X83838041Y-65613299D01*
X83706924Y-65386196D01*
X83547281Y-65178148D01*
X83547274Y-65178140D01*
X83361860Y-64992726D01*
X83361851Y-64992718D01*
X83153803Y-64833075D01*
X82926700Y-64701958D01*
X82926690Y-64701953D01*
X82684428Y-64601605D01*
X82684421Y-64601603D01*
X82684419Y-64601602D01*
X82431116Y-64533730D01*
X82373339Y-64526123D01*
X82171127Y-64499500D01*
X82171120Y-64499500D01*
X81908880Y-64499500D01*
X81908872Y-64499500D01*
X81677772Y-64529926D01*
X81648884Y-64533730D01*
X81395581Y-64601602D01*
X81395571Y-64601605D01*
X81153309Y-64701953D01*
X81153299Y-64701958D01*
X80926196Y-64833075D01*
X80718148Y-64992718D01*
X80532718Y-65178148D01*
X80373075Y-65386196D01*
X80241958Y-65613299D01*
X80241953Y-65613309D01*
X80141605Y-65855571D01*
X80141602Y-65855581D01*
X80073730Y-66108885D01*
X80039500Y-66368872D01*
X77708806Y-66368872D01*
X77690793Y-66278316D01*
X77679064Y-66250000D01*
X78960000Y-66250000D01*
X78960000Y-64952172D01*
X78959999Y-64952155D01*
X78953598Y-64892627D01*
X78953596Y-64892620D01*
X78903354Y-64757913D01*
X78903350Y-64757906D01*
X78817190Y-64642812D01*
X78817187Y-64642809D01*
X78702093Y-64556649D01*
X78702086Y-64556645D01*
X78567379Y-64506403D01*
X78567372Y-64506401D01*
X78507844Y-64500000D01*
X77210000Y-64500000D01*
X77210000Y-65780935D01*
X77181684Y-65769207D01*
X77034853Y-65740000D01*
X76885147Y-65740000D01*
X76738316Y-65769207D01*
X76710000Y-65780935D01*
X76710000Y-64500000D01*
X75412155Y-64500000D01*
X75352627Y-64506401D01*
X75352620Y-64506403D01*
X75217913Y-64556645D01*
X75217906Y-64556649D01*
X75102812Y-64642809D01*
X75102809Y-64642812D01*
X75016649Y-64757906D01*
X75016645Y-64757913D01*
X74966403Y-64892620D01*
X74966401Y-64892627D01*
X74960000Y-64952155D01*
X73250499Y-64952155D01*
X73250499Y-63702128D01*
X73244091Y-63642517D01*
X73220294Y-63578713D01*
X87649500Y-63578713D01*
X87649500Y-63791287D01*
X87682754Y-64001243D01*
X87710124Y-64085480D01*
X87748444Y-64203414D01*
X87844951Y-64392820D01*
X87969890Y-64564786D01*
X88083818Y-64678714D01*
X88117303Y-64740037D01*
X88112319Y-64809729D01*
X88070447Y-64865662D01*
X88039471Y-64882577D01*
X87907912Y-64931646D01*
X87907906Y-64931649D01*
X87792812Y-65017809D01*
X87792809Y-65017812D01*
X87706649Y-65132906D01*
X87706645Y-65132913D01*
X87656403Y-65267620D01*
X87656401Y-65267627D01*
X87650000Y-65327155D01*
X87650000Y-65975000D01*
X88566988Y-65975000D01*
X88534075Y-66032007D01*
X88500000Y-66159174D01*
X88500000Y-66290826D01*
X88534075Y-66417993D01*
X88566988Y-66475000D01*
X87650000Y-66475000D01*
X87650000Y-67122844D01*
X87656401Y-67182372D01*
X87656403Y-67182379D01*
X87706645Y-67317086D01*
X87706649Y-67317093D01*
X87792809Y-67432187D01*
X87792812Y-67432190D01*
X87907906Y-67518350D01*
X87907913Y-67518354D01*
X88042620Y-67568596D01*
X88042627Y-67568598D01*
X88102155Y-67574999D01*
X88102172Y-67575000D01*
X88750000Y-67575000D01*
X88750000Y-66658012D01*
X88807007Y-66690925D01*
X88934174Y-66725000D01*
X89065826Y-66725000D01*
X89192993Y-66690925D01*
X89250000Y-66658012D01*
X89250000Y-67575000D01*
X89897828Y-67575000D01*
X89897844Y-67574999D01*
X89957372Y-67568598D01*
X89957379Y-67568596D01*
X90092086Y-67518354D01*
X90092093Y-67518350D01*
X90207187Y-67432190D01*
X90207190Y-67432187D01*
X90293350Y-67317093D01*
X90293354Y-67317086D01*
X90343596Y-67182379D01*
X90343598Y-67182372D01*
X90349999Y-67122844D01*
X90350000Y-67122827D01*
X90350000Y-66475000D01*
X89433012Y-66475000D01*
X89465925Y-66417993D01*
X89500000Y-66290826D01*
X89500000Y-66159174D01*
X89465925Y-66032007D01*
X89433012Y-65975000D01*
X90350000Y-65975000D01*
X90350000Y-65327172D01*
X90349999Y-65327155D01*
X90343598Y-65267627D01*
X90343596Y-65267620D01*
X90293354Y-65132913D01*
X90293350Y-65132906D01*
X90207190Y-65017812D01*
X90207187Y-65017809D01*
X90092093Y-64931649D01*
X90092088Y-64931646D01*
X89960528Y-64882577D01*
X89904595Y-64840705D01*
X89880178Y-64775241D01*
X89895030Y-64706968D01*
X89916175Y-64678720D01*
X90030104Y-64564792D01*
X90155051Y-64392816D01*
X90251557Y-64203412D01*
X90317246Y-64001243D01*
X90350500Y-63791287D01*
X90350500Y-63578713D01*
X90317246Y-63368757D01*
X90251557Y-63166588D01*
X90155051Y-62977184D01*
X90155049Y-62977181D01*
X90155048Y-62977179D01*
X90030109Y-62805213D01*
X89879786Y-62654890D01*
X89707820Y-62529951D01*
X89518414Y-62433444D01*
X89518413Y-62433443D01*
X89518412Y-62433443D01*
X89316243Y-62367754D01*
X89316241Y-62367753D01*
X89316240Y-62367753D01*
X89154957Y-62342208D01*
X89106287Y-62334500D01*
X88893713Y-62334500D01*
X88845042Y-62342208D01*
X88683760Y-62367753D01*
X88481585Y-62433444D01*
X88292179Y-62529951D01*
X88120213Y-62654890D01*
X87969890Y-62805213D01*
X87844951Y-62977179D01*
X87748444Y-63166585D01*
X87682753Y-63368760D01*
X87656175Y-63536569D01*
X87649500Y-63578713D01*
X73220294Y-63578713D01*
X73204571Y-63536559D01*
X73193797Y-63507671D01*
X73193793Y-63507664D01*
X73107547Y-63392455D01*
X73107544Y-63392452D01*
X72992335Y-63306206D01*
X72992328Y-63306202D01*
X72857482Y-63255908D01*
X72857483Y-63255908D01*
X72797883Y-63249501D01*
X72797881Y-63249500D01*
X72797873Y-63249500D01*
X72797864Y-63249500D01*
X69202129Y-63249500D01*
X69202123Y-63249501D01*
X69142516Y-63255908D01*
X69007671Y-63306202D01*
X69007664Y-63306206D01*
X68892455Y-63392452D01*
X68892452Y-63392455D01*
X68806206Y-63507664D01*
X68806202Y-63507671D01*
X68755908Y-63642517D01*
X68749501Y-63702116D01*
X68749501Y-63702123D01*
X68749500Y-63702135D01*
X68749500Y-67297870D01*
X68749501Y-67297876D01*
X68755908Y-67357483D01*
X68806202Y-67492328D01*
X68806206Y-67492335D01*
X68892452Y-67607544D01*
X68892455Y-67607547D01*
X69007664Y-67693793D01*
X69007673Y-67693798D01*
X69056506Y-67712011D01*
X69112440Y-67753881D01*
X69136858Y-67819345D01*
X69122007Y-67887618D01*
X69072603Y-67937024D01*
X69006598Y-67952018D01*
X68968625Y-67950001D01*
X68968579Y-67950000D01*
X68250000Y-67950000D01*
X68250000Y-69700000D01*
X67750000Y-69700000D01*
X67750000Y-67950000D01*
X67031423Y-67950000D01*
X67031411Y-67950001D01*
X66978808Y-67952794D01*
X66749012Y-67997237D01*
X66530024Y-68079879D01*
X66328158Y-68198339D01*
X66328151Y-68198344D01*
X66149213Y-68349211D01*
X66149211Y-68349213D01*
X65998344Y-68528151D01*
X65998339Y-68528158D01*
X65879879Y-68730024D01*
X65797237Y-68949012D01*
X65752794Y-69178808D01*
X65752794Y-69178809D01*
X65750001Y-69231382D01*
X65750000Y-69231421D01*
X57000500Y-69231421D01*
X57000500Y-64435803D01*
X63000000Y-64435803D01*
X63000000Y-65250000D01*
X64500000Y-65250000D01*
X64500000Y-65750000D01*
X63000001Y-65750000D01*
X63000001Y-66564197D01*
X63010400Y-66696332D01*
X63065377Y-66914519D01*
X63158428Y-67119374D01*
X63158431Y-67119380D01*
X63286559Y-67304323D01*
X63286569Y-67304335D01*
X63445664Y-67463430D01*
X63445676Y-67463440D01*
X63630619Y-67591568D01*
X63630625Y-67591571D01*
X63835480Y-67684622D01*
X64053667Y-67739599D01*
X64185810Y-67749999D01*
X64749999Y-67749999D01*
X64750000Y-67749998D01*
X64750000Y-66933012D01*
X64807007Y-66965925D01*
X64934174Y-67000000D01*
X65065826Y-67000000D01*
X65192993Y-66965925D01*
X65250000Y-66933012D01*
X65250000Y-67749999D01*
X65814182Y-67749999D01*
X65814197Y-67749998D01*
X65946332Y-67739599D01*
X66164519Y-67684622D01*
X66369374Y-67591571D01*
X66369380Y-67591568D01*
X66554323Y-67463440D01*
X66554335Y-67463430D01*
X66713430Y-67304335D01*
X66713440Y-67304323D01*
X66841568Y-67119380D01*
X66841571Y-67119374D01*
X66934622Y-66914519D01*
X66989599Y-66696332D01*
X66999999Y-66564196D01*
X67000000Y-66564184D01*
X67000000Y-65750000D01*
X65500000Y-65750000D01*
X65500000Y-65250000D01*
X66999999Y-65250000D01*
X66999999Y-64435817D01*
X66999998Y-64435802D01*
X66989599Y-64303667D01*
X66934622Y-64085480D01*
X66841571Y-63880625D01*
X66841568Y-63880619D01*
X66713440Y-63695676D01*
X66713430Y-63695664D01*
X66554335Y-63536569D01*
X66554323Y-63536559D01*
X66369380Y-63408431D01*
X66369374Y-63408428D01*
X66164519Y-63315377D01*
X65946332Y-63260400D01*
X65814196Y-63250000D01*
X65250000Y-63250000D01*
X65250000Y-64066988D01*
X65192993Y-64034075D01*
X65065826Y-64000000D01*
X64934174Y-64000000D01*
X64807007Y-64034075D01*
X64750000Y-64066988D01*
X64750000Y-63250000D01*
X64185817Y-63250000D01*
X64185802Y-63250001D01*
X64053667Y-63260400D01*
X63835480Y-63315377D01*
X63630625Y-63408428D01*
X63630619Y-63408431D01*
X63445676Y-63536559D01*
X63445664Y-63536569D01*
X63286569Y-63695664D01*
X63286559Y-63695676D01*
X63158431Y-63880619D01*
X63158428Y-63880625D01*
X63065377Y-64085480D01*
X63010400Y-64303667D01*
X63000000Y-64435803D01*
X57000500Y-64435803D01*
X57000500Y-63050862D01*
X57020185Y-62983823D01*
X57036819Y-62963181D01*
X58963181Y-61036819D01*
X59024504Y-61003334D01*
X59050862Y-61000500D01*
X88949138Y-61000500D01*
X89016177Y-61020185D01*
G37*
%TD.AperFunction*%
%TD*%
M02*
