%TF.GenerationSoftware,KiCad,Pcbnew,9.0.1*%
%TF.CreationDate,2025-08-07T19:45:44+03:00*%
%TF.ProjectId,BreadBoard_PowerSupply,42726561-6442-46f6-9172-645f506f7765,rev?*%
%TF.SameCoordinates,Original*%
%TF.FileFunction,Copper,L1,Top*%
%TF.FilePolarity,Positive*%
%FSLAX46Y46*%
G04 Gerber Fmt 4.6, Leading zero omitted, Abs format (unit mm)*
G04 Created by KiCad (PCBNEW 9.0.1) date 2025-08-07 19:45:44*
%MOMM*%
%LPD*%
G01*
G04 APERTURE LIST*
G04 Aperture macros list*
%AMRoundRect*
0 Rectangle with rounded corners*
0 $1 Rounding radius*
0 $2 $3 $4 $5 $6 $7 $8 $9 X,Y pos of 4 corners*
0 Add a 4 corners polygon primitive as box body*
4,1,4,$2,$3,$4,$5,$6,$7,$8,$9,$2,$3,0*
0 Add four circle primitives for the rounded corners*
1,1,$1+$1,$2,$3*
1,1,$1+$1,$4,$5*
1,1,$1+$1,$6,$7*
1,1,$1+$1,$8,$9*
0 Add four rect primitives between the rounded corners*
20,1,$1+$1,$2,$3,$4,$5,0*
20,1,$1+$1,$4,$5,$6,$7,0*
20,1,$1+$1,$6,$7,$8,$9,0*
20,1,$1+$1,$8,$9,$2,$3,0*%
G04 Aperture macros list end*
%TA.AperFunction,ComponentPad*%
%ADD10R,1.900000X1.900000*%
%TD*%
%TA.AperFunction,ComponentPad*%
%ADD11C,1.900000*%
%TD*%
%TA.AperFunction,ComponentPad*%
%ADD12R,1.700000X1.700000*%
%TD*%
%TA.AperFunction,ComponentPad*%
%ADD13C,1.700000*%
%TD*%
%TA.AperFunction,ComponentPad*%
%ADD14C,1.600000*%
%TD*%
%TA.AperFunction,ComponentPad*%
%ADD15C,1.400000*%
%TD*%
%TA.AperFunction,ComponentPad*%
%ADD16O,1.400000X1.400000*%
%TD*%
%TA.AperFunction,ComponentPad*%
%ADD17R,3.500000X3.500000*%
%TD*%
%TA.AperFunction,ComponentPad*%
%ADD18RoundRect,0.750000X-0.750000X-1.000000X0.750000X-1.000000X0.750000X1.000000X-0.750000X1.000000X0*%
%TD*%
%TA.AperFunction,ComponentPad*%
%ADD19RoundRect,0.875000X-0.875000X-0.875000X0.875000X-0.875000X0.875000X0.875000X-0.875000X0.875000X0*%
%TD*%
%TA.AperFunction,ComponentPad*%
%ADD20R,1.800000X1.800000*%
%TD*%
%TA.AperFunction,ComponentPad*%
%ADD21C,1.800000*%
%TD*%
%TA.AperFunction,ComponentPad*%
%ADD22R,3.000000X3.000000*%
%TD*%
%TA.AperFunction,ComponentPad*%
%ADD23C,3.000000*%
%TD*%
%TA.AperFunction,ComponentPad*%
%ADD24R,2.000000X1.905000*%
%TD*%
%TA.AperFunction,ComponentPad*%
%ADD25O,2.000000X1.905000*%
%TD*%
%TA.AperFunction,Conductor*%
%ADD26C,0.400000*%
%TD*%
G04 APERTURE END LIST*
D10*
%TO.P,S1,1*%
%TO.N,/12V*%
X63000000Y-81880000D03*
D11*
%TO.P,S1,2*%
%TO.N,/PWR_INPUT*%
X63000000Y-79380000D03*
%TO.P,S1,3*%
%TO.N,unconnected-(S1-Pad3)*%
X63000000Y-76880000D03*
%TD*%
D12*
%TO.P,J4,1,Pin_1*%
%TO.N,/3.3V*%
X82500000Y-96960000D03*
D13*
%TO.P,J4,2,Pin_2*%
%TO.N,Net-(J2-Pin_2)*%
X82500000Y-99500000D03*
%TO.P,J4,3,Pin_3*%
%TO.N,/5V*%
X82500000Y-102040000D03*
%TD*%
D12*
%TO.P,J3,1,Pin_1*%
%TO.N,/3.3V*%
X82500000Y-79040000D03*
D13*
%TO.P,J3,2,Pin_2*%
%TO.N,Net-(J1-Pin_2)*%
X82500000Y-76500000D03*
%TO.P,J3,3,Pin_3*%
%TO.N,/5V*%
X82500000Y-73960000D03*
%TD*%
D14*
%TO.P,C3,1*%
%TO.N,GND*%
X70250000Y-112000000D03*
%TO.P,C3,2*%
%TO.N,/5V*%
X67750000Y-112000000D03*
%TD*%
D15*
%TO.P,R1,1*%
%TO.N,/3.3V*%
X60000000Y-95810000D03*
D16*
%TO.P,R1,2*%
%TO.N,Net-(U2-ADJ)*%
X60000000Y-88190000D03*
%TD*%
D14*
%TO.P,C1,1*%
%TO.N,GND*%
X67750000Y-101000000D03*
%TO.P,C1,2*%
%TO.N,/12V*%
X70250000Y-101000000D03*
%TD*%
D12*
%TO.P,J2,1,Pin_1*%
%TO.N,GND*%
X89000000Y-109500000D03*
D13*
%TO.P,J2,2,Pin_2*%
%TO.N,Net-(J2-Pin_2)*%
X89000000Y-112040000D03*
%TD*%
D17*
%TO.P,J6,1*%
%TO.N,/PWR_INPUT*%
X71000000Y-65500000D03*
D18*
%TO.P,J6,2*%
%TO.N,GND*%
X65000000Y-65500000D03*
D19*
%TO.P,J6,3*%
X68000000Y-70200000D03*
%TD*%
D15*
%TO.P,R3,1*%
%TO.N,Net-(U2-ADJ)*%
X72000000Y-88190000D03*
D16*
%TO.P,R3,2*%
%TO.N,GND*%
X72000000Y-95810000D03*
%TD*%
D20*
%TO.P,D1,1,K*%
%TO.N,GND*%
X81000000Y-89775000D03*
D21*
%TO.P,D1,2,A*%
%TO.N,Net-(D1-A)*%
X81000000Y-87235000D03*
%TD*%
D22*
%TO.P,J7,1,Pin_1*%
%TO.N,GND*%
X82040000Y-109500000D03*
D23*
%TO.P,J7,2,Pin_2*%
%TO.N,Net-(J2-Pin_2)*%
X76960000Y-109500000D03*
%TD*%
D24*
%TO.P,U1,1,VI*%
%TO.N,/12V*%
X60305000Y-102960000D03*
D25*
%TO.P,U1,2,GND*%
%TO.N,GND*%
X60305000Y-105500000D03*
%TO.P,U1,3,VO*%
%TO.N,/5V*%
X60305000Y-108040000D03*
%TD*%
D22*
%TO.P,J5,1,Pin_1*%
%TO.N,GND*%
X76960000Y-66500000D03*
D23*
%TO.P,J5,2,Pin_2*%
%TO.N,Net-(J1-Pin_2)*%
X82040000Y-66500000D03*
%TD*%
D15*
%TO.P,R2,1*%
%TO.N,/12V*%
X66000000Y-95810000D03*
D16*
%TO.P,R2,2*%
%TO.N,Net-(D1-A)*%
X66000000Y-88190000D03*
%TD*%
D12*
%TO.P,J1,1,Pin_1*%
%TO.N,GND*%
X89000000Y-66225000D03*
D13*
%TO.P,J1,2,Pin_2*%
%TO.N,Net-(J1-Pin_2)*%
X89000000Y-63685000D03*
%TD*%
D14*
%TO.P,C2,1*%
%TO.N,/3.3V*%
X67750000Y-106500000D03*
%TO.P,C2,2*%
%TO.N,GND*%
X70250000Y-106500000D03*
%TD*%
D24*
%TO.P,U2,1,ADJ*%
%TO.N,Net-(U2-ADJ)*%
X72055000Y-77000000D03*
D25*
%TO.P,U2,2,VO*%
%TO.N,/3.3V*%
X72055000Y-79540000D03*
%TO.P,U2,3,VI*%
%TO.N,/12V*%
X72055000Y-82080000D03*
%TD*%
D26*
%TO.N,/12V*%
X57201000Y-84500000D02*
X57201000Y-99856000D01*
X57201000Y-99856000D02*
X60305000Y-102960000D01*
X70250000Y-101000000D02*
X66000000Y-96750000D01*
X63000000Y-81880000D02*
X59821000Y-81880000D01*
X59821000Y-81880000D02*
X57201000Y-84500000D01*
X66000000Y-96750000D02*
X66000000Y-95810000D01*
X71855000Y-81880000D02*
X72055000Y-82080000D01*
%TO.N,/3.3V*%
X74500000Y-104000000D02*
X68500000Y-104000000D01*
X81540000Y-96960000D02*
X74500000Y-104000000D01*
X67750000Y-104750000D02*
X67750000Y-106500000D01*
X82500000Y-82500000D02*
X82500000Y-79040000D01*
X82500000Y-96960000D02*
X81540000Y-96960000D01*
X68500000Y-104000000D02*
X67750000Y-104750000D01*
X82500000Y-96960000D02*
X82500000Y-95000000D01*
X83500000Y-94000000D02*
X83500000Y-83500000D01*
X82500000Y-95000000D02*
X83500000Y-94000000D01*
X83500000Y-83500000D02*
X82500000Y-82500000D01*
X82500000Y-79040000D02*
X72555000Y-79040000D01*
X60000000Y-95810000D02*
X68190000Y-104000000D01*
X72555000Y-79040000D02*
X72055000Y-79540000D01*
X68190000Y-104000000D02*
X68500000Y-104000000D01*
%TO.N,/5V*%
X60305000Y-108040000D02*
X63790000Y-108040000D01*
X63790000Y-108040000D02*
X67750000Y-112000000D01*
%TO.N,Net-(J1-Pin_2)*%
X81049000Y-75049000D02*
X82500000Y-76500000D01*
X89000000Y-63685000D02*
X84855000Y-63685000D01*
X84855000Y-63685000D02*
X82040000Y-66500000D01*
X82040000Y-66500000D02*
X81049000Y-67491000D01*
X81049000Y-67491000D02*
X81049000Y-75049000D01*
%TO.N,/PWR_INPUT*%
X71000000Y-65500000D02*
X67500000Y-62000000D01*
X61000000Y-77380000D02*
X63000000Y-79380000D01*
X67500000Y-62000000D02*
X61000000Y-62000000D01*
X61000000Y-62000000D02*
X61000000Y-77380000D01*
%TO.N,Net-(U2-ADJ)*%
X70699000Y-86889000D02*
X72000000Y-88190000D01*
X61301000Y-86889000D02*
X70699000Y-86889000D01*
X72055000Y-77000000D02*
X70454000Y-78601000D01*
X70454000Y-86644000D02*
X70699000Y-86889000D01*
X60000000Y-88190000D02*
X61301000Y-86889000D01*
X70454000Y-78601000D02*
X70454000Y-86644000D01*
%TO.N,Net-(J2-Pin_2)*%
X76960000Y-105040000D02*
X76960000Y-109500000D01*
X76960000Y-109500000D02*
X78500000Y-111040000D01*
X78500000Y-111500000D02*
X79000000Y-112000000D01*
X82500000Y-99500000D02*
X76960000Y-105040000D01*
X79000000Y-112000000D02*
X88960000Y-112000000D01*
X88960000Y-112000000D02*
X89000000Y-112040000D01*
X78500000Y-111040000D02*
X78500000Y-111500000D01*
%TD*%
M02*
