%TF.GenerationSoftware,KiCad,Pcbnew,9.0.1*%
%TF.CreationDate,2025-08-07T19:45:44+03:00*%
%TF.ProjectId,BreadBoard_PowerSupply,42726561-6442-46f6-9172-645f506f7765,rev?*%
%TF.SameCoordinates,Original*%
%TF.FileFunction,Soldermask,Top*%
%TF.FilePolarity,Negative*%
%FSLAX46Y46*%
G04 Gerber Fmt 4.6, Leading zero omitted, Abs format (unit mm)*
G04 Created by KiCad (PCBNEW 9.0.1) date 2025-08-07 19:45:44*
%MOMM*%
%LPD*%
G01*
G04 APERTURE LIST*
G04 Aperture macros list*
%AMRoundRect*
0 Rectangle with rounded corners*
0 $1 Rounding radius*
0 $2 $3 $4 $5 $6 $7 $8 $9 X,Y pos of 4 corners*
0 Add a 4 corners polygon primitive as box body*
4,1,4,$2,$3,$4,$5,$6,$7,$8,$9,$2,$3,0*
0 Add four circle primitives for the rounded corners*
1,1,$1+$1,$2,$3*
1,1,$1+$1,$4,$5*
1,1,$1+$1,$6,$7*
1,1,$1+$1,$8,$9*
0 Add four rect primitives between the rounded corners*
20,1,$1+$1,$2,$3,$4,$5,0*
20,1,$1+$1,$4,$5,$6,$7,0*
20,1,$1+$1,$6,$7,$8,$9,0*
20,1,$1+$1,$8,$9,$2,$3,0*%
G04 Aperture macros list end*
%ADD10R,1.900000X1.900000*%
%ADD11C,1.900000*%
%ADD12R,1.700000X1.700000*%
%ADD13C,1.700000*%
%ADD14C,1.600000*%
%ADD15C,1.400000*%
%ADD16O,1.400000X1.400000*%
%ADD17R,3.500000X3.500000*%
%ADD18RoundRect,0.750000X-0.750000X-1.000000X0.750000X-1.000000X0.750000X1.000000X-0.750000X1.000000X0*%
%ADD19RoundRect,0.875000X-0.875000X-0.875000X0.875000X-0.875000X0.875000X0.875000X-0.875000X0.875000X0*%
%ADD20R,1.800000X1.800000*%
%ADD21C,1.800000*%
%ADD22R,3.000000X3.000000*%
%ADD23C,3.000000*%
%ADD24R,2.000000X1.905000*%
%ADD25O,2.000000X1.905000*%
G04 APERTURE END LIST*
D10*
%TO.C,S1*%
X63000000Y-81880000D03*
D11*
X63000000Y-79380000D03*
X63000000Y-76880000D03*
%TD*%
D12*
%TO.C,J4*%
X82500000Y-96960000D03*
D13*
X82500000Y-99500000D03*
X82500000Y-102040000D03*
%TD*%
D12*
%TO.C,J3*%
X82500000Y-79040000D03*
D13*
X82500000Y-76500000D03*
X82500000Y-73960000D03*
%TD*%
D14*
%TO.C,C3*%
X70250000Y-112000000D03*
X67750000Y-112000000D03*
%TD*%
D15*
%TO.C,R1*%
X60000000Y-95810000D03*
D16*
X60000000Y-88190000D03*
%TD*%
D14*
%TO.C,C1*%
X67750000Y-101000000D03*
X70250000Y-101000000D03*
%TD*%
D12*
%TO.C,J2*%
X89000000Y-109500000D03*
D13*
X89000000Y-112040000D03*
%TD*%
D17*
%TO.C,J6*%
X71000000Y-65500000D03*
D18*
X65000000Y-65500000D03*
D19*
X68000000Y-70200000D03*
%TD*%
D15*
%TO.C,R3*%
X72000000Y-88190000D03*
D16*
X72000000Y-95810000D03*
%TD*%
D20*
%TO.C,D1*%
X81000000Y-89775000D03*
D21*
X81000000Y-87235000D03*
%TD*%
D22*
%TO.C,J7*%
X82040000Y-109500000D03*
D23*
X76960000Y-109500000D03*
%TD*%
D24*
%TO.C,U1*%
X60305000Y-102960000D03*
D25*
X60305000Y-105500000D03*
X60305000Y-108040000D03*
%TD*%
D22*
%TO.C,J5*%
X76960000Y-66500000D03*
D23*
X82040000Y-66500000D03*
%TD*%
D15*
%TO.C,R2*%
X66000000Y-95810000D03*
D16*
X66000000Y-88190000D03*
%TD*%
D12*
%TO.C,J1*%
X89000000Y-66225000D03*
D13*
X89000000Y-63685000D03*
%TD*%
D14*
%TO.C,C2*%
X67750000Y-106500000D03*
X70250000Y-106500000D03*
%TD*%
D24*
%TO.C,U2*%
X72055000Y-77000000D03*
D25*
X72055000Y-79540000D03*
X72055000Y-82080000D03*
%TD*%
M02*
