%TF.GenerationSoftware,KiCad,Pcbnew,9.0.1*%
%TF.CreationDate,2025-10-15T16:13:39+03:00*%
%TF.ProjectId,Solar Supply,536f6c61-7220-4537-9570-706c792e6b69,rev?*%
%TF.SameCoordinates,Original*%
%TF.FileFunction,Copper,L2,Bot*%
%TF.FilePolarity,Positive*%
%FSLAX46Y46*%
G04 Gerber Fmt 4.6, Leading zero omitted, Abs format (unit mm)*
G04 Created by KiCad (PCBNEW 9.0.1) date 2025-10-15 16:13:39*
%MOMM*%
%LPD*%
G01*
G04 APERTURE LIST*
G04 Aperture macros list*
%AMRoundRect*
0 Rectangle with rounded corners*
0 $1 Rounding radius*
0 $2 $3 $4 $5 $6 $7 $8 $9 X,Y pos of 4 corners*
0 Add a 4 corners polygon primitive as box body*
4,1,4,$2,$3,$4,$5,$6,$7,$8,$9,$2,$3,0*
0 Add four circle primitives for the rounded corners*
1,1,$1+$1,$2,$3*
1,1,$1+$1,$4,$5*
1,1,$1+$1,$6,$7*
1,1,$1+$1,$8,$9*
0 Add four rect primitives between the rounded corners*
20,1,$1+$1,$2,$3,$4,$5,0*
20,1,$1+$1,$4,$5,$6,$7,0*
20,1,$1+$1,$6,$7,$8,$9,0*
20,1,$1+$1,$8,$9,$2,$3,0*%
G04 Aperture macros list end*
%TA.AperFunction,ComponentPad*%
%ADD10RoundRect,0.250000X0.550000X0.550000X-0.550000X0.550000X-0.550000X-0.550000X0.550000X-0.550000X0*%
%TD*%
%TA.AperFunction,ComponentPad*%
%ADD11C,1.600000*%
%TD*%
%TA.AperFunction,ComponentPad*%
%ADD12R,1.700000X1.700000*%
%TD*%
%TA.AperFunction,ComponentPad*%
%ADD13C,1.700000*%
%TD*%
%TA.AperFunction,ViaPad*%
%ADD14C,0.900000*%
%TD*%
%TA.AperFunction,Conductor*%
%ADD15C,0.350000*%
%TD*%
G04 APERTURE END LIST*
D10*
%TO.P,J3,1,Pin_1*%
%TO.N,Net-(J3-Pin_1)*%
X168000000Y-109500000D03*
D11*
%TO.P,J3,2,Pin_2*%
%TO.N,/Battery_P*%
X160380000Y-109500000D03*
%TD*%
D12*
%TO.P,J1,1,Pin_1*%
%TO.N,GNDD*%
X186115000Y-115725000D03*
D13*
%TO.P,J1,2,Pin_2*%
%TO.N,/Out_P*%
X186115000Y-118265000D03*
%TD*%
D12*
%TO.P,J4,1,Pin_1*%
%TO.N,/Solar_P*%
X151750000Y-115500000D03*
D13*
%TO.P,J4,2,Pin_2*%
%TO.N,GNDD*%
X151750000Y-112960000D03*
%TD*%
D12*
%TO.P,J2,1,Pin_1*%
%TO.N,/Battery_P*%
X151635000Y-122000000D03*
D13*
%TO.P,J2,2,Pin_2*%
%TO.N,GNDD*%
X151635000Y-119460000D03*
%TD*%
D14*
%TO.N,GNDD*%
X160000000Y-118500000D03*
X176500000Y-123026000D03*
X160750000Y-122250000D03*
X155000000Y-122250000D03*
%TD*%
D15*
%TO.N,/Battery_P*%
X155000000Y-118635000D02*
X151635000Y-122000000D01*
X155000000Y-114880000D02*
X155000000Y-118635000D01*
X160380000Y-109500000D02*
X155000000Y-114880000D01*
%TD*%
%TA.AperFunction,Conductor*%
%TO.N,GNDD*%
G36*
X168333372Y-107000009D02*
G01*
X186652432Y-107233374D01*
X186719216Y-107253911D01*
X186764294Y-107307293D01*
X186773356Y-107376573D01*
X186743524Y-107439754D01*
X186726341Y-107455739D01*
X186678141Y-107492724D01*
X186678140Y-107492726D01*
X186492718Y-107678148D01*
X186333075Y-107886196D01*
X186201958Y-108113299D01*
X186201953Y-108113309D01*
X186101605Y-108355571D01*
X186101602Y-108355581D01*
X186052577Y-108538548D01*
X186033730Y-108608885D01*
X185999500Y-108868872D01*
X185999500Y-109131127D01*
X186020436Y-109290140D01*
X186033730Y-109391116D01*
X186098831Y-109634076D01*
X186101602Y-109644418D01*
X186101605Y-109644428D01*
X186201953Y-109886690D01*
X186201958Y-109886700D01*
X186333075Y-110113803D01*
X186492718Y-110321851D01*
X186492726Y-110321860D01*
X186678140Y-110507274D01*
X186678148Y-110507281D01*
X186886196Y-110666924D01*
X187113299Y-110798041D01*
X187113309Y-110798046D01*
X187355571Y-110898394D01*
X187355581Y-110898398D01*
X187608884Y-110966270D01*
X187868880Y-111000500D01*
X187868887Y-111000500D01*
X188131113Y-111000500D01*
X188131120Y-111000500D01*
X188391116Y-110966270D01*
X188644419Y-110898398D01*
X188853072Y-110811971D01*
X188886690Y-110798046D01*
X188886691Y-110798045D01*
X188886697Y-110798043D01*
X189113803Y-110666924D01*
X189321851Y-110507282D01*
X189321855Y-110507277D01*
X189321860Y-110507274D01*
X189507273Y-110321860D01*
X189507282Y-110321851D01*
X189527126Y-110295988D01*
X189583552Y-110254789D01*
X189653298Y-110250634D01*
X189714219Y-110284847D01*
X189746971Y-110346564D01*
X189749500Y-110371478D01*
X189749500Y-121128521D01*
X189729815Y-121195560D01*
X189677011Y-121241315D01*
X189607853Y-121251259D01*
X189544297Y-121222234D01*
X189527126Y-121204009D01*
X189515349Y-121188662D01*
X189507282Y-121178149D01*
X189507278Y-121178145D01*
X189507274Y-121178140D01*
X189321860Y-120992726D01*
X189321851Y-120992718D01*
X189113803Y-120833075D01*
X188886700Y-120701958D01*
X188886690Y-120701953D01*
X188644428Y-120601605D01*
X188644421Y-120601603D01*
X188644419Y-120601602D01*
X188391116Y-120533730D01*
X188333339Y-120526123D01*
X188131127Y-120499500D01*
X188131120Y-120499500D01*
X187868880Y-120499500D01*
X187868872Y-120499500D01*
X187637772Y-120529926D01*
X187608884Y-120533730D01*
X187355581Y-120601602D01*
X187355571Y-120601605D01*
X187113309Y-120701953D01*
X187113299Y-120701958D01*
X186886196Y-120833075D01*
X186678148Y-120992718D01*
X186492718Y-121178148D01*
X186333075Y-121386196D01*
X186201958Y-121613299D01*
X186201953Y-121613309D01*
X186101605Y-121855571D01*
X186101602Y-121855581D01*
X186033730Y-122108885D01*
X185999500Y-122368872D01*
X185999500Y-122631127D01*
X186006476Y-122684108D01*
X186033730Y-122891116D01*
X186098831Y-123134076D01*
X186101602Y-123144418D01*
X186101605Y-123144428D01*
X186201953Y-123386690D01*
X186201958Y-123386700D01*
X186333075Y-123613803D01*
X186492718Y-123821851D01*
X186492726Y-123821860D01*
X186678139Y-124007273D01*
X186678143Y-124007276D01*
X186678149Y-124007282D01*
X186704011Y-124027126D01*
X186745211Y-124083552D01*
X186749366Y-124153298D01*
X186715153Y-124214219D01*
X186653436Y-124246971D01*
X186628522Y-124249500D01*
X148004428Y-124249500D01*
X147995582Y-124249184D01*
X147964641Y-124246971D01*
X147795442Y-124234869D01*
X147777931Y-124232351D01*
X147586212Y-124190646D01*
X147569236Y-124185662D01*
X147385390Y-124117090D01*
X147369298Y-124109740D01*
X147197095Y-124015711D01*
X147182210Y-124006146D01*
X147025132Y-123888558D01*
X147011762Y-123876972D01*
X146873027Y-123738237D01*
X146861441Y-123724867D01*
X146778299Y-123613803D01*
X146743849Y-123567784D01*
X146734288Y-123552904D01*
X146640259Y-123380701D01*
X146632909Y-123364609D01*
X146598600Y-123272624D01*
X146564334Y-123180755D01*
X146559355Y-123163797D01*
X146517647Y-122972063D01*
X146515130Y-122954556D01*
X146511075Y-122897864D01*
X146500816Y-122754418D01*
X146500500Y-122745572D01*
X146500500Y-121102135D01*
X150284500Y-121102135D01*
X150284500Y-122897870D01*
X150284501Y-122897876D01*
X150290908Y-122957483D01*
X150341202Y-123092328D01*
X150341206Y-123092335D01*
X150427452Y-123207544D01*
X150427455Y-123207547D01*
X150542664Y-123293793D01*
X150542671Y-123293797D01*
X150677517Y-123344091D01*
X150677516Y-123344091D01*
X150684444Y-123344835D01*
X150737127Y-123350500D01*
X152532872Y-123350499D01*
X152592483Y-123344091D01*
X152727331Y-123293796D01*
X152842546Y-123207546D01*
X152928796Y-123092331D01*
X152979091Y-122957483D01*
X152985500Y-122897873D01*
X152985499Y-121656161D01*
X153005184Y-121589123D01*
X153021813Y-121568486D01*
X155524695Y-119065606D01*
X155586695Y-118972816D01*
X155598620Y-118954969D01*
X155613534Y-118918962D01*
X155649541Y-118832036D01*
X155675500Y-118701531D01*
X155675500Y-118568469D01*
X155675500Y-118158713D01*
X184764500Y-118158713D01*
X184764500Y-118371286D01*
X184795730Y-118568469D01*
X184797754Y-118581243D01*
X184853382Y-118752449D01*
X184863444Y-118783414D01*
X184959951Y-118972820D01*
X185084890Y-119144786D01*
X185235213Y-119295109D01*
X185407179Y-119420048D01*
X185407181Y-119420049D01*
X185407184Y-119420051D01*
X185596588Y-119516557D01*
X185798757Y-119582246D01*
X186008713Y-119615500D01*
X186008714Y-119615500D01*
X186221286Y-119615500D01*
X186221287Y-119615500D01*
X186431243Y-119582246D01*
X186633412Y-119516557D01*
X186822816Y-119420051D01*
X186914068Y-119353753D01*
X186994786Y-119295109D01*
X186994788Y-119295106D01*
X186994792Y-119295104D01*
X187145104Y-119144792D01*
X187145106Y-119144788D01*
X187145109Y-119144786D01*
X187270048Y-118972820D01*
X187270047Y-118972820D01*
X187270051Y-118972816D01*
X187366557Y-118783412D01*
X187432246Y-118581243D01*
X187465500Y-118371287D01*
X187465500Y-118158713D01*
X187432246Y-117948757D01*
X187366557Y-117746588D01*
X187270051Y-117557184D01*
X187270049Y-117557181D01*
X187270048Y-117557179D01*
X187145109Y-117385213D01*
X187031181Y-117271285D01*
X186997696Y-117209962D01*
X187002680Y-117140270D01*
X187044552Y-117084337D01*
X187075529Y-117067422D01*
X187207086Y-117018354D01*
X187207093Y-117018350D01*
X187322187Y-116932190D01*
X187322190Y-116932187D01*
X187408350Y-116817093D01*
X187408354Y-116817086D01*
X187458596Y-116682379D01*
X187458598Y-116682372D01*
X187464999Y-116622844D01*
X187465000Y-116622827D01*
X187465000Y-115975000D01*
X186548012Y-115975000D01*
X186580925Y-115917993D01*
X186615000Y-115790826D01*
X186615000Y-115659174D01*
X186580925Y-115532007D01*
X186548012Y-115475000D01*
X187465000Y-115475000D01*
X187465000Y-114827172D01*
X187464999Y-114827155D01*
X187458598Y-114767627D01*
X187458596Y-114767620D01*
X187408354Y-114632913D01*
X187408350Y-114632906D01*
X187322190Y-114517812D01*
X187322187Y-114517809D01*
X187207093Y-114431649D01*
X187207086Y-114431645D01*
X187072379Y-114381403D01*
X187072372Y-114381401D01*
X187012844Y-114375000D01*
X186365000Y-114375000D01*
X186365000Y-115291988D01*
X186307993Y-115259075D01*
X186180826Y-115225000D01*
X186049174Y-115225000D01*
X185922007Y-115259075D01*
X185865000Y-115291988D01*
X185865000Y-114375000D01*
X185217155Y-114375000D01*
X185157627Y-114381401D01*
X185157620Y-114381403D01*
X185022913Y-114431645D01*
X185022906Y-114431649D01*
X184907812Y-114517809D01*
X184907809Y-114517812D01*
X184821649Y-114632906D01*
X184821645Y-114632913D01*
X184771403Y-114767620D01*
X184771401Y-114767627D01*
X184765000Y-114827155D01*
X184765000Y-115475000D01*
X185681988Y-115475000D01*
X185649075Y-115532007D01*
X185615000Y-115659174D01*
X185615000Y-115790826D01*
X185649075Y-115917993D01*
X185681988Y-115975000D01*
X184765000Y-115975000D01*
X184765000Y-116622844D01*
X184771401Y-116682372D01*
X184771403Y-116682379D01*
X184821645Y-116817086D01*
X184821649Y-116817093D01*
X184907809Y-116932187D01*
X184907812Y-116932190D01*
X185022906Y-117018350D01*
X185022913Y-117018354D01*
X185154470Y-117067422D01*
X185210404Y-117109293D01*
X185234821Y-117174758D01*
X185219969Y-117243031D01*
X185198819Y-117271285D01*
X185084889Y-117385215D01*
X184959951Y-117557179D01*
X184863444Y-117746585D01*
X184797753Y-117948760D01*
X184764500Y-118158713D01*
X155675500Y-118158713D01*
X155675500Y-115211162D01*
X155695185Y-115144123D01*
X155711814Y-115123486D01*
X160023330Y-110811969D01*
X160084651Y-110778486D01*
X160130407Y-110777179D01*
X160277648Y-110800500D01*
X160277649Y-110800500D01*
X160482351Y-110800500D01*
X160482352Y-110800500D01*
X160684534Y-110768477D01*
X160879219Y-110705220D01*
X161061610Y-110612287D01*
X161190482Y-110518657D01*
X161227213Y-110491971D01*
X161227215Y-110491968D01*
X161227219Y-110491966D01*
X161371966Y-110347219D01*
X161371968Y-110347215D01*
X161371971Y-110347213D01*
X161439120Y-110254789D01*
X161492287Y-110181610D01*
X161585220Y-109999219D01*
X161648477Y-109804534D01*
X161680500Y-109602352D01*
X161680500Y-109397648D01*
X161648477Y-109195466D01*
X161627567Y-109131113D01*
X161616798Y-109097968D01*
X161585220Y-109000781D01*
X161585218Y-109000778D01*
X161585218Y-109000776D01*
X161560940Y-108953129D01*
X161533860Y-108899983D01*
X166699500Y-108899983D01*
X166699500Y-110100001D01*
X166699501Y-110100018D01*
X166710000Y-110202796D01*
X166710001Y-110202799D01*
X166757641Y-110346564D01*
X166765186Y-110369334D01*
X166857288Y-110518656D01*
X166981344Y-110642712D01*
X167130666Y-110734814D01*
X167297203Y-110789999D01*
X167399991Y-110800500D01*
X168600008Y-110800499D01*
X168702797Y-110789999D01*
X168869334Y-110734814D01*
X169018656Y-110642712D01*
X169142712Y-110518656D01*
X169234814Y-110369334D01*
X169289999Y-110202797D01*
X169300500Y-110100009D01*
X169300499Y-108899992D01*
X169297590Y-108871519D01*
X169289999Y-108797203D01*
X169289998Y-108797200D01*
X169261056Y-108709860D01*
X169234814Y-108630666D01*
X169142712Y-108481344D01*
X169018656Y-108357288D01*
X168869334Y-108265186D01*
X168702797Y-108210001D01*
X168702795Y-108210000D01*
X168600010Y-108199500D01*
X167399998Y-108199500D01*
X167399981Y-108199501D01*
X167297203Y-108210000D01*
X167297200Y-108210001D01*
X167130668Y-108265185D01*
X167130663Y-108265187D01*
X166981342Y-108357289D01*
X166857289Y-108481342D01*
X166765187Y-108630663D01*
X166765186Y-108630666D01*
X166710001Y-108797203D01*
X166710001Y-108797204D01*
X166710000Y-108797204D01*
X166699500Y-108899983D01*
X161533860Y-108899983D01*
X161533145Y-108898579D01*
X161492287Y-108818390D01*
X161492285Y-108818387D01*
X161492284Y-108818385D01*
X161371971Y-108652786D01*
X161227213Y-108508028D01*
X161061613Y-108387715D01*
X161061612Y-108387714D01*
X161061610Y-108387713D01*
X161001898Y-108357288D01*
X160879223Y-108294781D01*
X160684534Y-108231522D01*
X160500131Y-108202316D01*
X160482352Y-108199500D01*
X160277648Y-108199500D01*
X160259869Y-108202316D01*
X160075465Y-108231522D01*
X159880776Y-108294781D01*
X159698386Y-108387715D01*
X159532786Y-108508028D01*
X159388028Y-108652786D01*
X159267715Y-108818386D01*
X159174781Y-109000776D01*
X159111522Y-109195465D01*
X159079500Y-109397648D01*
X159079500Y-109602351D01*
X159102820Y-109749590D01*
X159093865Y-109818884D01*
X159068028Y-109856669D01*
X154475307Y-114449390D01*
X154475304Y-114449394D01*
X154401383Y-114560024D01*
X154401378Y-114560034D01*
X154350459Y-114682963D01*
X154350457Y-114682971D01*
X154324500Y-114813464D01*
X154324500Y-118303836D01*
X154304815Y-118370875D01*
X154288181Y-118391517D01*
X153196681Y-119483017D01*
X153135358Y-119516502D01*
X153065666Y-119511518D01*
X153009733Y-119469646D01*
X152985316Y-119404182D01*
X152985000Y-119395336D01*
X152985000Y-119353753D01*
X152951757Y-119143872D01*
X152951757Y-119143869D01*
X152886095Y-118941782D01*
X152789624Y-118752449D01*
X152750270Y-118698282D01*
X152750269Y-118698282D01*
X152117962Y-119330590D01*
X152100925Y-119267007D01*
X152035099Y-119152993D01*
X151942007Y-119059901D01*
X151827993Y-118994075D01*
X151764409Y-118977037D01*
X152396716Y-118344728D01*
X152342550Y-118305375D01*
X152153217Y-118208904D01*
X151951129Y-118143242D01*
X151741246Y-118110000D01*
X151528754Y-118110000D01*
X151318872Y-118143242D01*
X151318869Y-118143242D01*
X151116782Y-118208904D01*
X150927439Y-118305380D01*
X150873282Y-118344727D01*
X150873282Y-118344728D01*
X151505591Y-118977037D01*
X151442007Y-118994075D01*
X151327993Y-119059901D01*
X151234901Y-119152993D01*
X151169075Y-119267007D01*
X151152037Y-119330591D01*
X150519728Y-118698282D01*
X150519727Y-118698282D01*
X150480380Y-118752439D01*
X150383904Y-118941782D01*
X150318242Y-119143869D01*
X150318242Y-119143872D01*
X150285000Y-119353753D01*
X150285000Y-119566246D01*
X150318242Y-119776127D01*
X150318242Y-119776130D01*
X150383904Y-119978217D01*
X150480375Y-120167550D01*
X150519728Y-120221716D01*
X151152037Y-119589408D01*
X151169075Y-119652993D01*
X151234901Y-119767007D01*
X151327993Y-119860099D01*
X151442007Y-119925925D01*
X151505590Y-119942962D01*
X150835370Y-120613181D01*
X150774047Y-120646666D01*
X150747698Y-120649500D01*
X150737134Y-120649500D01*
X150737123Y-120649501D01*
X150677516Y-120655908D01*
X150542671Y-120706202D01*
X150542664Y-120706206D01*
X150427455Y-120792452D01*
X150427452Y-120792455D01*
X150341206Y-120907664D01*
X150341202Y-120907671D01*
X150290908Y-121042517D01*
X150284501Y-121102116D01*
X150284500Y-121102135D01*
X146500500Y-121102135D01*
X146500500Y-114602135D01*
X150399500Y-114602135D01*
X150399500Y-116397870D01*
X150399501Y-116397876D01*
X150405908Y-116457483D01*
X150456202Y-116592328D01*
X150456206Y-116592335D01*
X150542452Y-116707544D01*
X150542455Y-116707547D01*
X150657664Y-116793793D01*
X150657671Y-116793797D01*
X150792517Y-116844091D01*
X150792516Y-116844091D01*
X150799444Y-116844835D01*
X150852127Y-116850500D01*
X152647872Y-116850499D01*
X152707483Y-116844091D01*
X152842331Y-116793796D01*
X152957546Y-116707546D01*
X153043796Y-116592331D01*
X153094091Y-116457483D01*
X153100500Y-116397873D01*
X153100499Y-114602128D01*
X153094091Y-114542517D01*
X153059358Y-114449394D01*
X153043797Y-114407671D01*
X153043793Y-114407664D01*
X152957547Y-114292455D01*
X152957544Y-114292452D01*
X152842335Y-114206206D01*
X152842328Y-114206202D01*
X152707482Y-114155908D01*
X152707483Y-114155908D01*
X152647883Y-114149501D01*
X152647881Y-114149500D01*
X152647873Y-114149500D01*
X152647865Y-114149500D01*
X152637309Y-114149500D01*
X152570270Y-114129815D01*
X152549628Y-114113181D01*
X151879408Y-113442962D01*
X151942993Y-113425925D01*
X152057007Y-113360099D01*
X152150099Y-113267007D01*
X152215925Y-113152993D01*
X152232962Y-113089409D01*
X152865270Y-113721717D01*
X152865270Y-113721716D01*
X152904622Y-113667554D01*
X153001095Y-113478217D01*
X153066757Y-113276130D01*
X153066757Y-113276127D01*
X153100000Y-113066246D01*
X153100000Y-112853753D01*
X153066757Y-112643872D01*
X153066757Y-112643869D01*
X153001095Y-112441782D01*
X152904624Y-112252449D01*
X152865270Y-112198282D01*
X152865269Y-112198282D01*
X152232962Y-112830590D01*
X152215925Y-112767007D01*
X152150099Y-112652993D01*
X152057007Y-112559901D01*
X151942993Y-112494075D01*
X151879409Y-112477037D01*
X152511716Y-111844728D01*
X152457550Y-111805375D01*
X152268217Y-111708904D01*
X152066129Y-111643242D01*
X151856246Y-111610000D01*
X151643754Y-111610000D01*
X151433872Y-111643242D01*
X151433869Y-111643242D01*
X151231782Y-111708904D01*
X151042439Y-111805380D01*
X150988282Y-111844727D01*
X150988282Y-111844728D01*
X151620591Y-112477037D01*
X151557007Y-112494075D01*
X151442993Y-112559901D01*
X151349901Y-112652993D01*
X151284075Y-112767007D01*
X151267037Y-112830591D01*
X150634728Y-112198282D01*
X150634727Y-112198282D01*
X150595380Y-112252439D01*
X150498904Y-112441782D01*
X150433242Y-112643869D01*
X150433242Y-112643872D01*
X150400000Y-112853753D01*
X150400000Y-113066246D01*
X150433242Y-113276127D01*
X150433242Y-113276130D01*
X150498904Y-113478217D01*
X150595375Y-113667550D01*
X150634728Y-113721716D01*
X151267037Y-113089408D01*
X151284075Y-113152993D01*
X151349901Y-113267007D01*
X151442993Y-113360099D01*
X151557007Y-113425925D01*
X151620590Y-113442962D01*
X150950370Y-114113181D01*
X150889047Y-114146666D01*
X150862698Y-114149500D01*
X150852134Y-114149500D01*
X150852123Y-114149501D01*
X150792516Y-114155908D01*
X150657671Y-114206202D01*
X150657664Y-114206206D01*
X150542455Y-114292452D01*
X150542452Y-114292455D01*
X150456206Y-114407664D01*
X150456202Y-114407671D01*
X150405908Y-114542517D01*
X150399501Y-114602116D01*
X150399501Y-114602123D01*
X150399500Y-114602135D01*
X146500500Y-114602135D01*
X146500500Y-109003750D01*
X146500726Y-108996263D01*
X146501726Y-108979731D01*
X146525423Y-108914002D01*
X146580893Y-108871519D01*
X146650526Y-108865770D01*
X146712213Y-108898579D01*
X146746369Y-108959531D01*
X146749500Y-108987218D01*
X146749500Y-109131127D01*
X146770436Y-109290140D01*
X146783730Y-109391116D01*
X146848831Y-109634076D01*
X146851602Y-109644418D01*
X146851605Y-109644428D01*
X146951953Y-109886690D01*
X146951958Y-109886700D01*
X147083075Y-110113803D01*
X147242718Y-110321851D01*
X147242726Y-110321860D01*
X147428140Y-110507274D01*
X147428148Y-110507281D01*
X147636196Y-110666924D01*
X147863299Y-110798041D01*
X147863309Y-110798046D01*
X148105571Y-110898394D01*
X148105581Y-110898398D01*
X148358884Y-110966270D01*
X148618880Y-111000500D01*
X148618887Y-111000500D01*
X148881113Y-111000500D01*
X148881120Y-111000500D01*
X149141116Y-110966270D01*
X149394419Y-110898398D01*
X149603072Y-110811971D01*
X149636690Y-110798046D01*
X149636691Y-110798045D01*
X149636697Y-110798043D01*
X149863803Y-110666924D01*
X150071851Y-110507282D01*
X150071855Y-110507277D01*
X150071860Y-110507274D01*
X150257274Y-110321860D01*
X150257277Y-110321855D01*
X150257282Y-110321851D01*
X150416924Y-110113803D01*
X150548043Y-109886697D01*
X150648398Y-109644419D01*
X150716270Y-109391116D01*
X150750500Y-109131120D01*
X150750500Y-108868880D01*
X150716270Y-108608884D01*
X150648398Y-108355581D01*
X150623214Y-108294781D01*
X150548046Y-108113309D01*
X150548041Y-108113299D01*
X150416924Y-107886196D01*
X150257281Y-107678148D01*
X150257274Y-107678140D01*
X150071860Y-107492726D01*
X150071851Y-107492718D01*
X149863803Y-107333075D01*
X149687672Y-107231387D01*
X149639457Y-107180820D01*
X149626233Y-107112213D01*
X149652201Y-107047349D01*
X149709115Y-107006820D01*
X149749672Y-107000000D01*
X168331794Y-107000000D01*
X168333372Y-107000009D01*
G37*
%TD.AperFunction*%
%TD*%
M02*
